<svg width="109" height="109" viewBox="0 0 109 109" fill="none" xmlns="http://www.w3.org/2000/svg">
<path d="M62.9473 92.5C43.7502 112.332 53.5553 91.8861 26.4341 86.5C-0.218596 70.4386 7.23704 55.7414 26.4341 35.9093C45.6311 16.0771 49.9334 28.0517 89.4873 27.3879C105.114 42.5138 82.1443 72.6679 62.9473 92.5Z" fill="#E1CC7F" fill-opacity="0.47"/>
<path d="M20.1419 47.6888C20.1442 47.559 20.149 47.4291 20.149 47.2993C20.149 40.6796 20.149 34.0599 20.149 27.4401C20.149 27.0038 20.149 27.0038 20.5465 27.0038C28.1969 27.0038 35.8496 27.0038 43.4999 27.0038C43.6348 27.0038 43.7744 26.9779 43.8998 27.061C44.0489 27.344 44.2003 27.6245 44.3423 27.9102C44.9292 29.0814 45.2321 30.3514 45.3764 31.6706C43.0929 31.6706 40.807 31.6758 38.5235 31.668C38.2821 31.668 38.2112 31.7407 38.2183 32.0056C38.2348 32.6055 38.223 33.2028 38.223 33.8028C38.223 34.1923 38.223 34.1923 38.5779 34.1923C40.8259 34.1949 43.074 34.1949 45.322 34.1975C45.2439 34.4286 45.2865 34.6935 45.1587 34.9117C43.63 34.9117 42.1014 34.9117 40.5728 34.9091C39.8723 34.9091 39.1719 34.9065 38.4715 34.9117C38.3886 34.9117 38.2869 34.8753 38.2348 35C38.0976 35.3324 38.2585 35.6284 38.5803 35.6284C41.7914 35.6284 45.0049 35.631 48.216 35.631C48.2065 35.6778 48.1994 35.7271 48.19 35.7739C47.5534 35.7687 46.9169 35.7557 46.2803 35.7557C43.6987 35.7531 41.1146 35.7557 38.533 35.7557C38.436 35.7557 38.2987 35.7037 38.2537 35.8128C38.1804 35.9868 38.1993 36.1894 38.2372 36.3712C38.275 36.5478 38.436 36.4699 38.5424 36.4699C41.7157 36.4725 44.8889 36.4725 48.0622 36.4725C48.0054 37.4307 48.0125 38.3838 48.2562 39.3187C48.7981 41.4015 49.9647 42.9156 51.7087 43.9076C51.7087 45.0217 51.7087 46.1384 51.7111 47.2525C51.3301 47.2577 50.9467 47.2629 50.5658 47.2655C49.7446 47.2681 49.3921 47.6551 49.3921 48.5614C49.3921 56.5887 49.3921 64.616 49.3921 72.6433C49.3921 72.7731 49.3826 72.9004 49.3755 73.0302C49.2217 73.0302 49.0679 73.0302 48.9141 73.0328C48.9046 72.9549 48.8975 72.877 48.888 72.7991C48.9803 72.1602 48.746 71.6772 48.287 71.3032C47.8587 70.9552 47.3736 70.7319 46.8648 70.5761C45.5704 70.1787 44.2548 70.1216 42.9296 70.3475C42.241 70.4644 41.5595 70.6358 40.9514 71.0461C40.684 70.8592 40.497 70.5683 40.2462 70.3605C39.8392 69.7788 39.2949 69.7269 38.7033 69.8879C37.8373 70.1216 37.1155 70.6514 36.4293 71.2513C35.8306 71.7759 35.3384 72.4147 34.8415 73.0484C34.7232 73.0432 34.6049 73.0354 34.4866 73.0354C33.0762 73.0328 31.6659 73.0302 30.2556 73.0276C30.2603 72.1317 30.045 71.3318 29.4983 70.6384C29.0913 70.1216 28.7316 69.5581 28.3507 69.0153C30.9867 69.0153 33.6228 69.0153 36.2613 69.0127C36.3347 69.0127 36.408 69.0075 36.479 69.0127C36.6423 69.0283 36.7085 68.9556 36.7038 68.7738C36.6943 68.4647 36.6872 68.1531 36.7062 67.8466C36.7227 67.5818 36.6423 67.509 36.4009 67.509C34.1008 67.5194 31.8008 67.5142 29.5007 67.5142C28.7648 67.5142 28.0288 67.5194 27.2929 67.5246C27.0657 67.2623 26.8693 66.9767 26.6848 66.678C27.4396 66.6728 28.1945 66.6624 28.947 66.6702C29.1434 66.6728 29.212 66.6287 29.212 66.3923C29.2025 64.6861 29.2025 62.9799 29.212 61.2737C29.212 61.0607 29.1505 61.0062 28.9635 61.0088C27.3189 61.0166 25.672 61.0166 24.0274 61.0088C23.8381 61.0088 23.8049 61.0815 23.8073 61.2659C23.8144 61.7256 23.8049 62.1826 23.8026 62.6423C23.3506 62.019 22.8939 61.3983 22.4467 60.7699C21.6729 59.6869 20.9062 58.5988 20.1348 57.5132C20.1395 57.4639 20.1442 57.4146 20.1442 57.3652C20.1442 54.1398 20.1442 50.9143 20.1419 47.6888ZM43.6868 58.4637C42.1298 58.4637 40.5751 58.4689 39.0181 58.4585C38.7791 58.4559 38.7081 58.5261 38.7104 58.7936C38.7199 60.6504 38.7199 62.5072 38.7104 64.3667C38.7081 64.6264 38.7696 64.7069 39.0133 64.7069C42.1251 64.6991 45.2368 64.6991 48.3485 64.7069C48.5875 64.7069 48.6585 64.6394 48.6561 64.3719C48.6467 62.515 48.6467 60.6582 48.6561 58.7987C48.6585 58.5391 48.597 58.4585 48.3532 58.4585C46.7986 58.4689 45.2439 58.4637 43.6868 58.4637ZM30.2579 60.2635C32.3048 60.2635 34.3517 60.2609 36.3962 60.2686C36.6304 60.2686 36.7133 60.2089 36.7085 59.9362C36.6943 58.9494 36.6967 57.9599 36.7062 56.9731C36.7085 56.7471 36.6588 56.6614 36.434 56.6614C32.3143 56.6692 28.1945 56.6692 24.0747 56.6614C23.8428 56.6614 23.8049 56.7575 23.8073 56.9783C23.8144 57.9573 23.8215 58.9338 23.8049 59.9129C23.8002 60.2141 23.8925 60.2738 24.1457 60.2712C26.1831 60.2583 28.2205 60.2635 30.2579 60.2635ZM37.0327 34.1923C37.0351 32.564 35.8922 31.2967 34.4203 31.2915C32.9532 31.2863 31.7795 32.5614 31.7747 34.1663C31.7724 35.7765 32.9366 37.0646 34.3966 37.0672C35.8756 37.0698 37.0327 35.8076 37.0327 34.1923ZM25.2082 47.0162C25.2082 49.112 25.2129 51.2078 25.2034 53.3035C25.2034 53.5476 25.2579 53.6385 25.4898 53.623C25.7879 53.6022 26.0908 53.5944 26.389 53.6256C26.6729 53.6541 26.7321 53.5399 26.7321 53.2438C26.7226 49.7509 26.725 46.2579 26.725 42.765C26.725 42.0664 26.7203 41.3678 26.7274 40.6692C26.7297 40.477 26.6777 40.4043 26.4978 40.4121C26.1618 40.4251 25.8234 40.4329 25.4898 40.4095C25.2579 40.3939 25.2034 40.4848 25.2034 40.7289C25.2129 42.8247 25.2082 44.9205 25.2082 47.0162ZM29.1812 48.2965C29.1812 49.9534 29.1883 51.6103 29.1741 53.2672C29.1718 53.5632 29.2522 53.6463 29.5125 53.6256C29.8107 53.6022 30.1136 53.6022 30.4117 53.6256C30.6626 53.6463 30.7312 53.558 30.7312 53.2802C30.7217 50.4261 30.7265 47.572 30.7265 44.7179C30.7265 44.2193 30.7194 43.7206 30.7288 43.222C30.7336 43.0246 30.6673 42.9597 30.4898 42.9649C30.1538 42.9753 29.8154 42.9857 29.4818 42.9623C29.238 42.9467 29.1741 43.0376 29.1765 43.2999C29.186 44.962 29.1812 46.6293 29.1812 48.2965ZM35.6153 48.2758C35.6153 46.5981 35.6129 44.9205 35.62 43.2428C35.62 43.0454 35.5893 42.9571 35.3858 42.9675C35.0308 42.9857 34.6759 42.9857 34.3209 42.9675C34.1221 42.9571 34.0843 43.0402 34.0843 43.2402C34.089 46.6163 34.089 49.9924 34.0843 53.3685C34.0843 53.558 34.1198 53.6333 34.3067 53.6256C34.6617 53.61 35.0166 53.6048 35.3716 53.6256C35.5869 53.6385 35.6224 53.5528 35.62 53.3399C35.6106 51.6518 35.6153 49.9638 35.6153 48.2758ZM37.9532 48.9614C37.9532 50.4183 37.958 51.8752 37.9485 53.3321C37.9485 53.5476 37.9887 53.6359 38.2017 53.623C38.5543 53.6022 38.9116 53.61 39.2642 53.6204C39.4275 53.6256 39.4842 53.571 39.4842 53.384C39.4795 50.4416 39.4795 47.4967 39.4842 44.5543C39.4842 44.3595 39.4156 44.3205 39.2594 44.3257C38.914 44.3361 38.5685 44.3413 38.223 44.3231C38.01 44.3128 37.9461 44.3803 37.9461 44.6218C37.958 46.0683 37.9532 47.5148 37.9532 48.9614ZM27.1154 49.473C27.1154 50.7715 27.1178 52.07 27.1131 53.3685C27.1131 53.5554 27.1486 53.6333 27.3355 53.623C27.6999 53.6074 28.0643 53.61 28.4264 53.6204C28.5849 53.6256 28.6488 53.5892 28.6464 53.3944C28.6393 50.787 28.6417 48.1823 28.6464 45.5749C28.6464 45.3853 28.5849 45.3386 28.424 45.3438C28.0785 45.3542 27.7331 45.3593 27.3876 45.3412C27.177 45.3308 27.1083 45.3931 27.1107 45.6372C27.1202 46.9175 27.1154 48.1953 27.1154 49.473ZM35.956 50.1949C35.956 51.2415 35.9608 52.2907 35.9513 53.3373C35.9489 53.558 36.0034 53.6359 36.2116 53.623C36.5642 53.6048 36.9215 53.61 37.2741 53.6204C37.435 53.6256 37.4989 53.5762 37.4989 53.3866C37.4942 51.2519 37.4942 49.1172 37.4989 46.9825C37.4989 46.8033 37.4516 46.7331 37.2812 46.7383C36.9357 46.7487 36.5902 46.7539 36.2447 46.7357C36.0223 46.7228 35.9466 46.7955 35.9513 47.05C35.9631 48.0992 35.956 49.1457 35.956 50.1949ZM43.6845 57.5106C45.1776 57.5106 46.6684 57.5132 48.1616 57.508C48.7153 57.5055 48.6396 57.5963 48.6585 56.9653C48.6656 56.729 48.5993 56.6588 48.3816 56.6588C45.251 56.6666 42.1203 56.6666 38.9897 56.6588C38.772 56.6588 38.6868 56.729 38.7152 56.9653C38.7223 57.025 38.7223 57.0873 38.7152 57.1445C38.675 57.4301 38.7767 57.5184 39.0441 57.5158C40.5893 57.5029 42.1369 57.5106 43.6845 57.5106ZM23.8073 45.6476C23.8073 48.6341 23.812 51.6207 23.8002 54.6046C23.8002 54.8773 23.8617 54.9448 24.1102 54.9448C29.5149 54.937 34.9196 54.9396 40.3267 54.9396C40.3905 54.9396 40.4544 54.937 40.5183 54.9396C40.5964 54.9422 40.6319 54.9085 40.6295 54.815C40.6272 54.7241 40.587 54.6929 40.5112 54.6955C40.4379 54.6981 40.3645 54.6955 40.2935 54.6955C34.9693 54.6955 29.6474 54.6929 24.3232 54.7033C24.0676 54.7033 24.0155 54.6254 24.0155 54.3579C24.0226 48.4757 24.0203 42.5936 24.0203 36.7114C24.0203 36.6205 24.0203 36.5322 24.0132 36.4413C24.0061 36.3608 23.9469 36.3582 23.8925 36.3582C23.8357 36.3582 23.812 36.3945 23.8097 36.4517C23.8073 36.5322 23.8073 36.6101 23.8073 36.6906C23.8073 39.6771 23.8073 42.6611 23.8073 45.6476ZM41.1833 52.8127C41.1833 53.101 41.1904 53.3892 41.1809 53.6775C41.1762 53.8463 41.2306 53.9034 41.3844 53.9008C41.9097 53.893 42.4374 53.893 42.9627 53.9008C43.1095 53.9034 43.1804 53.8593 43.1781 53.6827C43.1733 53.0958 43.1733 52.5088 43.1781 51.9219C43.1781 51.7687 43.126 51.709 42.9864 51.709C42.4516 51.7142 41.9168 51.7142 41.382 51.709C41.2235 51.7064 41.1785 51.7843 41.1833 51.9453C41.188 52.2362 41.1833 52.5244 41.1833 52.8127ZM42.1795 48.216C41.9074 48.216 41.6352 48.2238 41.3631 48.2134C41.2164 48.2082 41.1809 48.268 41.1809 48.4186C41.188 49.0055 41.188 49.595 41.1809 50.1819C41.1785 50.3404 41.2282 50.3871 41.3678 50.3845C41.9026 50.3767 42.4398 50.3793 42.9746 50.3845C43.1071 50.3871 43.1733 50.3585 43.171 50.1897C43.1639 49.5924 43.1639 48.9925 43.171 48.3952C43.1733 48.2498 43.126 48.2056 42.9982 48.2108C42.7261 48.2212 42.454 48.216 42.1795 48.216ZM42.1677 46.8968C42.4398 46.8968 42.7143 46.889 42.9864 46.8994C43.1284 46.9045 43.1781 46.85 43.1757 46.6942C43.171 46.1047 43.171 45.5178 43.1757 44.9282C43.1781 44.7672 43.1142 44.7257 42.9793 44.7283C42.4422 44.7335 41.9074 44.7335 41.3702 44.7283C41.2282 44.7257 41.1809 44.7828 41.1809 44.936C41.1856 45.5255 41.188 46.1125 41.1809 46.702C41.1785 46.8682 41.2448 46.902 41.3773 46.8994C41.6423 46.8916 41.905 46.8968 42.1677 46.8968ZM46.3868 53.61C46.95 53.61 47.5156 53.61 48.0788 53.61C48.6585 53.61 48.6467 53.61 48.6609 52.9815C48.6656 52.7166 48.5946 52.6413 48.3532 52.6439C47.144 52.6569 45.9349 52.6491 44.7257 52.6491C44.1057 52.6491 44.1128 52.6491 44.1175 53.3373C44.1199 53.545 44.1767 53.6152 44.3683 53.6126C45.0404 53.6022 45.7148 53.61 46.3868 53.61ZM46.3939 46.6007C46.9666 46.6007 47.5369 46.6007 48.1095 46.6007C48.6585 46.6007 48.6443 46.6007 48.6609 46.0008C48.668 45.6995 48.5615 45.6346 48.3106 45.6372C47.1133 45.6476 45.9136 45.6424 44.7162 45.6424C44.1128 45.6424 44.1246 45.6424 44.1175 46.3098C44.1151 46.5617 44.2051 46.6085 44.4062 46.6033C45.0664 46.5929 45.7313 46.6007 46.3939 46.6007ZM46.3916 49.1717C45.8094 49.1717 45.2297 49.1665 44.6476 49.1743C44.0394 49.1821 44.1388 49.0704 44.1175 49.7638C44.1104 50.0131 44.1838 50.0859 44.4109 50.0859C45.6367 50.0755 46.8625 50.0859 48.0882 50.0781C48.7413 50.0729 48.6396 50.2105 48.6585 49.4418C48.6632 49.2315 48.597 49.1665 48.4077 49.1691C47.7356 49.1769 47.0636 49.1717 46.3916 49.1717ZM46.3892 48.216C45.7172 48.216 45.0427 48.2264 44.3707 48.2108C44.1199 48.203 44.1175 48.3459 44.1175 48.5433C44.1199 48.7354 44.1104 48.8835 44.366 48.8809C45.7124 48.8679 47.0589 48.8679 48.4029 48.8809C48.6538 48.8835 48.6561 48.7458 48.6538 48.5484C48.6514 48.3563 48.6632 48.203 48.4053 48.2108C47.7356 48.2264 47.0636 48.216 46.3892 48.216ZM46.3939 52.353C47.0589 52.353 47.7214 52.3426 48.3864 52.3582C48.6112 52.3634 48.6656 52.2725 48.6609 52.0466C48.6561 51.8284 48.6348 51.6908 48.384 51.6934C47.047 51.7038 45.7101 51.7038 44.3731 51.6934C44.1222 51.6908 44.1222 51.831 44.1199 52.0284C44.1199 52.231 44.127 52.366 44.3754 52.3608C45.0475 52.3426 45.7195 52.353 46.3939 52.353ZM46.3916 44.7361C45.7101 44.7361 45.0262 44.7439 44.3447 44.7309C44.0962 44.7257 44.1222 44.8919 44.1222 45.0633C44.1222 45.2373 44.1009 45.3957 44.347 45.3957C45.703 45.3853 47.0565 45.3879 48.4124 45.3957C48.6656 45.3983 48.6514 45.2321 48.6585 45.0399C48.6656 44.8399 48.6372 44.7257 48.4124 44.7309C47.738 44.7465 47.0636 44.7361 46.3916 44.7361ZM33.3105 61.4035C34.3659 61.4035 35.4213 61.4035 36.4766 61.4035C36.5973 61.4035 36.744 61.4451 36.7464 61.2191C36.7488 60.9984 36.6233 60.988 36.4743 60.988C34.3824 60.988 32.2906 60.988 30.1964 60.988C30.0473 60.988 29.9219 61.001 29.9266 61.2217C29.9314 61.4503 30.0804 61.4035 30.1988 61.4035C31.2376 61.4035 32.274 61.4035 33.3105 61.4035ZM45.2557 67.335C46.2922 67.335 47.3286 67.335 48.3674 67.3325C48.4929 67.3325 48.6561 67.3896 48.6561 67.1377C48.6538 66.9117 48.5189 66.9169 48.3769 66.9169C46.2945 66.9169 44.2098 66.9169 42.1274 66.9169C41.9902 66.9169 41.8458 66.8988 41.8387 67.1273C41.8316 67.374 41.9878 67.3299 42.1203 67.3299C43.1639 67.3376 44.2098 67.335 45.2557 67.335ZM45.2415 66.0755C44.1956 66.0755 43.1497 66.0755 42.1038 66.0755C41.9831 66.0755 41.8364 66.0314 41.834 66.2599C41.8316 66.4832 41.9618 66.4884 42.1085 66.4884C44.2003 66.4884 46.2922 66.4884 48.384 66.4884C48.5331 66.4884 48.6561 66.4728 48.6514 66.2547C48.6467 66.0236 48.4952 66.0781 48.3769 66.0755C47.3334 66.0729 46.2874 66.0755 45.2415 66.0755ZM45.2486 65.5951C46.2945 65.5951 47.3405 65.5951 48.3864 65.5951C48.5071 65.5951 48.6538 65.6392 48.6538 65.4107C48.6538 65.1873 48.526 65.1821 48.3793 65.1821C46.2874 65.1821 44.1956 65.1821 42.1038 65.1821C41.9523 65.1821 41.8316 65.1977 41.8364 65.4159C41.8411 65.647 41.9949 65.5925 42.1109 65.5925C43.1568 65.5951 44.2027 65.5951 45.2486 65.5951ZM33.3199 62.2969C34.3659 62.2969 35.4118 62.2969 36.4577 62.2969C36.595 62.2969 36.7464 62.3177 36.744 62.0865C36.7417 61.8528 36.5855 61.884 36.453 61.884C34.3706 61.884 32.2859 61.884 30.2035 61.884C30.0686 61.884 29.9243 61.8502 29.9266 62.0943C29.929 62.341 30.0804 62.2969 30.2106 62.2969C31.247 62.2969 32.2835 62.2969 33.3199 62.2969ZM33.3365 64.5173C32.2906 64.5173 31.2447 64.5173 30.1988 64.5199C30.0804 64.5199 29.9314 64.4706 29.9266 64.7017C29.9243 64.9224 30.0497 64.9328 30.1988 64.9328C32.2906 64.9328 34.3824 64.9328 36.4743 64.9328C36.6233 64.9328 36.7488 64.9224 36.7464 64.7017C36.744 64.4706 36.5926 64.5199 36.4743 64.5199C35.4284 64.5147 34.3824 64.5173 33.3365 64.5173ZM33.3105 65.7743C34.3659 65.7743 35.4213 65.7743 36.4766 65.7743C36.595 65.7743 36.744 65.821 36.7464 65.5925C36.7488 65.3717 36.6233 65.3613 36.4743 65.3613C34.3824 65.3613 32.2906 65.3613 30.1988 65.3613C30.0497 65.3613 29.9243 65.3717 29.929 65.5925C29.9337 65.8236 30.0828 65.7717 30.2011 65.7743C31.2376 65.7769 32.274 65.7743 33.3105 65.7743ZM33.3128 66.2573C32.2669 66.2573 31.221 66.2625 30.1751 66.2521C29.955 66.2495 29.8959 66.3534 29.9385 66.5585C29.974 66.7299 30.1159 66.6676 30.213 66.6676C32.2859 66.6702 34.3611 66.6702 36.434 66.6702C36.4885 66.6702 36.5429 66.6702 36.5973 66.665C36.7156 66.6546 36.744 66.5689 36.744 66.4573C36.744 66.3404 36.6991 66.2651 36.5855 66.2599C36.5121 66.2573 36.4411 66.2573 36.3678 66.2573C35.3503 66.2573 34.3304 66.2573 33.3128 66.2573ZM33.2845 64.0369C34.3304 64.0369 35.3763 64.0369 36.4222 64.0369C36.5524 64.0369 36.7038 64.081 36.7062 63.8343C36.7085 63.5954 36.5666 63.6214 36.4293 63.6214C34.3564 63.6214 32.2811 63.6214 30.2082 63.6214C30.0781 63.6214 29.929 63.5772 29.9266 63.8239C29.9243 64.0654 30.0639 64.0369 30.2011 64.0369C31.2281 64.0369 32.2575 64.0369 33.2845 64.0369ZM33.3436 62.7747C33.1614 62.7747 32.9792 62.7747 32.7994 62.7747C31.9191 62.7747 31.0364 62.7721 30.1562 62.7773C29.9621 62.7773 29.8675 62.9202 29.9503 63.0682C30.0166 63.1877 30.1301 63.1383 30.2248 63.1383C32.2882 63.1409 34.3493 63.1409 36.4127 63.1383C36.5358 63.1383 36.7109 63.2032 36.7038 62.9513C36.6967 62.6994 36.5169 62.7799 36.3985 62.7799C35.3787 62.7721 34.3611 62.7747 33.3436 62.7747Z" fill="#F2F2F2"/>
<path d="M49.3789 73.0302C49.3836 72.9004 49.3955 72.7731 49.3955 72.6433C49.3955 64.616 49.3955 56.5887 49.3955 48.5614C49.3955 47.6551 49.7481 47.2681 50.5692 47.2655C50.9501 47.2655 51.3335 47.2577 51.7145 47.2525C51.7949 47.2577 51.8777 47.2655 51.9582 47.2655C56.2815 47.2655 60.6048 47.2655 64.9304 47.2655C65.0038 47.2655 65.0748 47.2577 65.1481 47.2551C66.7052 47.2603 68.2598 47.2629 69.8169 47.2655C70.5812 47.2681 70.948 47.6707 70.948 48.5173C70.948 57.9547 70.948 67.3922 70.948 76.8322C70.948 77.6425 70.5647 78.0606 69.8169 78.0606C64.7293 78.0606 59.6417 78.0606 54.5564 78.0606C54.4476 78.0606 54.3387 78.0658 54.2299 78.0684C52.9757 78.0658 51.7239 78.0632 50.4698 78.058C49.8025 78.0554 49.4073 77.6139 49.4026 76.8816C49.4002 76.5336 49.4049 76.183 49.4026 75.835C49.3931 74.9027 49.386 73.9652 49.3789 73.0302ZM60.1765 56.5368C62.8599 56.5394 65.5409 56.5472 68.2243 56.542C68.7402 56.542 69.1401 56.0667 69.1425 55.4902C69.1449 53.8541 69.1449 52.2154 69.1425 50.5793C69.1425 49.9534 68.7497 49.5067 68.1723 49.486C67.8552 49.473 67.5357 49.4886 67.2187 49.4911C66.8235 49.4937 66.4259 49.4963 66.0308 49.4963C65.6805 49.4937 65.3303 49.4937 64.9777 49.4911C64.2726 49.4911 63.5674 49.4937 62.8623 49.4937C62.5807 49.4886 62.2991 49.4808 62.0175 49.4808C58.7685 49.4808 55.5195 49.4808 52.2729 49.4808C51.6317 49.4808 51.201 49.8963 51.1962 50.5585C51.1844 52.205 51.1844 53.8541 51.1962 55.5006C51.201 56.0849 51.6127 56.5394 52.1333 56.5394C54.0903 56.5446 56.0449 56.5368 58.0018 56.5342C58.7259 56.5368 59.4524 56.5368 60.1765 56.5368ZM64.7127 70.9293C64.7127 72.1473 64.7104 73.3652 64.7127 74.5832C64.7151 75.2273 65.1197 75.6714 65.7089 75.674C66.5088 75.6766 67.311 75.6766 68.1108 75.674C68.7166 75.6714 69.1236 75.2325 69.1259 74.5703C69.1283 72.1654 69.1283 69.758 69.1259 67.3532C69.1259 66.691 68.7166 66.2521 68.1108 66.2495C67.3275 66.2469 66.5466 66.2469 65.7634 66.2495C65.0984 66.2495 64.7104 66.6728 64.7104 67.3974C64.7127 68.5712 64.7127 69.7502 64.7127 70.9293ZM57.6966 57.7963C55.8579 57.7963 54.0193 57.7937 52.1806 57.7963C51.5962 57.7963 51.1702 58.2586 51.1702 58.8793C51.1679 59.5051 51.5914 59.9674 52.1759 59.9674C55.8343 59.97 59.4926 59.9674 63.1509 59.9674C63.2693 59.9674 63.3852 59.9622 63.5012 59.9181C63.9508 59.7441 64.23 59.2273 64.1543 58.7053C64.0762 58.1729 63.6834 57.7963 63.1864 57.7963C61.3549 57.7937 59.5257 57.7963 57.6966 57.7963ZM66.9205 65.4834C67.3204 65.4834 67.7203 65.4886 68.1226 65.4834C68.726 65.473 69.1259 65.0263 69.1307 64.3641C69.133 63.6655 69.133 62.9669 69.1307 62.2657C69.1283 61.6061 68.7402 61.1412 68.1344 61.1256C67.3252 61.1049 66.5135 61.1023 65.7042 61.1256C65.0913 61.1438 64.7175 61.6035 64.7151 62.2683C64.7127 62.9773 64.7127 63.6863 64.7151 64.3953C64.7175 65.0263 65.115 65.4678 65.6924 65.4782C66.1018 65.4886 66.5111 65.4808 66.9205 65.4834ZM62.1571 65.4808C62.5759 65.4808 62.9948 65.4834 63.4112 65.4808C63.8963 65.4756 64.159 65.1925 64.159 64.6679C64.1614 63.7694 64.1614 62.8708 64.159 61.9723C64.1566 61.4555 63.8987 61.1282 63.4302 61.1179C62.5949 61.0997 61.7572 61.1023 60.9195 61.1179C60.4581 61.1256 60.1836 61.4607 60.1812 61.9645C60.1788 62.8734 60.1765 63.7824 60.1812 64.6887C60.1836 65.164 60.4652 65.473 60.8982 65.4782C61.3218 65.4834 61.7382 65.4808 62.1571 65.4808ZM59.5825 63.3149C59.5825 62.8371 59.5872 62.3566 59.5801 61.8788C59.573 61.4711 59.3553 61.188 58.9886 61.1568C58.0728 61.0763 57.157 61.0867 56.2413 61.1542C55.891 61.1802 55.6733 61.4087 55.6402 61.7957C55.555 62.7695 55.5976 63.7486 55.6142 64.7251C55.6237 65.2211 55.9147 65.4782 56.3643 65.4782C57.1996 65.4808 58.0373 65.4808 58.8726 65.4782C59.3104 65.4756 59.5778 65.177 59.5825 64.6913C59.5849 64.2316 59.5825 63.772 59.5825 63.3149ZM62.2352 70.5735C62.6611 70.5735 63.0894 70.5761 63.5154 70.5735C63.9413 70.5709 64.2158 70.2826 64.2182 69.81C64.2253 68.8828 64.2253 67.9557 64.2182 67.0286C64.2158 66.543 63.9413 66.2521 63.4988 66.2495C62.654 66.2469 61.8092 66.2469 60.9645 66.2495C60.5432 66.2495 60.2522 66.5326 60.2427 67C60.2285 67.9376 60.2285 68.8751 60.2427 69.8126C60.2498 70.2904 60.5409 70.5735 60.9787 70.5735C61.3975 70.5761 61.8163 70.5735 62.2352 70.5735ZM62.2233 71.3448C61.8045 71.3448 61.3857 71.3422 60.9668 71.3448C60.5432 71.3474 60.2522 71.6253 60.2427 72.0927C60.2262 73.0302 60.2285 73.9704 60.2427 74.9105C60.2498 75.3779 60.5409 75.6688 60.9597 75.6688C61.8163 75.6714 62.6706 75.6714 63.5272 75.6688C63.92 75.6662 64.2134 75.3753 64.2182 74.9494C64.23 73.9911 64.23 73.0328 64.2182 72.072C64.2134 71.6357 63.9318 71.35 63.5343 71.3474C63.0965 71.3422 62.6611 71.3448 62.2233 71.3448ZM53.1745 61.1516C52.7367 61.1516 52.3013 61.1464 51.8636 61.1516C51.44 61.1568 51.1773 61.4321 51.1726 61.897C51.1655 62.8345 51.1655 63.7746 51.1726 64.7121C51.1749 65.1769 51.4542 65.4756 51.8801 65.4782C52.7273 65.4834 53.572 65.4834 54.4192 65.4782C54.8451 65.4756 55.1386 65.1899 55.1456 64.7251C55.1622 63.7876 55.1598 62.8475 55.1456 61.9099C55.1386 61.4321 54.8451 61.1542 54.4026 61.1516C53.9933 61.149 53.5839 61.1516 53.1745 61.1516ZM53.2076 75.6688C53.6265 75.6688 54.0453 75.6688 54.4641 75.6688C54.9043 75.6662 55.1977 75.3857 55.2024 74.9079C55.2143 73.9703 55.2166 73.0302 55.2024 72.0927C55.1953 71.6253 54.9043 71.3474 54.4807 71.3448C53.6336 71.3422 52.7888 71.3422 51.9416 71.3448C51.537 71.3448 51.2365 71.6383 51.2317 72.0745C51.2199 73.0328 51.2199 73.9911 51.2317 74.9494C51.2365 75.3675 51.5417 75.6636 51.9274 75.6662C52.3534 75.6714 52.7793 75.6688 53.2076 75.6688ZM53.2289 66.2495C52.8006 66.2495 52.3747 66.2469 51.9464 66.2495C51.5181 66.2521 51.2294 66.5559 51.227 67.0338C51.2199 67.9531 51.2199 68.8699 51.227 69.7892C51.2294 70.267 51.5181 70.5709 51.9464 70.5735C52.7935 70.5761 53.6383 70.5761 54.4854 70.5735C54.9066 70.5735 55.1953 70.2852 55.2024 69.8204C55.2166 68.8829 55.2166 67.9427 55.2024 67.0052C55.1953 66.5378 54.9066 66.2521 54.4854 66.2495C54.0666 66.2495 53.6478 66.2495 53.2289 66.2495ZM57.6729 71.3448C57.2375 71.3448 56.7997 71.3422 56.3643 71.3448C55.9715 71.35 55.7041 71.6201 55.6994 72.046C55.6899 73.0147 55.6899 73.9807 55.6994 74.9494C55.7017 75.3805 55.9644 75.661 56.3548 75.6636C57.228 75.6688 58.1012 75.6688 58.972 75.6636C59.379 75.661 59.6346 75.3779 59.6369 74.9312C59.6417 73.9833 59.6417 73.0354 59.6369 72.0875C59.6346 71.6253 59.379 71.3474 58.9531 71.3422C58.5271 71.3422 58.0988 71.3448 57.6729 71.3448ZM57.6611 70.5735C58.0965 70.5735 58.5342 70.5787 58.9696 70.5709C59.3766 70.5657 59.6322 70.2852 59.6346 69.8385C59.6393 68.8906 59.6393 67.9427 59.6346 66.9948C59.6322 66.5326 59.3743 66.2521 58.9507 66.2495C58.0965 66.2469 57.2422 66.2469 56.388 66.2495C55.9597 66.2521 55.697 66.5222 55.6946 66.9844C55.6875 67.9324 55.6875 68.8803 55.6946 69.8282C55.697 70.2956 55.9549 70.5683 56.3785 70.5735C56.8068 70.5761 57.2351 70.5735 57.6611 70.5735ZM67.027 60.0479V60.0453C67.408 60.0453 67.7913 60.0453 68.1723 60.0453C68.2078 60.0453 68.2433 60.0323 68.2788 60.0245C68.8349 59.9155 69.1638 59.4298 69.1117 58.7884C69.0668 58.217 68.6621 57.8197 68.1179 57.8171C67.4174 57.8145 66.717 57.8145 66.0166 57.8171C65.4084 57.8171 65.0061 58.2404 64.999 58.8793C64.992 59.5675 65.38 60.0297 65.9882 60.0479C66.336 60.0557 66.6815 60.0479 67.027 60.0479Z" fill="#362F2D"/>
<path d="M51.7129 43.9076C49.9689 42.913 48.8023 41.3989 48.2604 39.3187C48.0167 38.3838 48.0096 37.4307 48.0664 36.4725C48.109 36.2387 48.1492 36.005 48.1918 35.7739C48.2012 35.7271 48.2083 35.6778 48.2178 35.631C48.2888 35.3895 48.3574 35.1506 48.4284 34.9091C48.6035 34.4364 48.8212 33.9845 49.046 33.5379C49.4767 32.8419 49.9997 32.2394 50.577 31.6888C50.7971 31.5304 51.0172 31.372 51.2372 31.2136C52.0394 30.7253 52.8866 30.3799 53.8047 30.2708C54.0035 30.2475 54.2046 30.2501 54.4034 30.2293C54.5809 30.2111 54.614 30.302 54.614 30.4734C54.6116 31.333 54.6187 32.19 54.6211 33.0496C54.6164 34.3975 54.6187 35.7453 54.6069 37.0905C54.6045 37.3191 54.6661 37.4801 54.8199 37.6333C56.313 39.1084 57.7967 40.5913 59.2875 42.069C59.4034 42.1858 59.465 42.2715 59.3254 42.4299C58.1209 43.7804 56.6585 44.5075 54.9429 44.6166C53.8094 44.6893 52.7351 44.4348 51.7129 43.9076Z" fill="#1A88E1"/>
<path d="M34.8462 73.0458C35.3431 72.4122 35.833 71.7733 36.434 71.2487C37.1203 70.6488 37.842 70.119 38.7081 69.8853C39.2996 69.7243 39.8439 69.7762 40.2509 70.3579C40.4662 71.1864 40.2698 71.9551 39.9338 72.6874C39.1387 74.4274 37.9461 75.7675 36.4175 76.7335C35.8093 77.1179 35.1586 77.4062 34.4226 77.2244C34.3919 77.2166 34.3493 77.2218 34.3375 77.3282C34.5007 77.497 34.6782 77.697 34.8722 77.8762C35.0544 78.045 35.2603 78.1697 35.5088 78.1801C35.8756 78.1982 36.2258 78.1125 36.5736 77.9853C37.1321 77.7827 37.6054 77.4113 38.107 77.0971C38.2253 77.388 38.32 77.6814 38.275 78.0087C38.152 78.1541 38.1023 78.3515 37.9698 78.4995C37.5675 78.9488 37.0635 79.1955 36.5334 79.3773C35.2343 79.8213 33.9091 79.8395 32.5769 79.611C31.8102 79.4811 31.0766 79.237 30.4046 78.7826C30.0686 78.554 29.8698 78.2034 29.6261 77.8918C29.5622 77.6191 29.6639 77.3672 29.6994 77.1049C29.858 76.8608 30.0213 76.6297 30.2555 76.4583C31.1595 75.8038 32.1723 75.5857 33.23 75.5441C33.7222 75.5259 33.7222 75.5389 33.8737 75.0403C33.902 74.9468 33.9375 74.8533 33.9683 74.7598C34.1718 74.1339 34.5362 73.6068 34.8462 73.0458Z" fill="#F1D353"/>
<path d="M59.1427 36.74C57.9051 36.7348 56.6675 36.7192 55.4322 36.7348C55.1459 36.7374 55.0868 36.6439 55.0891 36.3478C55.101 35.3298 55.0868 34.3118 55.082 33.2938C55.0868 32.1563 55.0891 31.0188 55.0939 29.8839C55.0962 29.5073 55.0939 29.5073 55.4441 29.5333C58.6789 29.7619 61.2132 32.3822 61.6107 35.9089C61.703 36.7348 61.703 36.7322 60.9434 36.7348C60.3424 36.7322 59.7437 36.7374 59.1427 36.74Z" fill="#3EF2FE"/>
<path d="M38.2755 78.0087C38.3229 77.6814 38.2258 77.388 38.1075 77.0971C38.2684 76.9387 38.4317 76.7803 38.5926 76.6193C38.718 76.492 38.8221 76.4972 38.9334 76.6479C39.0138 76.7543 39.1085 76.8634 39.2173 76.9231C39.5273 77.0893 39.6314 77.3386 39.5959 77.7152C39.5462 78.2346 39.764 78.6319 40.1355 78.9488C40.6419 79.3799 41.2216 79.6344 41.8345 79.798C43.046 80.1252 44.2742 80.1772 45.5047 79.972C46.3163 79.8369 47.1043 79.6058 47.8047 79.102C48.3017 78.7436 48.6069 78.2762 48.5478 77.5854C48.5265 77.3283 48.543 77.066 48.5407 76.8063C48.588 76.0921 48.2685 75.622 47.7195 75.3026C47.8686 75.1208 48.0816 75.0429 48.2543 74.9001C48.6543 74.5729 48.9287 74.1833 48.8814 73.5938C48.8672 73.4094 48.8388 73.2146 48.9122 73.0328C49.066 73.0328 49.2198 73.0328 49.3736 73.0302C49.3807 73.9652 49.3878 74.9027 49.3925 75.8376C49.3949 76.1856 49.3902 76.5362 49.3925 76.8842C49.3973 77.6165 49.7925 78.0554 50.4598 78.0606C51.7139 78.0658 52.9657 78.0684 54.2199 78.071C53.2284 78.7254 52.173 79.237 51.0939 79.6915C49.7522 80.2577 48.3703 80.6836 46.9552 80.9614C46.1365 81.1225 45.3083 81.2367 44.4753 81.3068C43.4294 81.3951 42.3835 81.3848 41.3423 81.3432C40.0929 81.2939 38.8529 81.0887 37.6295 80.79C37.3858 80.7303 37.1255 80.7251 36.9102 80.5615C36.9717 80.4654 37.0758 80.4472 37.1634 80.3979C37.71 80.0863 38.2045 79.7201 38.2566 78.9618C38.2874 78.6423 38.2732 78.3255 38.2755 78.0087Z" fill="#E1CC7F"/>
<path d="M16.3367 73.3315C16.2587 72.5238 16.7225 72.0823 17.2762 71.7343C18.0926 71.2201 18.9941 71.015 19.9217 70.9267C20.0022 70.9189 20.0826 70.9059 20.1631 70.8955C20.8517 70.8488 21.5403 70.8773 22.2218 70.989C23.0973 71.1344 23.9492 71.363 24.6852 71.9421C25.0259 72.2096 25.2933 72.542 25.3406 73.0277C25.3406 73.0484 25.343 73.0692 25.343 73.09C25.3383 73.1523 25.3335 73.212 25.3312 73.2744C25.1632 73.8847 24.7419 74.2378 24.2592 74.5157C23.2559 75.0948 22.1555 75.2481 21.0505 75.2922C20.0235 75.3338 19.0036 75.1857 18.0287 74.8066C17.3164 74.5339 16.6538 74.1625 16.3367 73.3315Z" fill="#F1D353"/>
<path d="M50.5773 31.6862C50 32.2368 49.477 32.8393 49.0463 33.5353C48.9115 33.5171 48.7837 33.5612 48.6535 33.5924C48.0193 33.7197 47.3923 33.8755 46.8078 34.1871C46.3227 34.3559 45.8565 34.5663 45.4448 34.9039C45.3501 34.8415 45.2626 35.1532 45.1632 34.9091C45.291 34.6909 45.2484 34.426 45.3265 34.1949C45.4164 33.3535 45.3714 32.5095 45.3809 31.668C45.2365 30.3488 44.9336 29.0814 44.3468 27.9076C44.2025 27.6219 44.051 27.3415 43.9043 27.0584C44.6047 27.1649 45.2507 27.4531 45.892 27.757C47.3165 28.4322 48.5802 29.3671 49.6663 30.5877C49.69 30.6163 49.7255 30.6318 49.7562 30.6552C49.7728 30.676 49.7894 30.6942 49.8059 30.7149L49.8036 30.7123C50.0591 31.037 50.3171 31.3616 50.5773 31.6862Z" fill="#D7D7D7"/>
<path d="M20.1561 63.4162C19.387 62.3307 18.618 61.2451 17.8466 60.1596C17.4348 59.5779 17.0231 58.9935 16.6113 58.4118C16.9639 58.1132 17.3236 57.8249 17.6667 57.5132C17.8371 57.3574 17.9317 57.3704 18.0714 57.5678C18.9658 58.8377 19.8721 60.0998 20.7737 61.362C21.0056 61.6866 21.0955 61.7126 21.4505 61.5645C21.5499 61.6139 21.583 61.723 21.6303 61.8191C22.016 62.5852 22.4017 63.3513 22.7898 64.1174C23.6204 65.7613 24.451 67.4078 25.2816 69.0517C25.8211 70.1216 26.3724 71.1864 26.8978 72.2667C27.0965 72.6745 27.3616 73.051 27.4728 73.5081C27.2787 73.3964 27.177 73.1809 27.0255 73.0199C26.7653 72.6485 26.5097 72.2745 26.2447 71.9058C25.5466 70.9345 24.8462 69.9658 24.1481 68.9971C24.0605 68.8205 23.9422 68.6699 23.8144 68.5271C23.3767 67.9064 22.9413 67.2831 22.4988 66.665C21.7179 65.5847 20.937 64.5017 20.1561 63.4162Z" fill="#DF4327"/>
<path d="M16.3369 73.3315C16.654 74.1625 17.3166 74.5313 18.0288 74.8092C19.0038 75.1883 20.0237 75.3338 21.0507 75.2948C22.1581 75.2507 23.2561 75.0948 24.2594 74.5183C24.7421 74.2404 25.1633 73.8872 25.3313 73.2769C25.3361 73.412 25.3408 73.5444 25.3479 73.6795C25.3455 73.908 25.3432 74.1391 25.3408 74.3677C25.3384 74.643 25.2651 74.8897 25.1136 75.1182C24.7942 75.6012 24.3399 75.8765 23.8548 76.0739C22.3119 76.705 20.7217 76.7621 19.115 76.4712C18.7837 76.4115 18.4595 76.3076 18.114 76.2193C18.1566 76.3362 18.2371 76.344 18.2986 76.3752C19.1268 76.7933 20.0095 76.9777 20.9063 77.0322C22.2102 77.1101 23.4998 76.988 24.7185 76.4011C25.2982 76.1232 25.7999 75.7545 26.0412 75.0715C26.0436 75.4506 26.0554 75.8298 26.0436 76.2089C26.0294 76.7283 25.7313 77.0659 25.3763 77.349C24.7753 77.8269 24.0796 78.0606 23.3626 78.2086C21.7748 78.5358 20.2035 78.4787 18.6654 77.8892C18.2513 77.7308 17.8632 77.5152 17.5296 77.1958C17.1983 76.8764 16.9924 76.492 17.0397 75.9908C17.061 75.7545 17.0019 75.5909 16.8197 75.4324C16.4836 75.1416 16.2967 74.7572 16.3251 74.2612C16.344 73.9522 16.3346 73.6405 16.3369 73.3315Z" fill="#F3BD31"/>
<path d="M24.1452 69.0049C24.8456 69.9736 25.546 70.9423 26.2417 71.9135C26.5068 72.2823 26.7623 72.6563 27.0226 73.0276C26.4618 73.0276 25.8986 73.0302 25.3378 73.0302C25.2881 72.5446 25.0231 72.2148 24.6823 71.9447C23.9464 71.3656 23.0945 71.1344 22.219 70.9916C21.5375 70.8799 20.8489 70.8514 20.1603 70.8981C20.1555 70.1606 20.1484 69.423 20.1484 68.6855C20.1484 66.9299 20.1508 65.1744 20.1532 63.4214C20.9341 64.5069 21.7173 65.5899 22.4958 66.6754C22.9383 67.2935 23.3737 67.9168 23.8115 68.5375C23.8068 69.0153 23.8068 69.0153 24.1452 69.0049Z" fill="#F2F2F2"/>
<path d="M25.3379 73.0277C25.8987 73.0277 26.4619 73.0251 27.0227 73.0251C27.1742 73.1835 27.2759 73.4016 27.4699 73.5133C28.1231 74.0976 28.885 74.3054 29.7132 74.2898C29.8741 74.5183 30.0351 74.7469 30.1936 74.978C30.3237 75.1676 30.4918 75.2273 30.6645 75.0819C30.8443 74.9312 30.8088 74.7391 30.6811 74.5573C30.5131 74.3209 30.345 74.0846 30.1794 73.8483C30.2054 73.573 30.2338 73.3003 30.2599 73.0251C31.6702 73.0277 33.0805 73.0277 34.4909 73.0328C34.6092 73.0328 34.7275 73.0432 34.8458 73.0458C34.5358 73.6068 34.1714 74.134 33.9679 74.7598C33.9371 74.8533 33.9016 74.9468 33.8732 75.0403C33.7218 75.5363 33.7218 75.526 33.2296 75.5441C32.1719 75.5857 31.1591 75.8012 30.2551 76.4583C30.0209 76.6271 29.8576 76.8608 29.699 77.1049C29.1595 76.7907 28.691 76.3622 28.2106 75.9597C27.3161 75.2091 26.4879 74.3755 25.6881 73.5055C25.5651 73.3731 25.4941 73.1887 25.3403 73.0926C25.3403 73.0718 25.3403 73.0484 25.3379 73.0277Z" fill="#E1CC7F"/>
<path d="M61.366 39.5083C61.0655 40.3601 60.6798 41.1548 60.1379 41.8534C60.0385 41.9806 59.977 42.0248 59.8421 41.8898C58.3064 40.3497 56.7635 38.8149 55.223 37.2801C55.2088 37.2671 55.2017 37.2489 55.1426 37.1632C56.6168 37.1632 58.0437 37.1632 59.4706 37.1632C60.1237 37.1684 60.7768 37.184 61.4299 37.1684C61.6689 37.1632 61.7162 37.2489 61.7044 37.4879C61.6666 38.1787 61.5388 38.8487 61.366 39.5083Z" fill="#FF5B5B"/>
<path d="M38.2758 78.0087C38.2735 78.3255 38.2853 78.6423 38.264 78.9592C38.2119 79.7175 37.715 80.0837 37.1707 80.3953C37.0832 80.4446 36.9791 80.4654 36.9175 80.5589C36.3733 80.7095 35.8385 80.8991 35.2777 80.9692C33.6993 81.1666 32.1636 81.0316 30.7083 80.2784C30.4456 80.1434 30.209 79.959 29.9984 79.7331C29.7215 79.437 29.5748 79.0968 29.6056 78.6657C29.6245 78.4086 29.6222 78.1489 29.6316 77.8918C29.8777 78.2034 30.0741 78.554 30.4125 78.7826C31.0845 79.237 31.8181 79.4786 32.5848 79.611C33.917 79.8369 35.2422 79.8214 36.5413 79.3773C37.0714 79.1955 37.5754 78.9488 37.9777 78.4995C38.1031 78.3515 38.1528 78.1541 38.2758 78.0087Z" fill="#F3BD31"/>
<path d="M21.4486 61.5671C21.0961 61.7152 21.0038 61.6866 20.7719 61.3646C19.8703 60.0998 18.964 58.8403 18.0695 57.5704C17.9323 57.373 17.8376 57.36 17.6649 57.5158C17.3218 57.8275 16.9621 58.1157 16.6095 58.4144C16.3894 58.1287 16.1694 57.8431 15.9824 57.5288C16.3042 57.2535 16.6261 56.9757 16.9479 56.703C17.2531 56.4433 17.2531 56.4433 17.0236 56.1213C16.9573 56.0278 16.884 55.9369 16.8272 55.8356C16.7065 55.6174 16.7444 55.3863 16.9266 55.2591C17.1183 55.1214 17.291 55.1682 17.4353 55.3499C17.5371 55.4772 17.6341 55.6096 17.7193 55.7499C17.814 55.9109 17.9062 55.8979 18.0246 55.7862C18.1902 55.6304 18.363 55.485 18.531 55.3344C18.6824 55.5239 18.8315 55.7161 18.9829 55.9057L18.9877 55.8979C18.9853 55.9213 18.9948 55.9369 19.0137 55.9473C19.0681 56.0433 19.1225 56.1394 19.1793 56.2355C19.1036 56.303 19.0279 56.3706 18.9498 56.4355C18.4765 56.8043 18.4765 56.8043 18.8315 57.2925C18.8599 57.3315 18.8835 57.373 18.9143 57.412C19.3686 58.0197 19.7733 58.6715 20.2584 59.2506L20.256 59.248C20.2678 59.3285 20.3104 59.3831 20.3743 59.422C20.3909 59.4454 20.4098 59.4714 20.4264 59.4947C20.7458 59.9518 21.0558 60.4167 21.3895 60.8634C21.5575 61.0945 21.5954 61.3152 21.4486 61.5671Z" fill="#1702FF"/>
<path d="M15.277 55.7992C14.896 55.2694 14.5056 54.7449 14.1341 54.2073C13.8335 53.771 13.9045 53.1919 14.2831 52.8413C14.4559 52.6802 14.6333 52.5244 14.8179 52.3816C15.2084 52.0803 15.7408 52.1505 16.0413 52.5582C16.4294 53.0828 16.7985 53.6256 17.1772 54.1579C16.4412 54.5605 15.7976 55.0929 15.277 55.7992Z" fill="#1702FF"/>
<path d="M15.2761 55.7992C15.7967 55.0954 16.4404 54.5631 17.1763 54.1605C17.588 54.1657 17.9028 54.3527 18.1299 54.7345C18.253 54.9422 18.3973 55.1344 18.5322 55.3318C18.3642 55.4824 18.1915 55.6278 18.0258 55.7836C17.9051 55.8979 17.8152 55.9109 17.7206 55.7473C17.6377 55.607 17.5383 55.4746 17.4366 55.3473C17.2922 55.1656 17.1195 55.1188 16.9278 55.2565C16.748 55.3863 16.7078 55.6174 16.8285 55.833C16.8852 55.9343 16.9562 56.0252 17.0249 56.1186C17.2544 56.4407 17.2544 56.4381 16.9491 56.7004C16.6273 56.9757 16.3055 57.2509 15.9837 57.5262C15.7849 57.2561 15.579 56.9912 15.3897 56.7134C15.2051 56.4355 15.2146 56.1186 15.2761 55.7992Z" fill="#DF4327"/>
<path d="M26.0405 75.0715C25.8015 75.7545 25.2975 76.1207 24.7177 76.4011C23.4991 76.9881 22.2094 77.1075 20.9056 77.0322C20.0087 76.9803 19.1237 76.7933 18.2979 76.3752C18.234 76.344 18.1559 76.3336 18.1133 76.2193C18.4588 76.3076 18.783 76.4115 19.1142 76.4712C20.7233 76.7621 22.3135 76.7024 23.854 76.0739C24.3391 75.8765 24.7934 75.6013 25.1129 75.1182C25.262 74.8897 25.3377 74.6456 25.3401 74.3677C25.3424 74.1392 25.3448 73.908 25.3471 73.6795C25.8109 74.0015 26.0973 74.4326 26.0405 75.0715Z" fill="#F1D353"/>
<path d="M50.5769 31.6862C50.319 31.3616 50.0611 31.0396 49.8008 30.7149C50.2102 30.7565 50.5722 30.9694 50.9532 31.1071C51.0478 31.1408 51.1401 31.1746 51.2348 31.211C51.0147 31.3694 50.797 31.5278 50.5769 31.6862Z" fill="#E1CC7F"/>
<path d="M49.8057 30.7175C49.7884 30.6968 49.7712 30.6786 49.7539 30.6578C49.7712 30.6786 49.7884 30.6994 49.8057 30.7175Z" fill="#E1CC7F"/>
<path d="M43.687 58.4637C45.244 58.4637 46.7987 58.4689 48.3558 58.4585C48.5995 58.4559 48.661 58.5365 48.6586 58.7987C48.6492 60.6556 48.6492 62.515 48.6586 64.3719C48.661 64.6394 48.5877 64.7069 48.351 64.7069C45.2393 64.6991 42.1276 64.6991 39.0158 64.7069C38.7697 64.7069 38.7106 64.6264 38.713 64.3667C38.7224 62.5098 38.7224 60.6504 38.713 58.7936C38.7106 58.5261 38.784 58.4585 39.0206 58.4585C40.5753 58.4689 42.1323 58.4637 43.687 58.4637Z" fill="#C3C3C3"/>
<path d="M30.258 60.2635C28.2206 60.2635 26.1832 60.2583 24.1458 60.2687C23.8926 60.2713 23.798 60.2089 23.8051 59.9103C23.8216 58.9312 23.8169 57.9547 23.8074 56.9757C23.8051 56.7575 23.8429 56.6588 24.0748 56.6588C28.1946 56.6666 32.3144 56.6666 36.4342 56.6588C36.659 56.6588 36.7086 56.7445 36.7063 56.9705C36.6968 57.9573 36.6945 58.9468 36.7086 59.9336C36.7134 60.2063 36.6306 60.2661 36.3963 60.2661C34.3494 60.2609 32.3025 60.2635 30.258 60.2635Z" fill="#C3C3C3"/>
<path d="M48.9176 73.0302C48.8418 73.212 48.8726 73.4068 48.8868 73.5912C48.9318 74.1807 48.6573 74.5702 48.2597 74.8975C48.087 75.0403 47.874 75.1208 47.7249 75.3C47.5167 75.3026 47.564 75.4792 47.5688 75.6038C47.5877 76.0531 47.4386 76.4349 47.1499 76.7309C46.8849 77.001 46.5749 77.2244 46.2365 77.3724C44.6866 78.0502 43.0869 78.1359 41.4518 77.8554C40.9643 77.7723 40.5076 77.5724 40.032 77.4607C40.0249 77.4555 40.0202 77.4529 40.0131 77.4477C40.0202 77.4503 40.0249 77.4555 40.032 77.4581C40.2379 77.7749 40.5573 77.91 40.8578 78.0658C41.537 78.419 42.2611 78.5878 43.0065 78.6657C44.3482 78.8059 45.6757 78.754 46.9488 78.2268C47.6113 77.9515 48.255 77.6035 48.5484 76.8037C48.5484 77.0634 48.5318 77.3256 48.5555 77.5828C48.6123 78.2736 48.307 78.741 47.8125 79.0994C47.1144 79.6032 46.3264 79.8343 45.5124 79.9694C44.2796 80.1719 43.0538 80.1226 41.8422 79.7954C41.2317 79.6318 40.6496 79.3773 40.1432 78.9462C39.7717 78.6293 39.554 78.232 39.6037 77.7126C39.6392 77.336 39.5327 77.0893 39.2251 76.9205C39.1162 76.8608 39.0216 76.7517 38.9411 76.6452C38.8275 76.4946 38.7258 76.492 38.6004 76.6167C38.4394 76.7777 38.2762 76.9361 38.1153 77.0945C37.6112 77.4088 37.138 77.7801 36.5819 77.9827C36.234 78.1099 35.8838 78.1956 35.517 78.1775C35.2686 78.1671 35.0603 78.0424 34.8805 77.8736C34.6865 77.6944 34.509 77.4944 34.3457 77.3256C34.3552 77.2192 34.3978 77.214 34.4309 77.2218C35.1668 77.4062 35.8176 77.1179 36.4257 76.7309C37.9544 75.7623 39.147 74.4222 39.9421 72.6848C40.2781 71.9525 40.4745 71.1838 40.2592 70.3553C40.51 70.5631 40.6969 70.854 40.9643 71.0409C41.0968 71.3162 41.1915 71.5941 41.1915 71.9213C41.1915 72.4537 41.0684 72.9471 40.8649 73.4172C40.7821 73.6094 40.7987 73.7236 40.9856 73.8171C41.2814 73.9677 41.5772 74.1236 41.8919 74.2222C43.2218 74.6378 44.5706 74.7027 45.9313 74.4638C47.0837 74.2612 48.1935 73.9548 48.901 72.7939C48.901 72.8744 48.9105 72.9523 48.9176 73.0302ZM46.8021 75.6636C46.7216 75.6688 46.6364 75.6636 46.5583 75.6843C45.3799 75.9908 44.192 76.0531 42.997 75.8376C42.0599 75.6688 41.1418 75.4324 40.3964 74.7183C40.3112 74.6378 40.2473 74.6326 40.1716 74.7416C39.9894 75.0013 39.8025 75.2584 39.6084 75.5104C39.4664 75.6947 39.4925 75.7934 39.6936 75.9077C40.7159 76.4816 41.8233 76.6245 42.9402 76.6686C43.6714 76.6972 44.4097 76.6219 45.1243 76.4193C45.7135 76.2531 46.3075 76.0869 46.8021 75.6636C46.8044 75.6558 46.8092 75.6506 46.8115 75.6428C46.8092 75.6506 46.8044 75.6584 46.8021 75.6636Z" fill="#F3BD31"/>
<path d="M19.1772 56.2329C19.4967 56.6588 19.8161 57.0873 20.1356 57.5132C20.9046 58.5988 21.6737 59.6869 22.4475 60.7699C22.8947 61.3983 23.3514 62.019 23.8034 62.6423C24.1181 63.0916 24.4281 63.5434 24.7476 63.9875C25.3912 64.8861 26.0396 65.7795 26.6879 66.6754C26.8725 66.9741 27.0689 67.2597 27.2961 67.522C27.6274 68.0388 27.9871 68.5297 28.3562 69.0127C28.7372 69.5555 29.0969 70.119 29.5039 70.6358C30.0505 71.3292 30.2658 72.1317 30.2611 73.025C30.2351 73.3003 30.2067 73.573 30.1806 73.8483C30.0529 74.0301 29.9795 74.2794 29.7145 74.2898C28.8886 74.3054 28.1267 74.0976 27.4712 73.5133C27.3576 73.0562 27.0949 72.6796 26.8962 72.2719C26.3685 71.1942 25.8195 70.1294 25.28 69.0568C24.4494 67.413 23.6188 65.7665 22.7882 64.1226C22.4025 63.3565 22.0144 62.5903 21.6287 61.8242C21.5814 61.7281 21.5506 61.6217 21.4489 61.5697C21.5956 61.3152 21.5577 61.0971 21.385 60.8634C21.0537 60.4167 20.7414 59.9518 20.4219 59.4947C20.4053 59.4714 20.3864 59.4454 20.3698 59.422C20.3698 59.3337 20.3604 59.248 20.2515 59.248L20.2539 59.2506C20.2042 58.8195 19.925 58.5105 19.7664 58.1391C19.518 57.5574 19.1725 57.0328 18.9453 56.4355C19.0258 56.3654 19.1015 56.3004 19.1772 56.2329Z" fill="#EC5B48"/>
<path d="M48.8902 72.7965C48.1827 73.9574 47.0752 74.2664 45.9205 74.4664C44.5598 74.7053 43.211 74.6404 41.8811 74.2249C41.5641 74.1262 41.2706 73.9704 40.9748 73.8197C40.7879 73.7236 40.7713 73.612 40.8542 73.4198C41.0577 72.9471 41.1807 72.4563 41.1807 71.9239C41.1807 71.5993 41.0861 71.3188 40.9535 71.0435C41.5593 70.6332 42.2408 70.4618 42.9318 70.345C44.2546 70.119 45.5703 70.1762 46.867 70.5735C47.3758 70.7293 47.8609 70.9527 48.2892 71.3007C48.7506 71.6746 48.9825 72.1577 48.8902 72.7965Z" fill="#F1D353"/>
<path d="M26.6853 66.6754C26.0393 65.7795 25.391 64.8861 24.7449 63.9875C24.4255 63.5435 24.1155 63.0916 23.8008 62.6423C23.8031 62.1826 23.8126 61.7256 23.8055 61.2659C23.8031 61.0815 23.8363 61.0062 24.0256 61.0088C25.6702 61.0166 27.3171 61.0166 28.9617 61.0088C29.1487 61.0088 29.2102 61.0607 29.2102 61.2737C29.2031 62.9799 29.2007 64.6861 29.2102 66.3923C29.2126 66.6261 29.1416 66.6702 28.9452 66.6702C28.1951 66.6598 27.4402 66.6728 26.6853 66.6754Z" fill="#345951"/>
<path d="M37.0334 34.1923C37.031 35.8076 35.8763 37.0698 34.3973 37.0672C32.9349 37.0646 31.7707 35.7765 31.7754 34.1663C31.7778 32.5614 32.9538 31.2837 34.421 31.2915C35.8928 31.2967 37.0358 32.564 37.0334 34.1923Z" fill="#42A992"/>
<path d="M25.2079 47.0162C25.2079 44.9205 25.2127 42.8247 25.2032 40.7289C25.2032 40.4848 25.2576 40.3939 25.4895 40.4095C25.8255 40.4303 26.1616 40.4251 26.4976 40.4121C26.6798 40.4043 26.7295 40.477 26.7271 40.6692C26.7176 41.3678 26.7247 42.0664 26.7247 42.765C26.7247 46.2579 26.7224 49.7508 26.7318 53.2438C26.7318 53.5399 26.6751 53.6541 26.3887 53.6256C26.0906 53.5944 25.7877 53.6022 25.4895 53.623C25.2576 53.6385 25.2008 53.5502 25.2032 53.3035C25.2127 51.2078 25.2079 49.112 25.2079 47.0162Z" fill="#42A992"/>
<path d="M45.3793 31.668C45.3699 32.5095 45.4148 33.3535 45.3249 34.1949C43.0769 34.1923 40.8289 34.1923 38.5809 34.1897C38.2259 34.1897 38.2259 34.1897 38.2259 33.8002C38.2259 33.2003 38.2377 32.6004 38.2212 32.003C38.2141 31.7382 38.2851 31.6654 38.5264 31.6654C40.8123 31.6758 43.0958 31.6706 45.3793 31.668Z" fill="#C3C3C3"/>
<path d="M29.181 48.2965C29.181 46.6293 29.1857 44.962 29.1762 43.2973C29.1739 43.035 29.2354 42.9441 29.4815 42.9597C29.8175 42.9831 30.1535 42.9727 30.4896 42.9623C30.6647 42.9571 30.7309 43.0195 30.7286 43.2194C30.7191 43.718 30.7262 44.2167 30.7262 44.7153C30.7262 47.5694 30.7238 50.4235 30.7309 53.2775C30.7309 53.5554 30.6623 53.6437 30.4115 53.623C30.1133 53.5996 29.8104 53.5996 29.5123 53.623C29.2543 53.6437 29.1715 53.5632 29.1739 53.2646C29.1881 51.6103 29.181 49.9534 29.181 48.2965Z" fill="#41CEC0"/>
<path d="M35.6151 48.2758C35.6151 49.9638 35.6127 51.6518 35.6198 53.3399C35.6198 53.5528 35.5867 53.6385 35.3714 53.6255C35.0164 53.6022 34.6615 53.6074 34.3065 53.6255C34.1196 53.6333 34.0817 53.558 34.0841 53.3684C34.0888 49.9924 34.0888 46.6163 34.0841 43.2402C34.0841 43.0376 34.1219 42.9571 34.3207 42.9675C34.6757 42.9831 35.0306 42.9857 35.3856 42.9675C35.5891 42.9571 35.6198 43.0454 35.6198 43.2428C35.6127 44.9204 35.6151 46.5981 35.6151 48.2758Z" fill="#362F2D"/>
<path d="M37.954 48.9614C37.954 47.5148 37.9587 46.0683 37.9493 44.6218C37.9469 44.3803 38.0132 44.3128 38.2261 44.3231C38.5716 44.3413 38.9171 44.3335 39.2626 44.3257C39.4188 44.3205 39.4874 44.3621 39.4874 44.5543C39.4827 47.4967 39.4827 50.4416 39.4874 53.384C39.4874 53.571 39.4306 53.6229 39.2673 53.6203C38.9124 53.61 38.5574 53.6022 38.2048 53.6229C37.9919 53.6359 37.9493 53.5476 37.9516 53.3321C37.9587 51.8752 37.954 50.4183 37.954 48.9614Z" fill="#41CEC0"/>
<path d="M28.3531 69.0127C27.9816 68.5297 27.6243 68.0388 27.293 67.522C28.0289 67.5194 28.7648 67.5142 29.5008 67.5116C31.8008 67.5116 34.1009 67.5142 36.401 67.5065C36.6423 67.5065 36.7228 67.5792 36.7062 67.8441C36.6873 68.1531 36.6944 68.4621 36.7039 68.7712C36.7086 68.9556 36.6423 69.0283 36.4791 69.0101C36.4081 69.0023 36.3347 69.0101 36.2614 69.0101C33.6276 69.0127 30.9892 69.0127 28.3531 69.0127Z" fill="#C3C3C3"/>
<path d="M27.1161 49.473C27.1161 48.1953 27.1232 46.9175 27.1114 45.6372C27.109 45.3957 27.1776 45.3308 27.3883 45.3412C27.7337 45.3593 28.0792 45.3541 28.4247 45.3438C28.5856 45.3386 28.6471 45.3853 28.6471 45.5749C28.6424 48.1823 28.6424 50.787 28.6471 53.3944C28.6471 53.5892 28.5832 53.6256 28.4271 53.6204C28.0627 53.61 27.6982 53.6048 27.3362 53.623C27.1493 53.6307 27.1138 53.5554 27.1138 53.3684C27.1185 52.07 27.1161 50.7715 27.1161 49.473Z" fill="#362F2D"/>
<path d="M35.956 50.1949C35.956 49.1483 35.9631 48.0992 35.9512 47.0526C35.9489 46.7981 36.0222 46.7254 36.2447 46.7383C36.5902 46.7565 36.9356 46.7513 37.2811 46.7409C37.4515 46.7357 37.4988 46.8085 37.4988 46.9851C37.4941 49.1198 37.4941 51.2545 37.4988 53.3892C37.4988 53.5788 37.4373 53.6282 37.274 53.623C36.9191 53.6126 36.5641 53.6074 36.2115 53.6256C36.0033 53.6359 35.9489 53.5606 35.9512 53.3399C35.9607 52.2881 35.956 51.2415 35.956 50.1949Z" fill="#42A992"/>
<path d="M43.6848 57.5107C42.1372 57.5107 40.5896 57.5029 39.0444 57.5184C38.777 57.521 38.6753 57.4353 38.7155 57.1471C38.7226 57.0874 38.7226 57.0276 38.7155 56.9679C38.6871 56.7316 38.7747 56.6614 38.99 56.6614C42.1207 56.6692 45.2513 56.6692 48.382 56.6614C48.5997 56.6614 48.6659 56.7316 48.6588 56.9679C48.6399 57.599 48.7156 57.5081 48.1619 57.5107C46.6687 57.5133 45.178 57.5107 43.6848 57.5107Z" fill="#C3C3C3"/>
<path d="M23.8079 45.6476C23.8079 42.6611 23.8079 39.6745 23.8079 36.6906C23.8079 36.6101 23.8079 36.5296 23.8103 36.4517C23.8127 36.3945 23.834 36.3582 23.8931 36.3582C23.9499 36.3582 24.0091 36.3634 24.0138 36.4413C24.0209 36.5296 24.0209 36.6205 24.0209 36.7114C24.0209 42.5936 24.0233 48.4757 24.0162 54.3579C24.0162 54.6254 24.0706 54.7033 24.3238 54.7033C29.648 54.6955 34.9699 54.6955 40.2942 54.6955C40.3675 54.6955 40.4409 54.6981 40.5119 54.6955C40.5876 54.6929 40.6278 54.7241 40.6302 54.815C40.6325 54.9059 40.597 54.9396 40.519 54.9396C40.4551 54.937 40.3912 54.9396 40.3273 54.9396C34.9226 54.9396 29.5179 54.937 24.1108 54.9448C23.8624 54.9448 23.7985 54.8773 23.8008 54.6046C23.8127 51.6207 23.8079 48.6341 23.8079 45.6476Z" fill="#345951"/>
<path d="M45.1645 34.9091C45.2615 35.1506 45.3514 34.8415 45.4461 34.9039C46.4423 34.9039 47.4362 34.9065 48.4324 34.9065C48.3614 35.148 48.2928 35.3869 48.2218 35.6284C45.0107 35.6284 41.7972 35.6284 38.5861 35.6258C38.2643 35.6258 38.1034 35.3298 38.2406 34.9974C38.2927 34.8727 38.3944 34.9091 38.4772 34.9091C39.1777 34.9065 39.8781 34.9065 40.5785 34.9065C42.1072 34.9091 43.6358 34.9091 45.1645 34.9091Z" fill="#C3C3C3"/>
<path d="M48.1928 35.7713C48.1502 36.005 48.11 36.2387 48.0674 36.4699C44.8942 36.4699 41.7209 36.4699 38.5477 36.4673C38.4412 36.4673 38.2803 36.5452 38.2424 36.3686C38.2046 36.1868 38.1856 35.9842 38.259 35.8102C38.3039 35.7038 38.4412 35.7531 38.5382 35.7531C41.1199 35.7505 43.7039 35.7505 46.2856 35.7531C46.9221 35.7531 47.5563 35.7661 48.1928 35.7713Z" fill="#C3C3C3"/>
<path d="M41.1827 52.8127C41.1827 52.5244 41.1875 52.2362 41.1804 51.9479C41.1756 51.7869 41.2206 51.7116 41.3791 51.7116C41.9139 51.7168 42.4487 51.7168 42.9835 51.7116C43.1231 51.7116 43.1776 51.7713 43.1752 51.9245C43.1705 52.5115 43.1705 53.0984 43.1752 53.6853C43.1776 53.8593 43.1066 53.9034 42.9599 53.9034C42.4345 53.8982 41.9068 53.8956 41.3815 53.9034C41.2277 53.906 41.1733 53.8489 41.178 53.6801C41.1898 53.3892 41.1827 53.101 41.1827 52.8127Z" fill="#41CEC0"/>
<path d="M42.1788 48.216C42.4509 48.216 42.7231 48.2212 42.9952 48.2134C43.123 48.2082 43.1703 48.2524 43.1679 48.3978C43.1608 48.9951 43.1608 49.595 43.1679 50.1923C43.1703 50.3611 43.104 50.3871 42.9715 50.3871C42.4367 50.3819 41.8996 50.3793 41.3648 50.3871C41.2252 50.3897 41.1755 50.343 41.1778 50.1846C41.1849 49.5976 41.1849 49.0081 41.1778 48.4212C41.1755 48.268 41.211 48.2082 41.36 48.216C41.6345 48.2238 41.9067 48.216 42.1788 48.216Z" fill="#362F2D"/>
<path d="M42.1685 46.8968C41.9058 46.8968 41.6408 46.8916 41.3781 46.8994C41.2456 46.902 41.1794 46.8682 41.1817 46.702C41.1888 46.1125 41.1888 45.5256 41.1817 44.936C41.1794 44.7802 41.2291 44.7257 41.371 44.7283C41.9082 44.7335 42.443 44.7335 42.9801 44.7283C43.115 44.7257 43.1789 44.7672 43.1765 44.9283C43.1718 45.5178 43.1718 46.1047 43.1765 46.6942C43.1789 46.85 43.1292 46.9046 42.9872 46.8994C42.7151 46.889 42.443 46.8968 42.1685 46.8968Z" fill="#42A992"/>
<path d="M46.3874 53.61C45.7153 53.61 45.0409 53.6048 44.3689 53.6152C44.1772 53.6178 44.1204 53.5502 44.1181 53.3399C44.1133 52.6517 44.1062 52.6517 44.7262 52.6517C45.9354 52.6517 47.1446 52.6595 48.3538 52.6465C48.5952 52.6439 48.6662 52.7192 48.6614 52.9841C48.6472 53.6126 48.6591 53.6126 48.0793 53.6126C47.5161 53.61 46.9506 53.61 46.3874 53.61Z" fill="#C3C3C3"/>
<path d="M46.3936 46.6007C45.7311 46.6007 45.0685 46.5955 44.4059 46.6033C44.2048 46.6059 44.1149 46.5617 44.1172 46.3098C44.122 45.6424 44.1125 45.6424 44.7159 45.6424C45.9133 45.6424 47.113 45.6476 48.3104 45.6372C48.5612 45.6346 48.6677 45.6995 48.6606 46.0008C48.644 46.6007 48.6582 46.6007 48.1092 46.6007C47.5366 46.6007 46.9639 46.6007 46.3936 46.6007Z" fill="#C3C3C3"/>
<path d="M46.3917 49.1717C47.0637 49.1717 47.7358 49.1769 48.4078 49.1691C48.5971 49.1665 48.6634 49.2315 48.6586 49.4418C48.6397 50.2105 48.7414 50.0729 48.0883 50.0781C46.8626 50.0859 45.6368 50.0755 44.4111 50.0859C44.1863 50.0885 44.1105 50.0131 44.1176 49.7638C44.1389 49.0704 44.0419 49.1795 44.6477 49.1743C45.2298 49.1665 45.8096 49.1717 46.3917 49.1717Z" fill="#C3C3C3"/>
<path d="M46.3888 48.216C47.0608 48.216 47.7352 48.229 48.4072 48.2108C48.6628 48.2031 48.6533 48.3563 48.6557 48.5485C48.6581 48.7458 48.6533 48.8835 48.4049 48.8809C47.0584 48.8679 45.712 48.8679 44.3679 48.8809C44.1124 48.8835 44.1218 48.7354 44.1195 48.5433C44.1171 48.3433 44.1218 48.2031 44.3727 48.2108C45.0447 48.2264 45.7167 48.216 46.3888 48.216Z" fill="#C3C3C3"/>
<path d="M46.3932 52.353C45.7211 52.353 45.0467 52.3426 44.3747 52.3582C44.1262 52.3634 44.1191 52.2284 44.1191 52.0258C44.1191 51.8284 44.1215 51.6882 44.3723 51.6908C45.7093 51.7038 47.0463 51.7012 48.3833 51.6908C48.6341 51.6882 48.6554 51.8258 48.6601 52.044C48.6649 52.2725 48.6104 52.3608 48.3856 52.3556C47.7207 52.3426 47.0558 52.353 46.3932 52.353Z" fill="#C3C3C3"/>
<path d="M46.3916 44.7361C47.0636 44.7361 47.738 44.7439 48.4101 44.7309C48.6349 44.7257 48.6633 44.8399 48.6562 45.0399C48.6491 45.2295 48.6633 45.3957 48.4101 45.3957C47.0542 45.3879 45.7006 45.3879 44.3447 45.3957C44.0986 45.3983 44.1199 45.2399 44.1199 45.0633C44.1199 44.8919 44.0939 44.7257 44.3424 44.7309C45.0262 44.7465 45.7077 44.7361 46.3916 44.7361Z" fill="#C3C3C3"/>
<path d="M33.3117 61.4035C32.2753 61.4035 31.2388 61.4035 30.2 61.4035C30.0817 61.4035 29.9326 61.4503 29.9279 61.2217C29.9231 61.001 30.0486 60.988 30.1976 60.988C32.2895 60.988 34.3813 60.988 36.4755 60.988C36.6246 60.988 36.75 60.9984 36.7476 61.2191C36.7453 61.4477 36.5986 61.4035 36.4779 61.4035C35.4225 61.4035 34.3671 61.4035 33.3117 61.4035Z" fill="#C3C3C3"/>
<path d="M45.2555 67.335C44.2096 67.335 43.1637 67.335 42.1178 67.335C41.9876 67.335 41.8291 67.3766 41.8362 67.1325C41.8433 66.9039 41.9876 66.9221 42.1249 66.9221C44.2072 66.9221 46.292 66.9221 48.3743 66.9221C48.5163 66.9221 48.6536 66.9169 48.6536 67.1429C48.6559 67.3948 48.4903 67.335 48.3649 67.3376C47.3284 67.3376 46.292 67.335 45.2555 67.335Z" fill="#C3C3C3"/>
<path d="M45.2411 66.0755C46.287 66.0755 47.3329 66.0755 48.3788 66.0781C48.4948 66.0781 48.6486 66.0236 48.6533 66.2573C48.6581 66.478 48.535 66.491 48.3859 66.491C46.2941 66.491 44.2023 66.491 42.1104 66.491C41.9637 66.491 41.8359 66.4858 41.8359 66.2625C41.8383 66.034 41.985 66.0781 42.1057 66.0781C43.1492 66.0729 44.1952 66.0755 45.2411 66.0755Z" fill="#C3C3C3"/>
<path d="M45.2483 65.5951C44.2024 65.5951 43.1565 65.5951 42.1106 65.5925C41.9946 65.5925 41.8408 65.647 41.8361 65.4159C41.8313 65.1977 41.952 65.1822 42.1035 65.1822C44.1953 65.1848 46.2871 65.1822 48.379 65.1822C48.5257 65.1822 48.6558 65.1847 48.6535 65.4107C48.6535 65.6418 48.5044 65.5951 48.3861 65.5951C47.3402 65.5951 46.2942 65.5951 45.2483 65.5951Z" fill="#C3C3C3"/>
<path d="M33.3195 62.2969C32.2831 62.2969 31.2466 62.2969 30.2078 62.2969C30.0777 62.2969 29.9262 62.341 29.9239 62.0943C29.9215 61.8528 30.0658 61.884 30.2007 61.884C32.2831 61.884 34.3678 61.884 36.4502 61.884C36.5851 61.884 36.7413 61.8528 36.7413 62.0865C36.7436 62.3177 36.5922 62.2969 36.4549 62.2969C35.4114 62.2969 34.3655 62.2969 33.3195 62.2969Z" fill="#C3C3C3"/>
<path d="M33.3376 64.5173C34.3836 64.5173 35.4295 64.5173 36.4754 64.5199C36.5937 64.5199 36.7428 64.4706 36.7475 64.7017C36.7499 64.9225 36.6245 64.9328 36.4754 64.9328C34.3836 64.9328 32.2917 64.9328 30.1999 64.9328C30.0508 64.9328 29.9254 64.9251 29.9278 64.7017C29.9301 64.4706 30.0816 64.5199 30.1999 64.5199C31.2458 64.5147 32.2917 64.5173 33.3376 64.5173Z" fill="#C3C3C3"/>
<path d="M33.3112 65.7743C32.2748 65.7743 31.2383 65.7743 30.2018 65.7717C30.0835 65.7717 29.9345 65.8236 29.9297 65.5899C29.9274 65.3691 30.0528 65.3587 30.1995 65.3587C32.2913 65.3587 34.3832 65.3587 36.475 65.3587C36.6241 65.3587 36.7495 65.3665 36.7471 65.5899C36.7447 65.821 36.5957 65.7717 36.4774 65.7717C35.422 65.7768 34.3666 65.7743 33.3112 65.7743Z" fill="#C3C3C3"/>
<path d="M33.3129 66.2573C34.3327 66.2573 35.3503 66.2573 36.3702 66.2573C36.4435 66.2573 36.5169 66.2573 36.5879 66.2599C36.7014 66.2651 36.7464 66.3404 36.7464 66.4573C36.7464 66.5689 36.7156 66.6546 36.5997 66.665C36.5453 66.6702 36.4908 66.6702 36.4364 66.6702C34.3635 66.6702 32.2882 66.6702 30.2153 66.6676C30.1183 66.6676 29.9787 66.73 29.9408 66.5585C29.8982 66.3534 29.955 66.2495 30.1775 66.2521C31.2187 66.2625 32.2646 66.2573 33.3129 66.2573Z" fill="#C3C3C3"/>
<path d="M33.2856 64.0369C32.2586 64.0369 31.2292 64.0369 30.2023 64.0369C30.065 64.0369 29.9254 64.0654 29.9278 63.8239C29.9301 63.5772 30.0792 63.6214 30.2094 63.6214C32.2823 63.6214 34.3575 63.6214 36.4304 63.6214C36.5677 63.6214 36.7073 63.5954 36.7073 63.8343C36.7049 64.081 36.5535 64.0369 36.4233 64.0369C35.3774 64.0369 34.3315 64.0369 33.2856 64.0369Z" fill="#C3C3C3"/>
<path d="M33.3437 62.7747C34.3612 62.7747 35.3788 62.7721 36.3963 62.7773C36.5146 62.7773 36.6944 62.6968 36.7015 62.9487C36.7086 63.2006 36.5335 63.1357 36.4105 63.1357C34.347 63.1383 32.286 63.1383 30.2225 63.1357C30.1302 63.1357 30.0167 63.1825 29.948 63.0656C29.8652 62.9176 29.9599 62.7747 30.1539 62.7747C31.0342 62.7721 31.9168 62.7721 32.7971 62.7721C32.9793 62.7747 33.1615 62.7747 33.3437 62.7747Z" fill="#C3C3C3"/>
<path d="M58.0019 56.5368C56.045 56.5394 54.0904 56.5472 52.1334 56.542C51.6128 56.5394 51.2011 56.0875 51.1964 55.5032C51.1845 53.8567 51.1845 52.2076 51.1964 50.5611C51.2011 49.9015 51.6318 49.486 52.2731 49.4834C55.522 49.4834 58.771 49.4834 62.0176 49.4834C62.2992 49.4834 62.5808 49.4912 62.8624 49.4963C62.8505 49.5223 62.8411 49.5509 62.8269 49.5743C61.5822 51.3506 60.3304 53.1191 59.0928 54.9007C58.7213 55.4409 58.3001 55.9395 58.0019 56.5368Z" fill="#87BEB6"/>
<path d="M64.7115 70.9293C64.7115 69.7502 64.7115 68.5738 64.7115 67.3948C64.7115 66.6702 65.0996 66.2469 65.7645 66.2469C66.5478 66.2469 67.3287 66.2443 68.1119 66.2469C68.7177 66.2495 69.1247 66.6884 69.1271 67.3506C69.1295 69.7554 69.1295 72.1629 69.1271 74.5677C69.1271 75.2299 68.7201 75.6688 68.1119 75.6714C67.3121 75.674 66.5099 75.674 65.7101 75.6714C65.1209 75.6688 64.7139 75.2247 64.7139 74.5806C64.7092 73.3653 64.7115 72.1473 64.7115 70.9293Z" fill="#41CEC0"/>
<path d="M67.218 49.4912C67.5351 49.4886 67.8545 49.473 68.1716 49.486C68.749 49.5067 69.1418 49.9508 69.1418 50.5793C69.1442 52.2154 69.1442 53.8541 69.1418 55.4902C69.1394 56.0667 68.7395 56.542 68.2237 56.542C65.5402 56.5472 62.8592 56.5394 60.1758 56.5368C60.2397 56.4407 60.3036 56.342 60.3698 56.2485C61.8417 54.1476 63.3159 52.0466 64.7854 49.943C64.8777 49.8106 64.9865 49.6807 64.9771 49.4938C65.3273 49.4964 65.6775 49.4964 66.0301 49.499C66.0064 49.5405 65.9875 49.5872 65.9615 49.6262C65.1924 50.7247 64.421 51.8233 63.6567 52.9244C63.4389 53.2386 63.465 53.5399 63.7087 53.7372C63.9382 53.9268 64.2009 53.8671 64.4139 53.5658C65.0859 52.6127 65.7627 51.6596 66.4229 50.6962C66.695 50.2988 67.0192 49.9456 67.218 49.4912Z" fill="#87BEB6"/>
<path d="M57.6947 57.7963C59.5239 57.7963 61.3531 57.7937 63.1822 57.7989C63.6815 57.7989 64.072 58.1755 64.1501 58.7078C64.2282 59.2298 63.9466 59.7466 63.497 59.9206C63.381 59.9648 63.2651 59.97 63.1467 59.97C59.4884 59.97 55.8301 59.97 52.1717 59.97C51.5872 59.97 51.166 59.5077 51.166 58.8818C51.1684 58.2612 51.592 57.7989 52.1764 57.7989C54.0174 57.7937 55.8561 57.7963 57.6947 57.7963Z" fill="#DF4327"/>
<path d="M66.9201 65.4808C66.5107 65.4808 66.1013 65.4886 65.692 65.4782C65.1122 65.4652 64.717 65.0263 64.7147 64.3952C64.7123 63.6863 64.7123 62.9773 64.7147 62.2683C64.717 61.6009 65.0909 61.1438 65.7038 61.1256C66.5131 61.1023 67.3247 61.1049 68.134 61.1256C68.7398 61.1412 69.1279 61.6061 69.1302 62.2657C69.1326 62.9643 69.1326 63.6629 69.1302 64.3641C69.1279 65.0263 68.7256 65.473 68.1222 65.4834C67.7199 65.4886 67.32 65.4834 66.9201 65.4808Z" fill="#42A992"/>
<path d="M62.1555 65.4808C61.7367 65.4808 61.3178 65.486 60.9014 65.4782C60.4683 65.473 60.1867 65.1614 60.1844 64.6887C60.1796 63.7798 60.182 62.8708 60.1844 61.9645C60.1867 61.4607 60.4612 61.1256 60.9227 61.1179C61.7604 61.1023 62.5957 61.0997 63.4333 61.1179C63.9019 61.1282 64.1598 61.4529 64.1622 61.9723C64.1645 62.8708 64.1645 63.7694 64.1622 64.6679C64.1598 65.1925 63.8995 65.4756 63.4144 65.4808C62.9932 65.4834 62.5744 65.4808 62.1555 65.4808Z" fill="#766A68"/>
<path d="M59.5816 63.3149C59.5816 63.7746 59.584 64.2316 59.5816 64.6913C59.5769 65.1769 59.3095 65.4782 58.8717 65.4782C58.0364 65.4834 57.1987 65.4808 56.3634 65.4782C55.9138 65.4756 55.6204 65.2211 55.6133 64.7251C55.5967 63.7486 55.5541 62.7695 55.6393 61.7957C55.6724 61.4087 55.8901 61.1802 56.2404 61.1542C57.1561 61.0841 58.0743 61.0763 58.9877 61.1568C59.3521 61.188 59.5721 61.4711 59.5792 61.8788C59.5863 62.3566 59.5816 62.8345 59.5816 63.3149Z" fill="#766A68"/>
<path d="M62.2351 70.5735C61.8163 70.5735 61.3998 70.5735 60.981 70.5735C60.5432 70.5709 60.2498 70.2904 60.245 69.8126C60.2308 68.8751 60.2308 67.9376 60.245 67C60.2521 66.5326 60.5456 66.2521 60.9668 66.2495C61.8115 66.2469 62.6563 66.2469 63.5011 66.2495C63.9436 66.2495 64.2181 66.5404 64.2205 67.0286C64.2252 67.9557 64.2276 68.8828 64.2205 69.81C64.2157 70.28 63.9412 70.5709 63.5177 70.5735C63.087 70.5761 62.661 70.5735 62.2351 70.5735Z" fill="#766A68"/>
<path d="M62.2217 71.3448C62.6595 71.3448 63.0949 71.3422 63.5327 71.3448C63.9279 71.3474 64.2094 71.6331 64.2165 72.0694C64.226 73.0276 64.2284 73.9859 64.2165 74.9468C64.2118 75.3753 63.9184 75.6662 63.5256 75.6662C62.669 75.6688 61.8147 75.6688 60.9581 75.6662C60.5393 75.6662 60.2482 75.3753 60.2411 74.9079C60.2269 73.9703 60.2269 73.0302 60.2411 72.0901C60.2482 71.6227 60.5416 71.3448 60.9652 71.3422C61.3841 71.3422 61.8029 71.3448 62.2217 71.3448Z" fill="#766A68"/>
<path d="M53.1733 61.1516C53.5826 61.1516 53.992 61.149 54.4014 61.1516C54.8463 61.1542 55.1373 61.4295 55.1444 61.9099C55.1586 62.8475 55.1586 63.7876 55.1444 64.7251C55.1373 65.1899 54.8439 65.4756 54.4179 65.4782C53.5708 65.4834 52.726 65.4834 51.8789 65.4782C51.4529 65.4756 51.1737 65.1795 51.1713 64.7121C51.1642 63.7746 51.1642 62.8345 51.1713 61.8969C51.1761 61.4321 51.4387 61.1568 51.8623 61.1516C52.3001 61.1464 52.7355 61.1516 53.1733 61.1516Z" fill="#766A68"/>
<path d="M53.2059 75.6688C52.7776 75.6688 52.3516 75.6714 51.9233 75.6688C51.5376 75.6662 51.2347 75.3701 51.2276 74.952C51.2158 73.9937 51.2158 73.0354 51.2276 72.0771C51.2324 71.6409 51.5352 71.3474 51.9375 71.3474C52.7847 71.3448 53.6294 71.3448 54.4766 71.3474C54.9025 71.3474 55.1912 71.6279 55.1983 72.0953C55.2125 73.0328 55.2125 73.9729 55.1983 74.9105C55.1912 75.3883 54.9002 75.6688 54.46 75.6714C54.0436 75.6688 53.6247 75.6688 53.2059 75.6688Z" fill="#766A68"/>
<path d="M53.2279 66.2495C53.6468 66.2495 54.0656 66.2469 54.4845 66.2495C54.9057 66.2521 55.1944 66.5378 55.2015 67.0052C55.2157 67.9427 55.2157 68.8829 55.2015 69.8204C55.1944 70.2852 54.9033 70.5735 54.4845 70.5735C53.6373 70.5761 52.7925 70.5761 51.9454 70.5735C51.5171 70.5735 51.2284 70.267 51.226 69.7892C51.2189 68.8699 51.2189 67.9531 51.226 67.0338C51.2308 66.5559 51.5171 66.2521 51.9454 66.2495C52.3737 66.2495 52.802 66.2495 53.2279 66.2495Z" fill="#766A68"/>
<path d="M57.6718 71.3448C58.1001 71.3448 58.526 71.3422 58.9543 71.3448C59.3779 71.35 59.6358 71.6253 59.6382 72.0901C59.6429 73.038 59.6429 73.9859 59.6382 74.9338C59.6358 75.3805 59.3779 75.6636 58.9733 75.6662C58.1001 75.6714 57.2269 75.6714 56.3561 75.6662C55.9657 75.6636 55.7054 75.3831 55.7006 74.952C55.6935 73.9833 55.6935 73.0173 55.7006 72.0486C55.7054 71.6227 55.9728 71.35 56.3656 71.3474C56.7986 71.3396 57.234 71.3448 57.6718 71.3448Z" fill="#766A68"/>
<path d="M57.6612 70.5735C57.2329 70.5735 56.8069 70.5761 56.3786 70.5735C55.9551 70.5683 55.6971 70.2956 55.6948 69.8282C55.6877 68.8803 55.6877 67.9324 55.6948 66.9845C55.6971 66.5222 55.9598 66.2521 56.3881 66.2495C57.2424 66.2469 58.0966 66.2469 58.9508 66.2495C59.3744 66.2521 59.6323 66.53 59.6347 66.9948C59.6394 67.9427 59.6394 68.8906 59.6347 69.8385C59.6323 70.2852 59.3744 70.5657 58.9698 70.5709C58.5344 70.5787 58.099 70.5735 57.6612 70.5735Z" fill="#766A68"/>
<path d="M64.9763 49.4937C64.9858 49.6807 64.877 49.8106 64.7847 49.943C63.3152 52.0466 61.841 54.1475 60.3691 56.2485C60.3028 56.342 60.239 56.4407 60.1751 56.5368C59.4486 56.5368 58.7245 56.5368 57.998 56.5368C58.2986 55.9395 58.7174 55.4408 59.0913 54.9033C60.3289 53.1217 61.5783 51.3506 62.8254 49.5768C62.8419 49.5535 62.849 49.5249 62.8609 49.4989C63.5684 49.4963 64.2736 49.4937 64.9763 49.4937Z" fill="#CBFDF7"/>
<path d="M67.0257 60.0479C66.6803 60.0479 66.3348 60.0557 65.9893 60.0453C65.3788 60.0271 64.9907 59.5649 65.0002 58.8767C65.0073 58.2378 65.4119 57.8171 66.0177 57.8145C66.7181 57.8119 67.4186 57.8119 68.119 57.8145C68.6609 57.8171 69.0655 58.2144 69.1129 58.7858C69.1649 59.4272 68.8384 59.9129 68.2799 60.0219C68.2444 60.0297 68.2089 60.0427 68.1734 60.0427C67.7924 60.0453 67.4091 60.0427 67.0281 60.0427C67.0257 60.0453 67.0257 60.0479 67.0257 60.0479Z" fill="#DF4327"/>
<path d="M67.2185 49.4911C67.0198 49.9456 66.6956 50.2988 66.4234 50.6961C65.7609 51.6596 65.0865 52.6101 64.4144 53.5658C64.2015 53.8697 63.9388 53.9268 63.7093 53.7372C63.4679 53.5373 63.4395 53.2386 63.6572 52.9244C64.4215 51.8232 65.1953 50.7247 65.962 49.6262C65.988 49.5872 66.007 49.5431 66.0306 49.4989C66.4258 49.4963 66.8234 49.4937 67.2185 49.4911Z" fill="#CBFDF7"/>
<path d="M48.4297 34.9065C47.4334 34.9065 46.4396 34.9039 45.4434 34.9039C45.8551 34.5663 46.3213 34.3533 46.8064 34.1871C47.2418 34.1897 47.6772 34.1923 48.1102 34.1923C48.6545 34.1923 48.6545 34.1923 48.6521 33.5924C48.7822 33.5612 48.91 33.5145 49.0449 33.5353C48.8225 33.982 48.6048 34.4338 48.4297 34.9065Z" fill="#F2F2F2"/>
<path d="M40.0293 77.4607C40.5073 77.5724 40.964 77.7723 41.4491 77.8555C43.0842 78.1359 44.6839 78.0502 46.2338 77.3724C46.5722 77.2244 46.8846 77.0036 47.1472 76.731C47.4359 76.4349 47.585 76.0531 47.5661 75.6039C47.5613 75.4766 47.514 75.3026 47.7222 75.3C48.2712 75.6194 48.593 76.0895 48.5434 76.8037C48.2499 77.6035 47.6087 77.9515 46.9437 78.2268C45.6706 78.754 44.3431 78.8059 43.0014 78.6657C42.256 78.5878 41.5319 78.419 40.8528 78.0658C40.5546 77.9126 40.2352 77.7775 40.0293 77.4607Z" fill="#F1D353"/>
<path d="M48.6543 33.5924C48.6567 34.1923 48.6567 34.1923 48.1124 34.1923C47.677 34.1923 47.2416 34.1897 46.8086 34.1871C47.3931 33.8755 48.0202 33.7197 48.6543 33.5924Z" fill="#C3C3C3"/>
<path d="M24.1451 69.0049C23.8068 69.0179 23.8068 69.0179 23.8115 68.5349C23.9393 68.6777 24.0576 68.8283 24.1451 69.0049Z" fill="#C3C3C3"/>
<path d="M29.7148 74.2898C29.9775 74.2794 30.0532 74.0301 30.181 73.8483C30.349 74.0846 30.5147 74.3209 30.6827 74.5573C30.8128 74.7391 30.8483 74.9312 30.6661 75.0819C30.491 75.2273 30.3254 75.165 30.1952 74.978C30.0367 74.7468 29.8758 74.5183 29.7148 74.2898Z" fill="#362F2D"/>
<path d="M18.9495 56.4329C19.1743 57.0276 19.5221 57.5548 19.7706 58.1365C19.9291 58.5105 20.2083 58.8195 20.258 59.248C19.7729 58.6689 19.3659 58.017 18.914 57.4094C18.8856 57.3704 18.8595 57.3288 18.8311 57.2899C18.4762 56.8017 18.4762 56.8017 18.9495 56.4329Z" fill="#DF4327"/>
<path d="M20.2539 59.248C20.3628 59.2506 20.3699 59.3337 20.3722 59.422C20.3107 59.3831 20.2681 59.3259 20.2539 59.248Z" fill="#DF4327"/>
<path d="M20.3711 59.422C20.3884 59.4454 20.4081 59.4714 20.4254 59.4947C20.4056 59.4688 20.3884 59.4454 20.3711 59.422Z" fill="#DF4327"/>
<path d="M18.9863 55.8953C19.0184 55.898 19.0332 55.9111 19.0135 55.9452C18.9937 55.9347 18.9863 55.919 18.9863 55.8953Z" fill="#F2E9B7"/>
<path d="M46.7981 75.6636C46.3059 76.0895 45.7096 76.2531 45.1227 76.4193C44.4081 76.6219 43.6698 76.6972 42.9386 76.6686C41.8217 76.6245 40.7143 76.4816 39.692 75.9077C39.4885 75.7934 39.4625 75.6947 39.6068 75.5104C39.8008 75.261 39.9878 75.0039 40.17 74.7417C40.2457 74.6326 40.3096 74.6378 40.3948 74.7183C41.1402 75.4324 42.0583 75.6662 42.9954 75.8376C44.1904 76.0531 45.3783 75.9908 46.5567 75.6844C46.6348 75.6636 46.7176 75.6714 46.7981 75.6636Z" fill="#F1D353"/>
<path d="M46.802 75.664C46.8047 75.656 46.81 75.6508 46.8127 75.6428C46.8073 75.6508 46.8047 75.656 46.802 75.664C46.7993 75.664 46.802 75.664 46.802 75.664Z" fill="#F1D353"/>
<path d="M40.0295 77.4615C40.0221 77.4587 40.0172 77.4531 40.0098 77.4503C40.0172 77.4531 40.0221 77.4587 40.0295 77.4615Z" fill="#F1D353"/>
</svg>
