<svg width="58" height="55" viewBox="0 0 58 55" fill="none" xmlns="http://www.w3.org/2000/svg">
<path d="M7.14186 20.6888C7.14423 20.559 7.14896 20.4291 7.14896 20.2993C7.14896 13.6796 7.14896 7.05985 7.14896 0.440133C7.14896 0.00383969 7.14896 0.00384159 7.54651 0.00384159C15.1969 0.00384159 22.8496 0.00384159 30.4999 0.00384159C30.6348 0.00384159 30.7744 -0.022128 30.8998 0.0609756C31.0489 0.344047 31.2003 0.624519 31.3423 0.910187C31.9292 2.08143 32.2321 3.35136 32.3764 4.67063C30.0929 4.67063 27.807 4.67582 25.5235 4.66803C25.2821 4.66803 25.2112 4.74075 25.2183 5.00564C25.2348 5.60555 25.223 6.20285 25.223 6.80275C25.223 7.1923 25.223 7.1923 25.5779 7.1923C27.8259 7.1949 30.074 7.19489 32.322 7.19749C32.2439 7.42862 32.2865 7.69352 32.1587 7.91166C30.63 7.91166 29.1014 7.91167 27.5728 7.90907C26.8723 7.90907 26.1719 7.90647 25.4715 7.91166C25.3886 7.91166 25.2869 7.87531 25.2348 7.99997C25.0976 8.33238 25.2585 8.62843 25.5803 8.62843C28.7914 8.62843 32.0049 8.63103 35.216 8.63103C35.2065 8.67778 35.1994 8.72712 35.19 8.77386C34.5534 8.76867 33.9169 8.75568 33.2803 8.75568C30.6987 8.75309 28.1146 8.75568 25.533 8.75568C25.436 8.75568 25.2987 8.70374 25.2537 8.81282C25.1804 8.98682 25.1993 9.18939 25.2372 9.37118C25.275 9.54777 25.436 9.46985 25.5424 9.46985C28.7157 9.47245 31.8889 9.47245 35.0622 9.47245C35.0054 10.4307 35.0125 11.3838 35.2562 12.3187C35.7981 14.4015 36.9647 15.9156 38.7087 16.9076C38.7087 18.0217 38.7087 19.1384 38.7111 20.2525C38.3301 20.2577 37.9467 20.2629 37.5658 20.2655C36.7446 20.2681 36.3921 20.6551 36.3921 21.5614C36.3921 29.5887 36.3921 37.616 36.3921 45.6433C36.3921 45.7731 36.3826 45.9004 36.3755 46.0302C36.2217 46.0302 36.0679 46.0302 35.9141 46.0328C35.9046 45.9549 35.8975 45.877 35.888 45.7991C35.9803 45.1602 35.746 44.6772 35.287 44.3032C34.8587 43.9552 34.3736 43.7319 33.8648 43.5761C32.5704 43.1787 31.2548 43.1216 29.9296 43.3475C29.241 43.4644 28.5595 43.6358 27.9514 44.0461C27.684 43.8592 27.497 43.5683 27.2462 43.3605C26.8392 42.7788 26.2949 42.7269 25.7033 42.8879C24.8373 43.1216 24.1155 43.6514 23.4293 44.2513C22.8306 44.7759 22.3384 45.4147 21.8415 46.0484C21.7232 46.0432 21.6049 46.0354 21.4866 46.0354C20.0762 46.0328 18.6659 46.0302 17.2556 46.0276C17.2603 45.1317 17.045 44.3318 16.4983 43.6384C16.0913 43.1216 15.7316 42.5581 15.3507 42.0153C17.9867 42.0153 20.6228 42.0153 23.2613 42.0127C23.3347 42.0127 23.408 42.0075 23.479 42.0127C23.6423 42.0283 23.7085 41.9556 23.7038 41.7738C23.6943 41.4647 23.6872 41.1531 23.7062 40.8466C23.7227 40.5818 23.6423 40.509 23.4009 40.509C21.1008 40.5194 18.8008 40.5142 16.5007 40.5142C15.7648 40.5142 15.0288 40.5194 14.2929 40.5246C14.0657 40.2623 13.8693 39.9767 13.6848 39.678C14.4396 39.6728 15.1945 39.6624 15.947 39.6702C16.1434 39.6728 16.212 39.6287 16.212 39.3923C16.2025 37.6861 16.2025 35.9799 16.212 34.2737C16.212 34.0607 16.1505 34.0062 15.9635 34.0088C14.3189 34.0166 12.672 34.0166 11.0274 34.0088C10.8381 34.0088 10.8049 34.0815 10.8073 34.2659C10.8144 34.7256 10.8049 35.1826 10.8026 35.6423C10.3506 35.019 9.89391 34.3983 9.44667 33.7699C8.67288 32.6869 7.90619 31.5988 7.13477 30.5132C7.1395 30.4639 7.14423 30.4146 7.14423 30.3652C7.14423 27.1398 7.14423 23.9143 7.14186 20.6888ZM30.6868 31.4637C29.1298 31.4637 27.5751 31.4689 26.0181 31.4585C25.7791 31.4559 25.7081 31.5261 25.7104 31.7936C25.7199 33.6504 25.7199 35.5072 25.7104 37.3667C25.7081 37.6264 25.7696 37.7069 26.0133 37.7069C29.1251 37.6991 32.2368 37.6991 35.3485 37.7069C35.5875 37.7069 35.6585 37.6394 35.6561 37.3719C35.6467 35.515 35.6467 33.6582 35.6561 31.7987C35.6585 31.5391 35.597 31.4585 35.3532 31.4585C33.7986 31.4689 32.2439 31.4637 30.6868 31.4637ZM17.2579 33.2635C19.3048 33.2635 21.3517 33.2609 23.3962 33.2686C23.6304 33.2686 23.7133 33.2089 23.7085 32.9362C23.6943 31.9494 23.6967 30.9599 23.7062 29.9731C23.7085 29.7471 23.6588 29.6614 23.434 29.6614C19.3143 29.6692 15.1945 29.6692 11.0747 29.6614C10.8428 29.6614 10.8049 29.7575 10.8073 29.9783C10.8144 30.9573 10.8215 31.9338 10.8049 32.9129C10.8002 33.2141 10.8925 33.2738 11.1457 33.2712C13.1831 33.2583 15.2205 33.2635 17.2579 33.2635ZM24.0327 7.1923C24.0351 5.56399 22.8922 4.29666 21.4203 4.29147C19.9532 4.28628 18.7795 5.56139 18.7747 7.16633C18.7724 8.77646 19.9366 10.0646 21.3966 10.0672C22.8756 10.0698 24.0327 8.80763 24.0327 7.1923ZM12.2082 20.0162C12.2082 22.112 12.2129 24.2078 12.2034 26.3035C12.2034 26.5476 12.2579 26.6385 12.4898 26.623C12.7879 26.6022 13.0908 26.5944 13.389 26.6256C13.6729 26.6541 13.7321 26.5399 13.7321 26.2438C13.7226 22.7509 13.725 19.2579 13.725 15.765C13.725 15.0664 13.7203 14.3678 13.7274 13.6692C13.7297 13.477 13.6777 13.4043 13.4978 13.4121C13.1618 13.4251 12.8234 13.4329 12.4898 13.4095C12.2579 13.3939 12.2034 13.4848 12.2034 13.7289C12.2129 15.8247 12.2082 17.9205 12.2082 20.0162ZM16.1812 21.2965C16.1812 22.9534 16.1883 24.6103 16.1741 26.2672C16.1718 26.5632 16.2522 26.6463 16.5125 26.6256C16.8107 26.6022 17.1136 26.6022 17.4117 26.6256C17.6626 26.6463 17.7312 26.558 17.7312 26.2802C17.7217 23.4261 17.7265 20.572 17.7265 17.7179C17.7265 17.2193 17.7194 16.7206 17.7288 16.222C17.7336 16.0246 17.6673 15.9597 17.4898 15.9649C17.1538 15.9753 16.8154 15.9857 16.4818 15.9623C16.238 15.9467 16.1741 16.0376 16.1765 16.2999C16.186 17.962 16.1812 19.6293 16.1812 21.2965ZM22.6153 21.2758C22.6153 19.5981 22.6129 17.9205 22.62 16.2428C22.62 16.0454 22.5893 15.9571 22.3858 15.9675C22.0308 15.9857 21.6759 15.9857 21.3209 15.9675C21.1221 15.9571 21.0843 16.0402 21.0843 16.2402C21.089 19.6163 21.089 22.9924 21.0843 26.3685C21.0843 26.558 21.1198 26.6333 21.3067 26.6256C21.6617 26.61 22.0166 26.6048 22.3716 26.6256C22.5869 26.6385 22.6224 26.5528 22.62 26.3399C22.6106 24.6518 22.6153 22.9638 22.6153 21.2758ZM24.9532 21.9614C24.9532 23.4183 24.958 24.8752 24.9485 26.3321C24.9485 26.5476 24.9887 26.6359 25.2017 26.623C25.5543 26.6022 25.9116 26.61 26.2642 26.6204C26.4275 26.6256 26.4842 26.571 26.4842 26.384C26.4795 23.4416 26.4795 20.4967 26.4842 17.5543C26.4842 17.3595 26.4156 17.3205 26.2594 17.3257C25.914 17.3361 25.5685 17.3413 25.223 17.3231C25.01 17.3128 24.9461 17.3803 24.9461 17.6218C24.958 19.0683 24.9532 20.5148 24.9532 21.9614ZM14.1154 22.473C14.1154 23.7715 14.1178 25.07 14.1131 26.3685C14.1131 26.5554 14.1486 26.6333 14.3355 26.623C14.6999 26.6074 15.0643 26.61 15.4264 26.6204C15.5849 26.6256 15.6488 26.5892 15.6464 26.3944C15.6393 23.787 15.6417 21.1823 15.6464 18.5749C15.6464 18.3853 15.5849 18.3386 15.424 18.3438C15.0785 18.3542 14.7331 18.3593 14.3876 18.3412C14.177 18.3308 14.1083 18.3931 14.1107 18.6372C14.1202 19.9175 14.1154 21.1953 14.1154 22.473ZM22.956 23.1949C22.956 24.2415 22.9608 25.2907 22.9513 26.3373C22.9489 26.558 23.0034 26.6359 23.2116 26.623C23.5642 26.6048 23.9215 26.61 24.2741 26.6204C24.435 26.6256 24.4989 26.5762 24.4989 26.3866C24.4942 24.2519 24.4942 22.1172 24.4989 19.9825C24.4989 19.8033 24.4516 19.7331 24.2812 19.7383C23.9357 19.7487 23.5902 19.7539 23.2447 19.7357C23.0223 19.7228 22.9466 19.7955 22.9513 20.05C22.9631 21.0992 22.956 22.1457 22.956 23.1949ZM30.6845 30.5106C32.1776 30.5106 33.6684 30.5132 35.1616 30.508C35.7153 30.5055 35.6396 30.5963 35.6585 29.9653C35.6656 29.729 35.5993 29.6588 35.3816 29.6588C32.251 29.6666 29.1203 29.6666 25.9897 29.6588C25.772 29.6588 25.6868 29.729 25.7152 29.9653C25.7223 30.025 25.7223 30.0873 25.7152 30.1445C25.675 30.4301 25.7767 30.5184 26.0441 30.5158C27.5893 30.5029 29.1369 30.5106 30.6845 30.5106ZM10.8073 18.6476C10.8073 21.6341 10.812 24.6207 10.8002 27.6046C10.8002 27.8773 10.8617 27.9448 11.1102 27.9448C16.5149 27.937 21.9196 27.9396 27.3267 27.9396C27.3905 27.9396 27.4544 27.937 27.5183 27.9396C27.5964 27.9422 27.6319 27.9085 27.6295 27.815C27.6272 27.7241 27.587 27.6929 27.5112 27.6955C27.4379 27.6981 27.3645 27.6955 27.2935 27.6955C21.9693 27.6955 16.6474 27.6929 11.3232 27.7033C11.0676 27.7033 11.0155 27.6254 11.0155 27.3579C11.0226 21.4757 11.0203 15.5936 11.0203 9.71138C11.0203 9.62049 11.0203 9.53219 11.0132 9.44129C11.0061 9.36078 10.9469 9.35819 10.8925 9.35819C10.8357 9.35819 10.812 9.39455 10.8097 9.45168C10.8073 9.53219 10.8073 9.61009 10.8073 9.6906C10.8073 12.6771 10.8073 15.6611 10.8073 18.6476ZM28.1833 25.8127C28.1833 26.101 28.1904 26.3892 28.1809 26.6775C28.1762 26.8463 28.2306 26.9034 28.3844 26.9008C28.9097 26.893 29.4374 26.893 29.9627 26.9008C30.1095 26.9034 30.1804 26.8593 30.1781 26.6827C30.1733 26.0958 30.1733 25.5088 30.1781 24.9219C30.1781 24.7687 30.126 24.709 29.9864 24.709C29.4516 24.7142 28.9168 24.7142 28.382 24.709C28.2235 24.7064 28.1785 24.7843 28.1833 24.9453C28.188 25.2362 28.1833 25.5244 28.1833 25.8127ZM29.1795 21.216C28.9074 21.216 28.6352 21.2238 28.3631 21.2134C28.2164 21.2082 28.1809 21.268 28.1809 21.4186C28.188 22.0055 28.188 22.595 28.1809 23.1819C28.1785 23.3404 28.2282 23.3871 28.3678 23.3845C28.9026 23.3767 29.4398 23.3793 29.9746 23.3845C30.1071 23.3871 30.1733 23.3585 30.171 23.1897C30.1639 22.5924 30.1639 21.9925 30.171 21.3952C30.1733 21.2498 30.126 21.2056 29.9982 21.2108C29.7261 21.2212 29.454 21.216 29.1795 21.216ZM29.1677 19.8968C29.4398 19.8968 29.7143 19.889 29.9864 19.8994C30.1284 19.9045 30.1781 19.85 30.1757 19.6942C30.171 19.1047 30.171 18.5178 30.1757 17.9282C30.1781 17.7672 30.1142 17.7257 29.9793 17.7283C29.4422 17.7335 28.9074 17.7335 28.3702 17.7283C28.2282 17.7257 28.1809 17.7828 28.1809 17.936C28.1856 18.5255 28.188 19.1125 28.1809 19.702C28.1785 19.8682 28.2448 19.902 28.3773 19.8994C28.6423 19.8916 28.905 19.8968 29.1677 19.8968ZM33.3868 26.61C33.95 26.61 34.5156 26.61 35.0788 26.61C35.6585 26.61 35.6467 26.61 35.6609 25.9815C35.6656 25.7166 35.5946 25.6413 35.3532 25.6439C34.144 25.6569 32.9349 25.6491 31.7257 25.6491C31.1057 25.6491 31.1128 25.6491 31.1175 26.3373C31.1199 26.545 31.1767 26.6152 31.3683 26.6126C32.0404 26.6022 32.7148 26.61 33.3868 26.61ZM33.3939 19.6007C33.9666 19.6007 34.5369 19.6007 35.1095 19.6007C35.6585 19.6007 35.6443 19.6007 35.6609 19.0008C35.668 18.6995 35.5615 18.6346 35.3106 18.6372C34.1133 18.6476 32.9136 18.6424 31.7162 18.6424C31.1128 18.6424 31.1246 18.6424 31.1175 19.3098C31.1151 19.5617 31.2051 19.6085 31.4062 19.6033C32.0664 19.5929 32.7313 19.6007 33.3939 19.6007ZM33.3916 22.1717C32.8094 22.1717 32.2297 22.1665 31.6476 22.1743C31.0394 22.1821 31.1388 22.0704 31.1175 22.7638C31.1104 23.0131 31.1838 23.0859 31.4109 23.0859C32.6367 23.0755 33.8625 23.0859 35.0882 23.0781C35.7413 23.0729 35.6396 23.2105 35.6585 22.4418C35.6632 22.2315 35.597 22.1665 35.4077 22.1691C34.7356 22.1769 34.0636 22.1717 33.3916 22.1717ZM33.3892 21.216C32.7172 21.216 32.0427 21.2264 31.3707 21.2108C31.1199 21.203 31.1175 21.3459 31.1175 21.5433C31.1199 21.7354 31.1104 21.8835 31.366 21.8809C32.7124 21.8679 34.0589 21.8679 35.4029 21.8809C35.6538 21.8835 35.6561 21.7458 35.6538 21.5484C35.6514 21.3563 35.6632 21.203 35.4053 21.2108C34.7356 21.2264 34.0636 21.216 33.3892 21.216ZM33.3939 25.353C34.0589 25.353 34.7214 25.3426 35.3864 25.3582C35.6112 25.3634 35.6656 25.2725 35.6609 25.0466C35.6561 24.8284 35.6348 24.6908 35.384 24.6934C34.047 24.7038 32.7101 24.7038 31.3731 24.6934C31.1222 24.6908 31.1222 24.831 31.1199 25.0284C31.1199 25.231 31.127 25.366 31.3754 25.3608C32.0475 25.3426 32.7195 25.353 33.3939 25.353ZM33.3916 17.7361C32.7101 17.7361 32.0262 17.7439 31.3447 17.7309C31.0962 17.7257 31.1222 17.8919 31.1222 18.0633C31.1222 18.2373 31.1009 18.3957 31.347 18.3957C32.703 18.3853 34.0565 18.3879 35.4124 18.3957C35.6656 18.3983 35.6514 18.2321 35.6585 18.0399C35.6656 17.8399 35.6372 17.7257 35.4124 17.7309C34.738 17.7465 34.0636 17.7361 33.3916 17.7361ZM20.3105 34.4035C21.3659 34.4035 22.4213 34.4035 23.4766 34.4035C23.5973 34.4035 23.744 34.4451 23.7464 34.2191C23.7488 33.9984 23.6233 33.988 23.4743 33.988C21.3824 33.988 19.2906 33.988 17.1964 33.988C17.0473 33.988 16.9219 34.001 16.9266 34.2217C16.9314 34.4503 17.0804 34.4035 17.1988 34.4035C18.2376 34.4035 19.274 34.4035 20.3105 34.4035ZM32.2557 40.335C33.2922 40.335 34.3286 40.335 35.3674 40.3325C35.4929 40.3325 35.6561 40.3896 35.6561 40.1377C35.6538 39.9117 35.5189 39.9169 35.3769 39.9169C33.2945 39.9169 31.2098 39.9169 29.1274 39.9169C28.9902 39.9169 28.8458 39.8988 28.8387 40.1273C28.8316 40.374 28.9878 40.3299 29.1203 40.3299C30.1639 40.3376 31.2098 40.335 32.2557 40.335ZM32.2415 39.0755C31.1956 39.0755 30.1497 39.0755 29.1038 39.0755C28.9831 39.0755 28.8364 39.0314 28.834 39.2599C28.8316 39.4832 28.9618 39.4884 29.1085 39.4884C31.2003 39.4884 33.2922 39.4884 35.384 39.4884C35.5331 39.4884 35.6561 39.4728 35.6514 39.2547C35.6467 39.0236 35.4952 39.0781 35.3769 39.0755C34.3334 39.0729 33.2874 39.0755 32.2415 39.0755ZM32.2486 38.5951C33.2945 38.5951 34.3405 38.5951 35.3864 38.5951C35.5071 38.5951 35.6538 38.6392 35.6538 38.4107C35.6538 38.1873 35.526 38.1821 35.3793 38.1821C33.2874 38.1821 31.1956 38.1821 29.1038 38.1821C28.9523 38.1821 28.8316 38.1977 28.8364 38.4159C28.8411 38.647 28.9949 38.5925 29.1109 38.5925C30.1568 38.5951 31.2027 38.5951 32.2486 38.5951ZM20.3199 35.2969C21.3659 35.2969 22.4118 35.2969 23.4577 35.2969C23.595 35.2969 23.7464 35.3177 23.744 35.0865C23.7417 34.8528 23.5855 34.884 23.453 34.884C21.3706 34.884 19.2859 34.884 17.2035 34.884C17.0686 34.884 16.9243 34.8502 16.9266 35.0943C16.929 35.341 17.0804 35.2969 17.2106 35.2969C18.247 35.2969 19.2835 35.2969 20.3199 35.2969ZM20.3365 37.5173C19.2906 37.5173 18.2447 37.5173 17.1988 37.5199C17.0804 37.5199 16.9314 37.4706 16.9266 37.7017C16.9243 37.9224 17.0497 37.9328 17.1988 37.9328C19.2906 37.9328 21.3824 37.9328 23.4743 37.9328C23.6233 37.9328 23.7488 37.9224 23.7464 37.7017C23.744 37.4706 23.5926 37.5199 23.4743 37.5199C22.4284 37.5147 21.3824 37.5173 20.3365 37.5173ZM20.3105 38.7743C21.3659 38.7743 22.4213 38.7743 23.4766 38.7743C23.595 38.7743 23.744 38.821 23.7464 38.5925C23.7488 38.3717 23.6233 38.3613 23.4743 38.3613C21.3824 38.3613 19.2906 38.3613 17.1988 38.3613C17.0497 38.3613 16.9243 38.3717 16.929 38.5925C16.9337 38.8236 17.0828 38.7717 17.2011 38.7743C18.2376 38.7769 19.274 38.7743 20.3105 38.7743ZM20.3128 39.2573C19.2669 39.2573 18.221 39.2625 17.1751 39.2521C16.955 39.2495 16.8959 39.3534 16.9385 39.5585C16.974 39.7299 17.1159 39.6676 17.213 39.6676C19.2859 39.6702 21.3611 39.6702 23.434 39.6702C23.4885 39.6702 23.5429 39.6702 23.5973 39.665C23.7156 39.6546 23.744 39.5689 23.744 39.4573C23.744 39.3404 23.6991 39.2651 23.5855 39.2599C23.5121 39.2573 23.4411 39.2573 23.3678 39.2573C22.3503 39.2573 21.3304 39.2573 20.3128 39.2573ZM20.2845 37.0369C21.3304 37.0369 22.3763 37.0369 23.4222 37.0369C23.5524 37.0369 23.7038 37.081 23.7062 36.8343C23.7085 36.5954 23.5666 36.6214 23.4293 36.6214C21.3564 36.6214 19.2811 36.6214 17.2082 36.6214C17.0781 36.6214 16.929 36.5772 16.9266 36.8239C16.9243 37.0654 17.0639 37.0369 17.2011 37.0369C18.2281 37.0369 19.2575 37.0369 20.2845 37.0369ZM20.3436 35.7747C20.1614 35.7747 19.9792 35.7747 19.7994 35.7747C18.9191 35.7747 18.0364 35.7721 17.1562 35.7773C16.9621 35.7773 16.8675 35.9202 16.9503 36.0682C17.0166 36.1877 17.1301 36.1383 17.2248 36.1383C19.2882 36.1409 21.3493 36.1409 23.4127 36.1383C23.5358 36.1383 23.7109 36.2032 23.7038 35.9513C23.6967 35.6994 23.5169 35.7799 23.3985 35.7799C22.3787 35.7721 21.3611 35.7747 20.3436 35.7747Z" fill="#F2F2F2"/>
<path d="M36.3789 46.0302C36.3836 45.9004 36.3955 45.7731 36.3955 45.6433C36.3955 37.616 36.3955 29.5887 36.3955 21.5614C36.3955 20.6551 36.7481 20.2681 37.5692 20.2655C37.9501 20.2655 38.3335 20.2577 38.7145 20.2525C38.7949 20.2577 38.8777 20.2655 38.9582 20.2655C43.2815 20.2655 47.6048 20.2655 51.9304 20.2655C52.0038 20.2655 52.0748 20.2577 52.1481 20.2551C53.7052 20.2603 55.2598 20.2629 56.8169 20.2655C57.5812 20.2681 57.948 20.6707 57.948 21.5173C57.948 30.9547 57.948 40.3922 57.948 49.8322C57.948 50.6425 57.5647 51.0606 56.8169 51.0606C51.7293 51.0606 46.6417 51.0606 41.5564 51.0606C41.4476 51.0606 41.3387 51.0658 41.2299 51.0684C39.9757 51.0658 38.7239 51.0632 37.4698 51.058C36.8025 51.0554 36.4073 50.6139 36.4026 49.8816C36.4002 49.5336 36.4049 49.183 36.4026 48.835C36.3931 47.9027 36.386 46.9652 36.3789 46.0302ZM47.1765 29.5368C49.8599 29.5394 52.5409 29.5472 55.2243 29.542C55.7402 29.542 56.1401 29.0667 56.1425 28.4902C56.1449 26.8541 56.1449 25.2154 56.1425 23.5793C56.1425 22.9534 55.7497 22.5067 55.1723 22.486C54.8552 22.473 54.5357 22.4886 54.2187 22.4911C53.8235 22.4937 53.4259 22.4963 53.0308 22.4963C52.6805 22.4937 52.3303 22.4937 51.9777 22.4911C51.2726 22.4911 50.5674 22.4937 49.8623 22.4937C49.5807 22.4886 49.2991 22.4808 49.0175 22.4808C45.7685 22.4808 42.5195 22.4808 39.2729 22.4808C38.6317 22.4808 38.201 22.8963 38.1962 23.5585C38.1844 25.205 38.1844 26.8541 38.1962 28.5006C38.201 29.0849 38.6127 29.5394 39.1333 29.5394C41.0903 29.5446 43.0449 29.5368 45.0018 29.5342C45.7259 29.5368 46.4524 29.5368 47.1765 29.5368ZM51.7127 43.9293C51.7127 45.1473 51.7104 46.3652 51.7127 47.5832C51.7151 48.2273 52.1197 48.6714 52.7089 48.674C53.5088 48.6766 54.311 48.6766 55.1108 48.674C55.7166 48.6714 56.1236 48.2325 56.1259 47.5703C56.1283 45.1654 56.1283 42.758 56.1259 40.3532C56.1259 39.691 55.7166 39.2521 55.1108 39.2495C54.3275 39.2469 53.5466 39.2469 52.7634 39.2495C52.0984 39.2495 51.7104 39.6728 51.7104 40.3974C51.7127 41.5712 51.7127 42.7502 51.7127 43.9293ZM44.6966 30.7963C42.8579 30.7963 41.0193 30.7937 39.1806 30.7963C38.5962 30.7963 38.1702 31.2586 38.1702 31.8793C38.1679 32.5051 38.5914 32.9674 39.1759 32.9674C42.8343 32.97 46.4926 32.9674 50.1509 32.9674C50.2693 32.9674 50.3852 32.9622 50.5012 32.9181C50.9508 32.7441 51.23 32.2273 51.1543 31.7053C51.0762 31.1729 50.6834 30.7963 50.1864 30.7963C48.3549 30.7937 46.5257 30.7963 44.6966 30.7963ZM53.9205 38.4834C54.3204 38.4834 54.7203 38.4886 55.1226 38.4834C55.726 38.473 56.1259 38.0263 56.1307 37.3641C56.133 36.6655 56.133 35.9669 56.1307 35.2657C56.1283 34.6061 55.7402 34.1412 55.1344 34.1256C54.3252 34.1049 53.5135 34.1023 52.7042 34.1256C52.0913 34.1438 51.7175 34.6035 51.7151 35.2683C51.7127 35.9773 51.7127 36.6863 51.7151 37.3953C51.7175 38.0263 52.115 38.4678 52.6924 38.4782C53.1018 38.4886 53.5111 38.4808 53.9205 38.4834ZM49.1571 38.4808C49.5759 38.4808 49.9948 38.4834 50.4112 38.4808C50.8963 38.4756 51.159 38.1925 51.159 37.6679C51.1614 36.7694 51.1614 35.8708 51.159 34.9723C51.1566 34.4555 50.8987 34.1282 50.4302 34.1179C49.5949 34.0997 48.7572 34.1023 47.9195 34.1179C47.4581 34.1256 47.1836 34.4607 47.1812 34.9645C47.1788 35.8734 47.1765 36.7824 47.1812 37.6887C47.1836 38.164 47.4652 38.473 47.8982 38.4782C48.3218 38.4834 48.7382 38.4808 49.1571 38.4808ZM46.5825 36.3149C46.5825 35.8371 46.5872 35.3566 46.5801 34.8788C46.573 34.4711 46.3553 34.188 45.9886 34.1568C45.0728 34.0763 44.157 34.0867 43.2413 34.1542C42.891 34.1802 42.6733 34.4087 42.6402 34.7957C42.555 35.7695 42.5976 36.7486 42.6142 37.7251C42.6237 38.2211 42.9147 38.4782 43.3643 38.4782C44.1996 38.4808 45.0373 38.4808 45.8726 38.4782C46.3104 38.4756 46.5778 38.177 46.5825 37.6913C46.5849 37.2316 46.5825 36.772 46.5825 36.3149ZM49.2352 43.5735C49.6611 43.5735 50.0894 43.5761 50.5154 43.5735C50.9413 43.5709 51.2158 43.2826 51.2182 42.81C51.2253 41.8828 51.2253 40.9557 51.2182 40.0286C51.2158 39.543 50.9413 39.2521 50.4988 39.2495C49.654 39.2469 48.8092 39.2469 47.9645 39.2495C47.5432 39.2495 47.2522 39.5326 47.2427 40C47.2285 40.9376 47.2285 41.8751 47.2427 42.8126C47.2498 43.2904 47.5409 43.5735 47.9787 43.5735C48.3975 43.5761 48.8163 43.5735 49.2352 43.5735ZM49.2233 44.3448C48.8045 44.3448 48.3857 44.3422 47.9668 44.3448C47.5432 44.3474 47.2522 44.6253 47.2427 45.0927C47.2262 46.0302 47.2285 46.9704 47.2427 47.9105C47.2498 48.3779 47.5409 48.6688 47.9597 48.6688C48.8163 48.6714 49.6706 48.6714 50.5272 48.6688C50.92 48.6662 51.2134 48.3753 51.2182 47.9494C51.23 46.9911 51.23 46.0328 51.2182 45.072C51.2134 44.6357 50.9318 44.35 50.5343 44.3474C50.0965 44.3422 49.6611 44.3448 49.2233 44.3448ZM40.1745 34.1516C39.7367 34.1516 39.3013 34.1464 38.8636 34.1516C38.44 34.1568 38.1773 34.4321 38.1726 34.897C38.1655 35.8345 38.1655 36.7746 38.1726 37.7121C38.1749 38.1769 38.4542 38.4756 38.8801 38.4782C39.7273 38.4834 40.572 38.4834 41.4192 38.4782C41.8451 38.4756 42.1386 38.1899 42.1456 37.7251C42.1622 36.7876 42.1598 35.8475 42.1456 34.9099C42.1386 34.4321 41.8451 34.1542 41.4026 34.1516C40.9933 34.149 40.5839 34.1516 40.1745 34.1516ZM40.2076 48.6688C40.6265 48.6688 41.0453 48.6688 41.4641 48.6688C41.9043 48.6662 42.1977 48.3857 42.2024 47.9079C42.2143 46.9703 42.2166 46.0302 42.2024 45.0927C42.1953 44.6253 41.9043 44.3474 41.4807 44.3448C40.6336 44.3422 39.7888 44.3422 38.9416 44.3448C38.537 44.3448 38.2365 44.6383 38.2317 45.0745C38.2199 46.0328 38.2199 46.9911 38.2317 47.9494C38.2365 48.3675 38.5417 48.6636 38.9274 48.6662C39.3534 48.6714 39.7793 48.6688 40.2076 48.6688ZM40.2289 39.2495C39.8006 39.2495 39.3747 39.2469 38.9464 39.2495C38.5181 39.2521 38.2294 39.5559 38.227 40.0338C38.2199 40.9531 38.2199 41.8699 38.227 42.7892C38.2294 43.267 38.5181 43.5709 38.9464 43.5735C39.7935 43.5761 40.6383 43.5761 41.4854 43.5735C41.9066 43.5735 42.1953 43.2852 42.2024 42.8204C42.2166 41.8829 42.2166 40.9427 42.2024 40.0052C42.1953 39.5378 41.9066 39.2521 41.4854 39.2495C41.0666 39.2495 40.6478 39.2495 40.2289 39.2495ZM44.6729 44.3448C44.2375 44.3448 43.7997 44.3422 43.3643 44.3448C42.9715 44.35 42.7041 44.6201 42.6994 45.046C42.6899 46.0147 42.6899 46.9807 42.6994 47.9494C42.7017 48.3805 42.9644 48.661 43.3548 48.6636C44.228 48.6688 45.1012 48.6688 45.972 48.6636C46.379 48.661 46.6346 48.3779 46.6369 47.9312C46.6417 46.9833 46.6417 46.0354 46.6369 45.0875C46.6346 44.6253 46.379 44.3474 45.9531 44.3422C45.5271 44.3422 45.0988 44.3448 44.6729 44.3448ZM44.6611 43.5735C45.0965 43.5735 45.5342 43.5787 45.9696 43.5709C46.3766 43.5657 46.6322 43.2852 46.6346 42.8385C46.6393 41.8906 46.6393 40.9427 46.6346 39.9948C46.6322 39.5326 46.3743 39.2521 45.9507 39.2495C45.0965 39.2469 44.2422 39.2469 43.388 39.2495C42.9597 39.2521 42.697 39.5222 42.6946 39.9844C42.6875 40.9324 42.6875 41.8803 42.6946 42.8282C42.697 43.2956 42.9549 43.5683 43.3785 43.5735C43.8068 43.5761 44.2351 43.5735 44.6611 43.5735ZM54.027 33.0479V33.0453C54.408 33.0453 54.7913 33.0453 55.1723 33.0453C55.2078 33.0453 55.2433 33.0323 55.2788 33.0245C55.8349 32.9155 56.1638 32.4298 56.1117 31.7884C56.0668 31.217 55.6621 30.8197 55.1179 30.8171C54.4174 30.8145 53.717 30.8145 53.0166 30.8171C52.4084 30.8171 52.0061 31.2404 51.999 31.8793C51.992 32.5675 52.38 33.0297 52.9882 33.0479C53.336 33.0557 53.6815 33.0479 54.027 33.0479Z" fill="#362F2D"/>
<path d="M38.7129 16.9076C36.9689 15.913 35.8023 14.3989 35.2604 12.3187C35.0167 11.3838 35.0096 10.4307 35.0664 9.47245C35.109 9.23872 35.1492 9.00499 35.1918 8.77386C35.2012 8.72712 35.2083 8.67778 35.2178 8.63103C35.2888 8.38951 35.3574 8.15059 35.4284 7.90907C35.6035 7.43642 35.8212 6.98454 36.046 6.53786C36.4767 5.84187 36.9997 5.23937 37.577 4.68881C37.7971 4.53039 38.0172 4.37197 38.2372 4.21355C39.0394 3.72532 39.8866 3.37992 40.8047 3.27085C41.0035 3.24747 41.2046 3.25007 41.4034 3.22929C41.5809 3.21112 41.614 3.30201 41.614 3.47341C41.6116 4.33301 41.6187 5.19002 41.6211 6.04963C41.6164 7.39746 41.6187 8.7453 41.6069 10.0905C41.6045 10.3191 41.6661 10.4801 41.8199 10.6333C43.313 12.1084 44.7967 13.5913 46.2875 15.069C46.4034 15.1858 46.465 15.2715 46.3254 15.4299C45.1209 16.7804 43.6585 17.5075 41.9429 17.6166C40.8094 17.6893 39.7351 17.4348 38.7129 16.9076Z" fill="#1A88E1"/>
<path d="M21.8462 46.0458C22.3431 45.4122 22.833 44.7733 23.434 44.2487C24.1203 43.6488 24.842 43.119 25.7081 42.8853C26.2996 42.7243 26.8439 42.7762 27.2509 43.3579C27.4662 44.1864 27.2698 44.9551 26.9338 45.6874C26.1387 47.4274 24.9461 48.7675 23.4175 49.7335C22.8093 50.1179 22.1586 50.4062 21.4226 50.2244C21.3919 50.2166 21.3493 50.2218 21.3375 50.3282C21.5007 50.497 21.6782 50.697 21.8722 50.8762C22.0544 51.045 22.2603 51.1697 22.5088 51.1801C22.8756 51.1982 23.2258 51.1125 23.5736 50.9853C24.1321 50.7827 24.6054 50.4113 25.107 50.0971C25.2253 50.388 25.32 50.6814 25.275 51.0087C25.152 51.1541 25.1023 51.3515 24.9698 51.4995C24.5675 51.9488 24.0635 52.1955 23.5334 52.3773C22.2343 52.8213 20.9091 52.8395 19.5769 52.611C18.8102 52.4811 18.0766 52.237 17.4046 51.7826C17.0686 51.554 16.8698 51.2034 16.6261 50.8918C16.5622 50.6191 16.6639 50.3672 16.6994 50.1049C16.858 49.8608 17.0213 49.6297 17.2555 49.4583C18.1595 48.8038 19.1723 48.5857 20.23 48.5441C20.7222 48.5259 20.7222 48.5389 20.8737 48.0403C20.902 47.9468 20.9375 47.8533 20.9683 47.7598C21.1718 47.1339 21.5362 46.6068 21.8462 46.0458Z" fill="#F1D353"/>
<path d="M46.1427 9.73995C44.9051 9.73476 43.6675 9.71918 42.4322 9.73476C42.1459 9.73736 42.0868 9.64386 42.0891 9.34781C42.101 8.32979 42.0868 7.31177 42.082 6.29376C42.0868 5.15627 42.0891 4.01879 42.0939 2.88391C42.0962 2.50735 42.0939 2.50735 42.4441 2.53332C45.6789 2.76185 48.2132 5.38221 48.6107 8.90892C48.703 9.73476 48.703 9.73217 47.9434 9.73476C47.3424 9.73217 46.7437 9.73736 46.1427 9.73995Z" fill="#3EF2FE"/>
<path d="M25.2755 51.0087C25.3229 50.6814 25.2258 50.388 25.1075 50.0971C25.2684 49.9387 25.4317 49.7803 25.5926 49.6193C25.718 49.492 25.8221 49.4972 25.9334 49.6479C26.0138 49.7543 26.1085 49.8634 26.2173 49.9231C26.5273 50.0893 26.6314 50.3386 26.5959 50.7152C26.5462 51.2346 26.764 51.6319 27.1355 51.9488C27.6419 52.3799 28.2216 52.6344 28.8345 52.798C30.046 53.1252 31.2742 53.1772 32.5047 52.972C33.3163 52.8369 34.1043 52.6058 34.8047 52.102C35.3017 51.7436 35.6069 51.2762 35.5478 50.5854C35.5265 50.3283 35.543 50.066 35.5407 49.8063C35.588 49.0921 35.2685 48.622 34.7195 48.3026C34.8686 48.1208 35.0816 48.0429 35.2543 47.9001C35.6543 47.5729 35.9287 47.1833 35.8814 46.5938C35.8672 46.4094 35.8388 46.2146 35.9122 46.0328C36.066 46.0328 36.2198 46.0328 36.3736 46.0302C36.3807 46.9652 36.3878 47.9027 36.3925 48.8376C36.3949 49.1856 36.3902 49.5362 36.3925 49.8842C36.3973 50.6165 36.7925 51.0554 37.4598 51.0606C38.7139 51.0658 39.9657 51.0684 41.2199 51.071C40.2284 51.7254 39.173 52.237 38.0939 52.6915C36.7522 53.2577 35.3703 53.6836 33.9552 53.9614C33.1365 54.1225 32.3083 54.2367 31.4753 54.3068C30.4294 54.3951 29.3835 54.3848 28.3423 54.3432C27.0929 54.2939 25.8529 54.0887 24.6295 53.79C24.3858 53.7303 24.1255 53.7251 23.9102 53.5615C23.9717 53.4654 24.0758 53.4472 24.1634 53.3979C24.71 53.0863 25.2045 52.7201 25.2566 51.9618C25.2874 51.6423 25.2732 51.3255 25.2755 51.0087Z" fill="#E1CC7F"/>
<path d="M3.33674 46.3315C3.25865 45.5238 3.72245 45.0823 4.27617 44.7343C5.09256 44.2201 5.99413 44.015 6.92173 43.9267C7.00218 43.9189 7.08264 43.9059 7.1631 43.8955C7.8517 43.8488 8.5403 43.8773 9.2218 43.989C10.0973 44.1344 10.9492 44.363 11.6852 44.9421C12.0259 45.2096 12.2933 45.542 12.3406 46.0277C12.3406 46.0484 12.343 46.0692 12.343 46.09C12.3383 46.1523 12.3335 46.212 12.3312 46.2744C12.1632 46.8847 11.7419 47.2378 11.2592 47.5157C10.2559 48.0948 9.15555 48.2481 8.05047 48.2922C7.02348 48.3338 6.00359 48.1857 5.02867 47.8066C4.3164 47.5339 3.65383 47.1625 3.33674 46.3315Z" fill="#F1D353"/>
<path d="M37.5773 4.68621C37 5.23677 36.477 5.83927 36.0463 6.53527C35.9115 6.51709 35.7837 6.56124 35.6535 6.5924C35.0193 6.71965 34.3923 6.87547 33.8078 7.18711C33.3227 7.35592 32.8565 7.56627 32.4448 7.90388C32.3501 7.84155 32.2626 8.15319 32.1632 7.90907C32.291 7.69093 32.2484 7.42603 32.3265 7.1949C32.4164 6.35348 32.3714 5.50946 32.3809 4.66803C32.2365 3.34876 31.9336 2.08143 31.3468 0.907592C31.2025 0.621923 31.051 0.341452 30.9043 0.0583801C31.6047 0.164857 32.2507 0.453123 32.892 0.75697C34.3165 1.43219 35.5802 2.3671 36.6663 3.58768C36.69 3.61625 36.7255 3.63184 36.7562 3.65521C36.7728 3.67598 36.7894 3.69417 36.8059 3.71494L36.8036 3.71234C37.0591 4.03697 37.3171 4.36159 37.5773 4.68621Z" fill="#D7D7D7"/>
<path d="M7.15609 36.4162C6.38703 35.3307 5.61798 34.2451 4.84655 33.1596C4.43481 32.5779 4.02307 31.9935 3.61133 31.4118C3.96391 31.1132 4.32359 30.8249 4.66671 30.5132C4.83708 30.3574 4.93174 30.3704 5.07135 30.5678C5.96583 31.8377 6.87213 33.0998 7.7737 34.362C8.0056 34.6866 8.09552 34.7126 8.45047 34.5645C8.54986 34.6139 8.58298 34.723 8.63031 34.8191C9.01602 35.5852 9.40174 36.3513 9.78981 37.1174C10.6204 38.7613 11.451 40.4078 12.2816 42.0517C12.8211 43.1216 13.3724 44.1864 13.8978 45.2667C14.0965 45.6745 14.3616 46.051 14.4728 46.5081C14.2787 46.3964 14.177 46.1809 14.0255 46.0199C13.7653 45.6485 13.5097 45.2745 13.2447 44.9058C12.5466 43.9345 11.8462 42.9658 11.1481 41.9971C11.0605 41.8205 10.9422 41.6699 10.8144 41.5271C10.3767 40.9064 9.94126 40.2831 9.49876 39.665C8.71787 38.5847 7.93698 37.5017 7.15609 36.4162Z" fill="#DF4327"/>
<path d="M3.33693 46.3315C3.65401 47.1625 4.31658 47.5313 5.02885 47.8092C6.00378 48.1883 7.02367 48.3338 8.05065 48.2948C9.1581 48.2507 10.2561 48.0948 11.2594 47.5183C11.7421 47.2404 12.1633 46.8872 12.3313 46.2769C12.3361 46.412 12.3408 46.5444 12.3479 46.6795C12.3455 46.908 12.3432 47.1391 12.3408 47.3677C12.3384 47.643 12.2651 47.8897 12.1136 48.1182C11.7942 48.6012 11.3399 48.8765 10.8548 49.0739C9.31191 49.705 7.72174 49.7621 6.115 49.4712C5.78371 49.4115 5.45952 49.3076 5.11404 49.2193C5.15663 49.3362 5.23709 49.344 5.29861 49.3752C6.12683 49.7933 7.00947 49.9777 7.90631 50.0322C9.21016 50.1101 10.4998 49.988 11.7185 49.4011C12.2982 49.1232 12.7999 48.7545 13.0412 48.0715C13.0436 48.4506 13.0554 48.8298 13.0436 49.2089C13.0294 49.7283 12.7313 50.0659 12.3763 50.349C11.7753 50.8269 11.0796 51.0606 10.3626 51.2086C8.77475 51.5358 7.20351 51.4787 5.66539 50.8892C5.25129 50.7308 4.86321 50.5152 4.52956 50.1958C4.19827 49.8764 3.9924 49.492 4.03973 48.9908C4.06102 48.7545 4.00187 48.5909 3.81966 48.4324C3.48364 48.1416 3.2967 47.7572 3.32509 47.2612C3.34402 46.9522 3.33456 46.6405 3.33693 46.3315Z" fill="#F3BD31"/>
<path d="M11.1452 42.0049C11.8456 42.9736 12.546 43.9423 13.2417 44.9135C13.5068 45.2823 13.7623 45.6563 14.0226 46.0276C13.4618 46.0276 12.8986 46.0302 12.3378 46.0302C12.2881 45.5446 12.0231 45.2148 11.6823 44.9447C10.9464 44.3656 10.0945 44.1344 9.21898 43.9916C8.53747 43.8799 7.84887 43.8514 7.16027 43.8981C7.15554 43.1606 7.14844 42.423 7.14844 41.6855C7.14844 39.9299 7.1508 38.1744 7.15317 36.4214C7.93406 37.5069 8.71731 38.5899 9.49584 39.6754C9.93834 40.2935 10.3737 40.9168 10.8115 41.5375C10.8068 42.0153 10.8068 42.0153 11.1452 42.0049Z" fill="#F2F2F2"/>
<path d="M12.3379 46.0277C12.8987 46.0277 13.4619 46.0251 14.0227 46.0251C14.1742 46.1835 14.2759 46.4016 14.4699 46.5133C15.1231 47.0976 15.885 47.3054 16.7132 47.2898C16.8741 47.5183 17.0351 47.7469 17.1936 47.978C17.3237 48.1676 17.4918 48.2273 17.6645 48.0819C17.8443 47.9312 17.8088 47.7391 17.6811 47.5573C17.5131 47.3209 17.345 47.0846 17.1794 46.8483C17.2054 46.573 17.2338 46.3003 17.2599 46.0251C18.6702 46.0277 20.0805 46.0277 21.4909 46.0328C21.6092 46.0328 21.7275 46.0432 21.8458 46.0458C21.5358 46.6068 21.1714 47.134 20.9679 47.7598C20.9371 47.8533 20.9016 47.9468 20.8732 48.0403C20.7218 48.5363 20.7218 48.526 20.2296 48.5441C19.1719 48.5857 18.1591 48.8012 17.2551 49.4583C17.0209 49.6271 16.8576 49.8608 16.699 50.1049C16.1595 49.7907 15.691 49.3622 15.2106 48.9597C14.3161 48.2091 13.4879 47.3755 12.6881 46.5055C12.5651 46.3731 12.4941 46.1887 12.3403 46.0926C12.3403 46.0718 12.3403 46.0484 12.3379 46.0277Z" fill="#E1CC7F"/>
<path d="M48.366 12.5083C48.0655 13.3601 47.6798 14.1548 47.1379 14.8534C47.0385 14.9806 46.977 15.0248 46.8421 14.8898C45.3064 13.3497 43.7635 11.8149 42.223 10.2801C42.2088 10.2671 42.2017 10.2489 42.1426 10.1632C43.6168 10.1632 45.0437 10.1632 46.4706 10.1632C47.1237 10.1684 47.7768 10.184 48.4299 10.1684C48.6689 10.1632 48.7162 10.2489 48.7044 10.4879C48.6666 11.1787 48.5388 11.8487 48.366 12.5083Z" fill="#FF5B5B"/>
<path d="M25.2758 51.0087C25.2735 51.3255 25.2853 51.6423 25.264 51.9592C25.2119 52.7175 24.715 53.0837 24.1707 53.3953C24.0832 53.4446 23.9791 53.4654 23.9175 53.5589C23.3733 53.7095 22.8385 53.8991 22.2777 53.9692C20.6993 54.1666 19.1636 54.0316 17.7083 53.2784C17.4456 53.1434 17.209 52.959 16.9984 52.7331C16.7215 52.437 16.5748 52.0968 16.6056 51.6657C16.6245 51.4086 16.6222 51.1489 16.6316 50.8918C16.8777 51.2034 17.0741 51.554 17.4125 51.7826C18.0845 52.237 18.8181 52.4786 19.5848 52.611C20.917 52.8369 22.2422 52.8214 23.5413 52.3773C24.0714 52.1955 24.5754 51.9488 24.9777 51.4995C25.1031 51.3515 25.1528 51.1541 25.2758 51.0087Z" fill="#F3BD31"/>
<path d="M8.44864 34.5671C8.09606 34.7152 8.00377 34.6866 7.77187 34.3646C6.8703 33.0998 5.964 31.8403 5.06953 30.5704C4.93228 30.373 4.83762 30.36 4.66488 30.5158C4.32176 30.8275 3.96208 31.1157 3.6095 31.4144C3.38943 31.1287 3.16936 30.8431 2.98242 30.5288C3.30424 30.2535 3.62606 29.9757 3.94788 29.703C4.25314 29.4433 4.25314 29.4433 4.02361 29.1213C3.95735 29.0278 3.884 28.9369 3.8272 28.8356C3.70652 28.6174 3.74438 28.3863 3.92659 28.2591C4.11826 28.1214 4.291 28.1682 4.43535 28.3499C4.5371 28.4772 4.63412 28.6096 4.71931 28.7499C4.81396 28.9109 4.90625 28.8979 5.02457 28.7862C5.19021 28.6304 5.36295 28.485 5.53096 28.3344C5.6824 28.5239 5.83148 28.7161 5.98293 28.9057L5.98766 28.8979C5.98529 28.9213 5.99476 28.9369 6.01369 28.9473C6.06811 29.0433 6.12254 29.1394 6.17933 29.2355C6.10361 29.303 6.02789 29.3706 5.9498 29.4355C5.47654 29.8043 5.47654 29.8043 5.83148 30.2925C5.85988 30.3315 5.88354 30.373 5.9143 30.412C6.36864 31.0197 6.77328 31.6715 7.25838 32.2506L7.25601 32.248C7.26784 32.3285 7.31044 32.3831 7.37433 32.422C7.39089 32.4454 7.40982 32.4714 7.42639 32.4947C7.74584 32.9518 8.05583 33.4167 8.38949 33.8634C8.5575 34.0945 8.59536 34.3152 8.44864 34.5671Z" fill="#1702FF"/>
<path d="M2.27699 28.7992C1.89601 28.2694 1.50557 27.7449 1.13405 27.2073C0.83353 26.771 0.904521 26.1919 1.28313 25.8413C1.45588 25.6802 1.63335 25.5244 1.81792 25.3816C2.20837 25.0803 2.74079 25.1505 3.04131 25.5582C3.42939 26.0828 3.79854 26.6256 4.17715 27.1579C3.44123 27.5605 2.79758 28.0929 2.27699 28.7992Z" fill="#1702FF"/>
<path d="M2.27614 28.7992C2.79673 28.0954 3.44037 27.5631 4.1763 27.1605C4.58804 27.1657 4.90276 27.3527 5.12993 27.7345C5.25298 27.9422 5.39733 28.1344 5.53221 28.3318C5.3642 28.4824 5.19146 28.6278 5.02581 28.7836C4.90513 28.8979 4.81521 28.9109 4.72056 28.7473C4.63774 28.607 4.53835 28.4746 4.43659 28.3473C4.29225 28.1656 4.11951 28.1188 3.92784 28.2565C3.74799 28.3863 3.70777 28.6174 3.82845 28.833C3.88524 28.9343 3.95623 29.0252 4.02486 29.1186C4.25439 29.4407 4.25439 29.4381 3.94913 29.7004C3.62731 29.9757 3.30549 30.2509 2.98367 30.5262C2.7849 30.2561 2.57903 29.9912 2.38972 29.7134C2.20515 29.4355 2.21461 29.1186 2.27614 28.7992Z" fill="#DF4327"/>
<path d="M13.0405 48.0715C12.8015 48.7545 12.2975 49.1207 11.7177 49.4011C10.4991 49.9881 9.2094 50.1075 7.90555 50.0322C7.00871 49.9803 6.12371 49.7933 5.29786 49.3752C5.23397 49.344 5.15588 49.3336 5.11328 49.2193C5.45877 49.3076 5.78296 49.4115 6.11424 49.4712C7.72335 49.7621 9.31352 49.7024 10.854 49.0739C11.3391 48.8765 11.7934 48.6013 12.1129 48.1182C12.262 47.8897 12.3377 47.6456 12.3401 47.3677C12.3424 47.1392 12.3448 46.908 12.3471 46.6795C12.8109 47.0015 13.0973 47.4326 13.0405 48.0715Z" fill="#F1D353"/>
<path d="M37.5769 4.68621C37.319 4.36158 37.0611 4.03956 36.8008 3.71494C37.2102 3.75649 37.5722 3.96943 37.9532 4.10707C38.0478 4.14084 38.1401 4.17459 38.2348 4.21095C38.0147 4.36937 37.797 4.52779 37.5769 4.68621Z" fill="#E1CC7F"/>
<path d="M36.8057 3.71753C36.7884 3.69676 36.7712 3.67858 36.7539 3.65781C36.7712 3.67858 36.7884 3.69935 36.8057 3.71753Z" fill="#E1CC7F"/>
<path d="M30.687 31.4637C32.244 31.4637 33.7987 31.4689 35.3558 31.4585C35.5995 31.4559 35.661 31.5365 35.6586 31.7987C35.6492 33.6556 35.6492 35.515 35.6586 37.3719C35.661 37.6394 35.5877 37.7069 35.351 37.7069C32.2393 37.6991 29.1276 37.6991 26.0158 37.7069C25.7697 37.7069 25.7106 37.6264 25.713 37.3667C25.7224 35.5098 25.7224 33.6504 25.713 31.7936C25.7106 31.5261 25.784 31.4585 26.0206 31.4585C27.5753 31.4689 29.1323 31.4637 30.687 31.4637Z" fill="#C3C3C3"/>
<path d="M17.258 33.2635C15.2206 33.2635 13.1832 33.2583 11.1458 33.2687C10.8926 33.2713 10.798 33.2089 10.8051 32.9103C10.8216 31.9312 10.8169 30.9547 10.8074 29.9757C10.8051 29.7575 10.8429 29.6588 11.0748 29.6588C15.1946 29.6666 19.3144 29.6666 23.4342 29.6588C23.659 29.6588 23.7086 29.7445 23.7063 29.9705C23.6968 30.9573 23.6945 31.9468 23.7086 32.9336C23.7134 33.2063 23.6306 33.2661 23.3963 33.2661C21.3494 33.2609 19.3025 33.2635 17.258 33.2635Z" fill="#C3C3C3"/>
<path d="M35.9176 46.0302C35.8418 46.212 35.8726 46.4068 35.8868 46.5912C35.9318 47.1807 35.6573 47.5702 35.2597 47.8975C35.087 48.0403 34.874 48.1208 34.7249 48.3C34.5167 48.3026 34.564 48.4792 34.5688 48.6038C34.5877 49.0531 34.4386 49.4349 34.1499 49.7309C33.8849 50.001 33.5749 50.2244 33.2365 50.3724C31.6866 51.0502 30.0869 51.1359 28.4518 50.8554C27.9643 50.7723 27.5076 50.5724 27.032 50.4607C27.0249 50.4555 27.0202 50.4529 27.0131 50.4477C27.0202 50.4503 27.0249 50.4555 27.032 50.4581C27.2379 50.7749 27.5573 50.91 27.8578 51.0658C28.537 51.419 29.2611 51.5878 30.0065 51.6657C31.3482 51.8059 32.6757 51.754 33.9488 51.2268C34.6113 50.9515 35.255 50.6035 35.5484 49.8037C35.5484 50.0634 35.5318 50.3256 35.5555 50.5828C35.6123 51.2736 35.307 51.741 34.8125 52.0994C34.1144 52.6032 33.3264 52.8343 32.5124 52.9694C31.2796 53.1719 30.0538 53.1226 28.8422 52.7954C28.2317 52.6318 27.6496 52.3773 27.1432 51.9462C26.7717 51.6293 26.554 51.232 26.6037 50.7126C26.6392 50.336 26.5327 50.0893 26.2251 49.9205C26.1162 49.8608 26.0216 49.7517 25.9411 49.6452C25.8275 49.4946 25.7258 49.492 25.6004 49.6167C25.4394 49.7777 25.2762 49.9361 25.1153 50.0945C24.6112 50.4088 24.138 50.7801 23.5819 50.9827C23.234 51.1099 22.8838 51.1956 22.517 51.1775C22.2686 51.1671 22.0603 51.0424 21.8805 50.8736C21.6865 50.6944 21.509 50.4944 21.3457 50.3256C21.3552 50.2192 21.3978 50.214 21.4309 50.2218C22.1668 50.4062 22.8176 50.1179 23.4257 49.7309C24.9544 48.7623 26.147 47.4222 26.9421 45.6848C27.2781 44.9525 27.4745 44.1838 27.2592 43.3553C27.51 43.5631 27.6969 43.854 27.9643 44.0409C28.0968 44.3162 28.1915 44.5941 28.1915 44.9213C28.1915 45.4537 28.0684 45.9471 27.8649 46.4172C27.7821 46.6094 27.7987 46.7236 27.9856 46.8171C28.2814 46.9677 28.5772 47.1236 28.8919 47.2222C30.2218 47.6378 31.5706 47.7027 32.9313 47.4638C34.0837 47.2612 35.1935 46.9548 35.901 45.7939C35.901 45.8744 35.9105 45.9523 35.9176 46.0302ZM33.8021 48.6636C33.7216 48.6688 33.6364 48.6636 33.5583 48.6843C32.3799 48.9908 31.192 49.0531 29.997 48.8376C29.0599 48.6688 28.1418 48.4324 27.3964 47.7183C27.3112 47.6378 27.2473 47.6326 27.1716 47.7416C26.9894 48.0013 26.8025 48.2584 26.6084 48.5104C26.4664 48.6947 26.4925 48.7934 26.6936 48.9077C27.7159 49.4816 28.8233 49.6245 29.9402 49.6686C30.6714 49.6972 31.4097 49.6219 32.1243 49.4193C32.7135 49.2531 33.3075 49.0869 33.8021 48.6636C33.8044 48.6558 33.8092 48.6506 33.8115 48.6428C33.8092 48.6506 33.8044 48.6584 33.8021 48.6636Z" fill="#F3BD31"/>
<path d="M6.17721 29.2329C6.49667 29.6588 6.81612 30.0873 7.13558 30.5132C7.90463 31.5988 8.67369 32.6869 9.44748 33.7699C9.89472 34.3983 10.3514 35.019 10.8034 35.6423C11.1181 36.0916 11.4281 36.5434 11.7476 36.9875C12.3912 37.8861 13.0396 38.7795 13.6879 39.6754C13.8725 39.9741 14.0689 40.2597 14.2961 40.522C14.6274 41.0388 14.9871 41.5297 15.3562 42.0127C15.7372 42.5555 16.0969 43.119 16.5039 43.6358C17.0505 44.3292 17.2658 45.1317 17.2611 46.025C17.2351 46.3003 17.2067 46.573 17.1806 46.8483C17.0529 47.0301 16.9795 47.2794 16.7145 47.2898C15.8886 47.3054 15.1267 47.0976 14.4712 46.5133C14.3576 46.0562 14.0949 45.6796 13.8962 45.2719C13.3685 44.1942 12.8195 43.1294 12.28 42.0568C11.4494 40.413 10.6188 38.7665 9.78823 37.1226C9.40252 36.3565 9.01444 35.5903 8.62873 34.8242C8.5814 34.7281 8.55064 34.6217 8.44889 34.5697C8.5956 34.3152 8.55774 34.0971 8.385 33.8634C8.05371 33.4167 7.74135 32.9518 7.4219 32.4947C7.40534 32.4714 7.38641 32.4454 7.36984 32.422C7.36984 32.3337 7.36038 32.248 7.25153 32.248L7.25389 32.2506C7.2042 31.8195 6.92497 31.5105 6.76643 31.1391C6.51796 30.5574 6.17248 30.0328 5.94531 29.4355C6.02577 29.3654 6.10149 29.3004 6.17721 29.2329Z" fill="#EC5B48"/>
<path d="M35.8902 45.7965C35.1827 46.9574 34.0752 47.2664 32.9205 47.4664C31.5598 47.7053 30.211 47.6404 28.8811 47.2249C28.5641 47.1262 28.2706 46.9704 27.9748 46.8197C27.7879 46.7236 27.7713 46.612 27.8542 46.4198C28.0577 45.9471 28.1807 45.4563 28.1807 44.9239C28.1807 44.5993 28.0861 44.3188 27.9535 44.0435C28.5593 43.6332 29.2408 43.4618 29.9318 43.345C31.2546 43.119 32.5703 43.1762 33.867 43.5735C34.3758 43.7293 34.8609 43.9527 35.2892 44.3007C35.7506 44.6746 35.9825 45.1577 35.8902 45.7965Z" fill="#F1D353"/>
<path d="M13.6853 39.6754C13.0393 38.7795 12.391 37.8861 11.7449 36.9875C11.4255 36.5435 11.1155 36.0916 10.8008 35.6423C10.8031 35.1826 10.8126 34.7256 10.8055 34.2659C10.8031 34.0815 10.8363 34.0062 11.0256 34.0088C12.6702 34.0166 14.3171 34.0166 15.9617 34.0088C16.1487 34.0088 16.2102 34.0607 16.2102 34.2737C16.2031 35.9799 16.2007 37.6861 16.2102 39.3923C16.2126 39.6261 16.1416 39.6702 15.9452 39.6702C15.1951 39.6598 14.4402 39.6728 13.6853 39.6754Z" fill="#345951"/>
<path d="M24.0334 7.19231C24.031 8.80763 22.8763 10.0698 21.3973 10.0672C19.9349 10.0646 18.7707 8.77647 18.7754 7.16634C18.7778 5.5614 19.9538 4.28369 21.421 4.29148C22.8928 4.29667 24.0358 5.564 24.0334 7.19231Z" fill="#42A992"/>
<path d="M12.2079 20.0162C12.2079 17.9205 12.2127 15.8247 12.2032 13.7289C12.2032 13.4848 12.2576 13.3939 12.4895 13.4095C12.8255 13.4303 13.1616 13.4251 13.4976 13.4121C13.6798 13.4043 13.7295 13.477 13.7271 13.6692C13.7176 14.3678 13.7247 15.0664 13.7247 15.765C13.7247 19.2579 13.7224 22.7508 13.7318 26.2438C13.7318 26.5399 13.6751 26.6541 13.3887 26.6256C13.0906 26.5944 12.7877 26.6022 12.4895 26.623C12.2576 26.6385 12.2008 26.5502 12.2032 26.3035C12.2127 24.2078 12.2079 22.112 12.2079 20.0162Z" fill="#42A992"/>
<path d="M32.3793 4.66804C32.3699 5.50946 32.4148 6.35348 32.3249 7.19491C30.0769 7.19231 27.8289 7.1923 25.5809 7.18971C25.2259 7.18971 25.2259 7.18971 25.2259 6.80016C25.2259 6.20026 25.2377 5.60036 25.2212 5.00305C25.2141 4.73816 25.2851 4.66544 25.5264 4.66544C27.8123 4.67582 30.0958 4.67063 32.3793 4.66804Z" fill="#C3C3C3"/>
<path d="M16.181 21.2965C16.181 19.6293 16.1857 17.962 16.1762 16.2973C16.1739 16.035 16.2354 15.9441 16.4815 15.9597C16.8175 15.9831 17.1535 15.9727 17.4896 15.9623C17.6647 15.9571 17.7309 16.0195 17.7286 16.2194C17.7191 16.718 17.7262 17.2167 17.7262 17.7153C17.7262 20.5694 17.7238 23.4235 17.7309 26.2775C17.7309 26.5554 17.6623 26.6437 17.4115 26.623C17.1133 26.5996 16.8104 26.5996 16.5123 26.623C16.2543 26.6437 16.1715 26.5632 16.1739 26.2646C16.1881 24.6103 16.181 22.9534 16.181 21.2965Z" fill="#41CEC0"/>
<path d="M22.6151 21.2758C22.6151 22.9638 22.6127 24.6518 22.6198 26.3399C22.6198 26.5528 22.5867 26.6385 22.3714 26.6255C22.0164 26.6022 21.6615 26.6074 21.3065 26.6255C21.1196 26.6333 21.0817 26.558 21.0841 26.3684C21.0888 22.9924 21.0888 19.6163 21.0841 16.2402C21.0841 16.0376 21.1219 15.9571 21.3207 15.9675C21.6757 15.9831 22.0306 15.9857 22.3856 15.9675C22.5891 15.9571 22.6198 16.0454 22.6198 16.2428C22.6127 17.9204 22.6151 19.5981 22.6151 21.2758Z" fill="#362F2D"/>
<path d="M24.954 21.9614C24.954 20.5148 24.9587 19.0683 24.9493 17.6218C24.9469 17.3803 25.0132 17.3128 25.2261 17.3231C25.5716 17.3413 25.9171 17.3335 26.2626 17.3257C26.4188 17.3205 26.4874 17.3621 26.4874 17.5543C26.4827 20.4967 26.4827 23.4416 26.4874 26.384C26.4874 26.571 26.4306 26.6229 26.2673 26.6203C25.9124 26.61 25.5574 26.6022 25.2048 26.6229C24.9919 26.6359 24.9493 26.5476 24.9516 26.3321C24.9587 24.8752 24.954 23.4183 24.954 21.9614Z" fill="#41CEC0"/>
<path d="M15.3531 42.0127C14.9816 41.5297 14.6243 41.0388 14.293 40.522C15.0289 40.5194 15.7648 40.5142 16.5008 40.5116C18.8008 40.5116 21.1009 40.5142 23.401 40.5065C23.6423 40.5065 23.7228 40.5792 23.7062 40.8441C23.6873 41.1531 23.6944 41.4621 23.7039 41.7712C23.7086 41.9556 23.6423 42.0283 23.4791 42.0101C23.4081 42.0023 23.3347 42.0101 23.2614 42.0101C20.6276 42.0127 17.9892 42.0127 15.3531 42.0127Z" fill="#C3C3C3"/>
<path d="M14.1161 22.473C14.1161 21.1953 14.1232 19.9175 14.1114 18.6372C14.109 18.3957 14.1776 18.3308 14.3883 18.3412C14.7337 18.3593 15.0792 18.3541 15.4247 18.3438C15.5856 18.3386 15.6471 18.3853 15.6471 18.5749C15.6424 21.1823 15.6424 23.787 15.6471 26.3944C15.6471 26.5892 15.5832 26.6256 15.4271 26.6204C15.0627 26.61 14.6982 26.6048 14.3362 26.623C14.1493 26.6307 14.1138 26.5554 14.1138 26.3684C14.1185 25.07 14.1161 23.7715 14.1161 22.473Z" fill="#362F2D"/>
<path d="M22.956 23.1949C22.956 22.1483 22.9631 21.0992 22.9512 20.0526C22.9489 19.7981 23.0222 19.7254 23.2447 19.7383C23.5902 19.7565 23.9356 19.7513 24.2811 19.7409C24.4515 19.7357 24.4988 19.8085 24.4988 19.9851C24.4941 22.1198 24.4941 24.2545 24.4988 26.3892C24.4988 26.5788 24.4373 26.6282 24.274 26.623C23.9191 26.6126 23.5641 26.6074 23.2115 26.6256C23.0033 26.6359 22.9489 26.5606 22.9512 26.3399C22.9607 25.2881 22.956 24.2415 22.956 23.1949Z" fill="#42A992"/>
<path d="M30.6848 30.5107C29.1372 30.5107 27.5896 30.5029 26.0444 30.5184C25.777 30.521 25.6753 30.4353 25.7155 30.1471C25.7226 30.0874 25.7226 30.0276 25.7155 29.9679C25.6871 29.7316 25.7747 29.6614 25.99 29.6614C29.1207 29.6692 32.2513 29.6692 35.382 29.6614C35.5997 29.6614 35.6659 29.7316 35.6588 29.9679C35.6399 30.599 35.7156 30.5081 35.1619 30.5107C33.6687 30.5133 32.178 30.5107 30.6848 30.5107Z" fill="#C3C3C3"/>
<path d="M10.8079 18.6476C10.8079 15.6611 10.8079 12.6745 10.8079 9.6906C10.8079 9.61009 10.8079 9.52959 10.8103 9.45168C10.8127 9.39455 10.834 9.35818 10.8931 9.35818C10.9499 9.35818 11.0091 9.36338 11.0138 9.44129C11.0209 9.52959 11.0209 9.62048 11.0209 9.71138C11.0209 15.5936 11.0233 21.4757 11.0162 27.3579C11.0162 27.6254 11.0706 27.7033 11.3238 27.7033C16.648 27.6955 21.9699 27.6955 27.2942 27.6955C27.3675 27.6955 27.4409 27.6981 27.5119 27.6955C27.5876 27.6929 27.6278 27.7241 27.6302 27.815C27.6325 27.9059 27.597 27.9396 27.519 27.9396C27.4551 27.937 27.3912 27.9396 27.3273 27.9396C21.9226 27.9396 16.5179 27.937 11.1108 27.9448C10.8624 27.9448 10.7985 27.8773 10.8008 27.6046C10.8127 24.6207 10.8079 21.6341 10.8079 18.6476Z" fill="#345951"/>
<path d="M32.1645 7.90907C32.2615 8.15059 32.3514 7.84154 32.4461 7.90387C33.4423 7.90387 34.4362 7.90647 35.4324 7.90647C35.3614 8.14799 35.2928 8.38691 35.2218 8.62843C32.0107 8.62843 28.7972 8.62843 25.5861 8.62583C25.2643 8.62583 25.1034 8.32978 25.2406 7.99737C25.2927 7.87271 25.3944 7.90907 25.4772 7.90907C26.1777 7.90647 26.8781 7.90647 27.5785 7.90647C29.1072 7.90907 30.6358 7.90907 32.1645 7.90907Z" fill="#C3C3C3"/>
<path d="M35.1928 8.77128C35.1502 9.00501 35.11 9.23873 35.0674 9.46986C31.8942 9.46986 28.7209 9.46987 25.5477 9.46727C25.4412 9.46727 25.2803 9.54518 25.2424 9.36859C25.2046 9.1868 25.1856 8.98423 25.259 8.81023C25.3039 8.70376 25.4412 8.7531 25.5382 8.7531C28.1199 8.7505 30.7039 8.7505 33.2856 8.7531C33.9221 8.7531 34.5563 8.76609 35.1928 8.77128Z" fill="#C3C3C3"/>
<path d="M28.1827 25.8127C28.1827 25.5244 28.1875 25.2362 28.1804 24.9479C28.1756 24.7869 28.2206 24.7116 28.3791 24.7116C28.9139 24.7168 29.4487 24.7168 29.9835 24.7116C30.1231 24.7116 30.1776 24.7713 30.1752 24.9245C30.1705 25.5115 30.1705 26.0984 30.1752 26.6853C30.1776 26.8593 30.1066 26.9034 29.9599 26.9034C29.4345 26.8982 28.9068 26.8956 28.3815 26.9034C28.2277 26.906 28.1733 26.8489 28.178 26.6801C28.1898 26.3892 28.1827 26.101 28.1827 25.8127Z" fill="#41CEC0"/>
<path d="M29.1788 21.216C29.4509 21.216 29.7231 21.2212 29.9952 21.2134C30.123 21.2082 30.1703 21.2524 30.1679 21.3978C30.1608 21.9951 30.1608 22.595 30.1679 23.1923C30.1703 23.3611 30.104 23.3871 29.9715 23.3871C29.4367 23.3819 28.8996 23.3793 28.3648 23.3871C28.2252 23.3897 28.1755 23.343 28.1778 23.1846C28.1849 22.5976 28.1849 22.0081 28.1778 21.4212C28.1755 21.268 28.211 21.2082 28.36 21.216C28.6345 21.2238 28.9067 21.216 29.1788 21.216Z" fill="#362F2D"/>
<path d="M29.1685 19.8968C28.9058 19.8968 28.6408 19.8916 28.3781 19.8994C28.2456 19.902 28.1794 19.8682 28.1817 19.702C28.1888 19.1125 28.1888 18.5256 28.1817 17.936C28.1794 17.7802 28.2291 17.7257 28.371 17.7283C28.9082 17.7335 29.443 17.7335 29.9801 17.7283C30.115 17.7257 30.1789 17.7672 30.1765 17.9283C30.1718 18.5178 30.1718 19.1047 30.1765 19.6942C30.1789 19.85 30.1292 19.9046 29.9872 19.8994C29.7151 19.889 29.443 19.8968 29.1685 19.8968Z" fill="#42A992"/>
<path d="M33.3874 26.61C32.7153 26.61 32.0409 26.6048 31.3689 26.6152C31.1772 26.6178 31.1204 26.5502 31.1181 26.3399C31.1133 25.6517 31.1062 25.6517 31.7262 25.6517C32.9354 25.6517 34.1446 25.6595 35.3538 25.6465C35.5952 25.6439 35.6662 25.7192 35.6614 25.9841C35.6472 26.6126 35.6591 26.6126 35.0793 26.6126C34.5161 26.61 33.9506 26.61 33.3874 26.61Z" fill="#C3C3C3"/>
<path d="M33.3936 19.6007C32.7311 19.6007 32.0685 19.5955 31.4059 19.6033C31.2048 19.6059 31.1149 19.5617 31.1172 19.3098C31.122 18.6424 31.1125 18.6424 31.7159 18.6424C32.9133 18.6424 34.113 18.6476 35.3104 18.6372C35.5612 18.6346 35.6677 18.6995 35.6606 19.0008C35.644 19.6007 35.6582 19.6007 35.1092 19.6007C34.5366 19.6007 33.9639 19.6007 33.3936 19.6007Z" fill="#C3C3C3"/>
<path d="M33.3917 22.1717C34.0637 22.1717 34.7358 22.1769 35.4078 22.1691C35.5971 22.1665 35.6634 22.2315 35.6586 22.4418C35.6397 23.2105 35.7414 23.0729 35.0883 23.0781C33.8626 23.0859 32.6368 23.0755 31.4111 23.0859C31.1863 23.0885 31.1105 23.0131 31.1176 22.7638C31.1389 22.0704 31.0419 22.1795 31.6477 22.1743C32.2298 22.1665 32.8096 22.1717 33.3917 22.1717Z" fill="#C3C3C3"/>
<path d="M33.3888 21.216C34.0608 21.216 34.7352 21.229 35.4072 21.2108C35.6628 21.2031 35.6533 21.3563 35.6557 21.5485C35.6581 21.7458 35.6533 21.8835 35.4049 21.8809C34.0584 21.8679 32.712 21.8679 31.3679 21.8809C31.1124 21.8835 31.1218 21.7354 31.1195 21.5433C31.1171 21.3433 31.1218 21.2031 31.3727 21.2108C32.0447 21.2264 32.7167 21.216 33.3888 21.216Z" fill="#C3C3C3"/>
<path d="M33.3932 25.353C32.7211 25.353 32.0467 25.3426 31.3747 25.3582C31.1262 25.3634 31.1191 25.2284 31.1191 25.0258C31.1191 24.8284 31.1215 24.6882 31.3723 24.6908C32.7093 24.7038 34.0463 24.7012 35.3833 24.6908C35.6341 24.6882 35.6554 24.8258 35.6601 25.044C35.6649 25.2725 35.6104 25.3608 35.3856 25.3556C34.7207 25.3426 34.0558 25.353 33.3932 25.353Z" fill="#C3C3C3"/>
<path d="M33.3916 17.7361C34.0636 17.7361 34.738 17.7439 35.4101 17.7309C35.6349 17.7257 35.6633 17.8399 35.6562 18.0399C35.6491 18.2295 35.6633 18.3957 35.4101 18.3957C34.0542 18.3879 32.7006 18.3879 31.3447 18.3957C31.0986 18.3983 31.1199 18.2399 31.1199 18.0633C31.1199 17.8919 31.0939 17.7257 31.3424 17.7309C32.0262 17.7465 32.7077 17.7361 33.3916 17.7361Z" fill="#C3C3C3"/>
<path d="M20.3117 34.4035C19.2753 34.4035 18.2388 34.4035 17.2 34.4035C17.0817 34.4035 16.9326 34.4503 16.9279 34.2217C16.9231 34.001 17.0486 33.988 17.1976 33.988C19.2895 33.988 21.3813 33.988 23.4755 33.988C23.6246 33.988 23.75 33.9984 23.7476 34.2191C23.7453 34.4477 23.5986 34.4035 23.4779 34.4035C22.4225 34.4035 21.3671 34.4035 20.3117 34.4035Z" fill="#C3C3C3"/>
<path d="M32.2555 40.335C31.2096 40.335 30.1637 40.335 29.1178 40.335C28.9876 40.335 28.8291 40.3766 28.8362 40.1325C28.8433 39.9039 28.9876 39.9221 29.1249 39.9221C31.2072 39.9221 33.292 39.9221 35.3743 39.9221C35.5163 39.9221 35.6536 39.9169 35.6536 40.1429C35.6559 40.3948 35.4903 40.335 35.3649 40.3376C34.3284 40.3376 33.292 40.335 32.2555 40.335Z" fill="#C3C3C3"/>
<path d="M32.2411 39.0755C33.287 39.0755 34.3329 39.0755 35.3788 39.0781C35.4948 39.0781 35.6486 39.0236 35.6533 39.2573C35.6581 39.478 35.535 39.491 35.3859 39.491C33.2941 39.491 31.2023 39.491 29.1104 39.491C28.9637 39.491 28.8359 39.4858 28.8359 39.2625C28.8383 39.034 28.985 39.0781 29.1057 39.0781C30.1492 39.0729 31.1952 39.0755 32.2411 39.0755Z" fill="#C3C3C3"/>
<path d="M32.2483 38.5951C31.2024 38.5951 30.1565 38.5951 29.1106 38.5925C28.9946 38.5925 28.8408 38.647 28.8361 38.4159C28.8313 38.1977 28.952 38.1822 29.1035 38.1822C31.1953 38.1848 33.2871 38.1822 35.379 38.1822C35.5257 38.1822 35.6558 38.1847 35.6535 38.4107C35.6535 38.6418 35.5044 38.5951 35.3861 38.5951C34.3402 38.5951 33.2942 38.5951 32.2483 38.5951Z" fill="#C3C3C3"/>
<path d="M20.3195 35.2969C19.2831 35.2969 18.2466 35.2969 17.2078 35.2969C17.0777 35.2969 16.9262 35.341 16.9239 35.0943C16.9215 34.8528 17.0658 34.884 17.2007 34.884C19.2831 34.884 21.3678 34.884 23.4502 34.884C23.5851 34.884 23.7413 34.8528 23.7413 35.0865C23.7436 35.3177 23.5922 35.2969 23.4549 35.2969C22.4114 35.2969 21.3655 35.2969 20.3195 35.2969Z" fill="#C3C3C3"/>
<path d="M20.3376 37.5173C21.3836 37.5173 22.4295 37.5173 23.4754 37.5199C23.5937 37.5199 23.7428 37.4706 23.7475 37.7017C23.7499 37.9225 23.6245 37.9328 23.4754 37.9328C21.3836 37.9328 19.2917 37.9328 17.1999 37.9328C17.0508 37.9328 16.9254 37.9251 16.9278 37.7017C16.9301 37.4706 17.0816 37.5199 17.1999 37.5199C18.2458 37.5147 19.2917 37.5173 20.3376 37.5173Z" fill="#C3C3C3"/>
<path d="M20.3112 38.7743C19.2748 38.7743 18.2383 38.7743 17.2018 38.7717C17.0835 38.7717 16.9345 38.8236 16.9297 38.5899C16.9274 38.3691 17.0528 38.3587 17.1995 38.3587C19.2913 38.3587 21.3832 38.3587 23.475 38.3587C23.6241 38.3587 23.7495 38.3665 23.7471 38.5899C23.7447 38.821 23.5957 38.7717 23.4774 38.7717C22.422 38.7768 21.3666 38.7743 20.3112 38.7743Z" fill="#C3C3C3"/>
<path d="M20.3129 39.2573C21.3327 39.2573 22.3503 39.2573 23.3702 39.2573C23.4435 39.2573 23.5169 39.2573 23.5879 39.2599C23.7014 39.2651 23.7464 39.3404 23.7464 39.4573C23.7464 39.5689 23.7156 39.6546 23.5997 39.665C23.5453 39.6702 23.4908 39.6702 23.4364 39.6702C21.3635 39.6702 19.2882 39.6702 17.2153 39.6676C17.1183 39.6676 16.9787 39.73 16.9408 39.5585C16.8982 39.3534 16.955 39.2495 17.1775 39.2521C18.2187 39.2625 19.2646 39.2573 20.3129 39.2573Z" fill="#C3C3C3"/>
<path d="M20.2856 37.0369C19.2586 37.0369 18.2292 37.0369 17.2023 37.0369C17.065 37.0369 16.9254 37.0654 16.9278 36.8239C16.9301 36.5772 17.0792 36.6214 17.2094 36.6214C19.2823 36.6214 21.3575 36.6214 23.4304 36.6214C23.5677 36.6214 23.7073 36.5954 23.7073 36.8343C23.7049 37.081 23.5535 37.0369 23.4233 37.0369C22.3774 37.0369 21.3315 37.0369 20.2856 37.0369Z" fill="#C3C3C3"/>
<path d="M20.3437 35.7747C21.3612 35.7747 22.3788 35.7721 23.3963 35.7773C23.5146 35.7773 23.6944 35.6968 23.7015 35.9487C23.7086 36.2006 23.5335 36.1357 23.4105 36.1357C21.347 36.1383 19.286 36.1383 17.2225 36.1357C17.1302 36.1357 17.0167 36.1825 16.948 36.0656C16.8652 35.9176 16.9599 35.7747 17.1539 35.7747C18.0342 35.7721 18.9168 35.7721 19.7971 35.7721C19.9793 35.7747 20.1615 35.7747 20.3437 35.7747Z" fill="#C3C3C3"/>
<path d="M45.0019 29.5368C43.045 29.5394 41.0904 29.5472 39.1334 29.542C38.6128 29.5394 38.2011 29.0875 38.1964 28.5032C38.1845 26.8567 38.1845 25.2076 38.1964 23.5611C38.2011 22.9015 38.6318 22.486 39.2731 22.4834C42.522 22.4834 45.771 22.4834 49.0176 22.4834C49.2992 22.4834 49.5808 22.4912 49.8624 22.4963C49.8505 22.5223 49.8411 22.5509 49.8269 22.5743C48.5822 24.3506 47.3304 26.1191 46.0928 27.9007C45.7213 28.4409 45.3001 28.9395 45.0019 29.5368Z" fill="#87BEB6"/>
<path d="M51.7115 43.9293C51.7115 42.7502 51.7115 41.5738 51.7115 40.3948C51.7115 39.6702 52.0996 39.2469 52.7645 39.2469C53.5478 39.2469 54.3287 39.2443 55.1119 39.2469C55.7177 39.2495 56.1247 39.6884 56.1271 40.3506C56.1295 42.7554 56.1295 45.1629 56.1271 47.5677C56.1271 48.2299 55.7201 48.6688 55.1119 48.6714C54.3121 48.674 53.5099 48.674 52.7101 48.6714C52.1209 48.6688 51.7139 48.2247 51.7139 47.5806C51.7092 46.3653 51.7115 45.1473 51.7115 43.9293Z" fill="#41CEC0"/>
<path d="M54.218 22.4912C54.5351 22.4886 54.8545 22.473 55.1716 22.486C55.749 22.5067 56.1418 22.9508 56.1418 23.5793C56.1442 25.2154 56.1442 26.8541 56.1418 28.4902C56.1394 29.0667 55.7395 29.542 55.2237 29.542C52.5402 29.5472 49.8592 29.5394 47.1758 29.5368C47.2397 29.4407 47.3036 29.342 47.3698 29.2485C48.8417 27.1476 50.3159 25.0466 51.7854 22.943C51.8777 22.8106 51.9865 22.6807 51.9771 22.4938C52.3273 22.4964 52.6775 22.4964 53.0301 22.499C53.0064 22.5405 52.9875 22.5872 52.9615 22.6262C52.1924 23.7247 51.421 24.8233 50.6567 25.9244C50.4389 26.2386 50.465 26.5399 50.7087 26.7372C50.9382 26.9268 51.2009 26.8671 51.4139 26.5658C52.0859 25.6127 52.7627 24.6596 53.4229 23.6962C53.695 23.2988 54.0192 22.9456 54.218 22.4912Z" fill="#87BEB6"/>
<path d="M44.6947 30.7963C46.5239 30.7963 48.3531 30.7937 50.1822 30.7989C50.6815 30.7989 51.072 31.1755 51.1501 31.7078C51.2282 32.2298 50.9466 32.7466 50.497 32.9206C50.381 32.9648 50.2651 32.97 50.1467 32.97C46.4884 32.97 42.8301 32.97 39.1717 32.97C38.5872 32.97 38.166 32.5077 38.166 31.8818C38.1684 31.2612 38.592 30.7989 39.1764 30.7989C41.0174 30.7937 42.8561 30.7963 44.6947 30.7963Z" fill="#DF4327"/>
<path d="M53.9201 38.4808C53.5107 38.4808 53.1013 38.4886 52.692 38.4782C52.1122 38.4652 51.717 38.0263 51.7147 37.3952C51.7123 36.6863 51.7123 35.9773 51.7147 35.2683C51.717 34.6009 52.0909 34.1438 52.7038 34.1256C53.5131 34.1023 54.3247 34.1049 55.134 34.1256C55.7398 34.1412 56.1279 34.6061 56.1302 35.2657C56.1326 35.9643 56.1326 36.6629 56.1302 37.3641C56.1279 38.0263 55.7256 38.473 55.1222 38.4834C54.7199 38.4886 54.32 38.4834 53.9201 38.4808Z" fill="#42A992"/>
<path d="M49.1555 38.4808C48.7367 38.4808 48.3178 38.486 47.9014 38.4782C47.4683 38.473 47.1867 38.1614 47.1844 37.6887C47.1796 36.7798 47.182 35.8708 47.1844 34.9645C47.1867 34.4607 47.4612 34.1256 47.9227 34.1179C48.7604 34.1023 49.5957 34.0997 50.4333 34.1179C50.9019 34.1282 51.1598 34.4529 51.1622 34.9723C51.1645 35.8708 51.1645 36.7694 51.1622 37.6679C51.1598 38.1925 50.8995 38.4756 50.4144 38.4808C49.9932 38.4834 49.5744 38.4808 49.1555 38.4808Z" fill="#766A68"/>
<path d="M46.5816 36.3149C46.5816 36.7746 46.584 37.2316 46.5816 37.6913C46.5769 38.1769 46.3095 38.4782 45.8717 38.4782C45.0364 38.4834 44.1987 38.4808 43.3634 38.4782C42.9138 38.4756 42.6204 38.2211 42.6133 37.7251C42.5967 36.7486 42.5541 35.7695 42.6393 34.7957C42.6724 34.4087 42.8901 34.1802 43.2404 34.1542C44.1561 34.0841 45.0743 34.0763 45.9877 34.1568C46.3521 34.188 46.5721 34.4711 46.5792 34.8788C46.5863 35.3566 46.5816 35.8345 46.5816 36.3149Z" fill="#766A68"/>
<path d="M49.2351 43.5735C48.8163 43.5735 48.3998 43.5735 47.981 43.5735C47.5432 43.5709 47.2498 43.2904 47.245 42.8126C47.2308 41.8751 47.2308 40.9376 47.245 40C47.2521 39.5326 47.5456 39.2521 47.9668 39.2495C48.8115 39.2469 49.6563 39.2469 50.5011 39.2495C50.9436 39.2495 51.2181 39.5404 51.2205 40.0286C51.2252 40.9557 51.2276 41.8828 51.2205 42.81C51.2157 43.28 50.9412 43.5709 50.5177 43.5735C50.087 43.5761 49.661 43.5735 49.2351 43.5735Z" fill="#766A68"/>
<path d="M49.2217 44.3448C49.6595 44.3448 50.0949 44.3422 50.5327 44.3448C50.9279 44.3474 51.2094 44.6331 51.2165 45.0694C51.226 46.0276 51.2284 46.9859 51.2165 47.9468C51.2118 48.3753 50.9184 48.6662 50.5256 48.6662C49.669 48.6688 48.8147 48.6688 47.9581 48.6662C47.5393 48.6662 47.2482 48.3753 47.2411 47.9079C47.2269 46.9703 47.2269 46.0302 47.2411 45.0901C47.2482 44.6227 47.5416 44.3448 47.9652 44.3422C48.3841 44.3422 48.8029 44.3448 49.2217 44.3448Z" fill="#766A68"/>
<path d="M40.1733 34.1516C40.5826 34.1516 40.992 34.149 41.4014 34.1516C41.8463 34.1542 42.1373 34.4295 42.1444 34.9099C42.1586 35.8475 42.1586 36.7876 42.1444 37.7251C42.1373 38.1899 41.8439 38.4756 41.4179 38.4782C40.5708 38.4834 39.726 38.4834 38.8789 38.4782C38.4529 38.4756 38.1737 38.1795 38.1713 37.7121C38.1642 36.7746 38.1642 35.8345 38.1713 34.8969C38.1761 34.4321 38.4387 34.1568 38.8623 34.1516C39.3001 34.1464 39.7355 34.1516 40.1733 34.1516Z" fill="#766A68"/>
<path d="M40.2059 48.6688C39.7776 48.6688 39.3516 48.6714 38.9233 48.6688C38.5376 48.6662 38.2347 48.3701 38.2276 47.952C38.2158 46.9937 38.2158 46.0354 38.2276 45.0771C38.2324 44.6409 38.5352 44.3474 38.9375 44.3474C39.7847 44.3448 40.6294 44.3448 41.4766 44.3474C41.9025 44.3474 42.1912 44.6279 42.1983 45.0953C42.2125 46.0328 42.2125 46.9729 42.1983 47.9105C42.1912 48.3883 41.9002 48.6688 41.46 48.6714C41.0436 48.6688 40.6247 48.6688 40.2059 48.6688Z" fill="#766A68"/>
<path d="M40.2279 39.2495C40.6468 39.2495 41.0656 39.2469 41.4845 39.2495C41.9057 39.2521 42.1944 39.5378 42.2015 40.0052C42.2157 40.9427 42.2157 41.8829 42.2015 42.8204C42.1944 43.2852 41.9033 43.5735 41.4845 43.5735C40.6373 43.5761 39.7925 43.5761 38.9454 43.5735C38.5171 43.5735 38.2284 43.267 38.226 42.7892C38.2189 41.8699 38.2189 40.9531 38.226 40.0338C38.2308 39.5559 38.5171 39.2521 38.9454 39.2495C39.3737 39.2495 39.802 39.2495 40.2279 39.2495Z" fill="#766A68"/>
<path d="M44.6718 44.3448C45.1001 44.3448 45.526 44.3422 45.9543 44.3448C46.3779 44.35 46.6358 44.6253 46.6382 45.0901C46.6429 46.038 46.6429 46.9859 46.6382 47.9338C46.6358 48.3805 46.3779 48.6636 45.9733 48.6662C45.1001 48.6714 44.2269 48.6714 43.3561 48.6662C42.9657 48.6636 42.7054 48.3831 42.7006 47.952C42.6935 46.9833 42.6935 46.0173 42.7006 45.0486C42.7054 44.6227 42.9728 44.35 43.3656 44.3474C43.7986 44.3396 44.234 44.3448 44.6718 44.3448Z" fill="#766A68"/>
<path d="M44.6612 43.5735C44.2329 43.5735 43.8069 43.5761 43.3786 43.5735C42.9551 43.5683 42.6971 43.2956 42.6948 42.8282C42.6877 41.8803 42.6877 40.9324 42.6948 39.9845C42.6971 39.5222 42.9598 39.2521 43.3881 39.2495C44.2424 39.2469 45.0966 39.2469 45.9508 39.2495C46.3744 39.2521 46.6323 39.53 46.6347 39.9948C46.6394 40.9427 46.6394 41.8906 46.6347 42.8385C46.6323 43.2852 46.3744 43.5657 45.9698 43.5709C45.5344 43.5787 45.099 43.5735 44.6612 43.5735Z" fill="#766A68"/>
<path d="M51.9763 22.4937C51.9858 22.6807 51.877 22.8106 51.7847 22.943C50.3152 25.0466 48.841 27.1475 47.3691 29.2485C47.3028 29.342 47.239 29.4407 47.1751 29.5368C46.4486 29.5368 45.7245 29.5368 44.998 29.5368C45.2986 28.9395 45.7174 28.4408 46.0913 27.9033C47.3289 26.1217 48.5783 24.3506 49.8254 22.5768C49.8419 22.5535 49.849 22.5249 49.8609 22.4989C50.5684 22.4963 51.2736 22.4937 51.9763 22.4937Z" fill="#CBFDF7"/>
<path d="M54.0257 33.0479C53.6803 33.0479 53.3348 33.0557 52.9893 33.0453C52.3788 33.0271 51.9907 32.5649 52.0002 31.8767C52.0073 31.2378 52.4119 30.8171 53.0177 30.8145C53.7181 30.8119 54.4186 30.8119 55.119 30.8145C55.6609 30.8171 56.0655 31.2144 56.1129 31.7858C56.1649 32.4272 55.8384 32.9129 55.2799 33.0219C55.2444 33.0297 55.2089 33.0427 55.1734 33.0427C54.7924 33.0453 54.4091 33.0427 54.0281 33.0427C54.0257 33.0453 54.0257 33.0479 54.0257 33.0479Z" fill="#DF4327"/>
<path d="M54.2185 22.4911C54.0198 22.9456 53.6956 23.2988 53.4234 23.6961C52.7609 24.6596 52.0865 25.6101 51.4144 26.5658C51.2015 26.8697 50.9388 26.9268 50.7093 26.7372C50.4679 26.5373 50.4395 26.2386 50.6572 25.9244C51.4215 24.8232 52.1953 23.7247 52.962 22.6262C52.988 22.5872 53.007 22.5431 53.0306 22.4989C53.4258 22.4963 53.8234 22.4937 54.2185 22.4911Z" fill="#CBFDF7"/>
<path d="M35.4297 7.90648C34.4334 7.90648 33.4396 7.90388 32.4434 7.90388C32.8551 7.56627 33.3213 7.35332 33.8064 7.18712C34.2418 7.18971 34.6772 7.19231 35.1102 7.19231C35.6545 7.19231 35.6545 7.19231 35.6521 6.59241C35.7822 6.56124 35.91 6.5145 36.0449 6.53527C35.8225 6.98195 35.6048 7.43383 35.4297 7.90648Z" fill="#F2F2F2"/>
<path d="M27.0293 50.4607C27.5073 50.5724 27.964 50.7723 28.4491 50.8555C30.0842 51.1359 31.6839 51.0502 33.2338 50.3724C33.5722 50.2244 33.8846 50.0036 34.1472 49.731C34.4359 49.4349 34.585 49.0531 34.5661 48.6039C34.5613 48.4766 34.514 48.3026 34.7222 48.3C35.2712 48.6194 35.593 49.0895 35.5434 49.8037C35.2499 50.6035 34.6087 50.9515 33.9437 51.2268C32.6706 51.754 31.3431 51.8059 30.0014 51.6657C29.256 51.5878 28.5319 51.419 27.8528 51.0658C27.5546 50.9126 27.2352 50.7775 27.0293 50.4607Z" fill="#F1D353"/>
<path d="M35.6543 6.59241C35.6567 7.19231 35.6567 7.19231 35.1124 7.19231C34.677 7.19231 34.2416 7.18972 33.8086 7.18712C34.3931 6.87548 35.0202 6.71966 35.6543 6.59241Z" fill="#C3C3C3"/>
<path d="M11.1451 42.0049C10.8068 42.0179 10.8068 42.0179 10.8115 41.5349C10.9393 41.6777 11.0576 41.8283 11.1451 42.0049Z" fill="#C3C3C3"/>
<path d="M16.7148 47.2898C16.9775 47.2794 17.0532 47.0301 17.181 46.8483C17.349 47.0846 17.5147 47.3209 17.6827 47.5573C17.8128 47.7391 17.8483 47.9312 17.6661 48.0819C17.491 48.2273 17.3254 48.165 17.1952 47.978C17.0367 47.7468 16.8758 47.5183 16.7148 47.2898Z" fill="#362F2D"/>
<path d="M5.94945 29.4329C6.17426 30.0276 6.5221 30.5548 6.77057 31.1365C6.92911 31.5105 7.20834 31.8195 7.25803 32.248C6.77294 31.6689 6.36593 31.017 5.91396 30.4094C5.88556 30.3704 5.85953 30.3288 5.83114 30.2899C5.47619 29.8017 5.47619 29.8017 5.94945 29.4329Z" fill="#DF4327"/>
<path d="M7.25391 32.248C7.36276 32.2506 7.36986 32.3337 7.37222 32.422C7.3107 32.3831 7.2681 32.3259 7.25391 32.248Z" fill="#DF4327"/>
<path d="M7.37109 32.422C7.38836 32.4454 7.4081 32.4714 7.42537 32.4947C7.40563 32.4688 7.38836 32.4454 7.37109 32.422Z" fill="#DF4327"/>
<path d="M5.98633 28.8953C6.0184 28.898 6.0332 28.9111 6.01346 28.9452C5.99373 28.9347 5.98633 28.919 5.98633 28.8953Z" fill="#F2E9B7"/>
<path d="M33.7981 48.6636C33.3059 49.0895 32.7096 49.2531 32.1227 49.4193C31.4081 49.6219 30.6698 49.6972 29.9386 49.6686C28.8217 49.6245 27.7143 49.4816 26.692 48.9077C26.4885 48.7934 26.4625 48.6947 26.6068 48.5104C26.8008 48.261 26.9878 48.0039 27.17 47.7417C27.2457 47.6326 27.3096 47.6378 27.3948 47.7183C28.1402 48.4324 29.0583 48.6662 29.9954 48.8376C31.1904 49.0531 32.3783 48.9908 33.5567 48.6844C33.6348 48.6636 33.7176 48.6714 33.7981 48.6636Z" fill="#F1D353"/>
<path d="M33.802 48.664C33.8047 48.656 33.81 48.6508 33.8127 48.6428C33.8073 48.6508 33.8047 48.656 33.802 48.664C33.7993 48.664 33.802 48.664 33.802 48.664Z" fill="#F1D353"/>
<path d="M27.0295 50.4615C27.0221 50.4587 27.0172 50.4531 27.0098 50.4503C27.0172 50.4531 27.0221 50.4587 27.0295 50.4615Z" fill="#F1D353"/>
</svg>
