<svg width="100" height="65" viewBox="0 0 100 65" fill="none" xmlns="http://www.w3.org/2000/svg">
<ellipse cx="50" cy="42.5" rx="50" ry="22.5" fill="#CB096A" fill-opacity="0.24"/>
<path d="M54.2983 17.0216C54.1225 16.8651 54.0052 16.6089 53.6925 16.7085C53.2821 16.8366 52.8912 17.0358 52.4808 17.1354C51.8163 17.292 51.6013 17.6621 51.6209 18.2598C51.6795 20.2381 51.6209 19.9819 49.7057 19.9819C47.5755 19.9819 47.5755 20.2666 47.6341 18.2314C47.6536 17.6194 47.4191 17.2778 46.7546 17.1212C46.4615 17.0501 46.1683 16.922 45.8947 16.7939C45.2889 16.5092 44.9762 16.8223 44.7417 17.2635C44.1749 17.8471 43.9013 18.9145 42.631 17.9325C40.2859 16.1107 40.1295 15.94 41.3802 14.7587C42.0447 14.1182 42.1815 13.5347 41.7906 12.7946L41.8102 12.8231C41.3802 12.1968 40.7744 11.8695 39.9341 11.9834C38.7028 12.1542 38.3901 11.5564 38.566 10.6028C38.7224 9.76312 38.1556 8.83804 38.9569 8.08373C39.7582 8.18335 40.579 8.26873 41.3802 8.02678C41.6343 7.87023 41.5366 7.5429 41.7711 7.37211V7.38636C42.1034 6.80283 42.2206 6.20505 41.7906 5.62152L41.8102 5.65002C41.6343 5.56462 41.4975 5.45075 41.3998 5.27996L41.4389 5.30841C41.263 5.22302 41.1262 5.10919 41.0285 4.9384L41.0675 4.96685C40.8917 4.88146 40.7549 4.76761 40.6767 4.58259L40.7158 4.62529C40.3445 3.0882 41.9666 2.76083 42.7483 1.97806C43.4128 1.29491 43.9599 2.07769 44.429 2.4762C45.3866 3.27321 46.4029 2.832 47.3996 2.60428C47.595 2.36233 47.6341 2.07769 47.5755 1.80728C47.2237 0.199027 48.1031 -0.0714003 49.6275 0.0139935C51.6209 0.127852 51.6209 0.0424668 51.6991 1.93536C51.6991 2.16308 51.7382 2.37657 51.9141 2.56159L51.9336 2.59004C53.1257 3.00277 54.2788 3.27319 55.2559 2.14884C55.7445 1.57955 56.3113 1.65072 56.8389 2.16308C57.2689 2.57582 57.7379 2.94584 58.1679 3.34435C58.9887 4.05596 58.9691 4.69644 58.1092 5.32266C57.3861 5.83502 57.093 6.41854 57.4838 7.22978L57.4448 7.34362L57.5425 7.41481C57.7184 7.71369 58.0115 7.92718 58.2851 8.14067C59.0082 8.31146 59.7314 8.24028 60.4545 8.21181C60.5326 8.26874 60.6108 8.33991 60.689 8.39684C60.8648 8.65302 60.9039 8.93765 60.8453 9.22229C60.8062 9.45001 60.8257 9.15115 60.7867 9.37887C60.4935 11.8268 60.4935 11.8268 57.8357 12.1684L57.8552 12.1541C57.6793 12.3819 57.7379 12.695 57.4838 12.88V12.8658C57.2884 13.0792 57.308 13.3354 57.3275 13.5916C57.308 13.862 57.4448 14.0898 57.6207 14.3032C59.1059 15.8403 59.106 15.8403 57.4448 17.4344C57.1516 17.7048 56.8389 17.9752 56.5262 18.2171C56.3894 18.3167 56.2526 18.4022 56.0963 18.4591C56.0181 18.4733 55.9204 18.4875 55.8422 18.4875C55.0019 18.2598 54.5329 17.7475 54.2983 17.0216Z" fill="#F21C00"/>
<path d="M73.8812 30.585L73.7444 30.5565L73.6467 30.6277C73.1386 31.6097 73.7835 32.7056 73.2558 33.6734C73.1385 33.9723 73.0995 34.2711 73.2363 34.57C72.8845 36.5198 73.1776 38.4839 73.0799 40.4337C73.0408 41.0315 73.2949 41.6719 72.865 42.227L72.8063 42.3266L72.8845 42.4263C72.5132 43.1521 72.9431 43.9634 72.5718 44.6892C71.7705 45.1446 70.9302 45.3012 70.0312 44.9027C69.4253 44.3903 69.3472 43.693 69.3863 43.0098C69.5426 39.4802 69.054 35.979 69.015 32.4637C68.9954 31.6667 68.9368 30.8554 69.3277 30.0869C70.9107 29.3041 72.4741 30.0726 74.0571 30.1438C74.1743 30.3715 74.1353 30.5138 73.8812 30.585Z" fill="#3D3E9B"/>
<path d="M35.6751 32.3356C35.6947 32.4352 35.7142 32.5491 35.7338 32.6487C36.1246 33.0615 35.7338 33.6307 36.0855 34.0577L36.066 34.0292C36.5936 34.5273 36.0269 35.239 36.4764 35.7514L36.4569 35.7371C36.7891 36.2922 36.9845 36.8615 36.4373 37.4165L36.4569 37.4023C36.1246 37.9147 35.7533 38.3843 35.2452 38.7544L35.2843 38.7117C35.2452 38.9251 35.1083 39.039 34.8934 39.1102L34.9325 39.0675C34.8739 39.2525 34.737 39.3806 34.5416 39.4518L34.5807 39.4233C34.5026 39.5941 34.3657 39.7079 34.1898 39.8076L34.2094 39.7791C34.1117 39.9356 33.9749 40.0495 33.8185 40.1491L33.8381 40.1349C33.7404 40.2772 33.6035 40.3911 33.4667 40.5049V40.4907C32.3137 41.8285 31.0043 43.0383 29.6167 44.1911L29.6362 44.1769C29.3626 44.7746 29.0891 45.3866 28.2096 45.4009C27.6038 45.1589 27.1543 44.7604 26.9002 44.2053C26.8611 43.6788 27.1347 43.266 27.5452 42.9244L27.5256 42.9529C28.2487 41.8001 29.1086 40.7611 30.1639 39.8503L30.1248 39.8787C30.203 39.7079 30.3398 39.5941 30.4766 39.4802V39.4945C31.1606 38.1709 32.8804 37.1604 31.9814 35.3529L32.001 35.3671C31.5515 34.9686 31.9815 34.385 31.6297 33.9581L31.6492 33.9865C31.2193 33.6022 31.4538 33.1326 31.4538 32.6914C32.5287 31.9371 33.8967 32.179 35.0693 31.809C35.4211 31.8659 35.6165 32.0367 35.6751 32.3356Z" fill="#1B67B2"/>
<path d="M69.4829 29.9588C69.4829 30.7131 69.5024 31.4674 69.5024 32.2359C69.0334 33.0757 69.0139 34.015 69.1311 34.8974C69.5024 37.6157 68.8184 40.3056 68.9161 43.024C68.9356 43.5933 68.877 44.1626 68.5057 44.6465C67.7631 45.1731 67.0009 45.1589 66.1996 44.7888C65.4961 43.9776 66.2973 42.9671 65.7892 42.1274C65.9064 41.8143 65.8869 41.5154 65.7697 41.2165C65.457 38.4839 65.457 35.7513 65.7697 33.0187C66.3951 31.9513 66.4146 30.6988 66.9618 29.603C67.04 29.5033 67.1572 29.4464 67.2745 29.4037C67.3917 29.3895 67.5285 29.3752 67.6458 29.361C67.8412 29.2898 67.8999 29.1333 67.9389 28.9625C67.9976 28.379 67.8803 27.7812 68.0562 27.2119C68.1148 27.0554 68.2126 26.9131 68.3298 26.7992C68.5839 26.6711 68.8379 26.6569 69.1115 26.7565C69.3265 26.9273 69.4047 27.1408 69.4047 27.3827C69.3461 27.8809 69.1702 28.3505 69.2092 28.8629C69.2288 29.0479 69.2679 29.2471 69.3461 29.4179C69.4047 29.5318 69.4634 29.6457 69.5024 29.7737C69.4829 29.8307 69.4829 29.8876 69.4829 29.9588Z" fill="#1B67B2"/>
<path d="M69.1135 27.5108C69.0939 27.2689 69.0744 27.0412 69.0548 26.7992C68.7812 26.4861 68.7812 26.1445 68.8399 25.7745C69.0158 24.7355 69.3089 23.8389 70.6574 23.54C71.7713 23.2838 71.9277 22.2734 72.2794 21.4337C72.9244 19.8112 72.9244 18.0036 74.1165 16.552C74.5074 16.4808 74.6051 16.7512 74.7419 16.9789V16.9505C75.0937 17.9752 75.0742 18.9999 74.7615 20.0246C74.6442 20.1954 74.6246 20.3805 74.7419 20.5655C74.4097 22.2876 74.6832 24.0239 74.5855 25.746C74.5464 26.3438 74.8005 26.97 74.3706 27.5393C74.2533 27.7101 74.2338 27.8809 74.3706 28.0517C73.9797 28.7491 74.5269 29.603 73.9406 30.2577C72.5531 30.6419 71.2046 30.4142 69.8757 29.973C69.7584 29.9303 69.6411 29.9446 69.5043 29.9446L69.5238 29.9161C69.4066 29.788 69.2698 29.6884 69.133 29.5887C68.9376 29.5176 68.8203 29.4038 68.7812 29.2187C69.1917 28.7206 68.7226 28.0517 69.1135 27.5108Z" fill="#211D71"/>
<path d="M39.562 19.3415C39.3666 20.2381 38.7217 20.907 38.2917 21.704C38.2135 21.8464 38.1158 21.9744 37.9986 22.0741V22.0883C37.6859 22.9138 37.5491 23.8531 36.5133 24.2516C36.0442 24.337 35.6143 24.2089 35.1648 24.1093C33.5622 23.5685 31.647 23.6539 30.4549 22.2306C30.3571 22.0741 30.3571 21.9175 30.4353 21.7467C30.4939 21.6471 30.5135 21.5475 30.5135 21.4478C30.6894 20.8643 30.963 20.3235 31.6079 20.0246L31.6275 20.0104C31.7643 19.9108 31.901 19.8681 32.0769 19.8823C32.9564 19.9819 33.699 20.5227 34.598 20.5085C34.7544 20.5227 34.9107 20.5655 35.0475 20.6366C35.1648 20.7505 35.1257 20.9639 35.2234 21.0493C35.3602 21.1632 35.3407 20.8785 35.4775 20.8643C36.7282 20.3377 36.865 18.6868 38.3894 18.4591C38.9757 18.5302 39.3861 18.8149 39.562 19.3415Z" fill="#76C4D1"/>
<path d="M68.7993 14.8013C68.8384 14.7159 68.8385 14.6305 68.7798 14.5593C68.2326 14.1181 67.4313 14.6874 66.9037 14.1608L66.9623 14.2035C66.376 13.7196 66.9818 12.9938 66.5323 12.4956L66.5519 12.5098C65.7702 11.9263 66.8255 11.3428 66.5519 10.7451C66.5519 10.4462 66.5715 10.1473 66.5715 9.84841C66.6692 9.70609 66.806 9.64915 67.0014 9.66339C67.1968 9.66339 67.3727 9.67765 67.5681 9.64918C70.226 9.27914 70.4605 9.50684 69.7765 11.8552C69.9329 11.6844 69.7179 11.969 69.757 11.9263C70.3042 11.3001 70.8514 10.2896 71.34 11.9263C71.4768 12.3675 71.6527 12.7803 71.9067 13.1646C71.9849 13.4777 71.9653 13.805 71.9653 14.1323C71.5354 15.1428 70.5582 15.5983 69.6006 16.0537C69.4247 16.0822 69.2488 16.0537 69.0925 15.9683C68.7798 15.6125 69.073 15.1571 68.7993 14.8013Z" fill="#F29D57"/>
<path d="M71.7112 13.25C70.7341 12.7804 70.734 12.7804 70.9295 11.9122C70.9686 11.7414 71.0272 11.5564 70.8513 11.4425C70.5973 11.2717 70.4214 11.4425 70.2259 11.5848C70.011 11.7556 70.011 12.1257 69.6005 12.1257C69.5419 11.6133 69.5028 11.1294 69.6005 10.617C69.7569 9.86274 69.6006 9.72039 68.8775 9.74886C68.2912 9.77732 67.8026 9.9908 67.2945 10.1901C66.9818 10.3039 66.8645 10.0762 66.7668 9.87699C66.7277 9.59234 66.63 9.29344 66.9622 9.09418L66.9231 9.13688C67.0013 8.96609 67.1381 8.85223 67.2945 8.73838L67.2749 8.75262C67.3922 8.6103 67.5094 8.48219 67.7048 8.42526L67.6658 8.45376C67.8612 8.15488 68.252 8.19756 68.5452 8.0837L68.6624 8.1264L68.7602 8.04101C69.3856 7.79906 70.0109 7.75635 70.6363 8.06946L70.6168 8.05521C71.1054 8.31139 71.7894 8.26871 72.0825 8.82377L72.0239 8.78107C72.3952 8.8807 72.2975 9.25074 72.493 9.44999L72.4734 9.42154C72.8643 10.3182 72.7861 11.229 72.532 12.1399L72.4343 12.2253L72.4734 12.3391C72.3561 12.6096 72.4148 12.9654 72.0434 13.1362L72.0825 13.0935C72.0434 13.3496 71.9262 13.3924 71.7112 13.25Z" fill="#413F3E"/>
<path d="M69.503 15.9115C70.0698 15.1572 71.0078 14.8014 71.7505 14.2179C72.0241 14.289 72.2976 14.3744 72.5126 14.5594C72.6299 14.5737 72.7276 14.5737 72.8449 14.5737C73.0012 14.6591 73.0403 14.7729 73.0012 14.9295C72.7862 15.2284 72.4931 15.4846 72.2781 15.7834C71.6723 16.3954 71.4964 17.2921 70.6756 17.7475C70.4997 17.7902 70.3238 17.7902 70.1479 17.7475C69.6789 17.591 69.3466 17.3205 69.2098 16.8651C69.1121 16.5093 69.2294 16.1819 69.503 15.9115Z" fill="#BEE4EB"/>
<path d="M67.9407 17.3061C68.0189 17.2207 68.058 17.1211 68.0385 16.9931C68.2339 16.7796 68.1557 16.4522 68.4293 16.2672L68.4098 16.2956C68.5857 16.1533 68.742 16.1676 68.8984 16.3241C69.2892 17.0073 69.1329 17.6904 68.9375 18.3878C68.8593 18.8148 68.8202 19.2417 68.5466 19.6118C68.4098 19.7399 68.2339 19.7825 68.0385 19.7541C67.589 19.4837 67.6085 19.0425 67.4913 18.644C67.4326 18.402 67.4131 18.1601 67.6476 17.975L67.628 17.9893C67.8235 17.8043 67.8039 17.5196 67.9407 17.3061Z" fill="#5F6A9F"/>
<path d="M58.6565 14.1894C58.7738 14.1894 58.8715 14.2178 58.9692 14.2748C58.9888 14.4883 58.9888 14.6875 59.0083 14.901C59.0083 15.0149 58.9888 15.1287 58.9888 15.2426C58.1093 15.086 58.3243 14.6591 58.6565 14.1894Z" fill="#DBC62C"/>
<path d="M59.7913 56.6159C59.6545 56.7155 59.5373 56.8151 59.4005 56.929L59.3223 56.872C59.3418 56.6159 59.4395 56.4593 59.7522 56.5874L59.7913 56.6159Z" fill="#FDFDFD"/>
<path d="M41.3809 5.2942C41.6154 5.3369 41.7326 5.45073 41.7913 5.66421C41.5763 5.60728 41.4395 5.47922 41.3809 5.2942Z" fill="#FDFDFD"/>
<path d="M41.0098 4.95264C41.2443 4.99533 41.3616 5.10921 41.4202 5.32269C41.2052 5.26576 41.0684 5.13766 41.0098 4.95264Z" fill="#FDFDFD"/>
<path d="M43.6094 36.4202C43.7266 36.5341 43.8634 36.6479 43.9807 36.7618C43.8634 36.6479 43.7462 36.5341 43.6094 36.4202Z" fill="white"/>
<path d="M41.0886 31.5527C41.0496 31.2823 40.9714 31.0403 40.6978 30.8838C40.6782 30.7699 40.6783 30.6561 40.6196 30.5565C40.2678 29.9587 40.1701 29.9303 39.5056 30.2434C39.3493 30.3145 39.2321 30.4426 39.0953 30.5565C38.509 30.6419 38.0204 30.8696 37.61 31.2538C37.0237 31.325 36.5155 31.5527 36.066 31.8943C35.8706 31.937 35.6751 31.9797 35.4992 32.0224C34.268 32.5632 32.9586 32.7767 31.5906 32.6486C31.5124 32.6202 31.4147 32.6059 31.317 32.5917C31.317 32.307 31.2193 32.0651 30.9066 31.937C30.8871 31.6666 30.8089 31.4104 30.5548 31.2396C30.5744 30.343 30.3399 29.4463 30.5353 28.5639C31.532 28.7489 31.1607 29.304 31.0434 29.7594C32.3919 29.1901 33.8186 28.5212 35.4016 28.1797C35.8511 28.3504 36.2614 28.2224 36.6719 28.0658C37.8835 27.6246 39.0952 27.1692 40.3264 26.7422C41.0104 26.5002 41.1473 26.5287 41.5772 27.0695C42.0072 27.6246 42.4371 28.1939 42.7889 28.7916C43.981 30.7984 45.1341 32.8194 46.2871 34.8262C46.5217 35.2247 46.7562 35.6232 46.9907 36.0217C46.7366 36.7191 46.0722 37.0322 45.4468 37.388C44.9582 37.3595 44.7823 36.9041 44.411 36.719C44.2938 36.2921 44.0592 35.9505 43.6684 35.6801C43.6293 35.4097 43.5316 35.1677 43.2384 35.0396C43.1602 34.5984 42.9257 34.2426 42.5544 33.958C42.4176 33.4456 42.1635 33.0044 41.7335 32.6486C41.6945 32.2074 41.4404 31.8516 41.0886 31.5527Z" fill="#3D3E9A"/>
<path d="M48.1824 40.576C48.3974 40.5333 48.5147 40.4052 48.5342 40.2202C48.886 40.0778 49.1205 39.8359 49.2573 39.5086C50.3908 38.2419 51.5634 37.0179 53.0878 36.1071C53.5372 36.0644 53.8891 36.2636 54.2409 36.5056C54.964 37.0037 55.687 37.5018 56.4297 37.9999C56.8596 38.2988 57.27 38.6404 57.8368 38.74C59.3221 39.2666 60.4946 40.1775 61.5891 41.2022C61.5891 41.4157 61.5696 41.6149 61.5696 41.8284C61.3155 41.985 61.2373 42.2269 61.1787 42.4831C60.9832 42.5258 60.866 42.6539 60.8269 42.8389C60.6315 42.8816 60.4947 42.9812 60.436 43.1663C60.3383 43.1805 60.221 43.209 60.1233 43.2517C58.5208 43.8352 57.5827 43.0239 56.8205 41.9138C55.8238 41.131 54.8271 40.3483 53.85 39.5655C53.5373 39.3093 53.2246 39.1954 52.8924 39.5512C52.2865 40.1917 51.5243 40.7183 51.0357 41.4584C50.8403 41.5011 50.7231 41.615 50.684 41.8C50.4885 41.8427 50.3517 41.9565 50.3127 42.1415C50.1172 42.1842 49.9804 42.2981 49.9413 42.4831C49.7459 42.5258 49.6091 42.6397 49.57 42.8247C49.3746 42.8674 49.2378 42.9812 49.1987 43.1663C49.0032 43.209 48.8664 43.3086 48.8273 43.4936C48.1629 43.7071 47.8502 44.4329 47.0685 44.4614C46.4822 44.0914 46.0522 43.6359 46.2672 42.9243C46.6971 42.3835 47.1075 41.8427 47.5375 41.3018C47.7329 41.2449 47.8502 41.131 47.8893 40.946C48.0261 40.8749 48.1434 40.761 48.1824 40.576Z" fill="#3D3E9A"/>
<path d="M61.2163 14.9293C61.2554 15.1144 61.3922 15.2282 61.5876 15.2709C61.6267 15.4559 61.7635 15.5698 61.9589 15.6125C62.0371 15.9683 61.8807 16.2245 61.6462 16.5091C61.2554 17.0072 61.2749 17.0357 61.9589 17.6762C62.7797 17.8043 63.1706 18.2597 63.1511 19.014C63.4833 19.4552 63.2488 19.7968 62.9166 20.1241C62.5062 20.3661 62.0958 20.5938 62.1739 21.1631C62.2912 21.832 61.8612 22.2021 61.2163 22.4156C60.9036 22.4725 60.6495 22.4155 60.3564 22.259C59.516 21.8035 59.1252 21.9316 58.7929 22.6575C58.4412 23.4118 58.4021 23.4403 57.6594 23.426C57.1513 23.426 56.9168 23.241 56.7995 22.7571C56.5846 21.9316 56.1546 21.7608 55.3729 22.2163C54.9038 22.5009 54.6107 22.4298 54.2394 22.1166C53.6531 21.6043 53.6335 21.5474 53.9462 20.9923C54.4152 20.1242 54.3371 19.9106 53.2427 19.626C52.6759 19.4694 52.6173 19.1563 52.6173 18.7436C52.6173 18.3309 52.5977 17.8897 53.184 17.8327C53.7508 17.7758 54.1025 17.5623 54.2589 17.0642C54.9234 17.4058 55.2556 18.1174 55.9983 18.3735C56.3891 18.5728 56.565 18.9571 56.8582 19.2417C57.4054 19.7541 58.0503 19.9818 58.578 19.2987C59.047 18.7009 58.8711 18.1174 58.0894 17.7758C57.7767 17.6335 57.3663 17.605 57.2295 17.2207C57.5226 16.6657 58.2457 16.4237 58.4802 15.8117C58.2066 15.1713 57.4445 14.8866 57.1122 14.2889C57.6008 13.9758 58.0894 14.0469 58.5975 14.2462C58.5584 14.6305 58.4607 15.0432 58.9297 15.2994C59.4183 15.456 59.9264 15.7121 60.3564 15.1855C60.6104 14.8724 60.9231 14.9009 61.2163 14.9293Z" fill="#D2CF0B"/>
<path d="M50.9768 22.9138C50.9181 23.0134 50.8595 23.113 50.8009 23.2127C50.41 24.0524 50.4296 24.0666 51.2895 24.4509C51.7976 24.6786 51.993 25.0628 51.8367 25.504C51.7585 25.7602 51.5436 25.8029 51.309 25.9025C50.4296 26.2868 50.4296 26.3153 50.7813 27.1407C50.9963 27.6531 50.5078 28.3078 49.9019 28.2936C49.7847 28.2936 49.6674 28.2224 49.5697 28.1797C48.6707 27.9235 48.6121 27.9093 48.2407 28.7206C48.0453 29.1191 47.8108 29.2187 47.4004 29.2187C46.99 29.2187 46.7555 29.1048 46.5991 28.6921C46.2473 27.8524 46.1887 27.8381 45.2897 28.2224C44.9575 28.379 44.723 28.3648 44.4689 28.1513C44.2148 27.9236 43.8826 27.6958 44.0194 27.2973C44.0585 27.1977 44.1758 27.1123 44.2148 27.0127C44.4298 26.3722 44.3712 26.2441 43.7653 25.9452C43.609 25.8741 43.394 25.8741 43.2572 25.7745C42.8272 25.4756 42.925 24.707 43.4136 24.4936C43.7458 24.3512 44.1562 24.3939 44.3125 23.9954C44.4689 23.6111 44.1953 23.355 44.0585 23.0561C43.8826 22.6576 44.2148 22.4299 44.4689 22.2021C44.7034 21.9887 44.9379 21.9602 45.2897 22.1167C46.1887 22.501 46.2669 22.4868 46.5991 21.6613C46.8141 21.149 47.1463 21.1347 47.5958 21.149C47.8694 21.1632 48.0844 21.2628 48.1821 21.4905C48.3189 21.8036 48.3385 22.1595 48.7293 22.3303C49.1397 22.5153 49.4133 22.2164 49.7455 22.1025C50.1755 21.9602 50.9572 22.5295 50.9768 22.9138Z" fill="#24ACEF"/>
<path d="M74.0385 15.8831C74.3316 16.0539 74.4489 16.2958 74.3903 16.609C74.1753 16.7513 74.0776 16.9363 74.019 17.164C73.589 18.6869 73.1591 20.224 72.69 21.7326C72.5532 22.1596 72.3773 22.5865 72.1819 22.9992C71.8497 23.6539 71.3415 24.0809 70.4816 24.1379C69.6413 24.1948 69.6412 24.2517 69.524 25.0772C69.4849 25.3618 69.4458 25.6322 69.2113 25.8457C68.625 25.3903 68.5468 24.5221 67.6869 24.2944C67.511 24.1378 67.4133 23.9101 67.1788 23.8105C66.4166 23.7393 65.6154 23.8248 64.9704 23.3409C64.5991 22.9281 64.6382 22.4869 64.9118 22.0457C65.3027 21.7184 65.7912 21.6757 66.2798 21.6615C66.5534 21.6472 66.827 21.6615 67.1006 21.6615C67.3547 21.6615 67.6088 21.6757 67.8629 21.6757C68.1755 21.6614 68.4882 21.6187 68.8009 21.5476C68.9572 21.5191 69.1136 21.4906 69.27 21.4479C70.3839 20.352 70.1494 18.8719 70.638 17.6052C71.0484 16.8794 71.4588 16.1678 72.0451 15.5558C72.8268 14.9438 73.374 15.6981 74.0385 15.8831Z" fill="#3C3D99"/>
<path d="M35.401 28.1797C35.2056 28.4786 34.9906 28.7347 34.6193 28.8628C33.4663 29.2613 32.3328 29.6598 31.1406 30.0726C30.5739 29.674 31.1015 28.9198 30.5152 28.5782C30.398 26.4291 30.398 24.2658 30.5543 22.1167C31.3165 22.6148 32.1373 22.9564 33.0363 23.1557C33.7985 23.3265 34.5607 23.5826 35.3033 23.8103C35.616 24.0665 35.9287 24.3227 35.6551 24.7497C35.5769 25.8883 35.4988 27.0411 35.401 28.1797Z" fill="#211D71"/>
<path d="M61.5687 41.2022C61.0411 41.2164 60.6892 40.8749 60.2984 40.6044C59.4385 40.0209 58.4418 39.5797 57.8164 38.74C58.0705 37.7153 58.305 36.7048 58.5591 35.68C58.4809 35.1534 58.6568 34.7407 59.1845 34.4703C60.6111 34.1857 62.0377 34.086 63.4839 34.3849C63.4839 34.7265 63.4839 35.0538 63.4839 35.3954C63.054 36.2636 62.8194 37.1887 62.7413 38.128C62.37 38.498 62.3504 38.9535 62.3504 39.4089C62.0964 39.7363 62.3309 40.2059 61.9987 40.5191V40.5048C61.8423 40.7325 61.7055 40.9602 61.5687 41.2022Z" fill="#221E71"/>
<path d="M63.4843 34.3708C62.8589 34.6412 62.1945 34.755 61.4909 34.755C60.6897 34.755 59.8689 34.7978 59.0676 34.8262C58.6572 35.0112 58.2859 35.2959 57.7777 35.0824C57.0155 34.5131 57.1914 33.7303 57.1719 32.9903C57.1133 32.0225 56.4097 31.1685 56.4683 30.1722C56.7419 29.7168 57.1133 29.4606 57.7191 29.6457C58.2468 30.0726 58.2858 30.7131 58.5594 31.2539C58.7353 31.5955 58.833 31.9798 59.0285 32.3213C59.1653 32.5633 59.4389 32.4637 59.6539 32.3783C60.0252 32.3213 60.377 32.1221 60.7678 32.2074C61.4519 32.3071 62.1163 32.1933 62.7612 32.0225C63.5234 32.6914 63.6993 33.4884 63.4843 34.3708Z" fill="#77C3D1"/>
<path d="M36.397 24.095C36.9247 23.4261 37.4524 22.7429 37.98 22.074C38.0191 22.2733 38.0387 22.6291 38.3514 22.4868C39.1526 22.074 39.9148 21.5901 40.677 21.1205C40.9897 20.9212 41.2828 20.722 41.6737 20.722C42.2209 20.9354 42.475 21.3197 42.4945 21.8605C42.3577 22.501 41.6542 22.6576 41.2242 23.0418C40.5597 23.6254 39.7975 24.1377 39.0549 24.6358C38.4295 25.0486 37.765 25.3048 36.9833 24.892C36.7879 24.7782 36.4947 24.8066 36.2602 24.7639C35.8303 24.4366 36.1821 24.28 36.397 24.095Z" fill="#B4EBF8"/>
<path d="M60.4948 32.3071C60.2212 32.3071 59.9867 32.8195 59.674 32.3783C59.8499 32.0794 60.0258 31.7947 60.2017 31.4959C60.4166 31.1401 60.3385 30.8412 59.9085 30.6847C59.4004 30.4996 59.4004 30.1723 59.4199 29.7453C59.4395 28.8487 60.0063 28.2082 60.5339 27.5393C62.5273 27.7955 63.309 28.806 63.055 30.7416C62.8595 31.012 62.6641 31.2824 62.4687 31.5528C62.2537 32.0509 61.687 32.051 61.257 32.236C61.1007 32.2787 60.9443 32.3071 60.7684 32.3071C60.6512 32.3071 60.573 32.3071 60.4948 32.3071Z" fill="#F19E5B"/>
<path d="M57.1703 32.9903C57.4439 33.6592 57.7175 34.3139 57.9911 34.9828C58.0693 35.1251 58.0302 35.239 57.8934 35.3386C57.0726 35.666 56.2518 35.609 55.7241 34.9259C54.9033 33.8869 53.8284 32.9903 53.3594 31.7378C53.4375 31.2397 53.7112 30.9551 54.2975 30.9551C54.9033 31.0405 55.255 31.4247 55.5286 31.8517C55.8413 32.3356 56.2322 32.7483 56.7012 33.0899C56.8771 33.2038 57.0335 33.1326 57.1703 32.9903Z" fill="#B4ECF8"/>
<path d="M63.0152 30.7415C62.683 30.5707 62.2921 30.3573 62.5462 29.973C62.8198 29.5602 62.683 29.4037 62.4289 29.0052C61.9403 28.2935 61.4127 27.7527 60.5137 27.5392C60.5137 26.7849 61.1 26.5999 61.7449 26.5003C62.8198 26.3437 63.9728 26.8703 64.4419 27.6674C64.9305 28.5213 64.7155 29.4748 63.8165 30.2718C63.582 30.4711 63.2888 30.5849 63.0152 30.7415Z" fill="#45423F"/>
<path d="M45.4648 37.3881C45.5821 36.5484 46.4029 36.3919 47.0088 36.0218C47.4974 35.7799 47.9859 35.5522 48.455 35.296C48.8067 35.111 49.1585 34.9971 49.4321 35.3387C49.6862 35.6518 49.3148 35.8226 49.1194 36.0076C48.7872 36.3207 48.4159 36.6196 48.0641 36.9327C47.8687 37.3881 47.3214 37.4735 46.9892 37.7866C46.8524 37.9005 46.7156 38.0143 46.5593 38.0997L46.5788 38.0855L46.4225 38.0713L46.2661 38.114C46.0316 37.9859 45.8166 37.8436 45.5821 37.7155C45.543 37.6016 45.5039 37.4878 45.4648 37.3881Z" fill="#4D4E50"/>
<path d="M62 23.0987C62.0586 22.2448 62.0586 22.2163 62.7622 22.0598C63.0162 22.0028 63.2312 22.0028 63.2898 21.7182C63.3289 21.5047 63.5048 21.4478 63.7003 21.5189C64.1497 21.704 64.5797 21.9317 65.0292 22.1309C65.0096 22.5294 64.9705 22.9279 64.951 23.3264C63.9347 23.4403 62.9381 23.5257 62 23.0987Z" fill="#F4A96C"/>
<path d="M39.8368 17.2635C40.4817 17.0216 40.7554 17.0785 40.8922 17.5197C40.9703 17.7617 40.9117 18.0321 40.9117 18.2882C40.4622 18.644 40.0127 18.9856 39.5632 19.3415C39.1724 19.0853 38.7815 18.8433 38.3906 18.5871C38.5274 18.1886 38.6838 17.7759 38.8206 17.3774C39.1333 17.107 39.5437 17.5909 39.8368 17.2635Z" fill="#F2A96D"/>
<path d="M42.4947 21.8605C42.0452 21.5901 41.7715 21.2059 41.6738 20.722C41.8302 20.5512 41.967 20.3662 42.1429 20.1954C42.397 19.9392 42.6705 19.6972 43.0223 20.1242C43.0614 20.1669 43.2569 20.1384 43.3741 20.1099C43.7455 19.9961 44.1168 19.9534 44.3317 20.3377C44.5076 20.665 44.3122 21.092 43.8627 21.3197C43.4132 21.5189 42.9442 21.6755 42.4947 21.8605Z" fill="#F3A96B"/>
<path d="M67.6081 29.6171C67.4908 29.6171 67.3931 29.5886 67.2758 29.5602C66.924 28.6208 67.0217 27.6815 67.2172 26.7422C67.1194 26.429 67.139 26.1302 67.2562 25.8313C67.3735 25.7175 67.5103 25.689 67.6667 25.7601C67.9012 25.9736 67.9794 26.244 68.038 26.5144C68.0576 26.7848 68.1553 27.0126 68.3507 27.2118C68.3507 28.0089 68.3702 28.8058 68.3702 29.5886C68.1161 29.7879 67.8621 29.7737 67.6081 29.6171Z" fill="#211D71"/>
<path d="M57.7181 29.6457C57.3077 29.8165 56.8777 30.0015 56.4673 30.1723C56.2133 29.7311 55.9201 29.3041 55.7052 28.8487C55.5684 28.5641 55.7637 28.3079 56.0178 28.1371C56.2523 27.9805 56.4869 28.0232 56.6823 28.194C57.1514 28.6068 57.8158 28.9056 57.7181 29.6457Z" fill="#F3A96B"/>
<path d="M54.298 30.9551C54.0634 31.2967 53.7703 31.5671 53.3599 31.7378C52.9299 31.4247 52.5 31.1116 52.0896 30.7701C51.8941 30.5993 51.9136 30.3573 52.0504 30.1581C52.1091 30.0727 52.2264 29.9588 52.3241 29.9446C52.8713 29.8876 53.399 30.03 53.868 30.2435C54.083 30.3431 54.1612 30.7131 54.298 30.9551Z" fill="#F4A96C"/>
<path d="M60.8654 31.9939C61.3345 31.7093 61.8817 31.6097 62.4289 31.5527C62.5462 31.7093 62.6634 31.8658 62.7807 32.0366C62.7416 32.1362 62.7416 32.2786 62.6634 32.3355C62.0967 32.7625 61.2563 32.7482 60.4941 32.3213L60.4746 32.3355C60.6505 32.2501 60.7482 32.1078 60.8654 31.9939Z" fill="#3A3174"/>
<path d="M67.1975 26.7422C67.217 27.6815 67.2366 28.6209 67.2561 29.5602C67.1389 29.5744 67.0412 29.5744 66.9239 29.5887C66.9239 28.6209 66.8653 27.6673 67.1975 26.7422Z" fill="#322F7C"/>
<path d="M67.5882 25.8314C67.4709 25.8314 67.3536 25.8314 67.2559 25.8314C67.2168 25.1625 67.1973 24.4794 67.1582 23.8104C67.3145 23.9243 67.4904 24.0382 67.6468 24.1378C68.1158 24.7213 68.194 25.2906 67.5882 25.8314Z" fill="#322F7C"/>
<path d="M36.3972 24.0952C36.3385 24.3086 36.2799 24.5363 36.2213 24.7498C36.0454 24.7356 35.85 24.7356 35.6741 24.7356C35.4591 24.4509 35.3223 24.1379 35.3223 23.7963C35.7522 23.6967 36.0845 23.8817 36.3972 24.0952Z" fill="#CF452A"/>
<path d="M57.8945 35.3386C57.9336 35.2248 57.9531 35.1109 57.9922 34.9828C58.3245 34.7836 58.6763 34.6555 59.0671 34.8263C59.0085 35.1679 58.7935 35.424 58.559 35.666C58.3245 35.5664 58.1095 35.4525 57.8945 35.3386Z" fill="#BF4534"/>
<path d="M38 22.0741C38.0977 21.946 38.1954 21.8322 38.2931 21.7041C38.2931 21.8891 38.1759 22.0029 38 22.0741Z" fill="#B4EBF8"/>
<path d="M49.5881 6.7602C51.4838 6.7175 53.2427 8.19766 53.2623 9.96247C53.2818 11.4853 52.1483 13.2216 49.8031 13.3213C47.751 13.4067 46.0508 11.9407 46.0312 10.0763C46.0312 8.3115 47.6534 6.78867 49.5881 6.7602Z" fill="#FFFEFD"/>
<path d="M60.6318 5.59306C60.6122 5.42227 60.6123 5.23726 60.5927 5.06647C60.8663 4.96684 61.1008 4.65372 61.4331 4.78181C61.9021 4.98106 62.2148 4.96681 62.4884 4.49714C62.6838 4.15557 63.2506 4.08441 63.4264 4.41175C63.8564 5.25146 64.4232 4.81026 64.9899 4.68217C65.1072 4.96682 65.4003 5.16609 65.3221 5.55036C65.2049 6.17659 65.2635 6.19081 66.0648 6.43276C66.0452 6.7601 66.2211 7.15858 65.7912 7.3436C65.2439 7.57132 65.1072 7.856 65.2831 8.39682C65.4003 8.7384 65.0094 9.10841 64.6381 8.99456C64.0518 8.82377 63.7587 8.90917 63.446 9.4073C63.231 9.76311 62.7034 9.77733 62.547 9.43575C62.2343 8.7953 61.8435 8.80955 61.2376 9.0088C61.0813 9.06573 60.8077 8.83801 60.5927 8.73839C60.5536 8.61029 60.534 8.48219 60.495 8.36833C60.8272 8.02676 60.9445 7.78483 60.4363 7.41479C59.85 6.98782 59.8696 6.84551 60.4363 6.40431C60.8272 6.11966 60.964 5.9204 60.6318 5.59306Z" fill="#28ADEF"/>
<path d="M57.2703 17.1781C57.583 17.1924 57.8957 17.1639 58.1889 17.2208C59.0292 17.3916 59.4592 17.8755 59.4787 18.6299C59.4983 19.3842 59.0878 19.9108 58.3061 20.1385C57.6026 20.3377 56.7818 20.0673 56.43 19.4411C56.2345 19.0995 56.1759 18.701 56.0587 18.3309L56.0195 18.3452C56.0586 18.274 56.1368 18.2029 56.215 18.146C56.5668 17.8329 56.9185 17.5055 57.2703 17.1781Z" fill="#FEFCF8"/>
<path d="M58.6578 14.1894C58.1692 14.2037 57.6807 14.2179 57.1725 14.2321C56.8989 14.1183 56.6644 13.9902 56.8989 13.677C57.2702 13.8763 57.6611 13.9048 58.0911 13.9048C58.3256 13.919 58.5405 13.9759 58.6578 14.1894Z" fill="#DBC62C"/>
<path d="M56.215 18.1601L56.1759 18.3167L56.0195 18.3594L56.0587 18.2028L56.215 18.1601Z" fill="#D2CF0B"/>
<path d="M69.1912 45.5573C68.8003 45.0877 68.8003 45.0023 69.2107 44.9454C69.5429 44.9027 69.8947 44.8742 70.2465 44.8457C70.9892 44.5753 71.7513 44.6038 72.5135 44.5896C72.5526 45.5147 72.533 45.5573 71.7904 45.5573C70.9305 45.5716 70.0511 45.5573 69.1912 45.5573Z" fill="#3C3C3E"/>
<path d="M26.4104 45.9416C26.3713 45.7566 26.2736 45.6285 26.0586 45.5858C26.0391 45.3865 26.0195 45.1873 26 44.988C26.3322 44.7318 26.6645 44.4614 26.9967 44.2053C27.5048 44.4472 27.8761 44.8315 28.1888 45.2584C28.1497 45.8704 28.5015 46.2974 28.9315 46.6959C29.0097 47.1371 29.4201 47.5072 29.2637 47.9911C28.9901 48.0338 28.7165 48.1049 28.4625 47.8772C28.1498 47.5783 27.798 47.3079 27.4657 47.0232C27.4267 46.8382 27.3094 46.7101 27.0944 46.6674C27.0553 46.4824 26.9381 46.3543 26.7427 46.3116C26.7231 46.0981 26.6254 45.9843 26.4104 45.9416Z" fill="#4B4C4D"/>
<path d="M67.5879 25.8314C67.6074 25.2621 67.627 24.707 67.6465 24.1377C67.8224 24.1092 67.9983 24.0665 68.1742 24.0665C69.0536 24.1092 69.1122 24.1662 69.1513 24.8636C69.1709 25.1909 69.1709 25.504 69.1904 25.8314C69.1514 26.1587 69.0927 26.4718 69.0536 26.7991C68.8191 26.8418 68.6041 26.8845 68.3696 26.9272C68.096 27.0126 67.842 27.0411 67.6661 26.7707C67.627 26.4718 67.6074 26.1587 67.5879 25.8314Z" fill="#78D2E7"/>
<path d="M68.3306 44.6179C68.4674 44.9311 68.3697 45.2442 68.2915 45.5431C67.3144 45.5715 66.3567 45.6 65.3795 45.6427L65.2427 45.5715L65.0864 45.6142C64.8519 45.4434 64.461 45.5573 64.3047 45.2442C64.3438 45.173 64.3437 45.1019 64.3242 45.0307C64.9105 44.803 65.6336 45.0876 66.1418 44.6179C66.8844 44.6037 67.6075 44.6179 68.3306 44.6179Z" fill="#2D2F31"/>
<path d="M69.1126 27.5108C69.0736 28.0943 69.3667 28.7348 68.7804 29.2329C68.8 28.6494 68.5459 28.0232 69.1126 27.5108Z" fill="#322F7C"/>
<path d="M67.6074 29.6172C67.8615 29.6029 68.1155 29.6029 68.3696 29.5887C68.1351 29.9872 67.8615 29.9018 67.6074 29.6172Z" fill="#322F7C"/>
<path d="M67.668 26.7849C67.9025 26.8419 68.137 26.8846 68.3715 26.9415C68.3715 27.0269 68.3715 27.1265 68.352 27.2119C68.0393 27.1835 67.7461 27.1123 67.668 26.7849Z" fill="#322F7C"/>
<path d="M69.1133 29.6029C69.2501 29.7168 69.3674 29.8164 69.5042 29.9303C69.3674 29.8164 69.2501 29.7168 69.1133 29.6029Z" fill="#322F7C"/>
<path d="M36.4556 16.2816C36.4752 16.4666 36.5924 16.5804 36.7683 16.6516C36.5924 17.1355 36.4165 17.6194 36.4751 18.146C36.5338 18.701 36.2602 18.9999 35.6348 19.0141C35.1462 19.0284 34.9899 19.2988 35.0485 19.6973C35.1071 20.0246 35.1853 20.3662 35.2634 20.6935C35.1853 20.8643 35.0876 20.8928 34.9703 20.722C34.814 20.6509 34.6381 20.5797 34.4817 20.4943C33.6414 20.3662 32.9769 20.0246 32.6447 19.2703C32.6251 19.0426 32.6642 18.7864 32.4102 18.6299C32.4297 18.5445 32.4492 18.4591 32.4492 18.3737C32.4492 16.1107 33.7 15.0718 36.0647 15.3422C36.2015 15.6553 36.0648 16.0538 36.4556 16.2816Z" fill="#F19C57"/>
<path d="M32.6645 19.2702C33.3876 19.5549 34.0716 19.868 34.5016 20.5084C34.5016 20.7219 34.5016 21.0493 34.1693 20.9354C33.3876 20.6793 32.5082 20.6081 31.8828 20.0388C31.961 19.9392 32.0001 19.8395 32.0001 19.7257C32.2346 19.5691 32.4496 19.4126 32.6645 19.2702Z" fill="#3C3D7F"/>
<path d="M34.9902 20.722C35.088 20.7077 35.1857 20.7077 35.2834 20.6935C35.342 20.8358 35.3811 20.9639 35.4397 21.1062C35.0097 21.277 35.0098 21.277 34.9902 20.722Z" fill="#CF705A"/>
<path d="M68.7208 16.2673C68.7404 16.0681 68.8772 15.9258 69.0531 15.8261C69.1899 15.8546 69.3462 15.8831 69.483 15.9258C69.4635 16.2673 69.4244 16.6089 69.4048 16.9505C69.3267 17.4771 69.6784 18.0037 69.3462 18.516C69.2485 18.6583 69.1313 18.7437 68.9554 18.7864C68.6427 18.7864 68.545 18.573 68.4668 18.3452C68.7209 17.6621 68.7794 16.9647 68.7208 16.2673Z" fill="#BF7869"/>
<path d="M56.7812 41.8996C57.817 42.4974 58.7551 43.2801 60.084 43.2374C59.8495 44.0771 59.1069 44.7318 58.931 45.6C57.7779 46.6532 58.1492 47.6921 58.97 48.7169C58.97 49.0015 59.0287 49.2577 59.3023 49.4285C59.3218 49.7985 59.4195 50.1401 59.7517 50.4105C59.7322 50.6952 59.83 50.9371 60.1036 51.1079C60.1036 51.3925 60.1622 51.6487 60.4358 51.8195C60.5335 52.4457 60.768 53.015 61.2175 53.4989C61.1979 53.6982 61.1784 53.9117 61.1589 54.1109C60.8266 54.5521 60.5139 55.0076 59.8104 54.7941C59.3218 54.1109 58.8333 53.4135 58.3251 52.7304C58.286 52.46 58.2078 52.218 57.9147 52.0757C57.8951 51.7911 57.7974 51.5634 57.5043 51.4068C57.2893 50.7521 56.9571 50.1543 56.4489 49.642C56.4099 49.3715 56.3317 49.1296 56.0581 48.973C55.9409 48.4607 55.7063 48.0053 55.2764 47.621C54.6315 45.8704 54.6315 45.8704 55.5695 44.1483C56.019 43.4367 56.3903 42.6682 56.7812 41.8996Z" fill="#1C67B3"/>
<path d="M70.5977 17.6052C70.715 17.7333 70.9495 17.8756 70.9299 17.9894C70.6759 19.1992 70.4023 20.4089 70.0896 21.6187C70.0114 21.9603 69.601 21.9745 69.0734 21.6898C68.3503 20.6224 68.5848 19.6119 69.2883 18.6441C69.4056 18.1175 69.1515 17.3348 70.2655 17.5625C70.3632 17.6052 70.4609 17.6194 70.5977 17.6052Z" fill="#262777"/>
<path d="M74.0364 15.883C73.8605 16.0822 73.6455 16.1107 73.4696 15.9399C73.0592 15.5699 72.5316 15.5841 72.0039 15.5557C72.0821 15.1145 72.4143 14.9295 72.8833 14.8868C72.981 14.9579 73.0983 14.9721 73.2351 14.9579C73.4306 15.2995 73.9777 15.4133 74.0364 15.883Z" fill="#3E3D89"/>
<path d="M70.2663 17.534C69.5432 17.6194 69.5823 18.2029 69.426 18.6441C69.3087 18.7865 69.1915 18.7722 69.0742 18.6441C69.211 18.0749 68.9569 17.4487 69.426 16.9363C69.6996 17.1355 69.9732 17.3348 70.2663 17.534Z" fill="#7BBDD3"/>
<path d="M46.2076 42.9243C46.4812 43.4367 46.7353 43.9491 47.0089 44.4615C46.7548 44.618 46.4813 44.7745 46.2272 44.9311C45.9927 44.8172 45.7777 44.6892 45.5432 44.5753C45.4064 44.1626 45.1718 43.8068 44.781 43.5648C44.7614 43.3798 44.6832 43.2375 44.4878 43.1521C44.4096 42.8959 44.3119 42.6682 44.0188 42.5543C44.0383 42.3408 43.8429 42.1131 44.0774 41.9281C44.2924 41.7573 44.5465 41.8427 44.7419 41.9566C45.2305 42.2697 45.5432 42.8247 46.2076 42.9243Z" fill="#4E4E4F"/>
<path d="M67.9991 22.0741C67.745 22.0741 67.4714 22.0599 67.2174 22.0599C66.6115 21.3483 66.7092 20.6366 67.2174 19.9108C67.2565 19.6262 67.3151 19.3557 67.3542 19.0711C67.4519 18.9288 67.5496 18.8007 67.6473 18.6583C68.1164 18.8861 67.9795 19.3273 68.0577 19.6831C68.5658 20.2666 68.5463 20.9213 68.3509 21.5902C68.2532 21.7752 68.1359 21.9318 67.9991 22.0741Z" fill="#34498E"/>
<path d="M68 21.5901C68.0195 20.9496 68.0391 20.3234 68.0586 19.6829C68.1563 19.6545 68.2345 19.6403 68.3323 19.6118C68.7231 19.7684 68.7818 20.1099 68.899 20.423C68.9381 20.7504 68.9772 21.0919 68.8404 21.4193C68.5668 21.5474 68.4104 22.0597 68 21.5901Z" fill="#B37264"/>
<path d="M68.7034 20.352C68.4298 20.167 68.4102 19.8824 68.332 19.612C68.3711 19.185 68.4297 18.758 68.4884 18.331C68.5861 18.4449 68.6838 18.573 68.7815 18.6868C68.9965 19.2561 69.1138 19.8254 68.7034 20.352Z" fill="#C55941"/>
<path d="M67.2176 19.9108C67.2176 20.6224 67.2176 21.334 67.2176 22.0599C66.944 22.0457 66.6705 22.0314 66.3969 22.0172C66.1233 21.5191 65.5369 21.391 65.0679 21.149C64.2471 20.7505 63.3285 20.537 62.6445 19.9108C62.8204 19.6119 62.9768 19.2988 63.1527 18.9999C63.3872 18.9999 63.6217 19.0142 63.8562 19.0142C64.1689 19.3273 64.5793 19.3557 64.9897 19.3415C65.6933 19.7116 66.3968 20.0247 67.2176 19.9108Z" fill="#236CB5"/>
<path d="M59.8095 54.8225C60.2785 54.6233 60.5912 54.1821 61.158 54.1394C61.2948 54.2817 61.4511 54.4098 61.5879 54.5521C61.5879 54.8652 61.5879 55.1926 61.5879 55.5057C61.1384 55.6338 60.7476 55.833 60.474 56.1888C60.1808 56.2173 59.9463 56.3454 59.7704 56.5731C59.575 56.6016 59.4186 56.6727 59.3404 56.8577C59.2818 56.872 59.2232 56.872 59.1646 56.8862C58.3633 57.114 58.3438 57.0428 58.3242 56.2742C58.5197 56.2315 58.6565 56.1177 58.6955 55.9327C58.9105 55.89 59.0277 55.7761 59.0864 55.5911C59.4577 55.463 59.7117 55.2068 59.8095 54.8225Z" fill="#4D4F50"/>
<path d="M36.0645 15.3422C35.7127 15.4276 35.3414 15.5272 34.9897 15.5699C34.462 15.6411 34.0321 15.7834 33.8366 16.2815C33.7389 16.5235 33.5043 16.5804 33.2503 16.6231C32.8008 16.6943 32.8204 16.9504 32.9767 17.2351C33.2699 17.7901 32.879 18.0748 32.4686 18.3452C32.3318 18.3025 32.2145 18.2598 32.0777 18.2029C32.0386 18.0178 31.9214 17.904 31.7259 17.8613C31.6673 17.6051 31.5501 17.3774 31.2765 17.2351C31.1201 16.4665 31.1005 15.6838 31.296 14.9152C31.6673 14.5879 32.0582 14.2463 32.4295 13.919C33.3871 13.7766 34.3252 13.7055 35.2828 13.9332C35.361 14.1182 35.5173 14.1894 35.7128 14.2178C35.7518 14.4029 35.8495 14.5309 36.0645 14.5736C36.0645 14.8441 36.0645 15.086 36.0645 15.3422Z" fill="#3F3E3D"/>
<path d="M48.865 25.1908C48.8455 25.8882 48.181 26.486 47.4188 26.486C46.6762 26.486 45.9922 25.8455 45.9922 25.1624C45.9922 24.5219 46.7348 23.853 47.4579 23.853C48.2006 23.853 48.8846 24.4935 48.865 25.1908Z" fill="#F0F9FD"/>
<path d="M68.702 20.352C68.7216 19.7969 68.7607 19.2418 68.7802 18.6868C68.8779 18.6583 68.9757 18.6441 69.0734 18.6299C69.1906 18.6299 69.3079 18.6299 69.4251 18.6299C69.0929 19.6261 69.0342 20.6366 69.0929 21.6613C68.9952 21.704 68.917 21.7325 68.8193 21.7609C68.6825 21.6898 68.6434 21.6186 68.6629 21.519C68.6825 21.4194 68.7216 21.3767 68.7411 21.3767C68.7216 21.0493 68.702 20.7078 68.702 20.352Z" fill="#7195B0"/>
<path d="M68.7231 21.3908C68.7426 21.5189 68.7622 21.647 68.8013 21.7751C68.6254 22.074 68.3127 22.0597 68 22.074C68 21.9174 68 21.7609 68 21.5901C68.2345 21.5189 68.4886 21.462 68.7231 21.3908Z" fill="#77B9D2"/>
<path d="M60.8654 31.994C60.8068 32.179 60.67 32.2929 60.4746 32.3214C60.5137 32.1221 60.67 32.0225 60.8654 31.994Z" fill="#77C3D1"/>
<path d="M63.9137 6.94513C63.8746 7.4148 63.4447 7.77063 62.9366 7.72793C62.448 7.68524 62.0181 7.25825 62.0572 6.81704C62.0962 6.37584 62.5652 6.00582 63.0538 6.03429C63.5619 6.06275 63.9528 6.47546 63.9137 6.94513Z" fill="#EBF7FC"/>
</svg>
