<svg width="80" height="80" viewBox="0 0 80 80" fill="none" xmlns="http://www.w3.org/2000/svg">
<circle cx="40" cy="40" r="40" fill="#D7E9FD" fill-opacity="0.58"/>
<path d="M20.4014 43.4578C20.7238 43.4694 21.0461 43.5043 21.3685 43.5043C26.8996 43.5043 32.4477 43.5043 37.9788 43.5043C38.3012 43.5043 38.6235 43.481 38.9459 43.4578C39.2683 43.2488 39.6076 43.2604 39.93 43.4578C46.2246 43.5391 52.5192 43.5391 58.8138 43.4578C59.1361 43.2604 59.4755 43.2372 59.7809 43.481L59.7639 43.4578C60.1881 45.432 59.8488 47.4178 59.9506 49.4037C59.9675 49.7869 59.7639 50.0192 59.2719 50.0075C58.7798 49.9843 58.6611 49.7056 58.6611 49.3456C58.6611 48.1379 58.6102 46.9301 58.6781 45.734C58.712 44.9327 58.3727 44.7004 57.4565 44.712C52.1459 44.7352 46.8354 44.7352 41.5248 44.712C40.6934 44.712 40.3541 44.9211 40.3881 45.6527C40.4389 46.814 40.405 47.9753 40.405 49.1366C40.405 49.6359 40.3711 50.1004 39.6076 50.1004C38.8611 50.1004 38.7762 49.6475 38.7932 49.1482C38.8102 47.9869 38.7593 46.8256 38.8102 45.6643C38.8441 44.9327 38.5217 44.712 37.6904 44.712C32.3798 44.7352 27.0693 44.7352 21.7587 44.712C20.8595 44.712 20.4862 44.9095 20.5371 45.7224C20.605 46.8837 20.5711 48.045 20.5541 49.2062C20.5371 50.1817 20.0282 50.3211 19.1459 49.7869C19.1459 47.8011 19.1289 45.8153 19.1289 43.8294C19.1968 43.6901 19.3155 43.5739 19.4682 43.4927L19.4513 43.5159C19.7397 43.2372 20.0621 43.2604 20.4014 43.4578Z" fill="#59CFEA"/>
<path d="M63.9901 58.0205C64.007 58.1831 64.007 58.334 64.024 58.4966C64.1258 58.5779 64.2276 58.6592 64.3294 58.7405C64.8044 59.0424 65.0589 59.4837 65.2965 59.9366L65.2795 59.9134C65.6528 60.5289 65.6528 61.1908 65.6528 61.8527C65.6528 61.9805 65.6358 62.1082 65.6019 62.2244C65.551 62.3405 65.5001 62.445 65.4153 62.5495C65.3813 62.596 65.3304 62.6424 65.2795 62.6889C65.1947 62.7702 65.0929 62.8515 64.9911 62.9212C64.9063 62.9908 64.7875 63.0489 64.6857 63.107C64.533 63.1766 64.3633 63.2463 64.2106 63.316C64.1088 63.3624 64.007 63.4089 63.9052 63.4553C63.7525 63.525 63.5828 63.5947 63.4301 63.676C63.3283 63.7341 63.2096 63.7805 63.1078 63.827C62.7684 63.9779 62.4122 64.1057 62.0219 64.187C61.8862 64.2102 61.7504 64.2218 61.6147 64.2102C61.1566 64.1405 60.8173 64.3728 60.444 64.5353C60.3083 64.5818 60.1725 64.605 60.0198 64.6283C59.5108 64.6747 59.0188 64.6747 58.5098 64.6166C58.3741 64.5934 58.2384 64.5702 58.1027 64.5237C57.7973 64.4308 57.4918 64.3263 57.1864 64.2218C57.0677 64.2102 56.9489 64.1869 56.8302 64.1637C56.6096 64.0824 56.3721 64.0708 56.1345 64.0128C56.0158 63.9895 55.914 63.9547 55.8122 63.9083C55.6595 63.8386 55.5067 63.7689 55.354 63.6992C55.2522 63.6527 55.1504 63.6063 55.0486 63.5599C54.879 63.5018 54.7093 63.4437 54.5736 63.3624C54.4887 63.2928 54.4039 63.2115 54.3361 63.1302C54.1325 62.9328 53.8101 62.8515 53.6574 62.6076L53.6913 62.6424C53.5047 62.596 53.4029 62.4914 53.3181 62.3521L53.352 62.3869C52.9278 61.8643 53.2162 61.2837 53.1314 60.7379C53.1314 60.5986 53.1314 60.4592 53.1314 60.3198C53.1993 60.0411 53.369 59.8089 53.6404 59.6347H53.6235C53.6913 59.5534 53.7422 59.4605 53.7761 59.3676C53.8101 59.3211 53.844 59.2863 53.8779 59.2398C53.9628 59.1585 54.0307 59.0889 54.1155 58.996C54.1494 58.9495 54.1834 58.9147 54.2343 58.8682C54.3191 58.7869 54.4039 58.7056 54.5057 58.6476C54.5566 58.6127 54.6245 58.5895 54.6754 58.5547C54.7941 58.4966 54.9129 58.4501 55.0317 58.4037C55.5576 58.2527 56.0667 57.9856 56.6605 58.1715C57.2204 58.5315 57.424 59.1121 57.7633 59.5882C58.2384 60.6334 59.1376 61.5392 59.2903 62.6192C59.7993 61.5392 60.5119 60.4243 61.1566 59.2747C61.4281 58.8798 61.6996 58.485 62.2255 58.2992C62.7176 58.1947 63.3283 58.3224 63.6846 57.8579C63.8713 57.8347 63.9731 57.8811 63.9901 58.0205Z" fill="#9ECC2F"/>
<path d="M45.7668 61.3535C45.6989 61.4232 45.6989 61.5044 45.7838 61.5625C45.9704 61.7251 45.9534 61.9109 45.8686 62.0967C45.3596 62.7702 44.6131 63.1651 43.7817 63.467L43.8156 63.4438C43.6629 63.6877 43.3575 63.6412 43.12 63.7341L43.1539 63.7109C42.9334 64.0709 42.4413 63.8154 42.1699 64.0361L42.2038 64.0244C40.7108 64.489 39.2177 64.9883 37.6568 64.2103C37.5041 64.2103 37.3514 64.2103 37.1987 64.2103C36.9272 64.1522 36.6557 64.0825 36.3673 64.0593C36.2316 64.0361 36.1128 63.9896 35.994 63.9432C35.8244 63.8735 35.6377 63.7922 35.4681 63.7109C35.3493 63.6528 35.2645 63.5715 35.1796 63.4786C35.0609 63.3509 34.8233 63.3277 34.7724 63.1419L34.7894 63.1651C34.6367 63.1419 34.501 63.107 34.3652 63.049C34.2974 63.0257 34.2295 62.9909 34.1616 62.9677C33.4321 62.596 33.1606 62.0502 33.2455 61.3419C33.2455 61.2141 33.3133 61.098 33.4321 61.0167L33.4151 61.0283C33.3812 59.507 34.3992 58.6941 35.9771 58.2644C36.6388 58.1599 37.1138 58.4038 37.4532 58.8683C38.1318 59.9483 38.6578 61.1096 39.5231 62.2593C40.575 61.2141 40.9483 59.9483 41.7118 58.8799C42.0511 58.4038 42.5431 58.1831 43.2048 58.2644C45.156 58.636 45.7837 59.7973 45.7668 61.3535Z" fill="#E2360E"/>
<path d="M35.0612 25.6088L35.1291 25.5391L35.0782 25.4578C35.2818 25.1675 35.0782 24.7726 35.4006 24.5171L35.3836 24.5403C35.5533 24.3661 35.5024 24.1107 35.706 23.9597L35.689 23.9713C35.9266 23.7042 36.0453 23.3442 36.4186 23.1584L36.3677 23.1932C36.7749 22.7287 37.3517 22.4732 37.9795 22.2991L37.9625 22.3107C39.0484 22.0552 40.1173 22.0203 41.2032 22.3339L41.1692 22.3223C41.3898 22.4384 41.6952 22.3919 41.8479 22.6126L41.814 22.5894C42.7302 23.1003 43.6294 23.6113 43.7651 24.6449L43.7312 24.7262L43.7991 24.7842C44.4099 26.3752 44.7492 27.9662 43.7312 29.5455C43.29 29.7894 42.8659 29.7081 42.4587 29.4875C41.9836 29.1739 41.5594 28.8372 41.3389 28.3378C41.271 28.0591 41.3559 27.792 41.4577 27.5249C42.1194 25.9687 42.1194 25.9571 40.1003 25.9804C39.1841 25.992 38.0304 25.6436 37.4196 26.1429C36.6391 26.7584 38.0813 27.49 37.8268 28.2797C37.6741 28.7675 37.233 29.0694 36.8258 29.3946C36.5034 29.6152 36.1641 29.7546 35.7399 29.6849C35.2818 29.5572 34.9764 29.2668 34.7559 28.8952L34.7898 28.93C34.9764 27.8152 34.7049 26.6888 35.0612 25.6088Z" fill="#A54123"/>
<path d="M15.211 56.8244L15.2789 56.7431L15.211 56.6618C15.3468 56.3947 15.3637 56.1276 15.211 55.8605C15.3468 55.6631 15.3468 55.4656 15.211 55.2798C15.3977 54.9082 15.3468 54.5134 15.3468 54.1185C15.3468 54.0024 15.3638 53.8979 15.3807 53.7818C15.4486 53.6308 15.5164 53.4682 15.5843 53.3057C15.6522 53.2011 15.737 53.1198 15.8388 53.0502C15.9915 52.934 16.0254 52.7482 16.1951 52.6437L16.1781 52.6553C16.3648 52.2605 16.7211 51.9934 17.1452 51.7959L17.1283 51.8076C17.2301 51.6914 17.3319 51.5637 17.5355 51.5637L17.5185 51.5869C17.6373 51.2385 18.0275 51.2037 18.3499 51.076C18.4856 51.0295 18.6213 50.9947 18.774 50.9714C19.5036 50.8901 20.2162 50.8901 20.9458 50.9598C21.0815 50.983 21.2172 51.0179 21.3529 51.0527C21.5396 51.1224 21.7093 51.2385 21.8959 51.3198C22.0147 51.3779 22.1334 51.436 22.2522 51.494C22.4727 51.6334 22.6763 51.7843 22.9139 51.9005C23.0326 51.9585 23.1344 52.0398 23.2193 52.1327C23.355 52.3998 23.4399 52.6902 23.6265 52.934L23.6095 52.9224C23.864 53.0618 23.9658 53.2708 24.0676 53.4915C24.1864 53.7586 24.0506 54.0837 24.2712 54.3276L24.2542 54.3044C24.7632 55.3031 24.1864 56.3947 24.5766 57.405L24.5596 57.3818C24.9668 57.6373 24.6954 57.8928 24.5596 58.1482C24.4748 58.2411 24.373 58.3224 24.2542 58.3805C23.9997 58.5083 23.7452 58.6128 23.4568 58.6476C23.0666 58.6708 22.7442 58.5082 22.4558 58.2992C22.0825 57.9741 21.6414 57.6953 21.5396 57.2076C21.5905 57.0334 21.4887 57.2541 21.5566 57.0682C22.2692 54.9082 22.2691 54.9082 19.6393 54.9198C19.4188 54.9198 19.6902 54.9198 19.4696 54.9198C17.1792 54.9198 17.1792 54.9199 18.0445 56.685C18.1293 56.8592 18.1972 57.0334 18.1972 57.2192C17.9936 57.765 17.3488 57.9741 16.9247 58.3457C16.4835 58.6244 16.0254 58.6244 15.5674 58.4037C15.0244 58.1134 14.7529 57.7186 14.9396 57.1611C15.0074 57.0334 15.0923 56.9173 15.211 56.8244Z" fill="#2C2C2C"/>
<path d="M46.5975 40.9147L46.5297 40.8682L46.4618 40.9147C44.6464 41.2514 42.814 41.0192 40.9816 41.054C38.6063 41.1005 36.214 41.0772 33.8386 41.054C33.3806 41.054 32.8546 41.2514 32.4813 40.845L32.5322 40.903C31.8366 39.9972 32.6849 39.1495 32.668 38.2437C32.6001 36.0837 32.4135 33.9004 32.7698 31.7404C32.9734 31.6475 33.143 31.6707 33.2787 31.8333C33.9235 33.5985 33.5163 35.4101 33.5842 37.1985C33.669 39.3702 33.6011 39.3817 36.0952 39.3817C38.6402 39.3817 41.1682 39.3933 43.7132 39.3817C45.4777 39.3701 45.6135 39.2308 45.6474 37.6863C45.6983 35.8862 45.5456 34.0746 45.7323 32.2746C45.7662 32.112 45.851 31.9495 45.9528 31.8101C46.0885 31.6591 46.2582 31.6243 46.4618 31.7288C46.8011 33.134 46.5297 34.5624 46.6145 35.9908C46.6993 37.4076 46.3939 38.8359 46.9199 40.2411C46.9878 40.4618 47.0556 40.8101 46.5975 40.9147Z" fill="#50585D"/>
<path d="M19.1298 49.7521C19.2825 49.7869 19.4352 49.8566 19.6048 49.8566C20.1817 49.8682 20.3513 49.7637 20.3683 49.3689C20.4022 48.9508 20.3853 48.5327 20.3853 48.1147C20.3853 47.2321 20.3683 46.3495 20.3853 45.4669C20.4023 44.5959 20.4532 44.5727 21.5221 44.5379C21.6239 44.5379 21.7426 44.5379 21.8444 44.5379C27.0532 44.5379 32.2449 44.5379 37.4537 44.5379C38.9468 44.5379 38.9468 44.5495 38.9637 45.8501C38.9637 46.8721 38.9637 47.894 38.9637 48.916C38.9637 49.1482 38.9807 49.3805 39.0655 49.6011C39.1334 49.7985 39.3539 49.845 39.5915 49.845C39.829 49.845 40.0496 49.7869 40.1005 49.5895C40.1683 49.3224 40.1853 49.0437 40.1853 48.765C40.2023 47.6037 40.1853 46.4424 40.2023 45.2811C40.2192 44.6656 40.355 44.5611 41.0676 44.5379C41.5087 44.5262 41.9329 44.5263 42.374 44.5263C47.3622 44.5263 52.3504 44.5263 57.3385 44.5263C58.7807 44.5263 58.7807 44.5379 58.7976 45.7456C58.8146 46.7211 58.7976 47.6966 58.7976 48.6721C58.7976 48.9508 58.7976 49.2295 58.8485 49.5082C58.8825 49.7056 59.0691 49.8218 59.3067 49.8218C59.5442 49.8334 59.7139 49.7289 59.7987 49.5314C59.8327 49.4502 59.8496 49.3456 59.8496 49.2527C59.8157 47.3017 59.9853 45.3624 59.7648 43.4114C60.2059 43.6553 60.121 44.0501 60.121 44.4101C60.121 46.303 60.121 48.1959 60.121 50.0888C59.3406 50.4256 58.5262 50.8089 58.4923 49.5314C58.4923 48.4631 58.4923 47.4063 58.4923 46.3379C58.4923 46.0592 58.5093 45.7805 58.4753 45.5018C58.4414 44.9792 58.2887 44.8398 57.7118 44.7933C57.4403 44.7817 57.1689 44.7818 56.8974 44.7818C51.9771 44.7818 47.0568 44.7818 42.1534 44.7818C41.9329 44.7818 41.7123 44.7818 41.5087 44.7818C40.7282 44.8166 40.5925 44.9211 40.5755 45.6295C40.5586 47.1043 40.5755 48.5908 40.5586 50.0656C39.9139 50.4953 39.2521 50.4953 38.6074 50.0656C38.6074 48.823 38.6074 47.5688 38.6074 46.3263C38.6074 46.0475 38.6074 45.7688 38.5905 45.4901C38.5565 44.9675 38.4038 44.8166 37.827 44.7818C37.5555 44.7701 37.284 44.7701 37.0126 44.7701C32.0923 44.7701 27.1719 44.7701 22.2686 44.7701C22.048 44.7701 21.8275 44.7701 21.6239 44.7701C20.8434 44.805 20.7077 44.9095 20.6907 45.6179C20.6737 47.0927 20.6907 48.5792 20.6737 50.054C20.1308 50.4605 19.5879 50.4489 19.0449 50.054C19.0958 50.0076 19.1128 49.8798 19.1298 49.7521Z" fill="#FDFDFD"/>
<path d="M43.1547 53.3289L43.1038 53.4102L43.1887 53.4799C43.4771 53.8399 43.3753 54.2231 43.2735 54.5947C40.8303 54.676 38.3702 56.0347 35.927 54.5831C35.91 54.1186 35.6894 53.6424 36.0797 53.2128L36.0627 53.236C36.2154 52.9805 36.1984 52.667 36.419 52.4231C36.4699 52.3186 36.5208 52.2141 36.5547 52.1096C36.6056 52.005 36.6735 51.9121 36.7583 51.8192C36.8431 51.7379 36.945 51.6799 37.0637 51.6218C37.2334 51.5405 37.42 51.5057 37.5897 51.4476C37.7085 51.4128 37.8272 51.3895 37.946 51.3895C38.1835 51.3895 38.438 51.4011 38.6416 51.2502H38.6247C39.2694 50.7973 39.9141 50.7973 40.5588 51.2502H40.5419C40.7794 51.4244 41.0678 51.3663 41.3223 51.3895C41.4581 51.4127 41.5938 51.4476 41.7126 51.5057C42.1367 51.7147 42.4591 52.0282 42.7645 52.3418C42.8324 52.4463 42.8833 52.5508 42.9511 52.6554C43.019 52.8876 43.0869 53.1083 43.1547 53.3289Z" fill="#2D2D2C"/>
<path d="M36.0797 54.6761C36.4021 54.6528 36.7075 54.6064 37.0298 54.5948C37.1825 54.5948 37.4201 54.6064 37.454 54.6761C37.7424 55.2219 38.2005 55.0245 38.6586 54.9316C40.7455 54.5019 41.0679 54.4902 43.1208 54.6644C43.2566 54.6761 43.3075 54.7109 43.2905 54.7574C43.2736 54.827 43.2396 54.8503 43.2057 54.8503L43.1717 54.8851C42.9172 55.1406 42.8663 55.5122 42.51 55.698L42.527 55.6864C42.4422 55.7909 42.3234 55.8838 42.2216 55.9883C42.1707 56.058 42.1707 56.1393 42.1877 56.2206C42.018 56.627 41.8144 57.0335 41.6957 57.4515C41.2206 58.0903 40.4571 58.3574 39.6936 58.6245C39.5409 58.6477 39.3882 58.6477 39.2355 58.6128C38.6247 58.3574 38.0818 58.009 37.5897 57.6258C37.4879 57.5445 37.3861 57.4399 37.2843 57.347C37.1995 57.2425 37.1147 57.138 37.0638 57.0219C37.0298 56.2322 36.4021 55.6748 35.9949 55.0361C35.9779 54.978 35.9779 54.9083 35.9609 54.8503C35.9949 54.7806 36.0288 54.7341 36.0797 54.6761Z" fill="#FAB77B"/>
<path d="M42.5931 29.232C42.8646 29.3249 43.1361 29.4178 43.4075 29.4991C44.9854 29.4411 45.3587 30.4746 45.7998 31.4385L45.8677 31.5198L45.9865 31.4966C46.1392 31.5198 46.1901 31.543 46.1392 31.5662C46.0883 31.5895 46.0374 31.6011 45.9865 31.6011L45.8847 31.694C44.3237 32.3907 42.7628 32.2978 41.2019 31.7404C40.8456 31.2875 41.0152 30.8462 41.2358 30.4165C41.5751 29.9404 41.8127 29.3598 42.5931 29.232Z" fill="#D93813"/>
<path d="M35.7754 29.5107C36.0468 29.4178 36.3183 29.3365 36.6067 29.2436C37.1836 29.3249 37.3702 29.743 37.6247 30.103C37.8792 30.6372 38.4052 31.1366 37.981 31.7869C36.4201 32.3095 34.8592 32.4256 33.3322 31.7172C33.3152 31.6591 33.2813 31.6359 33.2304 31.6243C33.0777 31.6127 33.0268 31.5895 33.0777 31.5662C33.1286 31.543 33.1795 31.5314 33.2304 31.5314L33.3661 31.543L33.434 31.4501C33.8242 30.4398 34.2144 29.4527 35.7754 29.5107Z" fill="#DA3812"/>
<path d="M32.4824 40.8566C36.4865 40.8682 40.5076 40.8798 44.5117 40.8914C45.1565 40.8914 45.8182 40.9147 46.4629 40.9263C46.1066 41.3327 45.5806 41.2166 45.1225 41.2166C41.7122 41.2282 38.3189 41.2166 34.9086 41.2166C34.3148 41.2166 33.721 41.2166 33.1271 41.205C32.8217 41.205 32.6012 41.0889 32.4824 40.8566Z" fill="#FDFDFD"/>
<path d="M45.8025 31.4501C44.8014 30.1727 44.8014 30.1727 43.4102 29.5108C43.5968 29.3482 43.7665 29.174 43.9701 29.0346C44.2076 28.872 44.2755 28.6979 44.2415 28.4424C44.021 27.223 44.1906 25.9804 43.8683 24.7727C44.3603 25.1211 44.513 25.5972 44.513 26.1198C44.513 26.7701 44.4791 27.4088 44.53 28.0591C44.5809 28.7791 44.5978 29.5108 45.3274 30.045C45.8194 30.405 45.8364 30.9275 45.8025 31.4501Z" fill="#FDFDFD"/>
<path d="M33.2109 31.5081V31.6126C32.9904 31.6591 32.8038 31.7752 32.7698 31.9727C32.7359 32.3443 32.7359 32.7159 32.7359 33.0875C32.7359 34.8527 32.7359 36.6178 32.7359 38.3714C32.7359 38.9636 32.8716 39.5675 32.4135 40.1133C32.2099 40.3572 32.4475 40.6475 32.5323 40.9146C32.159 40.7869 32.0572 40.5082 32.1251 40.2295C32.7359 37.7443 32.3117 35.2359 32.4305 32.7391C32.4474 32.4604 32.4305 32.1817 32.4814 31.9029C32.5493 31.5546 32.8716 31.5081 33.2109 31.5081Z" fill="#FDFDFD"/>
<path d="M46.5976 40.9147C46.7843 40.6244 46.9879 40.2876 46.7334 40.0089C46.3601 39.5908 46.4619 39.1263 46.4619 38.685C46.4449 36.374 46.4619 34.0631 46.4619 31.7521C46.8691 32.0192 46.7843 32.4024 46.7843 32.7624C46.7843 34.3185 46.7843 35.8863 46.7843 37.4424C46.7843 38.2669 46.7164 39.0798 47.0388 39.8927C47.1915 40.2527 47.2424 40.7289 46.5976 40.9147Z" fill="#FDFDFD"/>
<path d="M19.0962 50.1353C19.6391 50.1353 20.1821 50.1353 20.725 50.1353C21.1492 50.5186 21.7769 50.716 22.0314 51.2502C21.9805 51.285 21.9466 51.3315 21.8957 51.3663C21.6921 51.3895 21.5055 51.3431 21.3358 51.285L21.3697 51.3083C20.4026 50.9599 19.4355 51.0411 18.4684 51.2502C18.1461 51.4244 17.8067 51.436 17.4844 51.2502C17.7728 50.6463 18.4515 50.4024 19.0962 50.1353Z" fill="white"/>
<path d="M58.4905 49.5779C58.5414 49.9379 58.762 50.1354 59.2032 50.1238C59.5086 50.1238 59.8139 50.1238 60.1363 50.1238C60.5096 50.3212 60.5944 50.6696 60.781 50.9599C59.6952 51.5173 58.6093 51.5173 57.5234 50.9599C57.8458 50.507 57.9815 49.9496 58.4905 49.5779Z" fill="white"/>
<path d="M60.1383 64.338C60.2062 64.2799 60.291 64.2799 60.3589 64.3264C60.6134 64.2102 60.8679 64.187 61.1054 64.3612C61.0206 64.5238 60.9697 64.7328 60.8339 64.8257C60.1044 65.3367 59.2221 65.1857 58.3908 65.1509C57.7969 65.1277 57.4746 64.7561 57.2031 64.338C57.5425 64.1406 57.8817 64.1754 58.2211 64.3147L58.1872 64.2915C58.8319 64.6167 59.4936 64.5819 60.1383 64.338Z" fill="white"/>
<path d="M61.7682 64.0709C61.8191 64.0129 61.887 64.0013 61.9718 64.0361C62.4808 63.9432 62.9898 63.8154 63.397 63.5251H63.4139C63.5836 63.3509 63.889 63.409 64.0417 63.2232H64.0248C64.2114 63.0722 64.5507 63.1419 64.6525 62.8864L64.6186 62.9213C64.8052 62.8864 64.907 62.7703 64.9919 62.6425L64.9749 62.6658C65.1276 62.5961 65.2294 62.5032 65.3312 62.387L65.3142 62.3987C65.5348 62.2477 65.7723 62.2477 65.9929 62.4103C65.7893 62.84 65.4839 63.2 64.9919 63.4322C64.6186 63.6064 64.2623 63.8038 63.9399 64.0477C63.2782 64.5471 62.5656 64.6864 61.7512 64.3613C61.6494 64.3032 61.6155 64.2335 61.6494 64.1754C61.7003 64.1058 61.7342 64.0709 61.7682 64.0709Z" fill="white"/>
<path d="M45.7679 61.3534C45.7001 61.1792 45.5813 61.0166 45.5813 60.8424C45.5643 59.7973 44.8687 59.1702 43.8507 58.7405C43.6132 58.636 43.3757 58.5315 43.1381 58.427C43.0872 58.2992 43.1212 58.1947 43.2399 58.125C43.4605 58.0902 43.6641 58.0902 43.8338 58.2295C44.0034 58.4037 44.3088 58.3456 44.4785 58.5082C44.5803 58.5082 44.6991 58.5082 44.8009 58.5082C44.9027 58.6127 45.0045 58.7057 45.1232 58.787C45.4965 59.1121 45.8528 59.4489 45.7849 59.9715C45.751 60.4244 45.7849 60.8889 45.7679 61.3534Z" fill="#FDFDFD"/>
<path d="M22.0135 64.3495C21.5724 65.0231 20.9786 65.4063 20.0624 65.0347C19.74 64.9069 19.4346 65.0928 19.1292 65.0115C18.739 64.9186 18.4506 64.756 18.4336 64.3728C18.4845 64.3379 18.5524 64.2915 18.6033 64.2566C18.6711 64.245 18.739 64.245 18.8238 64.2334C19.4686 64.3031 20.1133 64.3379 20.7411 64.1405C20.8938 64.1057 21.0465 64.0825 21.1992 64.0825C21.5046 64.0708 21.8099 64.1173 22.0135 64.3495Z" fill="white"/>
<path d="M36.0973 58.4154C35.758 58.5547 35.4187 58.6825 35.0963 58.8451C34.2819 59.2515 33.6711 59.7857 33.6202 60.6567C33.6202 60.7844 33.5015 60.9006 33.4506 61.0283C33.4506 60.4593 33.4336 59.8902 33.4336 59.3328C33.5524 59.2515 33.6542 59.147 33.756 59.0541C33.8747 58.9612 33.9765 58.8683 34.0783 58.7754C34.1801 58.6825 34.2989 58.6012 34.4007 58.4967C34.757 58.4851 35.1472 58.5431 35.3847 58.218C35.5544 58.0786 35.758 58.0786 35.9616 58.1019C36.0804 58.1831 36.1143 58.2877 36.0973 58.4154Z" fill="#FDFDFD"/>
<path d="M38.6406 50.1353C39.2854 50.1353 39.9471 50.1353 40.5918 50.1353C40.5918 50.4141 40.5918 50.6928 40.5918 50.9715C39.9471 51.1805 39.2854 51.1805 38.6406 50.9715C38.6406 50.6928 38.6406 50.4141 38.6406 50.1353Z" fill="white"/>
<path d="M63.989 58.0205C63.9211 58.0205 63.8702 58.0205 63.8023 58.0321C63.0218 57.4631 63.2255 56.685 63.2424 55.9766C63.2594 55.1057 62.92 54.2347 63.2085 53.3637C63.2763 53.294 63.3442 53.236 63.412 53.1663C63.5138 53.2708 63.6157 53.3753 63.7175 53.4682C63.8193 53.5611 63.9211 53.6541 64.0399 53.747C64.0229 55.1754 64.0059 56.6037 63.989 58.0205Z" fill="#FDFDFD"/>
<path d="M37.0473 64.036C37.2678 64.0476 37.4884 64.036 37.692 64.0825C38.9815 64.338 40.2709 64.338 41.5604 64.0709C41.764 64.0244 41.9845 64.036 42.2051 64.0244C42.0863 64.245 41.8658 64.338 41.5773 64.3496C41.3059 64.3612 41.0683 64.4309 40.9156 64.6283C39.9146 64.7444 38.8796 65.1625 37.9804 64.3844C37.6581 64.3728 37.3357 64.3612 36.9964 64.3496C36.9115 64.2683 36.8946 64.1986 36.9285 64.1405C36.9794 64.0709 37.0133 64.036 37.0473 64.036Z" fill="#FDFDFD"/>
<path d="M53.9453 59.0541C54.2337 58.3457 54.3186 57.614 54.2847 56.8708C54.2507 56.2669 54.2847 55.6631 54.2847 55.0592C54.2847 54.7805 54.3186 54.5018 54.607 54.316C55.3705 55.8024 55.2687 57.3005 54.624 58.7986V58.787C54.4882 58.8567 54.3695 58.9496 54.2847 59.0773L54.3016 59.0657C54.2507 59.1005 54.1828 59.1353 54.1319 59.1586C54.0471 59.1237 53.9962 59.0889 53.9453 59.0541Z" fill="white"/>
<path d="M54.6244 58.7986C54.6244 57.3005 54.6074 55.8141 54.6074 54.316C54.7092 54.2115 54.8111 54.1186 54.9129 54.014C54.9807 54.0721 55.0486 54.1418 55.1334 54.1998C55.5406 55.7328 55.7442 57.2657 54.9298 58.7521C54.811 58.7754 54.7092 58.787 54.6244 58.7986Z" fill="#FDFDFD"/>
<path d="M35.774 29.5106C34.6711 29.8706 33.9416 30.5675 33.4156 31.4268C33.3477 30.8113 33.5344 30.2887 34.1112 29.8939C34.4845 29.6384 34.739 29.3016 34.7899 28.8836C35.1971 29.0113 35.5704 29.1506 35.774 29.5106Z" fill="#FDFDFD"/>
<path d="M57.5249 50.9714C58.6108 50.9714 59.6967 50.9714 60.7825 50.9714C60.7825 51.0527 60.7995 51.134 60.8164 51.2153C60.7655 51.2734 60.7147 51.3198 60.6468 51.3779C59.3743 51.6682 58.0509 51.7495 56.7445 51.9121C56.3203 51.6334 56.5748 51.436 56.8632 51.2501C57.1517 51.2501 57.3892 51.1921 57.5249 50.9714Z" fill="#FDFDFD"/>
<path d="M13.8691 62.9561C13.5298 62.631 13.0887 62.3639 13.2244 61.8413C13.3432 61.7484 13.4959 61.7252 13.6486 61.76C14.2424 62.3523 15.5658 62.4451 15.4131 63.5832C15.1077 63.6993 14.8023 63.6877 14.5308 63.5135C14.429 63.4206 14.3103 63.3277 14.2085 63.2348C14.0897 63.1419 13.9879 63.0374 13.8691 62.9561Z" fill="#FDFDFD"/>
<path d="M14.5312 63.5134C14.8706 63.4902 15.2269 63.4554 15.5662 63.4321C15.6171 63.4321 15.685 63.4437 15.7359 63.4437C15.9055 63.4786 16.0752 63.5134 16.2449 63.5715C16.3636 63.6063 16.4654 63.6412 16.5842 63.676C16.8048 63.7573 17.0423 63.8153 17.2629 63.885C17.3816 63.9315 17.4834 63.9895 17.5683 64.0825C17.6192 64.1986 17.5852 64.2915 17.4665 64.3612C16.9066 64.4889 16.3636 64.5586 15.8377 64.2218C15.4135 63.9547 14.8536 63.8966 14.5312 63.5134Z" fill="white"/>
<path d="M43.7988 24.6333C43.2729 23.8553 42.6281 23.1585 41.8477 22.5778C42.7639 22.5894 43.2389 23.2049 43.7479 23.7043C43.9346 23.8901 43.7988 24.3082 43.7988 24.6333Z" fill="#FDFDFD"/>
<path d="M37.9805 64.3845C38.9306 64.7677 39.9316 64.5819 40.9157 64.6284C40.8987 64.6632 40.8818 64.7212 40.8478 64.7445C40.271 65.2671 39.4905 64.8606 38.8118 65.058C38.5573 65.1277 38.1162 64.8838 38.0144 64.5122C37.9974 64.4774 37.9974 64.4309 37.9805 64.3845Z" fill="white"/>
<path d="M35.0608 25.6088C35.0948 26.7236 35.1966 27.8269 34.8233 28.9185C34.7045 28.8256 34.484 28.7094 34.5009 28.663C34.8063 27.8965 34.6876 27.1185 34.7045 26.3404C34.7385 26.0501 34.7724 25.783 35.0608 25.6088Z" fill="#FDFDFD"/>
<path d="M56.8802 51.2501C56.7954 51.4476 56.7105 51.6566 56.6257 51.854C56.5918 51.9005 56.5748 51.9469 56.5579 51.9818C56.49 52.0631 56.4221 52.1327 56.3373 52.2024C56.3034 52.2373 56.2525 52.2721 56.2185 52.3069C56.1507 52.3882 56.0658 52.4579 55.981 52.5392C55.9471 52.5857 55.9131 52.6205 55.8622 52.6553C55.7604 52.7831 55.6417 52.9108 55.5399 53.0386C55.455 53.1315 55.3702 53.2011 55.2514 53.2592C55.1157 53.294 54.9969 53.2592 54.9121 53.1663C54.946 52.0979 55.7774 51.5753 56.8802 51.2501Z" fill="white"/>
<path d="M65.9919 62.3987C65.7714 62.3987 65.5508 62.387 65.3133 62.387C65.5508 61.5625 65.2793 60.738 65.2793 59.9019C65.7374 60.0645 65.6526 60.4128 65.6695 60.7264C66.0089 61.0516 65.6187 61.5277 65.9919 61.8412C65.9919 62.027 65.9919 62.2129 65.9919 62.3987Z" fill="#FDFDFD"/>
<path d="M13.5816 61.8412C13.4628 61.8412 13.3441 61.8412 13.2253 61.8412C13.2253 61.4464 13.1914 61.0632 13.0556 60.6683C12.886 60.1574 13.0896 59.9599 13.8701 59.6116C13.904 59.6696 13.9549 59.7161 13.9888 59.7741C13.9888 59.8438 14.0058 59.9019 14.0058 59.9716C13.9209 60.4825 13.9549 61.0051 13.8192 61.5161C13.7852 61.6438 13.7004 61.7483 13.5816 61.8412Z" fill="white"/>
<path d="M24.5919 57.4282C24.2526 57.1844 24.3204 56.8476 24.3204 56.5341C24.2865 55.8024 24.2865 55.0592 24.2695 54.3276C24.5749 54.4902 24.6428 54.7456 24.6258 55.0244C24.6089 55.8256 24.5919 56.627 24.5919 57.4282Z" fill="#FDFDFD"/>
<path d="M36.0453 54.885C36.6051 55.1289 36.7918 55.605 37.0124 56.0463C37.182 56.3715 37.2669 56.7199 37.3856 57.0682C37.0124 57.2889 36.8766 56.9986 36.69 56.8244C36.673 56.5224 36.7409 56.1857 36.3676 55.9883C36.181 55.6399 35.6041 55.3728 36.0453 54.885Z" fill="#FDFDFD"/>
<path d="M43.7812 63.4671C44.4429 63.0142 45.1216 62.5613 45.7833 62.0968C45.8342 62.1432 45.8851 62.1897 45.953 62.2245C45.919 62.2826 45.8682 62.329 45.8342 62.3871C45.3592 63.0606 44.6974 63.4439 43.7812 63.4671Z" fill="#FDFDFD"/>
<path d="M41.2191 22.3107C40.1333 22.1365 39.0644 22.1364 37.9785 22.2874C38.1142 22.1364 38.267 22.0087 38.4875 22.0087C39.234 21.9971 39.9806 21.9971 40.7101 22.0087C40.9646 22.0203 41.1173 22.1481 41.2191 22.3107Z" fill="#FDFDFD"/>
<path d="M36.6724 56.8244C36.9099 56.9057 37.1475 56.987 37.368 57.0683L37.3341 57.0799C37.368 57.1264 37.4019 57.1728 37.4189 57.2193C37.4189 57.2773 37.4189 57.3238 37.402 57.3818C37.368 57.4863 37.3002 57.5793 37.2153 57.6606C37.1814 57.707 37.1305 57.7418 37.0965 57.7883C37.0117 57.8696 36.9269 57.9509 36.8251 58.0206C36.7742 58.0554 36.7233 58.0902 36.6894 58.1251C36.5876 58.1947 36.4688 58.2412 36.35 58.2876C36.2143 58.3341 36.1125 58.3109 36.0107 58.2296C35.7901 58.218 35.5526 58.218 35.332 58.2064C35.5696 58.0438 35.8071 57.8812 36.0446 57.707C36.4179 57.4863 36.6893 57.2193 36.6724 56.8244Z" fill="white"/>
<path d="M37.0476 64.036C37.0306 64.1405 37.0306 64.245 37.0137 64.3495C36.8101 64.3844 36.5895 64.4541 36.3859 64.4541C35.6733 64.4773 35.4018 64.2799 35.0625 63.5134C35.1813 63.4089 35.3 63.3973 35.4358 63.467L35.4018 63.4554C35.5545 63.6992 35.8599 63.6528 36.0975 63.7457L36.0635 63.7225C36.2671 64.0941 36.7592 63.827 37.0476 64.036Z" fill="white"/>
<path d="M33.4155 61.2838C33.2119 62.0735 33.9245 62.4567 34.4165 62.9328C33.5004 63.2115 33.1949 62.7935 33.0762 62.1199C33.0762 61.8412 33.0762 61.5625 33.0762 61.2838C33.2119 61.2025 33.3137 61.2025 33.4155 61.2838Z" fill="#FDFDFD"/>
<path d="M36.0447 54.885C36.1465 55.2566 36.2484 55.6166 36.3502 55.9883C36.0108 55.8605 35.7224 55.6515 35.5527 55.3844C35.3152 55.0127 35.2304 54.6295 35.6885 54.316C35.943 54.4321 35.7902 54.7108 36.0108 54.8502L36.0447 54.885Z" fill="white"/>
<path d="M41.5601 51.2501C42.8496 51.4011 43.0192 51.5405 43.1889 52.6437C43.0701 52.7598 42.9683 52.7715 42.8326 52.6553L42.8496 52.6669C42.5442 52.1676 42.137 51.7727 41.5262 51.5521L41.5432 51.5637C41.4583 51.4824 41.4244 51.4127 41.4583 51.3431C41.4922 51.285 41.5262 51.2501 41.5601 51.2501Z" fill="white"/>
<path d="M14.5312 58.7754C14.5312 58.4154 14.5312 58.0554 14.5312 57.6954C14.5312 57.4631 14.6161 57.2541 14.8536 57.1031C14.9045 57.1496 14.9384 57.196 14.9893 57.2425C14.8706 57.7418 15.3456 58.1251 15.3626 58.6012C15.3117 58.7173 15.2438 58.8219 15.1081 58.8915C14.8875 58.9496 14.6839 58.938 14.5312 58.7754Z" fill="white"/>
<path d="M33.0927 62.12C33.3981 62.5613 33.7374 62.9561 34.433 62.9329H34.4161C34.5009 63.0374 34.5009 63.1419 34.3991 63.2348C33.7374 63.2929 33.2454 63.0723 32.9061 62.5845C32.7873 62.3987 32.8891 62.2361 33.0927 62.12Z" fill="white"/>
<path d="M53.3009 60.4476C53.3179 61.098 53.3348 61.7367 53.3518 62.387C53.0973 62.2709 52.9785 62.0735 52.9785 61.8296C52.9785 61.3651 52.9785 60.9122 52.9785 60.4476C53.0803 60.3199 53.1991 60.3199 53.3009 60.4476Z" fill="#FDFDFD"/>
<path d="M65.2958 59.9367C64.8886 59.5534 64.4814 59.1586 64.0742 58.7754C64.8207 58.4386 64.9734 59.0309 65.3297 59.3328C65.3297 59.5302 65.3128 59.7392 65.2958 59.9367Z" fill="#FDFDFD"/>
<path d="M24.9502 58.218C25.1199 58.6128 25.6628 58.8451 25.5949 59.3328C25.544 59.3677 25.4931 59.4141 25.4422 59.4489C25.3743 59.4489 25.3065 59.4373 25.2386 59.4373C25.1199 59.3909 25.0011 59.3328 24.8993 59.2631C24.8484 59.2283 24.7975 59.1935 24.7466 59.147C24.6448 59.0773 24.56 58.996 24.4751 58.9031C24.4242 58.8567 24.3903 58.8102 24.3394 58.7754C24.1867 58.5896 24.051 58.3921 24.2037 58.1483L24.2546 58.1947L24.1867 58.1483C24.4751 58.0786 24.7296 58.0438 24.9502 58.218Z" fill="white"/>
<path d="M38.0142 22.2874C37.4712 22.5894 36.9453 22.8797 36.4023 23.1816C36.6399 22.4849 37.1998 22.2061 38.0142 22.2874Z" fill="#FDFDFD"/>
<path d="M14.5328 58.7753C14.7534 58.7753 14.9739 58.7869 15.2114 58.7869C15.2114 59.5302 14.7703 59.8786 13.922 59.9134C13.905 59.8089 13.8881 59.7044 13.8711 59.6115C14.0917 59.3327 14.3122 59.054 14.5328 58.7753Z" fill="#FDFDFD"/>
<path d="M38.6406 50.9714C39.2854 50.9714 39.9471 50.9714 40.5918 50.9714C40.5918 51.0643 40.5918 51.1689 40.5748 51.2618C39.9301 51.2618 39.2854 51.2618 38.6406 51.2618C38.6406 51.1689 38.6406 51.0643 38.6406 50.9714Z" fill="#FDFDFD"/>
<path d="M26.2555 60.7263C26.2555 61.0863 26.2555 61.4464 26.2555 61.818C26.2555 62.0618 26.1537 62.2593 25.9331 62.4102C25.8652 62.3522 25.8143 62.3057 25.7465 62.2476C25.475 61.7483 25.475 61.2489 25.7974 60.7612C25.9331 60.6451 26.0858 60.6334 26.2555 60.7263Z" fill="#FDFDFD"/>
<path d="M36.0118 54.8502C35.7573 54.7457 35.7234 54.5367 35.6895 54.3161C35.7573 53.9328 35.5198 53.4683 36.0797 53.2128C36.0797 53.7006 36.0797 54.1883 36.0797 54.6761C36.0288 54.7225 35.9948 54.7806 36.0118 54.8502Z" fill="#FDFDFD"/>
<path d="M56.8808 64.3496C56.253 64.3496 55.5743 64.4426 55.252 63.7922C55.3029 63.7574 55.3368 63.7109 55.3877 63.6761C55.5913 63.6529 55.761 63.6761 55.9307 63.7806L55.9137 63.769C56.1512 64.0709 56.6262 63.8271 56.8977 64.0709C56.9995 64.1406 57.0334 64.1987 56.9995 64.2684C56.9486 64.3148 56.9147 64.3496 56.8808 64.3496Z" fill="white"/>
<path d="M65.3474 59.3328C64.9063 59.1818 64.6348 58.7521 64.0919 58.7753C64.0749 58.6824 64.058 58.5895 64.041 58.4966C65.076 58.5779 65.076 58.5779 65.3474 59.3328Z" fill="white"/>
<path d="M36.3516 52.0863C36.623 51.3314 36.623 51.3314 37.658 51.2501C37.7598 51.3082 37.7937 51.3779 37.7768 51.4476C37.7428 51.5173 37.7089 51.5521 37.675 51.5521L37.6919 51.5405C37.5053 51.6798 37.132 51.5986 37.0642 51.8889L37.1151 51.854C36.8945 51.8657 36.7588 51.9585 36.7418 52.156L36.7587 52.1327C36.606 52.2489 36.4703 52.2256 36.3516 52.0863Z" fill="white"/>
<path d="M17.1608 51.8192C16.8384 52.1095 16.5161 52.3882 16.1937 52.6785C16.1598 52.1095 16.4991 51.8308 17.1608 51.8192Z" fill="#FDFDFD"/>
<path d="M36.35 52.0862C36.4857 52.1095 36.6214 52.1327 36.7572 52.1443C36.5196 52.5043 36.2821 52.8759 36.0615 53.236C35.9597 52.8179 36.1294 52.4462 36.35 52.0862Z" fill="#FDFDFD"/>
<path d="M43.2046 54.8502C43.2046 54.7805 43.1876 54.7109 43.1367 54.6528C43.1537 54.258 43.1706 53.8631 43.1876 53.4683C43.6796 53.9328 43.6796 54.3857 43.2046 54.8502Z" fill="#FDFDFD"/>
<path d="M15.5321 53.7702C15.4982 54.2811 15.4812 54.7921 15.2097 55.2798C15.1928 54.7689 15.1927 54.2695 15.1758 53.7585C15.2945 53.6656 15.4133 53.6656 15.5321 53.7702Z" fill="#FDFDFD"/>
<path d="M60.8152 51.2153C61.1375 51.2269 61.4429 51.2385 61.7653 51.2501C61.8671 51.343 61.9689 51.4476 62.0877 51.5288C62.0877 51.6217 62.1047 51.703 62.1216 51.7843C62.0707 51.8308 62.0028 51.8772 61.9519 51.9121C61.3581 51.9585 60.8491 51.9004 60.7812 51.2617L60.8152 51.2153Z" fill="#FDFDFD"/>
<path d="M42.5098 55.6979C42.5776 55.3379 42.7134 55.0127 43.1715 54.885C43.1545 55.5586 43.1545 55.5586 42.5098 55.6979Z" fill="#FDFDFD"/>
<path d="M41.543 57.347C41.6448 56.9173 41.8993 56.5573 42.2047 56.2205C42.2895 56.6386 42.1368 57.0102 41.9162 57.3702L41.7975 57.4631C41.6617 57.498 41.5769 57.4515 41.543 57.347Z" fill="#FDFDFD"/>
<path d="M36.4532 23.1468C36.3005 23.472 36.063 23.7507 35.7236 23.9597C35.7067 23.5184 35.9103 23.2165 36.4532 23.1468Z" fill="#FDFDFD"/>
<path d="M23.6267 52.9457C23.2874 52.7483 23.0837 52.4696 22.9141 52.1676C23.3382 51.7612 23.4231 52.2257 23.6436 52.3651C23.6436 52.5625 23.6436 52.7599 23.6267 52.9457Z" fill="#FDFDFD"/>
<path d="M15.5321 53.7702C15.4133 53.7702 15.2945 53.7586 15.1758 53.7586C15.2097 53.0967 15.2097 53.0967 15.8036 52.9225C15.9054 52.9689 15.9393 53.027 15.9223 53.0967C15.8884 53.1547 15.8714 53.1896 15.8375 53.1896V53.2012C15.6339 53.3638 15.6678 53.6077 15.5321 53.7702Z" fill="white"/>
<path d="M24.9483 58.218C24.7108 58.1947 24.4563 58.1831 24.2188 58.1599C24.4054 57.9276 24.6259 57.707 24.5581 57.3934C25.0162 57.556 24.9314 57.9044 24.9483 58.218Z" fill="#FDFDFD"/>
<path d="M26.255 60.7264C26.1362 60.7264 26.0345 60.7264 25.9157 60.7264C25.78 60.6335 25.6951 60.5174 25.6612 60.378C25.5933 60.0877 25.6612 59.8206 25.9327 59.6116C26.4077 59.9019 26.2041 60.3432 26.255 60.7264Z" fill="white"/>
<path d="M65.9912 61.8412C65.5162 61.5509 65.7028 61.1096 65.6689 60.7264C66.1439 61.0283 65.9573 61.458 65.9912 61.8412Z" fill="white"/>
<path d="M25.9328 62.4102C25.7462 62.7702 25.4238 62.9444 24.9827 62.9908C24.9487 62.9328 24.9148 62.8747 24.8809 62.8282C25.0166 62.387 25.2881 62.1547 25.848 62.3405L25.9328 62.4102Z" fill="#FDFDFD"/>
<path d="M53.6562 62.6077C54.0634 62.7006 54.3858 62.898 54.6234 63.1999C54.5216 63.3161 54.4028 63.3277 54.2501 63.2348C53.9447 63.1186 53.7071 62.9328 53.6562 62.6077Z" fill="#FDFDFD"/>
<path d="M54.2676 63.2348C54.3863 63.2232 54.5051 63.2115 54.6408 63.1999H54.6069C54.7426 63.4322 55.082 63.3625 55.2686 63.5019H55.2516C55.3534 63.5716 55.3873 63.6412 55.3534 63.6993C55.3195 63.7573 55.2856 63.7922 55.2516 63.7922C54.4712 63.7574 54.4712 63.7573 54.2676 63.2348Z" fill="white"/>
<path d="M17.4668 64.3497C17.4668 64.2568 17.4668 64.1755 17.4668 64.0826C18.0097 63.7691 18.5017 63.6529 18.8071 64.3148C18.6884 64.3381 18.5696 64.3497 18.4509 64.3729C18.1115 64.3729 17.7892 64.3613 17.4668 64.3497Z" fill="#FDFDFD"/>
<path d="M22.0142 64.3496C21.6579 64.338 21.3016 64.3148 20.9453 64.3032C21.1828 63.711 21.6749 63.7806 22.2008 63.9316C22.2517 63.9897 22.3196 64.0361 22.3705 64.0942C22.2517 64.1871 22.133 64.2684 22.0142 64.3496Z" fill="#FDFDFD"/>
<path d="M56.8809 64.3496C56.8809 64.2567 56.8809 64.1522 56.8809 64.0593C57.339 64.0709 57.831 64.0244 58.2043 64.3264C57.8649 64.338 57.5256 64.3496 57.1862 64.3496C57.1014 64.3496 56.9827 64.3496 56.8809 64.3496Z" fill="#FDFDFD"/>
<path d="M61.7662 64.0709C61.7662 64.1638 61.7662 64.2567 61.7662 64.3496C61.5457 64.3496 61.3251 64.3612 61.1215 64.3612C60.867 64.3496 60.6295 64.338 60.375 64.3264C60.7992 64.0709 61.2742 64.0709 61.7662 64.0709Z" fill="#FDFDFD"/>
<path d="M17.4668 51.2501C17.7892 51.2501 18.1285 51.2501 18.4509 51.2501C18.2133 51.4824 17.874 51.5521 17.5347 51.5986C17.5007 51.4824 17.4838 51.3663 17.4668 51.2501Z" fill="#FDFDFD"/>
<path d="M23.3539 63.8038C23.1164 64.1057 22.7262 64.0593 22.3868 64.0941L22.3359 64.0477C22.3529 63.5019 22.7771 63.5832 23.1843 63.6645C23.2352 63.7109 23.2861 63.7574 23.3539 63.8038Z" fill="#FDFDFD"/>
<path d="M37.6732 51.5521C37.6732 51.4476 37.6562 51.3547 37.6562 51.2501C37.9956 51.2501 38.318 51.2618 38.6573 51.2618C38.3689 51.4824 38.0295 51.5405 37.6732 51.5521Z" fill="#FDFDFD"/>
<path d="M41.5596 51.2501C41.5427 51.3547 41.5426 51.4592 41.5257 51.5637C41.1694 51.5405 40.8301 51.494 40.5586 51.2618C40.8979 51.2618 41.2373 51.2501 41.5596 51.2501Z" fill="#FDFDFD"/>
<path d="M20.4026 43.4579C20.0803 43.4695 19.7579 43.4695 19.4355 43.4811C19.8936 43.0863 19.8936 43.0863 20.4026 43.4579Z" fill="#FDFDFD"/>
<path d="M59.7991 43.4811C59.4768 43.4695 59.1544 43.4695 58.832 43.4579C59.341 43.0863 59.341 43.0863 59.7991 43.4811Z" fill="#FDFDFD"/>
<path d="M42.1699 64.0476C42.4244 63.7805 42.7977 63.7573 43.154 63.7225C42.9843 64.1521 42.5602 64.0592 42.1699 64.0476Z" fill="#FDFDFD"/>
<path d="M23.6423 52.365C23.4048 52.2953 23.1503 52.2372 22.9127 52.1675C22.8618 52.0863 22.8449 51.9933 22.8618 51.9004C22.9127 51.8656 22.9467 51.8424 22.9976 51.8075C23.4217 51.8192 23.6423 52.005 23.6423 52.365Z" fill="white"/>
<path d="M62.1058 51.7844C62.513 51.8193 62.7166 52.0051 62.7506 52.3535C62.6827 52.3767 62.5979 52.3999 62.53 52.4231C62.2076 52.3418 61.9871 52.1793 62.021 51.8541L62.1058 51.7844Z" fill="#FDFDFD"/>
<path d="M43.849 58.2179C43.6284 58.2295 43.3909 58.2296 43.1703 58.2412C43.0515 58.3341 42.9328 58.3457 42.797 58.2644C42.7292 58.1483 42.7631 58.0321 42.8649 57.9392C43.2212 57.9508 43.6114 57.8928 43.849 58.2179Z" fill="white"/>
<path d="M54.9284 53.2012C55.0642 53.2244 55.1999 53.2476 55.3187 53.2709C55.5223 53.6309 55.5732 53.956 54.9793 54.0722L54.8945 54.0141C54.9115 53.747 54.9115 53.4683 54.9284 53.2012Z" fill="#FDFDFD"/>
<path d="M25.9324 59.6116C25.9154 59.9135 25.9154 60.2038 25.8984 60.5057C25.3216 60.4477 25.3385 60.1225 25.4573 59.7509C25.5082 59.7045 25.5591 59.6464 25.6269 59.5999C25.7118 59.6116 25.8306 59.6116 25.9324 59.6116Z" fill="#FDFDFD"/>
<path d="M24.2716 54.3509C23.9832 54.1187 23.9662 53.8051 23.9492 53.5032C24.0001 53.4683 24.068 53.4219 24.1189 53.387C24.1868 53.4219 24.2377 53.4567 24.3055 53.48C24.2886 53.7703 24.2886 54.0606 24.2716 54.3509Z" fill="#FDFDFD"/>
<path d="M53.3002 60.4477C53.1815 60.4477 53.0797 60.4477 52.9609 60.4477C52.9779 60.1458 52.91 59.809 53.2833 59.6116C53.4869 59.8206 53.436 60.0296 53.3172 60.2503C53.3851 60.3199 53.3681 60.3896 53.3002 60.4477Z" fill="white"/>
<path d="M35.4014 24.5055C35.3844 24.8422 35.3674 25.179 35.079 25.4461C35.079 25.0977 34.9602 24.7261 35.4014 24.5055Z" fill="#FDFDFD"/>
<path d="M15.2109 55.8721C15.3976 56.1392 15.3976 56.4063 15.2109 56.6734C15.2109 56.4063 15.2109 56.1392 15.2109 55.8721Z" fill="white"/>
<path d="M44.4943 58.4967C44.2229 58.4967 43.9853 58.4386 43.8496 58.2179C44.1211 58.2179 44.3586 58.276 44.4943 58.4967Z" fill="white"/>
<path d="M53.3347 60.2503C53.3177 60.0412 53.3177 59.8206 53.3008 59.6116C53.4195 59.6232 53.5383 59.6232 53.6571 59.6348C53.6231 59.867 53.5383 60.0877 53.3347 60.2503Z" fill="#FDFDFD"/>
<path d="M45.7852 62.0966C45.7852 61.9108 45.8021 61.7366 45.8021 61.5508C46.0736 61.667 46.1245 61.876 46.1414 62.1083C46.0566 62.1779 45.9548 62.1896 45.853 62.1431L45.7852 62.0966Z" fill="#FDFDFD"/>
<path d="M24.6436 63.2348C24.4909 63.4555 24.2534 63.5019 23.9819 63.5252C23.965 63.4671 23.931 63.409 23.9141 63.3394C24.0328 63.1419 24.2194 63.0839 24.457 63.1187C24.5248 63.1652 24.5757 63.2 24.6436 63.2348Z" fill="#FDFDFD"/>
<path d="M35.4344 63.4786C35.3156 63.4902 35.1799 63.5018 35.0611 63.5251C34.8915 63.4438 34.8066 63.3276 34.8066 63.1534C35.0442 63.1883 35.2987 63.2579 35.4344 63.4786Z" fill="#FDFDFD"/>
<path d="M23.9827 63.525C23.83 63.7341 23.5925 63.7805 23.338 63.8037L23.2871 63.7457C23.355 63.3625 23.5925 63.316 23.9488 63.4786L23.9827 63.525Z" fill="#FDFDFD"/>
<path d="M43.1211 63.7457C43.2738 63.5251 43.5453 63.4786 43.8167 63.4554C43.7149 63.7573 43.4435 63.7805 43.1211 63.7457Z" fill="#FDFDFD"/>
<path d="M22.0146 51.2501C22.286 51.2618 22.5236 51.3082 22.6593 51.5289C22.6084 51.5637 22.5745 51.6101 22.5236 51.645C22.32 51.6914 22.1503 51.6334 21.9637 51.5521L21.9807 51.5637C21.8958 51.494 21.8619 51.4127 21.8958 51.3547C21.9467 51.285 21.9806 51.2501 22.0146 51.2501Z" fill="white"/>
<path d="M35.7237 23.9481C35.7067 24.1803 35.6389 24.3894 35.4013 24.5287C35.3844 24.2732 35.4353 24.0642 35.7237 23.9481Z" fill="#FDFDFD"/>
<path d="M41.8662 22.5894C41.5947 22.5662 41.3402 22.5081 41.1875 22.2991C41.4929 22.2759 41.7644 22.3107 41.8662 22.5894Z" fill="#FDFDFD"/>
<path d="M15.8216 53.1896C15.8216 53.0967 15.8047 53.0154 15.8047 52.9225C15.9404 52.8296 16.0761 52.7483 16.1949 52.6554C16.1779 52.8877 16.0592 53.0619 15.8216 53.1896Z" fill="#FDFDFD"/>
<path d="M42.8477 52.6554C42.9664 52.6554 43.0852 52.6438 43.204 52.6438C43.187 52.876 43.17 53.0967 43.1531 53.3289C42.8986 53.1548 42.8477 52.9109 42.8477 52.6554Z" fill="#FDFDFD"/>
<path d="M63.0724 52.6322C63.3269 52.7483 63.3778 52.9573 63.4117 53.178L63.3439 53.2361C62.9536 53.2477 62.8857 53.0386 62.9366 52.7715C62.9875 52.7251 63.0215 52.6786 63.0724 52.6322Z" fill="#FDFDFD"/>
<path d="M23.9487 53.4915C23.7112 53.3638 23.6263 53.1664 23.6094 52.9341C23.7281 52.9341 23.8469 52.9225 23.9657 52.9225C24.1354 53.0851 24.1353 53.2593 24.0166 53.4451L23.9487 53.4915Z" fill="#FDFDFD"/>
<path d="M24.0157 53.4451C23.9988 53.2709 23.9818 53.0967 23.9648 52.9225C24.2193 53.0386 24.2872 53.2477 24.2872 53.4799C24.2024 53.4799 24.1175 53.4683 24.0157 53.4451Z" fill="white"/>
<path d="M17.5517 51.587C17.4839 51.7495 17.3312 51.8192 17.1445 51.8308C17.2294 51.6682 17.3481 51.587 17.5517 51.587Z" fill="#FDFDFD"/>
<path d="M22.6754 51.5288C22.7772 51.6217 22.8959 51.7146 22.9977 51.8075C22.6754 51.9004 22.5905 51.7843 22.6754 51.5288Z" fill="white"/>
<path d="M62.7676 52.3535C62.8694 52.4464 62.9712 52.5393 63.073 52.6322L62.9882 52.7135C62.7676 52.6902 62.6658 52.5973 62.6998 52.3999L62.7676 52.3535Z" fill="#FDFDFD"/>
<path d="M64.0411 53.7586C63.9393 53.6657 63.8375 53.5728 63.7188 53.4799C63.8375 53.5728 63.9393 53.6657 64.0411 53.7586Z" fill="white"/>
<path d="M42.2383 55.9883C42.2552 55.8257 42.374 55.7444 42.5437 55.6864C42.4249 55.7909 42.3231 55.8838 42.2383 55.9883Z" fill="#FDFDFD"/>
<path d="M15.2098 56.8244C15.1929 56.9173 15.1929 57.0102 15.1759 57.1031C15.0741 57.2309 14.9553 57.2309 14.8535 57.1031C14.9723 57.0102 15.0911 56.9173 15.2098 56.8244Z" fill="white"/>
<path d="M41.8976 57.3702C41.9994 57.4631 42.1182 57.556 42.22 57.6489C42.1521 57.6605 42.0842 57.6721 41.9994 57.6954C41.8806 57.6141 41.8297 57.5212 41.8976 57.3702Z" fill="#FDFDFD"/>
<path d="M42.2217 57.6489C42.3235 57.7418 42.4423 57.8347 42.5441 57.9276C42.4762 57.9392 42.4083 57.9508 42.3405 57.9624C42.2047 57.8811 42.1708 57.7883 42.2217 57.6489C42.2047 57.6605 42.2217 57.6489 42.2217 57.6489Z" fill="#FDFDFD"/>
<path d="M42.8671 57.9392C42.8671 58.0205 42.8671 58.0902 42.8671 58.1715C42.5278 58.3573 42.5108 58.1831 42.5278 57.9508L42.5448 57.9392C42.6635 57.9392 42.7653 57.9392 42.8671 57.9392Z" fill="#FDFDFD"/>
<path d="M62.088 51.5289C61.9862 51.436 61.8674 51.343 61.7656 51.2501C61.8674 51.343 61.9862 51.436 62.088 51.5289Z" fill="white"/>
<path d="M34.4005 58.4966C34.2987 58.5895 34.1799 58.6824 34.0781 58.7753C34.1799 58.6824 34.2987 58.5895 34.4005 58.4966Z" fill="white"/>
<path d="M45.1563 58.7753C45.0545 58.6824 44.9358 58.5895 44.834 58.4966C44.9358 58.5895 45.0376 58.6824 45.1563 58.7753Z" fill="white"/>
<path d="M34.0762 58.7753C33.9745 58.8682 33.8557 58.9611 33.7539 59.054C33.8557 58.9611 33.9575 58.8682 34.0762 58.7753Z" fill="white"/>
<path d="M33.756 59.054C33.6542 59.1469 33.5354 59.2399 33.4336 59.3328C33.5354 59.2399 33.6372 59.1469 33.756 59.054Z" fill="white"/>
<path d="M53.623 59.3328C53.7248 59.2399 53.8436 59.1469 53.9454 59.054C54.0133 59.1121 54.0472 59.1818 54.0133 59.2398C53.9963 59.2979 53.9624 59.3328 53.9454 59.3328C53.8436 59.414 53.7248 59.414 53.623 59.3328Z" fill="white"/>
<path d="M25.255 59.3445C25.3738 59.3445 25.4925 59.3329 25.5943 59.3329C25.5943 59.4258 25.5943 59.507 25.6113 59.5999L25.5434 59.658C25.3059 59.6464 25.2041 59.5535 25.255 59.3445Z" fill="#FDFDFD"/>
<path d="M53.623 59.3329C53.7248 59.3329 53.8436 59.3329 53.9454 59.3329C53.9115 59.4838 53.8097 59.5883 53.64 59.6348C53.64 59.5303 53.623 59.4374 53.623 59.3329Z" fill="#FDFDFD"/>
<path d="M33.4161 61.2838C33.3143 61.2838 33.1955 61.2838 33.0938 61.2838C33.2125 61.1909 33.3313 61.1096 33.4501 61.0167C33.4501 61.1096 33.4331 61.1909 33.4161 61.2838Z" fill="white"/>
<path d="M45.8353 62.1548C45.9371 62.1316 46.022 62.12 46.1238 62.12C46.022 62.2129 45.9202 62.3058 45.8184 62.3987C45.8184 62.3174 45.8184 62.2361 45.8353 62.1548Z" fill="white"/>
<path d="M53.3164 62.3522C53.503 62.387 53.6388 62.4799 53.6897 62.6425C53.4861 62.6193 53.3673 62.5148 53.3164 62.3522Z" fill="#FDFDFD"/>
<path d="M13.8711 62.9561C13.9729 63.049 14.0916 63.1419 14.1934 63.2348C14.0916 63.1419 13.9899 63.049 13.8711 62.9561Z" fill="white"/>
<path d="M24.9834 62.9909C24.8646 63.0722 24.7628 63.1535 24.644 63.2464L24.5762 63.1883C24.6101 62.9909 24.6949 62.8748 24.9494 62.9677L24.9834 62.9909Z" fill="#FDFDFD"/>
<path d="M34.3984 63.2348C34.3984 63.1303 34.4154 63.0374 34.4154 62.9328C34.6021 62.9445 34.7378 63.0025 34.8056 63.1651C34.6699 63.1883 34.5342 63.2116 34.3984 63.2348Z" fill="#FDFDFD"/>
<path d="M14.209 63.2348C14.3108 63.3277 14.4296 63.4206 14.5314 63.5135C14.4126 63.4206 14.3108 63.3277 14.209 63.2348Z" fill="white"/>
<path d="M46.0039 31.6242V31.5197C46.2075 31.5197 46.3602 31.601 46.462 31.752C46.2923 31.7056 46.1396 31.6591 46.0039 31.6242Z" fill="#FDFDFD"/>
<path d="M19.4351 43.4579C19.3163 43.574 19.2145 43.6785 19.0957 43.7947C19.1466 43.6321 19.2484 43.516 19.4351 43.4579Z" fill="#FDFDFD"/>
<path d="M62.6998 52.3882C62.7167 52.5392 62.8015 52.6553 62.9882 52.7018C63.0391 52.9108 63.107 53.1082 63.3445 53.2244C64.0062 54.7921 63.7687 56.4179 63.8026 58.0321C63.582 58.6128 63.582 58.6128 63.0052 58.5082C62.8016 58.4734 62.581 58.427 62.3774 58.3921C61.8345 58.0554 61.2067 57.7998 60.9861 57.196C61.7836 54.9431 61.7836 54.9431 58.8823 54.9431C58.6108 54.9431 58.3394 54.9547 58.0849 54.9431C57.1178 54.8966 56.8124 55.1986 57.2026 56.0115C57.4062 56.4295 57.6437 56.8476 57.6607 57.3237C57.4571 57.8463 57.0838 58.1831 56.4052 58.2412C55.9131 58.4154 55.4041 58.5895 54.9121 58.7637C54.9291 57.2076 54.963 55.6398 54.9799 54.0837C55.2514 53.8631 55.2854 53.5727 55.3193 53.2824L55.3023 53.2708C55.438 52.934 55.6247 52.6321 55.964 52.3999L55.9301 52.4347C55.981 52.2837 56.1167 52.1792 56.2694 52.1211L56.2355 52.1444C56.3034 51.9934 56.4391 51.9005 56.6088 51.854V51.8656C57.8982 51.2153 59.2895 51.0876 60.7486 51.2734C61.1219 51.5521 61.563 51.7147 62.0211 51.854C62.1908 52.0979 62.4113 52.2837 62.6998 52.3882Z" fill="#A54123"/>
<path d="M61.4795 59.3329C60.9874 60.5987 60.1561 61.7135 59.3926 63.0258C58.6121 61.7948 57.8825 60.7729 57.4414 59.6232C57.8995 59.1238 58.4764 58.7522 59.0872 58.4038C59.2229 58.369 59.3756 58.3574 59.5113 58.3922C60.1391 58.7522 60.7329 59.147 61.4795 59.3329Z" fill="#BEE0E0"/>
<path d="M61.4794 59.3328C60.9873 59.5767 60.5122 59.6348 60.122 59.1819C59.9014 58.938 59.6809 58.6941 59.4434 58.4619C59.647 57.6954 60.4105 57.5909 61.1061 57.3934C61.8526 57.4167 62.1411 57.8928 62.3786 58.3922C61.9205 58.5896 61.8357 59.0657 61.4794 59.3328Z" fill="#F7F7F3"/>
<path d="M59.2057 58.4619C58.7646 59.0193 58.3404 59.5999 57.4412 59.6232C57.1019 59.1586 56.7456 58.6941 56.4062 58.2296C56.6777 57.8464 56.9492 57.4631 57.543 57.3934C58.2386 57.5909 58.9852 57.7186 59.2057 58.4619Z" fill="#F7F8F5"/>
<path d="M60.1386 64.338C59.477 64.756 58.8322 64.7909 58.1875 64.3147C58.8322 64.3147 59.4939 64.3264 60.1386 64.338Z" fill="#FDFDFD"/>
<path d="M63.3959 63.5251C63.1075 64.0593 62.5645 64.1058 61.9707 64.0361C62.3949 63.7574 62.8699 63.5948 63.3959 63.5251Z" fill="#FDFDFD"/>
<path d="M56.8981 64.0592C56.5248 64.0592 56.1346 64.1289 55.9141 63.7573C56.2704 63.7806 56.6266 63.8154 56.8981 64.0592Z" fill="#FDFDFD"/>
<path d="M64.6688 62.8864C64.5839 63.1767 64.3294 63.2231 64.041 63.2231C64.1598 63.0141 64.3973 62.9212 64.6688 62.8864Z" fill="#FDFDFD"/>
<path d="M55.2691 63.5019C54.9807 63.5019 54.7262 63.467 54.6074 63.1999C54.8789 63.2115 55.1164 63.2928 55.2691 63.5019Z" fill="#FDFDFD"/>
<path d="M64.0399 63.2232C63.9212 63.4554 63.6836 63.5135 63.4121 63.5251C63.5648 63.3277 63.7685 63.2348 64.0399 63.2232Z" fill="#FDFDFD"/>
<path d="M55.252 63.7922C55.252 63.6993 55.252 63.5948 55.2689 63.5019C55.5404 63.5135 55.7949 63.5599 55.9307 63.7806C55.6931 63.7806 55.4725 63.7922 55.252 63.7922Z" fill="#FDFDFD"/>
<path d="M54.2852 59.0773C54.4039 58.9844 54.5057 58.8915 54.6245 58.7869C54.6075 58.9611 54.4718 59.0424 54.2852 59.0773Z" fill="#FDFDFD"/>
<path d="M53.9453 59.3328C53.9453 59.2399 53.9453 59.1469 53.9453 59.054C54.0641 59.054 54.1659 59.054 54.2847 59.0656C54.2507 59.2166 54.1319 59.3095 53.9453 59.3328Z" fill="#FDFDFD"/>
<path d="M65.3465 62.3755C65.2278 62.4684 65.109 62.5612 64.9902 62.6541C65.0242 62.5032 65.1599 62.4103 65.3465 62.3755Z" fill="#FDFDFD"/>
<path d="M65.0061 62.6425C64.9552 62.8051 64.8194 62.898 64.6328 62.9213C64.6837 62.7587 64.8194 62.6774 65.0061 62.6425Z" fill="#FDFDFD"/>
<path d="M39.3537 58.485C39.4386 58.4734 39.5064 58.4734 39.5913 58.4734C40.4057 58.5198 40.9825 59.2747 41.8987 59.054C41.3727 60.3314 40.5414 61.4695 39.8627 62.6773C39.7609 62.8631 39.4386 62.8631 39.3368 62.6889C38.6751 61.4695 37.7928 60.3431 37.3008 59.0656C38.0812 59.1005 38.726 58.8334 39.3537 58.485Z" fill="#42BCC9"/>
<path d="M41.8993 59.0541C41.7296 59.1586 41.543 59.2515 41.3903 59.3676C41.1018 59.5767 40.8304 59.6115 40.5589 59.3676C40.2365 59.0773 39.9142 58.7637 39.5918 58.4734C40.2196 58.067 41 57.8463 41.543 57.347C41.6617 57.3586 41.7805 57.3702 41.8993 57.3818C42.0011 57.4747 42.1198 57.5676 42.2216 57.6605C42.3234 57.7534 42.4422 57.8463 42.544 57.9392C42.5949 58.0786 42.7137 58.1483 42.8833 58.1599C42.9851 58.1947 43.0869 58.2179 43.1887 58.2295C43.2057 58.2992 43.1887 58.3573 43.1548 58.4154C42.4761 58.276 42.2386 58.7521 41.8993 59.0541Z" fill="#BADBDB"/>
<path d="M39.3542 58.4851C39.2694 58.6012 39.2185 58.729 39.1167 58.8335C38.4041 59.6928 38.4041 59.6928 37.3013 59.0657C36.945 58.7754 36.7414 58.2761 36.0797 58.4154C36.0457 58.3574 36.0288 58.2993 36.0457 58.2412C36.1475 58.218 36.2663 58.1948 36.3681 58.1716C36.4869 58.1135 36.5887 58.0322 36.6905 57.9509C36.7923 57.8464 36.911 57.7535 37.0128 57.6606C37.1146 57.5677 37.2334 57.4748 37.3352 57.3818C37.437 57.2889 37.5388 57.289 37.6575 57.3703C38.1665 57.8116 38.9131 57.9741 39.3542 58.4851Z" fill="#B5D9DA"/>
<path d="M37.0479 64.0477C36.6577 64.0593 36.2505 64.1405 36.0469 63.7341C36.4201 63.7573 36.7764 63.7922 37.0479 64.0477Z" fill="#FDFDFD"/>
<path d="M36.096 63.7457C35.7906 63.7805 35.5192 63.7457 35.4004 63.4554C35.6719 63.4786 35.9264 63.5251 36.096 63.7457Z" fill="#FDFDFD"/>
<path d="M37.7074 28.3842C37.3341 27.6759 36.9439 26.9559 36.5706 26.2475C36.384 25.9107 36.5197 25.6901 36.9269 25.6784C37.3002 25.6552 37.6904 25.6668 38.0637 25.6668C39.421 25.6668 40.7783 25.6552 42.1356 25.6784C42.7804 25.6901 42.8652 25.8642 42.5937 26.3868C42.2374 27.0604 41.8811 27.7339 41.5248 28.3959C41.457 28.8604 41.1007 29.0578 40.5917 29.0927C39.947 29.0114 39.3022 28.9998 38.6575 29.0927C38.1315 29.0346 37.7752 28.8372 37.7074 28.3842Z" fill="#F9B579"/>
<path d="M37.7089 28.3843C37.9973 28.5933 38.2688 28.8488 38.6591 28.9185C39.3038 28.9417 39.9315 28.9533 40.5593 28.9069C40.9495 28.8372 41.204 28.5817 41.5094 28.3843C42.0693 28.4888 42.3238 28.8721 42.5953 29.2437C42.3069 29.6153 42.0184 29.9753 41.747 30.3469C41.5603 30.4398 41.7809 30.3004 41.6112 30.4166C41.3567 30.5791 40.9665 30.9392 40.8308 30.7533C39.9146 29.4643 38.1331 31.6011 37.3356 30.0914C37.0981 29.8127 36.8606 29.534 36.623 29.2553C36.8775 28.8604 37.132 28.4772 37.7089 28.3843Z" fill="#BBDADB"/>
<path d="M24.9491 62.9561C24.7794 62.9677 24.6437 63.0374 24.5758 63.1767C24.3213 63.2116 24.1007 63.2812 23.948 63.4786C23.6765 63.4902 23.439 63.5483 23.2863 63.7457C22.93 63.769 22.5907 63.8038 22.3362 64.0477C21.8611 64.0593 21.3691 64.0477 20.9449 64.3032L20.8262 64.2799L20.7244 64.3264C20.0627 64.5703 19.4179 64.5935 18.7732 64.3148H18.7902C18.383 64.0593 17.9249 64.0709 17.4498 64.0825L17.348 64.0244L17.2292 64.0361C16.9917 63.9315 16.6863 63.9432 16.4658 63.7922C16.2282 63.5135 15.7192 63.8038 15.5156 63.4438L15.5495 63.4322C15.2441 63.2348 14.9557 63.0374 14.6503 62.8516C14.2261 62.5728 13.785 62.2941 13.5645 61.8528C13.6323 61.7948 13.6323 61.7251 13.5645 61.667C13.9038 61.1096 13.4457 60.4477 13.9038 59.9135V59.9367C14.3279 59.5651 14.7691 59.1818 15.1933 58.8102C15.4138 58.6244 15.5665 58.3341 15.9567 58.3225C16.2452 58.4154 16.5336 58.4154 16.822 58.2876C17.5346 58.3921 17.7383 58.9264 18.0606 59.356C18.6544 60.3664 19.2143 61.3883 19.8591 62.4103C20.385 61.4232 20.928 60.4941 21.4539 59.5418C21.8442 59.0773 21.912 58.3573 22.7773 58.2528C23.0488 58.3225 23.3203 58.4038 23.5917 58.4734C24.0668 58.3225 24.3213 58.6012 24.5927 58.8451L24.5588 58.8102C24.7285 58.8567 24.8472 58.9612 24.9321 59.0889L24.9151 59.0773C25.0508 59.147 25.1527 59.2631 25.2714 59.3677L25.2544 59.356C25.2884 59.507 25.3732 59.6115 25.5429 59.658C25.6616 59.9367 25.7804 60.227 25.8992 60.5057C25.8483 60.587 25.8652 60.6567 25.9161 60.7264C25.8992 61.2606 25.8652 61.7948 25.8483 62.329C25.475 62.4683 25.1696 62.6541 24.9491 62.9561Z" fill="#9ECC2F"/>
<path d="M18.06 57.3817C17.7206 56.9637 17.4152 56.5572 17.2965 56.0346C17.2116 55.6166 16.4142 55.303 16.8384 54.8501C17.1777 54.4901 17.8564 54.6992 18.3654 54.6876C19.7566 54.6759 21.1479 54.6875 22.5561 54.6991C22.8615 54.6991 23.0481 54.9546 22.9124 55.1753C22.5052 55.9069 22.098 56.6501 21.6908 57.3817C21.606 58.1946 20.7576 58.3108 20.1129 58.6127C19.9602 58.6359 19.8075 58.6359 19.6548 58.6127C18.9931 58.3224 18.0769 58.2759 18.06 57.3817Z" fill="#F7B479"/>
<path d="M18.0614 57.3818C18.1632 57.6605 18.4517 57.7883 18.7231 57.9276C19.0794 58.1134 19.4357 58.2992 19.792 58.4734C19.3679 59.7973 18.9607 59.9715 17.7391 59.3444C17.4337 58.9844 17.1452 58.636 16.8398 58.276C17.1113 57.858 17.3997 57.4283 18.0614 57.3818Z" fill="#F7F8F5"/>
<path d="M19.9961 58.4502C20.5051 58.0322 21.2516 57.8928 21.6758 57.3934C22.2526 57.4747 22.5241 57.8464 22.7786 58.2412C22.4393 58.6941 22.0999 59.1586 21.7437 59.6115C20.573 59.8902 20.1149 59.356 19.9961 58.4502Z" fill="#F8FAF6"/>
<path d="M15.9569 58.3109C15.8042 58.5896 15.5836 58.7986 15.1934 58.7986C15.0916 58.2296 14.7353 57.707 14.854 57.1031C14.9558 57.1031 15.0746 57.1031 15.1764 57.1031C14.9898 57.7186 15.2952 58.1018 15.9569 58.3109Z" fill="#FDFDFD"/>
<path d="M18.4336 51.2619C19.3668 50.7857 20.2999 50.867 21.2501 51.2038C21.284 51.2154 21.3179 51.2735 21.3349 51.3199C20.3848 51.1689 19.4177 51.1922 18.4336 51.2619Z" fill="#FDFDFD"/>
<path d="M22.6761 51.5288C22.7779 51.6217 22.8966 51.7146 22.9984 51.8075C22.9645 51.9237 22.9475 52.0514 22.9136 52.1675C22.5573 52.0166 22.218 51.8308 21.9805 51.5521C22.218 51.5404 22.4385 51.5405 22.6761 51.5288Z" fill="#FDFDFD"/>
<path d="M24.5928 58.8451C24.2026 58.8335 23.9311 58.6012 23.5918 58.4735C23.7275 58.2644 23.9651 58.1832 24.2365 58.1599C24.3553 58.3806 24.4741 58.6128 24.5928 58.8451Z" fill="#FDFDFD"/>
<path d="M22.014 51.2501C22.014 51.3547 21.997 51.4592 21.997 51.5637C21.7255 51.5521 21.4711 51.5172 21.3184 51.285C21.5559 51.2734 21.7934 51.2618 22.014 51.2501Z" fill="#FDFDFD"/>
<path d="M15.5323 53.7818C15.5153 53.5496 15.5662 53.3289 15.8207 53.2012C15.8207 53.4334 15.7528 53.6425 15.5323 53.7818Z" fill="#FDFDFD"/>
<path d="M33.3313 31.7056C34.4681 31.6939 35.6048 31.6823 36.7416 31.6707C37.1657 31.6591 37.6069 31.7288 37.9971 31.5081C39.066 31.241 40.1349 31.2875 41.1868 31.4965C41.5601 31.7172 42.0012 31.6591 42.4084 31.6591C43.5622 31.6707 44.7159 31.6823 45.8866 31.6939C46.1071 31.9262 46.1072 32.2049 46.1072 32.4836C46.1072 34.6204 46.1241 36.7456 46.1072 38.8824C46.1072 39.7069 46.0054 39.8114 45.1231 39.8114C41.4413 39.823 37.7596 39.8114 34.0778 39.8114C33.9251 39.8114 33.7555 39.7998 33.6028 39.765C33.3822 39.7301 33.1956 39.6256 33.1616 39.4165C33.1277 39.2307 33.0938 39.0449 33.0938 38.8707C33.0938 36.734 33.0938 34.6088 33.0938 32.472C33.0938 32.2165 33.1107 31.9378 33.3313 31.7056Z" fill="#2B2B2B"/>
<path d="M41.5254 51.5521C42.3737 51.5753 42.7979 51.9585 42.8488 52.6669C42.4077 52.2953 41.9665 51.9237 41.5254 51.5521Z" fill="#FDFDFD"/>
<path d="M37.0625 51.9005C37.1134 51.5869 37.3849 51.5405 37.6903 51.5521C37.5545 51.7611 37.317 51.8424 37.0625 51.9005Z" fill="#FDFDFD"/>
<path d="M36.7402 52.1676C36.7742 51.9818 36.8929 51.8773 37.1135 51.8657C37.0626 52.0282 36.9269 52.1328 36.7402 52.1676Z" fill="#FDFDFD"/>
<path d="M37.6583 57.3702C37.5565 57.3818 37.4377 57.3818 37.3359 57.3818C37.3359 57.2773 37.3529 57.1844 37.3529 57.0799C37.5396 57.1147 37.6413 57.2076 37.6583 57.3702Z" fill="#FDFDFD"/>
<path d="M41.2043 31.5081C40.1354 31.7404 39.0665 31.7288 38.0146 31.5197C37.7941 31.0436 37.5565 30.5675 37.3359 30.0798C37.5056 30.1843 37.6923 30.2888 37.8619 30.3933C38.0995 30.5559 38.337 30.6023 38.5745 30.3933C38.7951 30.1959 38.9987 29.9636 39.2192 29.7778C39.5077 29.5339 39.7452 29.5572 40.0506 29.8243C40.1185 29.8939 40.2033 29.9636 40.2542 30.0449C40.6105 30.672 41.1704 30.5675 41.7473 30.3352C41.5606 30.7301 41.374 31.1133 41.2043 31.5081Z" fill="#43B8C4"/>
<path d="M18.7734 64.3147C19.4182 64.3147 20.0799 64.3263 20.7246 64.3263C20.0799 64.756 19.4182 64.7792 18.7734 64.3147Z" fill="#FDFDFD"/>
<path d="M15.5312 63.4438C15.8875 63.467 16.2269 63.5367 16.4814 63.7922C16.1081 63.7805 15.7009 63.8502 15.5312 63.4438Z" fill="#FDFDFD"/>
<path d="M16.4824 63.7922C16.7709 63.7806 17.0423 63.8386 17.2459 64.0361C16.9405 64.0709 16.6521 64.0477 16.4824 63.7922Z" fill="#FDFDFD"/>
<path d="M55.9646 52.3882C55.8288 52.725 55.6422 53.0269 55.3028 53.2592C55.218 52.8063 55.4386 52.5043 55.9646 52.3882Z" fill="#FDFDFD"/>
<path d="M56.6252 51.8424C56.5743 52.005 56.4386 52.0979 56.252 52.1327C56.3029 51.9702 56.4216 51.8656 56.6252 51.8424Z" fill="#FDFDFD"/>
<path d="M56.2866 52.1095C56.2527 52.2721 56.1339 52.3882 55.9473 52.423C55.9642 52.2604 56.083 52.1559 56.2866 52.1095Z" fill="#FDFDFD"/>
<path d="M13.9208 59.9019C13.819 60.4941 13.9547 61.1096 13.5814 61.6555C13.5644 61.249 13.5645 60.8542 13.5645 60.4477C13.5645 60.2154 13.6832 60.018 13.9208 59.9019Z" fill="#FDFDFD"/>
<path d="M37.3341 57.3818C37.2323 57.4747 37.1135 57.5677 37.0117 57.6606C37.1135 57.5677 37.2153 57.4747 37.3341 57.3818Z" fill="#FDFDFD"/>
<path d="M37.0138 57.6605C36.912 57.7534 36.7932 57.8463 36.6914 57.9508C36.7932 57.8579 36.912 57.7534 37.0138 57.6605Z" fill="#FDFDFD"/>
<path d="M36.6896 57.9392C36.6387 58.067 36.5369 58.1483 36.3672 58.1599C36.486 58.0902 36.5878 58.0205 36.6896 57.9392Z" fill="#FDFDFD"/>
<path d="M24.9319 59.0773C24.7452 59.0541 24.6095 58.9728 24.5586 58.7986C24.7452 58.8334 24.881 58.9263 24.9319 59.0773Z" fill="#FDFDFD"/>
<path d="M25.2723 59.356C25.0857 59.3211 24.9669 59.2166 24.916 59.0656C25.0348 59.1585 25.1536 59.2631 25.2723 59.356Z" fill="#FDFDFD"/>
<path d="M59.2051 58.4619C58.8658 58.2761 58.5264 58.1019 58.1871 57.9161C57.9326 57.7767 57.6441 57.6722 57.5423 57.4051C57.1182 56.6735 56.711 55.9303 56.2868 55.187C56.1681 54.9896 56.3886 54.6993 56.6601 54.6877C57.2539 54.6645 57.8477 54.6644 58.4416 54.6644C59.5783 54.6644 60.7151 54.6645 61.8519 54.6877C62.3269 54.6993 62.5984 55.0477 62.3439 55.338C61.818 55.9767 61.7501 56.8128 61.1053 57.4051C61.0205 57.6954 60.7321 57.7999 60.4776 57.9277C60.1383 58.1019 59.7819 58.2877 59.4426 58.4619C59.3747 58.4619 59.2899 58.4619 59.2051 58.4619Z" fill="#FAB579"/>
<path d="M40.5604 28.9068C39.9326 29.3597 39.2879 29.3714 38.6602 28.9185C39.2879 28.5352 39.9326 28.5468 40.5604 28.9068Z" fill="#F2A96A"/>
<path d="M19.9956 58.4503C20.4537 58.9845 20.8439 59.5767 21.7431 59.6116C21.319 60.7612 20.5724 61.7716 19.9277 62.8516C19.1981 62.178 18.4177 60.9354 17.7051 59.3444C18.1971 59.5419 18.6722 59.6464 19.0794 59.1935C19.2999 58.9496 19.5375 58.7173 19.758 58.4735C19.8598 58.4619 19.9277 58.4619 19.9956 58.4503Z" fill="#BFE0E0"/>
<path d="M41.0339 35.8166C41.0339 36.5018 40.4231 37.0476 39.6257 37.0476C38.8283 37.0592 38.1835 36.5366 38.1496 35.8631C38.1157 35.1547 38.8283 34.516 39.6596 34.5508C40.4231 34.574 41.0339 35.1315 41.0339 35.8166Z" fill="#B9D9DB"/>
</svg>
