<svg width="50" height="52" viewBox="0 0 50 52" fill="none" xmlns="http://www.w3.org/2000/svg">
<g clip-path="url(#clip0)">
<path d="M49.2419 11.132V5.43889C49.2419 3.75446 47.929 2.38904 46.3093 2.38904H17.5703V11.132H49.2419Z" fill="#BBBBBE"/>
<path d="M46.3101 38.4105H3.69036C2.07072 38.4105 0.757812 37.0451 0.757812 35.3607V1.8123C0.757812 0.127871 2.07072 -1.23755 3.69036 -1.23755H14.5408C15.6507 -1.23755 16.7274 -0.844728 17.5941 -0.123641L22.2479 3.74835C23.1146 4.46944 24.1913 4.86226 25.3012 4.86226H46.3101C47.9298 4.86226 49.2427 6.22768 49.2427 7.91211V35.3608C49.2427 37.0451 47.9298 38.4105 46.3101 38.4105Z" fill="#2095F3"/>
<path d="M46.3101 37.3607H3.69036C2.07072 37.3607 0.757812 35.9953 0.757812 34.3109V37.3607C0.757812 39.0451 2.07072 40.4106 3.69036 40.4106H46.3101C47.9298 40.4106 49.2427 39.0451 49.2427 37.3607V34.3109C49.2427 35.9953 47.9298 37.3607 46.3101 37.3607Z" fill="#EED60F"/>
<path d="M31.0912 33.2354V20.3418C31.0912 18.961 30.0149 17.8417 28.6873 17.8417C27.3596 17.8417 26.2828 18.961 26.2828 20.3418V27.1678H22.4343V28.6285H18.5848V30.314H14.7363V40.5389L17.3024 46.9437V48.9502H31.4153V46.9437L35.2643 40.5389V33.2354H31.0912Z" fill="#FFDECF"/>
<path d="M15.5176 48.9502H33.1129V52H15.5176V48.9502Z" fill="#9EB6F4"/>
<path d="M16.8848 45.9003L17.3028 46.9436V48.9501H31.4157V46.9436L32.0426 45.9003H16.8848Z" fill="#FFCDBE"/>
<path d="M14.1502 4.57482H10.2401V3.0499H14.1502V4.57482ZM8.77383 4.57482H7.30755V3.0499H8.77383V4.57482ZM5.84128 4.57482H4.375V3.0499H5.84128V4.57482Z" fill="white"/>
<path d="M27.8848 12.4028H29.351V13.9277H27.8848V12.4028Z" fill="white"/>
<path d="M22.7383 15.2518L23.7749 14.1737L24.8116 15.2518L23.7749 16.33L22.7383 15.2518Z" fill="white"/>
<path d="M21.041 19.5191H22.5073V21.0441H21.041V19.5191Z" fill="white"/>
<path d="M32.4141 15.2517L33.4507 14.1736L34.4874 15.2517L33.4507 16.3298L32.4141 15.2517Z" fill="white"/>
<path d="M34.7266 19.5191H36.1928V21.0441H34.7266V19.5191Z" fill="white"/>
<path d="M48.5085 37.3607C48.5085 38.622 47.5218 39.6481 46.3091 39.6481H37.8047V41.173H46.3091C48.3304 41.173 49.9748 39.4628 49.9748 37.3607V14.3996H48.5085V37.3607Z" fill="#656565"/>
<path d="M1.48971 37.3607V29.9602H0.0234375V37.3607C0.0234375 39.4628 1.66782 41.173 3.68913 41.173H12.1935V39.6481H3.68913C2.47642 39.6481 1.48971 38.622 1.48971 37.3607Z" fill="black" fill-opacity="0.5"/>
<path d="M18.0354 46.7911L16.9367 44.0487L15.5832 44.6352L16.5691 47.0961V48.1876H14.7852V51.9999H16.2514V49.7126H26.271V48.1876H18.0354V46.7911Z" fill="black" fill-opacity="0.5"/>
<path d="M31.8233 25.9728H30.3571V33.9978H34.5301V40.3203L30.6811 46.7249V48.1877H27.7363V49.7126H32.3795V52H33.8458V48.1877H32.1474V47.1623L35.9963 40.7576V32.4729H31.8233V25.9728Z" fill="black" fill-opacity="0.5"/>
<path d="M30.3587 20.3417V24.448H31.825V20.3417C31.825 18.5427 30.4178 17.0792 28.6879 17.0792C26.9579 17.0792 25.5502 18.5427 25.5502 20.3417V26.4054H21.7018V27.1678V27.8661H17.8523V28.6286V29.5516H14.0039V40.6916L15.02 43.2277L16.3735 42.6412L15.4703 40.3865V31.0764H17.8524V33.4601H19.3187V31.0764V29.391H21.7018V33.4601H23.1681V29.391V27.9302H25.5502V33.4601H27.0165V27.9302V27.1677V20.3416C27.0165 19.3835 27.7663 18.604 28.6879 18.604C29.6092 18.6041 30.3587 19.3836 30.3587 20.3417Z" fill="black" fill-opacity="0.5"/>
<path d="M46.3089 1.62659H32.9309V3.15152H46.3089C47.5216 3.15152 48.5083 4.17759 48.5083 5.43891V6.86431C47.8952 6.38446 47.1335 6.09971 46.3089 6.09971H25.2999C24.3602 6.09971 23.4385 5.76341 22.7047 5.15293L20.2991 3.15152H31.4645V1.62659H18.4663L18.0508 1.28094C17.058 0.454937 15.8111 0 14.5396 0H3.68913C1.66782 0 0.0234375 1.71015 0.0234375 3.81232V28.4353H1.48971V3.81232C1.48971 2.551 2.47642 1.52493 3.68913 1.52493H14.5396C15.4794 1.52493 16.4011 1.86112 17.1348 2.4717L21.7886 6.3437C22.7814 7.1697 24.0284 7.62463 25.2999 7.62463H46.3089C47.5216 7.62463 48.5083 8.65071 48.5083 9.91202V11.132V12.8748H49.9746V11.132V9.91202V5.43891C49.9746 3.33674 48.3302 1.62659 46.3089 1.62659Z" fill="#656565"/>
</g>
<defs>
<clipPath id="clip0">
<rect width="50" height="52" fill="white"/>
</clipPath>
</defs>
</svg>
