<svg width="48" height="42" viewBox="0 0 48 42" fill="none" xmlns="http://www.w3.org/2000/svg">
<path d="M1.00228 7.80577C7.59009 12.6875 19.1497 21.276 22.5472 23.9539C23.0032 24.3154 23.4924 24.4991 24.0003 24.4991C24.5071 24.4991 24.9954 24.3171 25.4505 23.9574C28.8509 21.2769 40.4105 12.6875 46.9984 7.80577C47.4085 7.50241 47.4711 6.96921 47.139 6.59835C46.3714 5.74137 45.2269 5.25 44.0002 5.25H4.00031C2.77378 5.25 1.62919 5.74137 0.861655 6.59843C0.529593 6.96921 0.592124 7.50241 1.00228 7.80577Z" fill="#0475CF"/>
<path d="M47.419 10.4513C47.0646 10.307 46.6476 10.3573 46.3526 10.5778C42.0381 13.7779 36.3536 18.0059 32.0665 21.2324C31.8409 21.4017 31.714 21.6503 31.7189 21.9109C31.7238 22.1707 31.8615 22.4159 32.0939 22.5783C36.0773 25.3699 42.0802 29.21 46.4152 31.9392C46.588 32.0486 46.7931 32.1041 46.9991 32.1041C47.1554 32.1041 47.3116 32.0725 47.4552 32.0076C47.7893 31.858 47.9992 31.5572 47.9992 31.2291V11.2451C47.9991 10.9042 47.7725 10.5941 47.419 10.4513Z" fill="#0C61A6"/>
<path d="M1.584 31.9392C5.91994 29.2099 11.9239 25.3699 15.9063 22.5782C16.1387 22.4158 16.2764 22.1706 16.2813 21.9108C16.2862 21.6502 16.1592 21.4016 15.9337 21.2324C11.6465 18.0058 5.96091 13.7778 1.64653 10.5777C1.34962 10.3572 0.931687 10.3086 0.580125 10.4512C0.226594 10.594 0 10.9041 0 11.2451V31.2291C0 31.5572 0.21 31.858 0.543937 32.0076C0.687469 32.0726 0.84375 32.1041 1.00003 32.1041C1.20609 32.1041 1.41112 32.0486 1.584 31.9392Z" fill="#0072CE"/>
<path d="M46.7745 34.3198C42.588 31.6991 34.8761 26.8131 30.2726 23.5438C29.8976 23.2763 29.3546 23.2849 28.9855 23.5635C28.0822 24.253 27.3263 24.8341 26.7901 25.2562C25.1436 26.5567 22.8585 26.5567 21.2081 25.2545C20.6739 24.8332 19.9181 24.2504 19.0147 23.5634C18.6485 23.2831 18.1046 23.2745 17.7285 23.5437C13.1406 26.8019 5.41992 31.6938 1.22658 34.3197C0.99314 34.4667 0.842765 34.6931 0.813515 34.9435C0.785202 35.1939 0.87989 35.4425 1.0762 35.6271C1.83314 36.3407 2.89955 36.75 4.00017 36.75H44.0002C45.1008 36.75 46.1662 36.3407 46.925 35.6271C47.1203 35.4434 47.216 35.1948 47.1877 34.9444C47.1584 34.6941 47.008 34.4668 46.7745 34.3198Z" fill="#1673BE"/>
</svg>
