<svg width="52" height="48" viewBox="0 0 52 48" fill="none" xmlns="http://www.w3.org/2000/svg">
<g clip-path="url(#clip0)">
<path d="M50.9839 48.0005H1.01562C0.454695 48.0005 0 47.5808 0 47.063V0.938507C0 0.420726 0.454695 0.00100708 1.01562 0.00100708H50.9839C51.5448 0.00100708 51.9995 0.420726 51.9995 0.938507V47.063C51.9995 47.5808 51.5448 48.0005 50.9839 48.0005Z" fill="#FFF5F5"/>
<path d="M52.0005 1.45086V46.5492C52.0005 47.3509 51.2975 47.9999 50.429 47.9999H46.875C47.7436 47.9999 48.4466 47.3509 48.4466 46.5492V1.45086C48.4466 0.649105 47.7436 0.000167847 46.875 0.000167847H50.429C51.2975 0.000167847 52.0005 0.649105 52.0005 1.45086Z" fill="#EFE2DD"/>
<path d="M51.9995 8.40691H0V0.938507C0 0.420726 0.454695 0.00100708 1.01562 0.00100708H50.9839C51.5448 0.00100708 51.9995 0.420726 51.9995 0.938507V8.40691Z" fill="#00AAF2"/>
<path d="M52.0005 1.45086V8.4057H48.4466V1.45086C48.4466 0.649105 47.7436 0.000167847 46.875 0.000167847H50.429C51.2975 0.000167847 52.0005 0.649105 52.0005 1.45086Z" fill="#0091D0"/>
<path d="M6.19721 5.91681C7.14858 5.91681 7.91981 5.2049 7.91981 4.32671C7.91981 3.44853 7.14858 2.73662 6.19721 2.73662C5.24584 2.73662 4.47461 3.44853 4.47461 4.32671C4.47461 5.2049 5.24584 5.91681 6.19721 5.91681Z" fill="#FF5757"/>
<path d="M12.8496 5.91681C13.8009 5.91681 14.5722 5.2049 14.5722 4.32671C14.5722 3.44853 13.8009 2.73662 12.8496 2.73662C11.8982 2.73662 11.127 3.44853 11.127 4.32671C11.127 5.2049 11.8982 5.91681 12.8496 5.91681Z" fill="#FFC143"/>
<path d="M19.5019 5.91681C20.4533 5.91681 21.2245 5.2049 21.2245 4.32671C21.2245 3.44853 20.4533 2.73662 19.5019 2.73662C18.5505 2.73662 17.7793 3.44853 17.7793 4.32671C17.7793 5.2049 18.5505 5.91681 19.5019 5.91681Z" fill="#A3E72D"/>
<path d="M7.91963 4.32736C7.91963 5.20514 7.14918 5.91633 6.19815 5.91633C5.73756 5.91633 5.31841 5.74973 5.00977 5.47683C5.9417 5.45817 6.69204 4.75467 6.69204 3.88889C6.69204 3.43514 6.48668 3.02751 6.15783 2.7382C6.17093 2.73708 6.18515 2.73708 6.19815 2.73708C7.14907 2.73717 7.91963 3.44845 7.91963 4.32736Z" fill="#FF4343"/>
<path d="M14.5731 4.32736C14.5731 5.20514 13.8026 5.91633 12.8505 5.91633C12.3899 5.91633 11.972 5.74973 11.6621 5.47683C12.5953 5.45817 13.3456 4.75467 13.3456 3.88889C13.3456 3.43514 13.1402 3.02751 12.8114 2.7382C12.8245 2.73708 12.8375 2.73708 12.8506 2.73708C13.8026 2.73717 14.5731 3.44845 14.5731 4.32736Z" fill="#FFB509"/>
<path d="M21.2254 4.32736C21.2254 5.20514 20.4538 5.91633 19.5028 5.91633C19.0422 5.91633 18.6243 5.74973 18.3145 5.47683C19.2476 5.45817 19.9967 4.75467 19.9967 3.88889C19.9967 3.43514 19.7914 3.02751 19.4625 2.7382C19.4756 2.73708 19.4898 2.73708 19.5028 2.73708C20.4538 2.73717 21.2254 3.44845 21.2254 4.32736Z" fill="#80CF00"/>
<path d="M45.9126 16.8928H6.08804C5.73958 16.8928 5.45703 16.632 5.45703 16.3103V12.8236C5.45703 12.5019 5.73958 12.2411 6.08804 12.2411H45.9126C46.2611 12.2411 46.5436 12.5019 46.5436 12.8236V16.3103C46.5436 16.6321 46.2612 16.8928 45.9126 16.8928Z" fill="#A3E72D"/>
<path d="M45.9126 24.6365H6.08804C5.73958 24.6365 5.45703 24.3757 5.45703 24.054V20.5672C5.45703 20.2456 5.73958 19.9848 6.08804 19.9848H45.9126C46.2611 19.9848 46.5436 20.2456 46.5436 20.5672V24.054C46.5436 24.3757 46.2612 24.6365 45.9126 24.6365Z" fill="#A3E72D"/>
<path d="M45.9118 16.8928H43.5625V12.2411H45.9118C46.2603 12.2411 46.5429 12.5019 46.5429 12.8236V16.3103C46.5429 16.6321 46.2604 16.8928 45.9118 16.8928Z" fill="#80CF00"/>
<path d="M45.9118 24.6364H43.5625V19.9846H45.9118C46.2603 19.9846 46.5429 20.2454 46.5429 20.5671V24.0538C46.5429 24.3756 46.2604 24.6364 45.9118 24.6364Z" fill="#80CF00"/>
<path d="M45.9126 37.7754H6.08804C5.73958 37.7754 5.45703 37.5146 5.45703 37.1929V28.3108C5.45703 27.9891 5.73958 27.7283 6.08804 27.7283H45.9126C46.2611 27.7283 46.5436 27.9891 46.5436 28.3108V37.1929C46.5436 37.5146 46.2612 37.7754 45.9126 37.7754Z" fill="#C9F0FF"/>
<path d="M43.5625 27.7287H45.912C46.2601 27.7287 46.5431 27.9888 46.5431 28.3111V37.1928C46.5431 37.5151 46.2601 37.7753 45.912 37.7753H43.5625V27.7287Z" fill="#9AE7FD"/>
<path d="M45.912 44.4381H37.0294C36.681 44.4381 36.3984 44.1773 36.3984 43.8556V41.4498C36.3984 41.1282 36.681 40.8673 37.0294 40.8673H45.912C46.2605 40.8673 46.543 41.1282 46.543 41.4498V43.8556C46.543 44.1773 46.2606 44.4381 45.912 44.4381Z" fill="#FF5757"/>
<path d="M45.9118 44.4381H43.5625V40.8673H45.9118C46.2603 40.8673 46.5429 41.1282 46.5429 41.4498V43.8556C46.5429 44.1773 46.2604 44.4381 45.9118 44.4381Z" fill="#F72C2C"/>
<path d="M11.453 31.5816H8.86523C8.44446 31.5816 8.10352 31.2669 8.10352 30.8784C8.10352 30.49 8.44446 30.1753 8.86523 30.1753H11.453C11.8738 30.1753 12.2148 30.49 12.2148 30.8784C12.2148 31.2669 11.8738 31.5816 11.453 31.5816Z" fill="#7CA1B1"/>
<path d="M30.1402 31.5816H14.3516C13.9308 31.5816 13.5898 31.2669 13.5898 30.8784C13.5898 30.49 13.9308 30.1753 14.3516 30.1753H30.1402C30.5609 30.1753 30.9019 30.49 30.9019 30.8784C30.9019 31.2669 30.5608 31.5816 30.1402 31.5816Z" fill="#7CA1B1"/>
<path d="M27.7408 34.0487H21.9668C21.546 34.0487 21.2051 33.7339 21.2051 33.3455C21.2051 32.9571 21.546 32.6424 21.9668 32.6424H27.7408C28.1616 32.6424 28.5026 32.9571 28.5026 33.3455C28.5026 33.7339 28.1616 34.0487 27.7408 34.0487Z" fill="#7CA1B1"/>
<path d="M18.9482 34.0487H17.1484C16.7277 34.0487 16.3867 33.7339 16.3867 33.3455C16.3867 32.9571 16.7277 32.6424 17.1484 32.6424H18.9482C19.369 32.6424 19.7099 32.9571 19.7099 33.3455C19.7099 33.7339 19.369 34.0487 18.9482 34.0487Z" fill="#7CA1B1"/>
<path d="M14.2511 34.0487H8.86523C8.44446 34.0487 8.10352 33.7339 8.10352 33.3455C8.10352 32.9571 8.44446 32.6424 8.86523 32.6424H14.2511C14.6719 32.6424 15.0128 32.9571 15.0128 33.3455C15.0128 33.7339 14.6719 34.0487 14.2511 34.0487Z" fill="#7CA1B1"/>
</g>
<defs>
<clipPath id="clip0">
<rect width="52" height="48" fill="white"/>
</clipPath>
</defs>
</svg>
