<svg width="25" height="20" viewBox="0 0 25 20" fill="none" xmlns="http://www.w3.org/2000/svg">
<path d="M21.9481 0H3.05711C1.37078 0 0 1.441 0 3.2137V16.7863C0 18.559 1.37078 20 3.05711 20H21.9429C23.6292 20 25 18.559 25 16.7863V3.21914C25.0052 1.44644 23.6344 0 21.9481 0ZM23.6085 16.7863C23.6085 17.7488 22.8636 18.5318 21.9481 18.5318H3.05711C2.14153 18.5318 1.39665 17.7488 1.39665 16.7863V3.21914C1.39665 2.25666 2.14153 1.47363 3.05711 1.47363H21.9429C22.8585 1.47363 23.6033 2.25666 23.6033 3.21914V16.7863H23.6085Z" fill="#828282"/>
<path d="M15.7664 9.83143L21.8807 4.06743C22.1652 3.79554 22.191 3.33333 21.9324 3.02882C21.6737 2.72974 21.2341 2.70256 20.9444 2.97444L12.5128 10.9299L10.8678 9.38554C10.8627 9.3801 10.8575 9.37466 10.8575 9.36922C10.8213 9.33116 10.7851 9.29853 10.7437 9.26591L4.05013 2.969C3.76045 2.69712 3.32076 2.72431 3.06213 3.02882C2.80349 3.33333 2.82935 3.79554 3.11903 4.06743L9.30566 9.88037L3.14489 15.9434C2.86556 16.2208 2.85004 16.683 3.11385 16.9821C3.25352 17.1343 3.43974 17.2159 3.62596 17.2159C3.79666 17.2159 3.96736 17.1506 4.10185 17.0201L10.3557 10.87L12.0524 12.4633C12.1869 12.5884 12.3524 12.6482 12.5179 12.6482C12.6835 12.6482 12.8542 12.5829 12.9835 12.4579L14.7267 10.8157L20.9444 17.0256C21.0789 17.1615 21.2548 17.2268 21.4255 17.2268C21.6117 17.2268 21.7927 17.1506 21.9324 16.9984C22.1962 16.7047 22.1858 16.2371 21.9065 15.9598L15.7664 9.83143Z" fill="#828282"/>
</svg>
