<svg width="15" height="25" viewBox="0 0 15 25" fill="none" xmlns="http://www.w3.org/2000/svg">
<path d="M9.70579 1.25H5.29417C5.05067 1.25 4.85303 1.43667 4.85303 1.66665C4.85303 1.89663 5.05067 2.0833 5.29417 2.0833H9.70579C9.94929 2.0833 10.1469 1.89663 10.1469 1.66665C10.1469 1.43667 9.94929 1.25 9.70579 1.25Z" fill="#828282"/>
<path d="M12.7939 1.25H12.3528C12.1093 1.25 11.9116 1.43667 11.9116 1.66665C11.9116 1.89663 12.1093 2.0833 12.3528 2.0833H12.7939C13.0374 2.0833 13.2351 1.89663 13.2351 1.66665C13.2351 1.43667 13.0374 1.25 12.7939 1.25Z" fill="#828282"/>
<path d="M8.04765 21.25H6.95225C6.28125 21.25 5.73511 21.7658 5.73511 22.3996V22.6008C5.73511 23.2346 6.28125 23.75 6.95184 23.75H8.04723C8.71823 23.75 9.26438 23.2346 9.26438 22.6008V22.3996C9.26438 21.7658 8.71823 21.25 8.04765 21.25ZM8.38209 22.6008C8.38209 22.775 8.23211 22.9167 8.0477 22.9167H6.95225C6.76743 22.9167 6.6174 22.775 6.6174 22.6008V22.3996C6.6174 22.225 6.76738 22.0833 6.95225 22.0833H8.04723C8.23211 22.0833 8.38209 22.225 8.38209 22.3996V22.6008Z" fill="#828282"/>
<path d="M13.4052 0H1.59481C0.715564 0 0 0.67583 0 1.50625V23.4937C0 24.3242 0.715564 25 1.59481 25H13.4047C14.284 25 14.9995 24.3242 14.9995 23.4942V1.50625C14.9996 0.67583 14.284 0 13.4052 0ZM14.1173 23.4937C14.1173 23.8646 13.7979 24.1667 13.4052 24.1667H1.59481C1.20174 24.1667 0.882344 23.8646 0.882344 23.4941V1.50625C0.882344 1.1354 1.20174 0.83335 1.59481 0.83335H13.4047C13.7978 0.83335 14.1172 1.13545 14.1172 1.50625V23.4937H14.1173Z" fill="#828282"/>
<path d="M14.5593 2.5H0.442123C0.198622 2.5 0.000976562 2.68667 0.000976562 2.91665V20.4166C0.000976562 20.6466 0.198622 20.8333 0.442123 20.8333H14.5594C14.8029 20.8333 15.0005 20.6466 15.0005 20.4166V2.91665C15.0005 2.68667 14.8029 2.5 14.5593 2.5ZM14.1182 20H0.883269V3.33335H14.1182V20Z" fill="#828282"/>
</svg>
