<svg width="24" height="25" viewBox="0 0 24 25" fill="none" xmlns="http://www.w3.org/2000/svg">
<path d="M20.2035 14.9026C19.6797 14.3369 19.0478 14.0345 18.3782 14.0345C17.7139 14.0345 17.0767 14.3313 16.5312 14.897L14.8247 16.6611C14.6843 16.5827 14.5439 16.5099 14.4089 16.4371C14.2145 16.3362 14.0309 16.241 13.8742 16.1402C12.2757 15.0874 10.823 13.7153 9.42972 11.94C8.75467 11.0551 8.30103 10.3103 7.97161 9.55421C8.41444 9.13418 8.82487 8.69736 9.2245 8.27733C9.37572 8.12052 9.52693 7.95811 9.67814 7.8013C10.8122 6.62522 10.8122 5.10193 9.67814 3.92585L8.20383 2.39695C8.03642 2.22334 7.8636 2.04413 7.70159 1.86492C7.37757 1.5177 7.03734 1.15927 6.68632 0.823253C6.16248 0.285618 5.53603 0 4.87718 0C4.21833 0 3.58109 0.285618 3.04105 0.823253C3.03565 0.828853 3.03565 0.828853 3.03025 0.834453L1.19411 2.75538C0.502857 3.47222 0.108628 4.34588 0.0222218 5.35954C-0.107388 6.99485 0.357047 8.51814 0.713473 9.51501C1.58834 11.9624 2.89524 14.2305 4.84478 16.6611C7.21015 19.5901 10.0562 21.903 13.3072 23.5327C14.5493 24.1431 16.2072 24.8656 18.0596 24.9888C18.173 24.9944 18.2918 25 18.3998 25C19.6473 25 20.695 24.5352 21.5158 23.6111C21.5212 23.5999 21.532 23.5943 21.5374 23.5831C21.8182 23.2303 22.1423 22.9111 22.4825 22.5694C22.7147 22.3398 22.9523 22.099 23.1845 21.847C23.7192 21.2702 24 20.5981 24 19.9093C24 19.2148 23.7138 18.5484 23.1683 17.9883L20.2035 14.9026ZM22.1369 20.7997C22.1315 20.7997 22.1315 20.8053 22.1369 20.7997C21.9262 21.0349 21.7102 21.2478 21.478 21.483C21.127 21.8302 20.7706 22.1942 20.4357 22.603C19.8903 23.2079 19.2476 23.4935 18.4052 23.4935C18.3242 23.4935 18.2378 23.4935 18.1568 23.4879C16.5528 23.3815 15.0623 22.7319 13.9445 22.1774C10.8878 20.6429 8.20383 18.4644 5.97346 15.7034C4.13193 13.4017 2.90064 11.2735 2.08517 8.98858C1.58294 7.59409 1.39932 6.50762 1.48033 5.48275C1.53433 4.82751 1.77735 4.28427 2.22559 3.81944L4.06712 1.90972C4.33174 1.65211 4.61256 1.5121 4.88798 1.5121C5.22821 1.5121 5.50363 1.72491 5.67644 1.90412C5.68184 1.90972 5.68724 1.91532 5.69264 1.92092C6.02207 2.24014 6.33529 2.57056 6.66471 2.92339C6.83213 3.1026 7.00494 3.28181 7.17775 3.46662L8.65206 4.99552C9.2245 5.58916 9.2245 6.13799 8.65206 6.73163C8.49545 6.89404 8.34424 7.05645 8.18763 7.21326C7.73399 7.69489 7.30196 8.14292 6.83213 8.57975C6.82133 8.59095 6.81053 8.59655 6.80512 8.60775C6.34069 9.08938 6.4271 9.55981 6.5243 9.87903C6.5297 9.89583 6.5351 9.91263 6.5405 9.92943C6.92393 10.8927 7.46397 11.8 8.28483 12.8808L8.29023 12.8864C9.78075 14.7905 11.3523 16.2746 13.0858 17.4115C13.3072 17.5571 13.534 17.6747 13.75 17.7867C13.9445 17.8875 14.1281 17.9828 14.2847 18.0836C14.3063 18.0948 14.3279 18.1116 14.3495 18.1228C14.5331 18.218 14.7059 18.2628 14.8841 18.2628C15.3324 18.2628 15.6132 17.9715 15.705 17.8763L17.5519 15.961C17.7355 15.7706 18.0272 15.541 18.3674 15.541C18.7022 15.541 18.9776 15.7594 19.145 15.9498C19.1504 15.9554 19.1504 15.9554 19.1558 15.961L22.1315 19.0468C22.6877 19.6181 22.6877 20.2061 22.1369 20.7997Z" fill="#828282"/>
</svg>
