<svg width="69" height="70" viewBox="0 0 69 70" fill="none" xmlns="http://www.w3.org/2000/svg">
<path d="M61.4699 63.4419C50.8977 72.1858 17.8866 72.1858 7.53005 63.4419C-3.04217 54.698 -1.96339 17.318 7.53005 7.48115C17.0235 -2.3557 51.9765 -2.3557 61.4699 7.48115C70.9634 17.318 72.0422 54.6982 61.4699 63.4419Z" fill="#5CA4DA"/>
<path d="M34.7155 48.1404C25.2221 55.7913 14.6499 59.7261 4.72497 59.9446C-2.61091 47.266 -1.10053 16.4439 7.52986 7.48149C15.2972 -0.606554 39.678 -2.1368 53.7024 2.89091C57.1545 17.3183 50.0345 35.6803 34.7155 48.1404Z" fill="#6DAFE0"/>
<path d="M39.2474 43.9872H29.9696V39.3966C29.9696 37.6478 30.1854 36.3363 30.617 35.6805C31.0484 34.8061 31.9115 33.7131 33.4219 32.1829L37.5213 27.811C38.1686 27.1552 38.3843 26.0622 38.3843 24.9692C38.3843 23.8763 38.1686 22.7833 37.3055 22.1274C36.6582 21.253 35.7951 21.0345 34.7164 21.0345C33.6376 21.0345 32.7745 21.4716 32.1272 22.346C31.4799 23.2204 31.0484 24.5319 30.8327 26.0622H21.1235C21.555 21.9089 23.0654 18.6298 25.6545 16.4439C28.2437 14.258 31.2643 12.9463 35.148 12.9463C39.0316 12.9463 42.0523 14.0393 44.4257 16.0066C46.799 18.1926 48.0936 21.0343 48.0936 24.7505C48.0936 26.4993 47.8779 27.5923 47.4463 28.4667C47.0149 29.3411 46.799 29.7782 46.5832 30.2155C46.3675 30.6526 45.9359 31.0899 45.5045 31.7457C44.8571 32.4016 44.4257 32.8387 44.21 33.0573C43.1312 34.1502 42.2681 35.0246 41.4051 35.899C40.542 36.7734 39.8947 37.4293 39.679 38.085C39.4632 38.7408 39.2475 39.3965 39.2475 40.4895V43.9872H39.2474ZM29.3225 51.8567C29.3225 48.7964 31.6958 46.3917 34.7165 46.3917C37.7373 46.3917 40.1106 48.7962 40.1106 51.8567C40.1106 54.9172 37.7373 57.3217 34.7165 57.3217C31.6958 57.3217 29.3225 54.917 29.3225 51.8567Z" fill="white"/>
</svg>
