<svg width="248" height="196" viewBox="0 0 248 196" fill="none" xmlns="http://www.w3.org/2000/svg">
<path d="M248 109.845C248 148.265 198.327 179.41 137.053 179.41C75.7781 179.41 11.9402 171.918 11.9402 133.499C11.9402 95.0797 75.7781 40.2812 137.053 40.2812C198.327 40.2812 248 71.4262 248 109.845Z" fill="#E7F7EF"/>
<path d="M14.0915 104.76C14.9658 102.235 15.3708 99.5961 15.4933 96.8675C15.6701 92.9465 15.1203 89.1603 14.1834 85.433C13.7059 83.5314 13.0168 81.7242 12.46 79.8614C11.874 77.8975 11.7598 75.8595 11.9519 73.7626C12.1412 71.6926 12.5004 69.6934 13.0795 67.7379C14.1918 63.982 15.8692 60.6437 18.0074 57.6103C20.0552 54.705 22.4245 52.2796 25.139 50.3528C28.1793 48.1952 31.434 46.74 34.9336 46.105C36.8575 45.7564 38.7855 45.5829 40.7275 45.6132C41.4903 45.625 42.2379 45.8086 43.0077 45.7951C45.4034 45.7513 47.5806 44.8957 49.6395 43.4523C52.1564 41.6855 54.2779 39.3174 56.4676 37.0453C59.0833 34.3302 61.7561 31.7162 64.8827 29.8601C67.1072 28.538 69.4807 27.8373 71.8807 27.2781C75.5181 26.4309 79.2071 26.1008 82.9059 26.2693C86.2427 26.4225 89.5711 26.7072 92.8815 27.364C96.2976 28.0428 99.6748 28.9136 103.013 29.9898C105.15 30.6787 107.242 31.5747 109.362 32.3428C111.816 33.2321 114.314 33.8569 116.868 34.177C118.271 34.3521 119.669 34.566 121.081 34.4902C124.09 34.3269 126.984 33.6245 129.615 31.728C131.368 30.4648 132.604 28.5986 133.785 26.6449C135.816 23.2847 138.516 20.9638 141.64 19.2913C143.856 18.1056 146.174 17.3594 148.562 17.0091C151.56 16.5695 154.545 16.8053 157.499 17.6457C160.784 18.5805 163.815 20.2092 166.544 22.5773C169.523 25.161 171.968 28.3729 173.87 32.1946C175.417 35.3054 176.78 38.5595 178.64 41.4396C180.192 43.8447 182.015 45.8406 184.387 46.9623C185.411 47.4457 186.493 47.7405 187.616 47.8179C189.394 47.9392 191.156 47.7539 192.927 47.6562C194.913 47.5468 196.896 47.7826 198.879 47.951C201.419 48.1666 203.913 48.6416 206.363 49.4685C210.147 50.7469 213.651 52.6973 216.716 55.7206C219.01 57.9826 220.933 60.6269 222.506 63.6653C224.762 68.0209 226.207 72.7537 227.251 77.7139C227.97 81.1229 228.501 84.5706 228.977 88.0301C229.43 91.3246 229.796 94.6376 230.278 97.9286C230.75 101.161 231.675 104.15 233.176 106.921C234.808 109.934 236.343 113.028 237.809 116.163C239.303 119.356 240.579 122.689 241.157 126.331C241.537 128.721 241.556 131.124 241.315 133.556C241.002 136.716 240.128 139.66 238.993 142.469C237.878 145.232 236.506 147.837 235.062 150.375C233.858 152.491 232.63 154.588 231.423 156.703C230.663 158.036 229.921 159.385 229.168 160.722C229.076 160.885 228.98 161.039 228.993 161.281C229.256 161.306 229.505 161.33 229.754 161.354C229.653 161.756 229.359 161.711 229.121 161.704C226.728 161.635 224.36 162.002 221.988 162.293C221.782 162.319 221.529 162.4 221.412 162.154C221.27 161.852 221.499 161.63 221.652 161.438C223.532 159.073 225.048 156.383 226.309 153.503C228.106 149.402 229.238 145.026 229.668 140.401C229.75 139.519 229.882 138.636 229.807 137.782C228.294 140.765 226.26 143.184 223.877 145.195C222.563 146.303 221.217 147.356 219.748 148.137C218.665 148.715 217.945 149.668 217.448 150.925C217.408 151.026 217.37 151.128 217.32 151.224C217.189 151.477 217.12 151.901 216.836 151.861C216.553 151.821 216.559 151.393 216.496 151.106C216.289 150.145 216.29 150.133 215.53 150.468C213.308 151.45 211.07 152.371 208.773 153.065C208.486 153.151 208.197 153.309 207.89 153.153C207.457 152.095 207.599 151.086 208.321 150.409C210.907 147.979 212.944 144.957 214.755 141.69C215.04 141.174 215.241 140.61 215.441 140.044C215.644 139.668 215.937 139.392 216.182 139.062C217.028 137.913 217.276 135.971 216.734 134.713C216.818 134.195 217.214 134.164 217.512 133.987C218.531 133.384 219.573 132.84 220.436 131.907C221.782 130.452 222.341 128.497 222.833 126.496C223.011 125.77 223.177 125.03 223.241 124.279C223.518 121.029 224.902 118.522 226.774 116.297C227.947 114.903 229.096 113.454 229.81 111.625C231.052 108.447 230.506 103.514 226.99 101.84C225.159 100.967 223.271 101.075 221.398 101.777C220.12 102.257 218.977 103.035 217.87 103.923C217.656 104.095 217.373 104.575 217.082 103.982C217.05 103.721 217.113 103.478 217.194 103.246C218.11 100.575 218.385 97.7855 218.232 94.9222C218.2 94.3243 218.318 93.8291 218.618 93.3609C219.319 92.2661 219.819 91.0366 220.248 89.7582C220.863 87.9257 220.83 86.0359 220.615 84.1277C220.622 83.0935 220.711 82.056 220.622 81.0218C220.429 78.7851 219.584 77.1025 217.805 76.2284C217.546 76.1004 217.281 76.0111 216.999 75.9875C215.782 75.8882 215.073 76.8785 215.345 78.3219C215.557 79.4504 216.232 80.1982 216.873 80.9646C217.947 82.2463 219.194 83.2771 220.351 84.4409C220.767 85.4852 220.645 86.6086 220.514 87.6596C220.285 89.5056 219.687 91.2202 218.764 92.7394C218.391 93.3541 218.126 93.3541 217.941 92.6905C216.486 87.4406 213.186 84.5875 209.14 82.6741C208.65 82.4417 208.091 82.3912 207.687 81.9111C207.46 81.4783 207.506 80.9915 207.505 80.5199C207.499 77.6044 207.506 74.6889 207.501 71.7735C207.496 69.0988 206.28 67.6167 204.054 67.6116C198.586 67.5981 193.118 67.6082 187.65 67.6049C187.257 67.6049 186.862 67.6419 186.475 67.5291C186.077 67.3724 186.02 66.9328 185.93 66.532C185.667 65.353 185.219 64.2868 184.627 63.3015C183.987 62.2337 183.13 61.5633 182.079 61.2568C180.922 60.9183 179.919 61.8867 179.926 63.3217C179.931 64.1723 180.173 64.9083 180.66 65.5265C180.996 65.9526 181.367 66.3366 181.673 66.7964C181.827 67.0272 182.038 67.3118 181.632 67.5206C180.621 67.7059 179.605 67.6082 178.593 67.6032C177.188 67.5964 175.781 67.7042 174.379 67.5375C173.928 67.3606 173.865 66.8503 173.755 66.409C173.427 65.0852 172.839 63.9752 171.982 63.0674C171.772 62.8451 171.55 62.6497 171.307 62.4846C170.8 62.1427 170.295 62.0737 169.81 62.5116C169.315 62.9596 169.167 63.5828 169.284 64.2986C169.423 65.1559 169.721 65.9459 170.022 66.7341C170.133 67.0255 170.342 67.3573 169.899 67.5375C169.393 67.6722 168.88 67.6183 168.372 67.6183C123.522 67.6167 78.6656 67.6183 33.8102 67.6099C32.7634 67.6099 31.782 67.7261 30.9607 68.639C30.3064 69.3666 29.9681 70.2441 29.9208 71.3019C29.9041 71.6943 29.9124 72.0867 29.9124 72.4809C29.9124 94.7908 29.9124 117.099 29.911 139.409C29.911 139.941 29.95 140.477 29.8442 141.001C29.6396 141.572 29.4196 141.262 29.2512 140.984C28.9742 140.527 28.8183 139.995 28.6972 139.45C28.2879 137.605 28.3477 135.732 28.4438 133.851C28.544 131.896 28.6749 129.932 28.338 127.988C28.0735 126.462 27.4053 125.199 26.5381 124.065C25.384 122.556 24.0685 121.271 22.7293 120.02C21.3721 118.751 20.4115 117.145 19.7976 115.208C19.3243 113.715 18.8691 112.215 18.393 110.722C17.6511 108.398 16.5207 106.476 14.6024 105.368C14.3867 105.242 14.1096 105.149 14.0915 104.76Z" fill="#C9F5D8" fill-opacity="0.42"/>
<path d="M2.29019 119.183C3.18985 121.387 3.60673 123.692 3.73279 126.075C3.91473 129.499 3.34886 132.805 2.38474 136.06C1.89337 137.72 1.18424 139.299 0.61121 140.925C0.00809642 142.64 -0.109374 144.42 0.0883215 146.251C0.283152 148.058 0.652757 149.804 1.24871 151.512C2.39334 154.792 4.11959 157.707 6.32002 160.356C8.42734 162.893 10.8656 165.011 13.6591 166.693C16.7878 168.577 20.1372 169.848 23.7387 170.403C25.7185 170.707 27.7026 170.859 29.7011 170.832C30.4861 170.822 31.2554 170.661 32.0476 170.673C34.5131 170.712 36.7536 171.459 38.8724 172.719C41.4625 174.262 43.6458 176.33 45.8992 178.314C48.591 180.685 51.3416 182.968 54.5591 184.588C56.8484 185.743 59.2909 186.355 61.7607 186.843C65.504 187.583 69.3003 187.871 73.1067 187.724C76.5405 187.59 79.9658 187.342 83.3725 186.768C86.888 186.175 90.3635 185.415 93.7988 184.475C95.9978 183.874 98.1509 183.091 100.333 182.42C102.858 181.644 105.428 181.098 108.057 180.819C109.501 180.666 110.94 180.479 112.392 180.545C115.489 180.688 118.468 181.301 121.175 182.957C122.979 184.06 124.251 185.69 125.466 187.396C127.556 190.33 130.335 192.357 133.55 193.818C135.831 194.853 138.216 195.505 140.673 195.81C143.758 196.194 146.83 195.988 149.87 195.254C153.251 194.438 156.369 193.016 159.179 190.948C162.244 188.692 164.76 185.887 166.717 182.55C168.31 179.833 169.712 176.992 171.626 174.477C173.224 172.376 175.099 170.634 177.54 169.654C178.594 169.232 179.707 168.975 180.864 168.907C182.693 168.801 184.507 168.963 186.329 169.048C188.373 169.144 190.413 168.938 192.454 168.791C195.067 168.602 197.635 168.188 200.156 167.465C204.05 166.349 207.656 164.646 210.81 162.006C213.171 160.031 215.149 157.722 216.768 155.068C219.09 151.265 220.577 147.132 221.652 142.8C222.391 139.824 222.938 136.813 223.428 133.792C223.894 130.915 224.271 128.022 224.766 125.148C225.252 122.326 226.204 119.715 227.749 117.296C229.428 114.664 231.008 111.963 232.516 109.225C234.054 106.437 235.367 103.526 235.962 100.346C236.353 98.2592 236.373 96.1604 236.125 94.0366C235.803 91.2774 234.903 88.7065 233.736 86.2532C232.588 83.8411 231.176 81.5658 229.69 79.3494C228.451 77.5021 227.187 75.6709 225.945 73.8236C225.163 72.6603 224.399 71.4822 223.624 70.3144C223.53 70.1717 223.431 70.0378 223.444 69.8261C223.715 69.804 223.971 69.7834 224.228 69.7628C224.123 69.4113 223.821 69.451 223.576 69.4569C221.113 69.5172 218.676 69.1965 216.235 68.9421C216.023 68.92 215.762 68.8494 215.642 69.0642C215.496 69.3275 215.732 69.5216 215.89 69.6893C217.824 71.7542 219.384 74.1031 220.682 76.6181C222.531 80.1995 223.696 84.0206 224.139 88.0594C224.223 88.83 224.359 89.6007 224.282 90.3464C222.725 87.7417 220.632 85.6296 218.179 83.8735C216.827 82.9057 215.442 81.9865 213.93 81.304C212.816 80.7996 212.075 79.9671 211.564 78.8699C211.522 78.7816 211.483 78.6919 211.432 78.6081C211.297 78.3875 211.225 78.0168 210.933 78.0521C210.642 78.0874 210.648 78.461 210.584 78.7111C210.37 79.5509 210.372 79.5612 209.589 79.2685C207.303 78.411 205 77.6065 202.636 77.0005C202.341 76.9255 202.043 76.7873 201.728 76.924C201.282 77.8477 201.428 78.7287 202.17 79.32C204.832 81.4423 206.928 84.0809 208.792 86.9342C209.085 87.3843 209.292 87.877 209.498 88.3712C209.707 88.6992 210.008 88.9404 210.26 89.2286C211.131 90.2317 211.386 91.9275 210.829 93.0262C210.915 93.4792 211.323 93.5057 211.629 93.6601C212.678 94.1866 213.75 94.6617 214.638 95.4765C216.023 96.7473 216.599 98.4548 217.105 100.202C217.288 100.836 217.459 101.482 217.525 102.138C217.81 104.976 219.234 107.165 221.16 109.108C222.368 110.326 223.55 111.59 224.285 113.188C225.563 115.963 225.001 120.271 221.382 121.733C219.499 122.495 217.556 122.401 215.628 121.787C214.313 121.368 213.137 120.689 211.998 119.914C211.777 119.764 211.486 119.344 211.187 119.862C211.154 120.09 211.218 120.302 211.301 120.505C212.244 122.838 212.528 125.273 212.37 127.773C212.337 128.296 212.459 128.728 212.767 129.137C213.489 130.093 214.003 131.167 214.445 132.283C215.078 133.883 215.043 135.533 214.823 137.2C214.83 138.103 214.922 139.009 214.83 139.912C214.631 141.865 213.761 143.334 211.93 144.098C211.664 144.209 211.392 144.287 211.101 144.308C209.849 144.395 209.12 143.53 209.399 142.269C209.617 141.284 210.312 140.631 210.972 139.962C212.076 138.843 213.36 137.942 214.55 136.926C214.979 136.014 214.853 135.033 214.718 134.115C214.483 132.503 213.867 131.006 212.917 129.68C212.533 129.143 212.261 129.143 212.071 129.722C210.574 134.307 207.177 136.798 203.014 138.469C202.51 138.672 201.934 138.716 201.518 139.135C201.285 139.513 201.332 139.938 201.331 140.35C201.325 142.896 201.332 145.442 201.326 147.988C201.322 150.324 200.07 151.618 197.779 151.622C192.152 151.634 186.525 151.625 180.898 151.628C180.494 151.628 180.087 151.596 179.689 151.694C179.279 151.831 179.22 152.215 179.129 152.565C178.858 153.595 178.397 154.526 177.788 155.386C177.129 156.318 176.246 156.904 175.165 157.171C173.974 157.467 172.943 156.621 172.95 155.368C172.954 154.626 173.204 153.983 173.705 153.443C174.05 153.071 174.433 152.736 174.748 152.334C174.905 152.133 175.123 151.884 174.705 151.702C173.665 151.54 172.619 151.625 171.578 151.63C170.132 151.635 168.684 151.541 167.241 151.687C166.777 151.841 166.713 152.287 166.599 152.672C166.261 153.828 165.657 154.798 164.774 155.59C164.558 155.785 164.33 155.955 164.079 156.099C163.558 156.398 163.038 156.458 162.539 156.076C162.029 155.685 161.878 155.14 161.998 154.515C162.141 153.767 162.448 153.077 162.757 152.388C162.872 152.134 163.087 151.844 162.631 151.687C162.11 151.569 161.582 151.616 161.06 151.616C114.905 151.618 68.743 151.616 22.5826 151.624C21.5053 151.624 20.4953 151.522 19.6501 150.725C18.9768 150.09 18.6287 149.323 18.58 148.4C18.5628 148.057 18.5714 147.714 18.5714 147.37C18.5714 127.888 18.5714 108.408 18.57 88.9257C18.57 88.4609 18.6101 87.9932 18.5012 87.5358C18.2906 87.0372 18.0643 87.3078 17.8909 87.5505C17.6058 87.949 17.4454 88.4138 17.3208 88.8903C16.8996 90.5008 16.9612 92.1364 17.06 93.7792C17.1632 95.4868 17.2978 97.2017 16.9512 98.899C16.679 100.232 15.9913 101.335 15.0988 102.324C13.9112 103.642 12.5575 104.765 11.1793 105.857C9.78255 106.965 8.79408 108.368 8.16231 110.059C7.67524 111.362 7.20678 112.673 6.71684 113.976C5.95328 116.006 4.79003 117.684 2.81595 118.652C2.5939 118.762 2.30881 118.843 2.29019 119.183Z" fill="#E7F7EF"/>
<path d="M127.508 102.395C122.195 105.784 116.877 109.167 111.567 112.561C97.3415 121.653 83.1171 130.751 68.8927 139.845C67.1025 140.989 65.3092 142.133 63.5174 143.276C63.1763 143.177 63.1941 142.834 63.1229 142.556C62.6794 140.805 62.095 139.142 61.0181 137.716C60.2839 136.743 59.3584 136.085 58.3958 135.474C56.7449 134.426 55.0925 133.383 53.458 132.305C50.6042 130.424 47.6689 130.557 44.6846 131.786C42.1719 132.821 40.0271 134.514 37.998 136.421C36.3487 137.972 34.9752 139.794 33.618 141.64C33.4237 141.904 33.216 142.566 32.7711 141.86C32.6569 141.318 32.6984 140.768 32.6984 140.222C32.6969 109.525 32.6969 78.8285 32.6969 48.1316C32.6969 47.831 32.6717 47.5271 32.7013 47.2298C32.8052 46.2097 32.4774 45.4919 31.5993 45.073C31.2211 44.8924 30.8413 44.6607 30.607 44.2435C30.7138 43.8329 31.0357 43.6604 31.3293 43.4731C38.7723 38.7112 46.2168 33.9526 53.6627 29.1989C54.9917 28.3497 56.9896 29.1365 57.5162 30.7594C58.2059 32.8849 58.8378 35.0335 59.4934 37.1721C60.367 38.0673 60.3685 38.0706 61.4765 37.3807C62.0787 37.0062 62.6616 36.5923 63.2727 36.2375C64.0232 35.8006 64.1626 35.8925 64.1626 36.8075C64.1641 44.2928 64.1641 51.7798 64.1626 59.2635C64.2309 59.7513 63.9817 60.0371 63.6302 60.2359C61.254 61.5861 59.0143 63.2008 56.6663 64.6069C55.4723 65.3214 54.3509 66.1805 53.148 66.8835C52.709 67.1397 52.7698 67.3845 53.1614 67.621C53.2044 67.6473 53.2474 67.6769 53.2859 67.7114C54.1418 68.4637 54.8834 68.5113 55.9232 67.8247C59.7425 65.3066 63.6094 62.8756 67.4644 60.4248C70.8699 58.2598 74.2503 56.0456 77.6528 53.8741C81.1845 51.6204 84.7176 49.3684 88.2477 47.1115C91.7334 44.8825 95.2413 42.6945 98.6987 40.4113C100.884 38.9691 103.125 37.6321 105.314 36.1997C108.844 33.8902 112.407 31.6448 115.959 29.3813C119.021 27.4315 122.079 25.4752 125.148 23.5402C127.682 21.9436 130.172 20.2648 132.707 18.6699C135.822 16.7119 138.908 14.6997 142.02 12.7384C146.507 9.91152 150.957 7.0074 155.429 4.15091C156.67 3.35754 157.903 2.54774 159.155 1.77571C159.383 1.63445 159.594 1.39463 159.899 1.53754C159.978 3.1785 159.434 4.70119 159.112 6.25509C155.399 24.1463 151.655 42.0293 147.922 59.9156C147.894 60.047 147.898 60.1866 147.888 60.323C147.811 60.7681 147.449 60.8896 147.161 61.0753C142.791 63.8841 138.404 66.6585 134.039 69.4772C132.377 70.5498 130.695 71.5797 129.039 72.6605C128.604 72.9447 128.221 73.2716 128.039 73.8202C127.803 74.446 127.818 75.1047 127.818 75.7618C127.818 84.1587 127.821 92.5557 127.811 100.951C127.811 101.444 127.965 102.006 127.508 102.395Z" fill="#7EF520" fill-opacity="0.53"/>
<path d="M127.994 73.4423C128.204 72.8953 128.662 72.6588 129.085 72.3878C134.997 68.6098 140.912 64.8367 146.824 61.0588C147.186 60.8272 147.535 60.5676 147.889 60.3229C149.678 59.3997 151.329 58.2039 153.038 57.1231C158.303 53.7935 163.541 50.4098 168.79 47.0523C174.125 43.6406 179.463 40.2339 184.802 36.8255C185.377 36.4575 185.945 36.0732 186.534 35.7315C188.311 34.6999 190.008 35.8235 190.011 38.0443C190.02 43.9264 190.014 49.8086 190.015 55.6907C190.015 56.0455 190.035 56.4003 190.045 56.7551C190.216 57.1001 190.264 57.4713 190.264 57.8606C190.263 59.9057 190.269 61.9523 190.26 63.9974C190.259 64.3489 190.272 64.7135 190.038 65.0059C190.039 67.3631 190.039 69.7202 190.04 72.0757C190.402 73.1943 190.306 74.3507 190.125 75.466C190 76.2364 189.318 76.4352 188.673 76.4894C187.485 76.5896 186.312 76.335 185.131 76.2692C185.033 76.2643 184.937 76.2315 184.837 76.2233C184.211 76.174 183.566 76.1329 183.167 76.8047C182.756 77.4946 182.747 78.2404 183.062 78.9943C183.431 79.8813 184.107 80.3528 184.898 80.6632C186.304 81.2151 187.771 81.4402 189.247 81.6143C189.53 81.6471 189.854 81.565 190.043 81.9132C190.035 86.1265 190.018 90.3398 190.017 94.5514C190.015 109.681 190.021 124.811 190.017 139.941C190.017 140.971 189.588 141.773 188.775 142.294C184.554 144.997 180.333 147.701 176.108 150.4C169.03 154.924 161.949 159.446 154.87 163.966C147.022 168.978 139.174 173.991 131.321 178.993C130.992 179.203 130.679 179.528 130.239 179.416C129.792 179.349 129.62 179.021 129.577 178.567C129.543 178.212 129.55 177.856 129.55 177.501C129.55 144.063 129.55 110.623 129.55 77.1842C129.55 77.0478 129.53 76.9049 129.555 76.7752C129.776 75.6023 129.445 74.7646 128.408 74.2883C128.116 74.1552 127.861 73.8858 127.994 73.4423Z" fill="#06E6D8"/>
<path d="M32.9639 142.182C34.1935 140.51 35.3964 138.811 36.8218 137.333C39.5287 134.526 42.4671 132.139 46.1307 131.066C48.7561 130.298 51.239 130.585 53.5944 132.144C55.4129 133.348 57.2596 134.499 59.0929 135.675C61.5328 137.241 62.6927 139.762 63.3364 142.665C63.3839 142.877 63.3973 143.095 63.5174 143.279C63.6049 144.309 63.7547 145.337 63.7681 146.367C63.8215 150.789 62.9271 155.006 61.4186 159.078C59.5141 164.217 56.8368 168.805 53.2637 172.708C50.5716 175.648 47.5502 178.063 43.8183 179.163C41.1262 179.957 38.575 179.692 36.1632 178.005C34.5628 176.885 32.9001 175.867 31.2285 174.878C28.5883 173.319 27.1985 170.78 26.5651 167.672C25.5165 162.516 26.4183 157.557 27.9416 152.683C28.5378 150.774 29.3121 148.948 30.1739 147.169C30.3578 146.788 30.4349 146.426 30.4349 146.004C30.432 112.503 30.4349 79.0008 30.4423 45.4999C30.4423 45.1517 30.3563 44.7903 30.5165 44.4536C30.7909 44.6425 30.782 44.9579 30.8013 45.2552C30.8265 45.6379 30.8131 46.0207 30.8131 46.405C30.8131 79.1141 30.8131 111.823 30.8161 144.532C30.8161 144.771 30.7672 145.015 30.8858 145.345C31.3427 144.475 31.7728 143.662 32.286 142.91C32.4759 142.624 32.6272 142.295 32.9639 142.182Z" fill="#06E5D8"/>
<path d="M205.578 152.322C205.141 150.996 205.167 149.589 205.011 148.219C204.403 142.882 203.93 137.524 203.237 132.2C202.62 127.458 202.744 122.724 202.881 117.97C203.031 112.697 203.281 107.431 203.522 102.165C203.603 100.365 203.74 98.5677 203.854 96.7214C204.363 96.7674 204.741 97.1452 205.181 97.3357C208.139 98.6137 211.226 98.8666 214.351 98.7533C216.901 98.6613 219.407 98.2621 221.781 97.1468C222.835 96.6507 223.796 96.0052 224.544 94.8291C224.898 96.5226 225.004 98.1324 225.072 99.7503C225.269 104.437 224.792 109.077 224.336 113.721C223.945 117.712 223.611 121.712 223.25 125.708C223.123 127.123 223.031 128.542 222.847 129.946C222.728 130.858 223.025 131.668 223.164 132.519C223.296 133.323 223.448 134.125 223.592 134.928C223.869 135.099 223.876 135.411 223.916 135.702C224.048 136.638 224.129 137.581 224.206 138.524C224.212 138.816 224.18 139.109 224.216 139.401C224.268 140.847 224.185 142.284 224.014 143.716C223.635 146.785 223.231 149.848 222.84 152.915C222.734 153.319 222.703 153.738 222.657 154.152C222.487 155.244 222.389 156.348 222.2 157.437C222.128 157.857 222.099 158.303 221.804 158.636C220.658 159.336 219.447 159.234 218.231 158.956C217.946 158.891 217.663 158.769 217.507 158.452C217.105 157.889 217.239 157.197 217.2 156.574C216.726 148.858 215.907 141.178 215.188 133.489C214.806 129.417 214.188 125.373 214.059 121.27C213.912 116.602 213.721 111.934 213.7 107.121C213.284 109.32 213.133 111.428 212.88 113.519C212.39 117.551 211.964 121.592 211.45 125.621C211.279 126.953 211.493 128.241 211.586 129.539C211.813 132.689 211.669 135.822 211.343 138.949C210.901 143.181 210.34 147.396 209.768 151.607C209.738 151.824 209.75 152.047 209.582 152.208C208.642 153.266 206.496 153.329 205.578 152.322Z" fill="#E11AA9"/>
<path d="M159.901 1.53737C157.344 3.22596 154.733 4.81272 152.176 6.50788C149.241 8.45436 146.233 10.2612 143.266 12.1486C140.789 13.7255 138.333 15.3385 135.859 16.9203C132.6 19.0032 129.326 21.0613 126.069 23.1474C122.495 25.4372 118.936 27.7599 115.357 30.0447C112.435 31.9091 109.466 33.6847 106.575 35.6049C104.761 36.809 102.91 37.9374 101.091 39.1316C98.5133 40.8268 95.8864 42.4283 93.2908 44.0873C90.563 45.8301 87.8487 47.5943 85.1254 49.3453C82.9317 50.7563 80.735 52.1607 78.5398 53.5684C75.5184 55.505 72.5 57.445 69.4741 59.3734C67.2359 60.7991 64.9829 62.197 62.7476 63.631C60.1727 65.2834 57.6081 66.9556 55.0495 68.6409C54.8315 68.7855 54.6757 68.8758 54.4592 68.7116C53.8095 68.2204 53.056 67.9116 52.4375 67.2841C52.9477 66.5269 53.7709 66.2641 54.4458 65.8124C56.9941 64.1073 59.615 62.5354 62.1765 60.8534C62.8218 60.4296 63.6375 60.2817 64.0899 59.5163C64.1433 59.4243 64.2012 59.4194 64.2664 59.5015C72.1648 54.462 80.0675 49.4307 87.9599 44.3797C95.707 39.4223 103.439 34.4354 111.188 29.4797C117.41 25.4996 123.648 21.5492 129.875 17.5774C131.545 16.5113 133.204 15.4206 134.866 14.3414C134.908 14.233 134.952 14.1263 135.041 14.054C135.955 13.4939 136.857 12.9091 137.757 12.3227C137.965 12.188 138.152 11.9991 138.416 12.0106C139.728 11.416 140.897 10.5306 142.119 9.75531C147.093 6.6048 152.048 3.41979 157.008 0.243C157.479 -0.0575961 157.968 -0.103589 158.401 0.243C158.913 0.65365 159.68 0.712784 159.901 1.53737Z" fill="#1BEA24"/>
<path d="M221.687 158.577C222.125 157.325 222.131 155.985 222.352 154.687C222.383 154.505 222.332 154.304 222.458 154.145C223.118 152.369 224.241 150.966 225.409 149.592C226.092 148.788 226.969 148.696 227.863 148.718C230.251 148.775 232.433 149.521 234.322 151.187C232.429 149.523 230.256 148.755 227.853 148.7C227.549 148.693 227.1 148.884 226.978 148.498C226.841 148.064 227.297 147.875 227.568 147.666C230.818 145.168 234.458 143.933 236.597 143.755C232.543 144.173 227.481 146.436 223.737 151.664C223.399 152.138 223.264 152.829 222.639 153.025C222.96 149.932 223.377 146.853 223.816 143.778C224.086 142.105 224.977 140.994 226.365 140.344C226.701 140.186 227.037 139.977 227.424 140.155C228.716 140.078 229.893 140.556 231.049 141.103C232.604 141.837 234.154 142.06 235.849 141.587C237.362 141.165 238.89 141.411 240.207 142.51C240.913 143.1 241.336 143.895 241.463 144.841C241.594 145.804 241.189 146.559 240.447 147.031C239.832 147.422 239.166 147.714 238.522 148.051C237.211 148.734 236.747 149.715 236.985 151.28C237.055 151.737 237.123 152.193 237.165 152.653C237.362 154.859 236.529 155.814 234.514 156.106C233.455 156.259 232.405 156.116 231.354 156.08C230.21 156.042 229.353 156.555 228.777 157.635C228.503 158.151 228.248 158.683 228.013 159.224C226.892 161.814 224.995 162.995 222.448 163.008C222.275 163.01 222.102 163.008 221.929 163.008C221.57 162.88 221.441 162.537 221.307 162.197C221.224 160.963 221.156 159.731 221.687 158.577Z" fill="#008F06"/>
<path d="M32.9638 142.182C32.2237 143.527 31.3679 144.789 30.5832 146.17C30.5699 145.919 30.5461 145.667 30.5461 145.414C30.5461 112.088 30.5476 78.7593 30.5476 45.4325C30.5476 45.1057 30.5269 44.7788 30.5165 44.4519C30.5461 44.3829 30.5758 44.3139 30.604 44.2466C31.3041 44.465 31.8588 44.9923 32.4951 45.3488C32.817 45.5295 32.9891 45.8711 32.9431 46.308C32.9238 46.4969 32.9401 46.6908 32.9401 46.883C32.9401 78.1844 32.9401 109.487 32.9416 140.789C32.9416 141.252 32.9564 141.717 32.9638 142.182Z" fill="#1BEA24"/>
<path d="M127.994 73.4424C128.032 73.9697 128.459 74.0321 128.769 74.221C129.46 74.6448 130.209 75.0111 129.807 76.1609C129.749 76.3284 129.798 76.5403 129.798 76.7325C129.798 110.508 129.798 144.283 129.797 178.058C129.797 178.572 129.724 179.111 130.239 179.418C129.068 180.065 127.644 178.814 127.549 177.435C127.524 177.054 127.541 176.67 127.541 176.287C127.541 151.929 127.541 127.571 127.539 103.213C127.539 102.94 127.518 102.668 127.506 102.395C127.521 102.014 127.548 101.633 127.548 101.253C127.551 92.5968 127.551 83.9402 127.547 75.2837C127.548 74.6201 127.572 73.9746 127.994 73.4424Z" fill="#26B8A1"/>
<path d="M210.638 62.6042C208.612 62.6042 206.588 62.5894 204.562 62.6157C204.093 62.6222 203.931 62.5023 203.934 61.9438C203.958 58.1412 203.86 54.3369 203.97 50.5376C204.097 46.0812 206.086 42.8289 209.803 41.1403C213.547 39.4385 216.996 40.2681 219.99 43.3052C220.118 43.4334 220.234 43.5763 220.361 43.7044C220.394 43.7372 220.452 43.7422 220.498 43.7602C220.814 42.479 221.625 41.9386 222.458 42.4609C222.65 42.5808 222.883 42.7221 222.917 42.9669C222.963 43.2855 222.642 43.2888 222.473 43.4186C222.353 43.5106 222.22 43.5828 222.04 43.6978C222.54 44.0329 223.061 44.3171 223.095 45.0464C223.118 45.5457 223.075 45.889 222.5 45.572C222.2 45.4061 221.868 45.3125 221.393 45.1219C223.207 48.7127 223.295 52.2525 221.815 55.812C220.735 58.4073 219.008 60.3259 216.628 61.4839C216.393 61.387 216.387 61.1488 216.382 60.9386C216.35 60.0088 216.356 59.0808 216.377 58.1511C216.387 57.6616 216.571 57.4332 217.064 57.4349C218.513 57.4382 219.677 56.0633 219.621 54.4782C219.571 53.0968 218.415 52.3609 217.303 52.9999C217.126 53.1017 216.972 53.2397 216.824 53.3826C216.481 53.716 216.144 53.7292 215.874 53.307C214.802 51.625 213.222 50.8234 211.536 50.2058C209.677 49.5258 208.233 48.2889 207.248 46.3999C206.95 45.8266 206.82 45.8348 206.497 46.3999C206.18 46.9567 205.944 47.5612 205.782 48.1953C204.989 51.3047 205.051 54.4552 205.428 57.6172C205.496 58.1856 205.665 58.7375 205.88 59.2615C206.37 60.4491 207.098 61.2408 208.394 61.0995C208.81 61.0535 209.232 61.1045 209.651 61.0503C210.008 61.0043 210.438 60.8022 210.678 61.2227C210.923 61.6498 210.935 62.1541 210.638 62.6042Z" fill="#EB4D65"/>
<path d="M190.043 81.913C188.378 81.7898 186.724 81.5829 185.125 81.0228C184.245 80.7156 183.428 80.2655 182.949 79.3259C182.476 78.3946 182.457 77.4271 183.011 76.5499C183.489 75.7927 184.254 75.906 184.968 75.9849C186.095 76.1097 187.218 76.2806 188.354 76.2723C189.689 76.2625 190.015 75.9011 190.018 74.454C190.02 73.6623 190.033 72.8689 190.04 72.0771C190.818 72.271 191.184 72.8837 191.341 73.682C191.484 74.4113 191.722 75.0897 192.065 75.7303C192.584 76.7027 193.32 77.3138 194.329 77.547C197.59 78.3059 200.89 78.7773 204.197 79.2093C205.348 79.3588 206.502 79.4886 207.65 79.6578C208.101 79.7251 208.428 79.6315 208.761 79.2438C210.509 77.1988 212.288 75.1833 214.056 73.158C214.296 73.1054 214.339 73.3305 214.412 73.4865C215.124 75.0158 216.226 76.1179 217.536 76.9935C217.764 77.1462 218.025 77.2711 218.086 77.6111C215.793 80.0175 213.507 82.4321 211.202 84.8254C210.395 85.6631 209.453 85.9391 208.333 85.6861C203.001 84.4755 197.663 83.2961 192.32 82.1364C191.579 81.9755 190.804 81.982 190.043 81.913Z" fill="#FCF0BC"/>
<path d="M210.638 62.6043C210.724 61.195 210.724 61.195 209.508 61.3165C206.831 61.5843 205.834 60.873 205.293 57.9229C204.659 54.4767 204.753 51.0223 205.727 47.6419C205.968 46.8074 206.31 46.0223 207.044 45.4375C207.602 46.8469 208.37 48.0295 209.514 48.8705C210.428 49.5424 211.442 49.9563 212.472 50.3456C213.934 50.8975 215.199 51.7648 216.046 53.2399C216.264 53.6193 216.364 53.5585 216.62 53.2793C217.427 52.4005 218.359 52.2724 219.155 52.8752C219.86 53.409 220.075 54.4291 219.716 55.5329C219.259 56.939 218.292 57.7044 216.917 57.6568C216.491 57.642 216.622 57.9229 216.62 58.12C216.613 59.2419 216.625 60.3638 216.629 61.4857C216.623 61.6221 216.588 61.7666 216.617 61.8931C217.175 64.3061 215.81 65.7614 214.47 67.2381C213.43 68.3846 212.234 69.1041 210.724 69.045C209.079 68.9793 208.556 68.0463 209.269 66.402C209.492 65.8879 209.728 65.3458 210.076 64.9417C210.668 64.2502 210.753 63.4716 210.638 62.6043Z" fill="#FCF0BC"/>
<path d="M227.427 140.153C226.232 140.548 225.142 141.111 224.45 142.351C224.197 142.806 224.261 143.429 223.819 143.777C223.943 142.29 224.019 140.802 224.014 139.307C224.143 138.92 224.335 138.576 224.565 138.251C227.263 134.449 230.478 131.388 234.603 129.624C234.741 129.565 234.876 129.499 235.017 129.447C235.204 129.376 235.394 129.319 235.575 129.237C234.277 129.59 233.076 130.206 231.923 130.945C229.16 132.717 226.801 135.009 224.814 137.777C224.599 138.075 224.458 138.522 224.007 138.537C223.866 137.333 223.727 136.129 223.586 134.927C224.182 134.13 224.756 133.31 225.377 132.538C227.467 129.943 229.894 127.911 233.016 127.093C234.715 126.65 236.345 126.778 237.82 127.924C239.465 129.202 239.513 131.283 237.914 132.645C236.736 133.649 235.379 134.324 234.071 135.079C231.837 136.369 229.743 137.888 227.797 139.656C227.65 139.789 227.549 139.986 227.427 140.153Z" fill="#008F06"/>
<path d="M218.087 77.6112C216.826 76.762 215.567 75.9046 214.741 74.487C214.492 74.0599 214.284 73.6017 214.057 73.1565C214.011 72.8116 214.087 72.5307 214.315 72.2646C215.947 70.3641 217.553 68.4373 219.197 66.55C219.817 65.8371 220.563 65.2638 221.471 65.1127C223.231 64.8203 224.471 66.1574 224.581 68.3355C224.67 70.0816 224.031 71.532 223.12 72.8493C222.058 74.3868 220.874 75.8208 219.833 77.3731C219.259 78.2305 218.713 77.9398 218.087 77.6112Z" fill="#1A88E1"/>
<path d="M190.039 65.0042C190.042 62.2545 190.043 59.5048 190.046 56.7534C191.749 58.8362 193.462 60.9092 195.146 63.0101C195.557 63.5226 196.003 63.7493 196.62 63.7476C198.025 63.746 199.431 63.8067 200.836 63.8429C200.925 63.9595 200.93 64.0975 200.886 64.2273C200.293 65.9471 200.391 67.7046 200.632 69.4737C200.658 69.6626 200.675 69.8564 200.534 70.0109C198.542 69.8581 196.55 69.702 194.558 69.5559C193.97 69.5131 193.554 69.1567 193.175 68.705C192.132 67.4698 191.085 66.2394 190.039 65.0042Z" fill="#FCF0BC"/>
<path d="M221.687 158.577C221.558 159.807 221.395 161.034 221.473 162.279C221.656 162.662 221.591 163 221.367 163.345C220.127 165.251 218.894 167.164 217.555 168.984C216.712 170.129 215.652 170.952 214.275 171.18C213.716 171.274 213.19 171.179 212.678 170.977C212.053 170.73 211.929 170.384 212.125 169.645C213.661 168.151 215.033 166.499 216.275 164.692C217.199 163.347 217.728 161.954 217.516 160.244C217.443 159.656 217.504 159.048 217.504 158.45C218.884 159.091 220.279 159.045 221.687 158.577Z" fill="#FCF0BC"/>
<path d="M205.578 152.322C206.929 153.017 208.259 152.898 209.576 152.205C209.539 153.071 209.502 153.935 209.465 154.8C209.699 155.224 209.544 155.599 209.323 155.942C208.031 157.944 206.786 159.994 205.313 161.837C204.238 163.183 202.869 163.953 201.162 163.689C200.257 163.549 199.929 163.169 200.009 162.301C201.647 160.766 203.086 159.033 204.354 157.115C205.164 155.891 205.773 154.636 205.551 153.053C205.52 152.816 205.567 152.566 205.578 152.322Z" fill="#FCF0BC"/>
<path d="M200.011 162.301C200.103 163.168 200.618 163.426 201.328 163.516C203.074 163.736 204.324 162.779 205.373 161.428C206.755 159.644 207.94 157.688 209.197 155.793C209.4 155.485 209.477 155.163 209.465 154.799C210.233 155.827 210.281 157.089 210.355 158.324C210.404 159.158 209.757 159.564 209.263 159.965C208.087 160.918 207.231 162.122 206.441 163.472C204.883 166.133 202.656 167.375 199.739 166.787C199.667 166.772 199.593 166.767 199.52 166.747C197.862 166.307 197.571 165.38 198.621 163.884C199.032 163.299 199.493 162.77 200.011 162.301Z" fill="#1A88E1"/>
<path d="M212.123 169.643C212.009 170.449 212.415 170.765 213.058 170.903C215.018 171.327 216.392 170.213 217.513 168.682C218.813 166.906 219.984 165.017 221.224 163.188C221.416 162.905 221.485 162.613 221.472 162.276C221.776 162.402 221.77 162.77 221.932 163.007C222.074 163.835 222.343 164.631 222.378 165.486C222.399 165.987 222.303 166.419 221.935 166.721C220.274 168.091 219.097 169.907 217.868 171.727C216.301 174.045 214.044 174.794 211.468 174.158C209.895 173.771 209.593 172.821 210.572 171.392C211.021 170.742 211.552 170.169 212.123 169.643Z" fill="#1A88E1"/>
<path d="M200.535 70.0125C200.081 67.9231 199.95 65.8535 200.836 63.8446C202.607 63.6902 204.375 63.8511 206.144 63.9218C207.049 63.9579 207.957 63.9283 209.085 63.9283C208.465 64.4622 208.004 64.8351 207.567 65.2408C206.04 66.6551 204.722 68.2549 203.976 70.3394C203.835 70.732 203.654 70.888 203.271 70.8552C202.78 70.8141 202.283 70.7977 201.794 70.842C201.172 70.8995 200.742 70.6844 200.535 70.0125Z" fill="#1A88E1"/>
<path d="M64.2664 59.4998C64.2071 59.5048 64.1493 59.5097 64.0899 59.5146C64.0899 51.7353 64.0899 43.9575 64.0899 36.1207C63.3987 36.28 62.9434 36.7744 62.3975 37.0619C61.7805 37.3871 61.1694 37.76 60.6251 38.2117C60.0851 38.6602 59.9027 38.353 59.7292 37.8553C59.6491 37.6286 59.5719 37.3986 59.4948 37.1703C59.8093 37.2968 60.0036 37.0258 60.2261 36.8829C61.3533 36.1535 62.4851 35.4357 63.5871 34.6621C64.1418 34.2728 64.2442 34.3877 64.2427 35.0842C64.2294 42.8964 64.2397 50.707 64.2442 58.5192C64.2412 58.8461 64.2575 59.173 64.2664 59.4998Z" fill="#1BEA24"/>
<path d="M182.016 60.8009C181.952 61.7438 181.641 62.5142 180.855 63.0152C170.467 69.6414 160.083 76.2726 149.7 82.9087C145.713 85.4564 141.735 88.0205 137.747 90.5649C137.363 90.8096 136.944 91.3385 136.493 90.9082C136.075 90.509 136.16 89.875 136.29 89.2984C136.471 88.5018 136.93 87.9942 137.561 87.5934C143.069 84.0914 148.569 80.5762 154.069 77.0578C162.916 71.399 171.759 65.7337 180.608 60.0782C180.933 59.8712 181.263 59.5033 181.688 59.7694C182.04 59.9928 182.028 60.4034 182.016 60.8009Z" fill="#F8F7F7"/>
<path d="M182.01 117.563C181.971 118.305 181.546 119.077 180.694 119.618C175.823 122.712 170.964 125.83 166.102 128.941C156.675 134.971 147.249 141.006 137.812 147.023C137.418 147.274 136.97 147.856 136.492 147.41C135.974 146.926 136.178 146.193 136.345 145.569C136.547 144.817 137.082 144.386 137.677 144.007C141.904 141.318 146.124 138.614 150.347 135.916C160.46 129.452 170.573 122.99 180.687 116.528C181.616 115.935 182.004 116.148 182.01 117.563Z" fill="#F8F7F7"/>
<path d="M182.01 89.259C181.96 89.9571 181.664 90.7439 180.877 91.2465C171.423 97.2798 161.968 103.315 152.519 109.356C147.615 112.492 142.72 115.647 137.812 118.775C137.416 119.028 136.977 119.606 136.492 119.158C135.998 118.701 136.17 118.003 136.335 117.397C136.52 116.712 136.933 116.237 137.495 115.879C142.022 112.996 146.54 110.097 151.062 107.206C159.211 101.999 167.36 96.7936 175.51 91.5865C177.259 90.4696 179.006 89.3477 180.761 88.2406C181.623 87.6952 182.003 87.9367 182.01 89.259Z" fill="#F8F7F7"/>
<path d="M182.012 98.4442C181.998 99.6104 181.418 100.336 180.542 100.892C176.673 103.342 172.814 105.813 168.955 108.282C158.486 114.975 148.018 121.671 137.551 128.366C137.226 128.574 136.887 128.832 136.522 128.592C136.118 128.328 136.179 127.83 136.216 127.4C136.298 126.465 136.735 125.792 137.477 125.32C140.891 123.147 144.297 120.954 147.708 118.773C154.957 114.138 162.206 109.504 169.454 104.87C173.207 102.47 176.958 100.067 180.715 97.6738C181.629 97.0939 182.013 97.337 182.012 98.4442Z" fill="#F8F7F7"/>
<path d="M182.007 51.699C181.955 52.3839 181.57 53.133 180.77 53.6405C177.587 55.6626 174.416 57.7043 171.239 59.7362C161.583 65.9157 151.927 72.0968 142.271 78.2763C140.651 79.3128 139.034 80.3525 137.409 81.3775C136.615 81.8769 136.195 81.6009 136.212 80.5759C136.227 79.546 136.633 78.774 137.465 78.2434C145.423 73.1661 153.371 68.0708 161.326 62.9869C167.786 58.8574 174.248 54.7329 180.712 50.6099C181.604 50.04 182.012 50.2946 182.007 51.699Z" fill="#F8F7F7"/>
<path d="M182.006 79.9517C181.975 80.6186 181.573 81.3643 180.776 81.8719C177.385 84.0385 174.005 86.2232 170.616 88.3897C159.614 95.4234 148.61 102.452 137.607 109.482C137.253 109.709 136.895 110.092 136.471 109.734C136.086 109.408 136.166 108.881 136.232 108.438C136.356 107.63 136.703 106.977 137.385 106.542C146.261 100.882 155.129 95.2115 163.999 89.5396C169.521 86.008 175.042 82.4731 180.564 78.9415C180.628 78.9004 180.694 78.8643 180.76 78.8249C181.598 78.3091 182.015 78.5736 182.006 79.9517Z" fill="#F8F7F7"/>
<path d="M182.013 136.096C181.998 137.182 181.506 137.926 180.672 138.457C176.619 141.04 172.568 143.632 168.517 146.223C158.391 152.7 148.263 159.176 138.137 165.653C137.86 165.831 137.585 166.016 137.299 166.172C136.605 166.552 136.221 166.29 136.21 165.418C136.197 164.275 136.673 163.47 137.575 162.902C140.635 160.975 143.681 159.022 146.728 157.072C155.829 151.249 164.928 145.423 174.026 139.598C176.285 138.153 178.544 136.709 180.807 135.27C181.568 134.787 182.012 135.097 182.013 136.096Z" fill="#F8F7F7"/>
<path d="M182.012 108.338C182.001 108.896 181.547 109.642 180.737 110.161C173.484 114.795 166.234 119.433 158.983 124.069C151.878 128.611 144.776 133.156 137.667 137.688C137.329 137.903 136.971 138.355 136.538 138.003C136.066 137.622 136.181 137.039 136.274 136.493C136.425 135.621 136.921 135.066 137.597 134.636C143.362 130.966 149.123 127.29 154.881 123.607C163.477 118.111 172.069 112.612 180.663 107.111C181.552 106.542 182.001 106.785 182.012 108.338Z" fill="#F8F7F7"/>
<path d="M182.012 126.643C182.015 127.807 181.461 128.558 180.582 129.116C176.352 131.802 172.13 134.501 167.907 137.198C158.29 143.343 148.673 149.488 139.057 155.635C138.46 156.016 137.876 156.426 137.265 156.776C136.645 157.133 136.246 156.88 136.213 156.114C136.167 155.019 136.545 154.171 137.435 153.604C141.511 151.004 145.575 148.384 149.649 145.781C159.328 139.591 169.011 133.405 178.692 127.218C179.395 126.768 180.089 126.299 180.801 125.869C181.629 125.368 182.004 125.618 182.012 126.643Z" fill="#F8F7F7"/>
<path d="M182.012 70.1538C182.007 71.2429 181.532 71.9985 180.693 72.534C177.639 74.4788 174.592 76.4384 171.541 78.3866C163.647 83.4293 155.751 88.4705 147.857 93.5149C144.444 95.6963 141.032 97.8842 137.621 100.067C137.262 100.297 136.884 100.645 136.473 100.297C136.093 99.9736 136.179 99.4513 136.237 98.993C136.35 98.0846 136.838 97.4719 137.539 97.0235C143.582 93.17 149.623 89.3148 155.662 85.4547C162.827 80.8735 169.99 76.284 177.155 71.6995C178.372 70.9209 179.583 70.1325 180.81 69.3752C181.621 68.8759 182.006 69.1404 182.012 70.1538Z" fill="#F8F7F7"/>
<path d="M50.1489 152.484C51.3429 151.721 52.4064 151.045 53.4654 150.364C54.2886 149.835 54.4562 149.925 54.4622 150.942C54.4711 152.284 54.4518 153.624 54.4711 154.966C54.4829 155.765 54.1789 156.308 53.5529 156.688C52.6244 157.25 51.7241 157.871 50.7896 158.421C50.3209 158.697 50.1222 159.029 50.1355 159.64C50.1756 161.336 50.137 163.033 50.1533 164.73C50.1622 165.627 49.8982 166.295 49.1373 166.727C48.3497 167.174 47.608 167.721 46.8338 168.198C46.1129 168.641 45.8504 168.469 45.8474 167.57C45.8415 165.637 45.8459 163.702 45.8459 161.612C44.6742 162.363 43.6166 163.04 42.5605 163.72C41.7358 164.25 41.4511 164.096 41.4318 163.053C41.4095 161.821 41.3962 160.589 41.4362 159.359C41.4629 158.513 41.7091 157.803 42.4982 157.373C43.4905 156.832 44.4146 156.141 45.3876 155.551C45.7391 155.338 45.8608 155.088 45.8548 154.646C45.8311 152.839 45.8519 151.032 45.843 149.227C45.8385 148.416 46.1233 147.823 46.7789 147.427C47.5991 146.931 48.3957 146.389 49.21 145.878C49.8908 145.451 50.1414 145.608 50.1459 146.481C50.1548 148.422 50.1489 150.364 50.1489 152.484Z" fill="white"/>
<path d="M222.642 153.025C224.333 150.17 226.487 147.862 229.227 146.259C232.111 144.57 235.164 143.55 238.443 143.447C238.706 143.438 238.979 143.378 239.253 143.659C234.777 143.992 230.631 145.327 227.042 148.455C228.494 148.494 229.918 148.598 231.29 149.142C232.65 149.68 233.906 150.375 235.039 151.665C234.529 151.752 234.348 151.499 234.152 151.333C231.896 149.418 229.359 148.662 226.537 149.03C226.291 149.063 226.14 149.197 225.968 149.357C224.722 150.507 223.784 151.936 222.923 153.437C222.782 153.682 222.733 154.005 222.46 154.147C222.527 153.772 222.467 153.375 222.642 153.025Z" fill="#F9FAFA"/>
<path d="M224.008 138.537C225.314 136.796 226.613 135.055 228.199 133.601C230.32 131.658 232.593 130.028 235.244 129.109C235.533 129.008 235.805 128.921 236.098 129.059C236.143 129.398 235.88 129.406 235.72 129.455C232.809 130.352 230.382 132.164 228.12 134.312C226.561 135.792 225.297 137.558 224.013 139.307C224.013 139.051 224.011 138.793 224.008 138.537Z" fill="#F6F9F9"/>
<path d="M207.05 53.0477C206.979 53.4502 206.797 53.7524 206.423 53.7113C206.077 53.6736 205.858 53.4222 205.888 52.9853C205.913 52.5878 206.138 52.3841 206.454 52.3775C206.831 52.371 206.982 52.6913 207.05 53.0477Z" fill="#283138"/>
<path d="M211.374 53.4782C211.319 53.8609 211.152 54.1319 210.754 54.1237C210.394 54.1171 210.205 53.879 210.201 53.5012C210.196 53.0774 210.437 52.8228 210.802 52.8277C211.132 52.8326 211.331 53.084 211.374 53.4782Z" fill="#283137"/>
<path d="M206.782 50.7035C206.427 50.9795 206.114 51.2308 205.794 51.4723C205.656 51.5757 205.552 51.4887 205.511 51.3458C205.417 51.0255 205.539 50.7577 205.733 50.5311C205.944 50.283 206.205 50.2452 206.473 50.3947C206.574 50.4522 206.65 50.5688 206.782 50.7035Z" fill="#2B3238"/>
<path d="M211.976 51.5315C211.938 51.7073 212 52.044 211.746 51.911C211.39 51.7237 210.931 51.5743 210.818 51.0913C210.764 50.8614 211.058 50.7957 211.258 50.7989C211.7 50.8039 211.927 51.0716 211.976 51.5315Z" fill="#273138"/>
</svg>
