<svg width="23" height="25" viewBox="0 0 23 25" fill="none" xmlns="http://www.w3.org/2000/svg">
<path d="M11.4021 13.4707C11.4301 13.4707 11.4581 13.4707 11.4917 13.4707C11.5029 13.4707 11.5141 13.4707 11.5252 13.4707C11.542 13.4707 11.5644 13.4707 11.5812 13.4707C13.2219 13.4448 14.5489 12.9116 15.5289 11.8917C17.6846 9.64485 17.3263 5.79313 17.2871 5.42555C17.1471 2.66618 15.736 1.34603 14.5713 0.729965C13.7034 0.269207 12.6899 0.0207082 11.5588 0H11.5197C11.5141 0 11.5029 0 11.4973 0H11.4637C10.8421 0 9.62144 0.093187 8.45116 0.709257C7.27527 1.32533 5.84182 2.64548 5.70183 5.42555C5.66263 5.79313 5.30427 9.64485 7.46006 11.8917C8.43436 12.9116 9.76143 13.4448 11.4021 13.4707ZM7.19688 5.55498C7.19688 5.53945 7.20248 5.52392 7.20248 5.51356C7.38726 1.80162 10.2374 1.40298 11.4581 1.40298H11.4805C11.4917 1.40298 11.5085 1.40298 11.5252 1.40298C13.0371 1.43404 15.6072 2.00352 15.7808 5.51356C15.7808 5.5291 15.7808 5.54463 15.7864 5.55498C15.792 5.59122 16.184 9.11162 14.4034 10.965C13.6978 11.7001 12.7571 12.0625 11.5197 12.0729C11.5085 12.0729 11.5029 12.0729 11.4917 12.0729C11.4805 12.0729 11.4749 12.0729 11.4637 12.0729C10.2318 12.0625 9.28547 11.7001 8.58554 10.965C6.81052 9.12197 7.19128 5.58604 7.19688 5.55498Z" fill="#828282"/>
<path d="M22.9984 19.8592C22.9984 19.854 22.9984 19.8488 22.9984 19.8437C22.9984 19.8022 22.9928 19.7608 22.9928 19.7142C22.9592 18.6892 22.8864 16.2922 20.4563 15.526C20.4395 15.5208 20.4171 15.5156 20.4003 15.5105C17.8749 14.9151 15.7752 13.5691 15.7528 13.5535C15.4112 13.3309 14.9408 13.4086 14.7001 13.7244C14.4593 14.0402 14.5433 14.475 14.8848 14.6977C14.98 14.7598 17.2086 16.1938 19.9971 16.8565C21.3018 17.2862 21.4474 18.5753 21.4866 19.7556C21.4866 19.8022 21.4866 19.8437 21.4922 19.8851C21.4978 20.351 21.4642 21.0706 21.3746 21.4848C20.4675 21.9611 16.9118 23.6074 11.5028 23.6074C6.11612 23.6074 2.53807 21.9559 1.62536 21.4796C1.53577 21.0654 1.49658 20.3458 1.50777 19.8799C1.50777 19.8385 1.51337 19.7971 1.51337 19.7505C1.55257 18.5701 1.69815 17.281 3.00283 16.8513C5.79135 16.1887 8.01993 14.7494 8.11512 14.6925C8.45668 14.4699 8.54067 14.035 8.2999 13.7192C8.05912 13.4034 7.58877 13.3257 7.2472 13.5484C7.2248 13.5639 5.13621 14.9099 2.59967 15.5053C2.57727 15.5105 2.56047 15.5156 2.54367 15.5208C0.113513 16.2922 0.0407202 18.6892 0.00712354 19.7091C0.00712354 19.7556 0.00712341 19.7971 0.00152397 19.8385C0.00152397 19.8437 0.00152397 19.8488 0.00152397 19.854C-0.00407547 20.1232 -0.0096748 21.5055 0.287096 22.1992C0.34309 22.3338 0.44388 22.4477 0.578267 22.5254C0.74625 22.6289 4.77225 25 11.5084 25C18.2445 25 22.2705 22.6237 22.4385 22.5254C22.5673 22.4477 22.6737 22.3338 22.7297 22.1992C23.0096 21.5107 23.004 20.1284 22.9984 19.8592Z" fill="#828282"/>
</svg>
