<svg width="25" height="22" viewBox="0 0 25 22" fill="none" xmlns="http://www.w3.org/2000/svg">
<path d="M24.0921 9.03009H23.6458C23.2407 6.8418 22.1626 4.82725 20.5093 3.22187C18.3701 1.14416 15.5254 0 12.5 0C9.47456 0 6.62994 1.14416 4.49066 3.22187C2.82555 4.83892 1.74351 6.87088 1.34525 9.07769H0.907898C0.407219 9.07769 0 9.47316 0 9.95938V13.1635C0 13.6495 0.407219 14.0452 0.907898 14.0452H1.6161C2.22092 16.0849 3.42693 17.9326 5.12257 19.3472C5.27611 19.4751 5.50747 19.4583 5.63946 19.3092C5.77145 19.1599 5.7539 18.9352 5.60036 18.807C5.16167 18.4412 4.75826 18.0441 4.39186 17.621C4.95224 17.3917 5.52483 17.2026 6.10161 17.0475C6.3755 17.5169 6.68278 17.9698 7.02362 18.4023C7.77035 19.3501 8.61359 20.184 9.51233 20.8714C8.7656 20.6589 8.04348 20.367 7.36237 19.9993C7.18536 19.9039 6.9622 19.9658 6.86398 20.1377C6.76556 20.3096 6.82926 20.5263 7.00626 20.6219C8.67729 21.5234 10.577 22 12.5 22C15.5254 22 18.3699 20.8558 20.5093 18.7781C21.8836 17.4437 22.86 15.8261 23.3833 14.0615H24.0921C24.5928 14.0615 25 13.666 25 13.1798V9.91178C25 9.42574 24.5928 9.03009 24.0921 9.03009ZM22.8994 9.03009H20.3493C20.3188 8.8456 20.285 8.66112 20.2457 8.47681C20.0279 7.45565 19.6875 6.4806 19.2299 5.5602C19.2974 5.54223 19.3653 5.52464 19.4324 5.50611C19.8992 5.37645 20.4933 5.20011 21.077 4.95765C21.9885 6.17294 22.607 7.55808 22.8994 9.03009ZM19.6144 9.07769H15.8264C15.8138 8.89913 15.8001 8.72057 15.7839 8.54238C15.7112 7.7459 15.604 6.97479 15.4659 6.2374C16.5167 6.13144 17.5316 5.96567 18.5053 5.7408C18.9697 6.64638 19.3121 7.60994 19.5278 8.62129C19.5602 8.77318 19.5883 8.92544 19.6144 9.07769ZM19.9909 3.72514C20.2068 3.93482 20.4119 4.15228 20.6066 4.37622C20.1183 4.56663 19.627 4.71148 19.2308 4.82151C19.116 4.85337 19.0004 4.88393 18.8845 4.91394C18.6527 4.51051 18.3981 4.11838 18.1192 3.73903C17.3885 2.74546 16.522 1.87563 15.5327 1.13786C17.1995 1.61909 18.7269 2.49763 19.9909 3.72514ZM13.6305 0.770182C15.1873 1.62001 16.4968 2.75769 17.5226 4.15283C17.7462 4.45716 17.9531 4.77038 18.1446 5.0912C17.2392 5.2918 16.2971 5.44054 15.3227 5.5363C14.8983 3.61752 14.2555 1.96472 13.4504 0.753326C13.5105 0.758327 13.5706 0.763884 13.6305 0.770182ZM12.5 0.71202C12.509 0.71202 12.5177 0.712205 12.5267 0.712205C13.4174 1.85377 14.1296 3.55899 14.5884 5.59817C13.8052 5.653 13.003 5.67541 12.183 5.66374C11.6264 5.65596 11.0308 5.63911 10.4107 5.60243C10.8694 3.56139 11.582 1.85451 12.4733 0.712205C12.4823 0.712205 12.491 0.71202 12.5 0.71202ZM11.5496 0.753326C10.7424 1.9675 10.0986 3.6253 9.67426 5.54964C8.75397 5.47185 7.79305 5.34311 6.83174 5.13047C7.02972 4.79576 7.24449 4.46939 7.47738 4.15265C8.50315 2.75769 9.81274 1.62001 11.3695 0.769996C11.4294 0.763884 11.4895 0.758327 11.5496 0.753326ZM9.53121 6.2524C9.39445 6.98516 9.28822 7.75127 9.21612 8.54238C9.19991 8.72057 9.18617 8.89913 9.17377 9.07769H5.38521C5.41115 8.92544 5.43976 8.77318 5.47218 8.62129C5.68466 7.62476 6.02074 6.67491 6.47469 5.78081C7.50961 6.02198 8.54359 6.1659 9.53121 6.2524ZM5.00908 3.72514C6.27308 2.49763 7.80048 1.61909 9.46732 1.13786C8.47778 1.87563 7.61127 2.74546 6.88076 3.73903C6.59351 4.12968 6.33202 4.53422 6.09493 4.95061C5.52025 4.79595 4.94957 4.6072 4.39129 4.37862C4.5866 4.15394 4.7924 3.93574 5.00908 3.72514ZM3.92265 4.95839C4.52271 5.21419 5.13573 5.42387 5.75237 5.59595C5.30376 6.50598 4.96922 7.4688 4.75426 8.47681C4.71172 8.67686 4.67491 8.87728 4.64268 9.07769H2.09103C2.37942 7.58808 3.00159 6.18646 3.92265 4.95839ZM0.907898 13.3331C0.811577 13.3331 0.733185 13.257 0.733185 13.1633V9.9592C0.733185 9.86566 0.811577 9.78953 0.907898 9.78953H11.4899C11.6924 9.78953 11.8565 9.63023 11.8565 9.43352C11.8565 9.23699 11.6924 9.07751 11.4899 9.07751H9.90829C9.91974 8.92006 9.93214 8.76244 9.94644 8.60518C10.0191 7.80851 10.1267 7.03962 10.2655 6.30704C10.9343 6.34872 11.5751 6.36724 12.1725 6.37558C12.3171 6.37761 12.4613 6.37873 12.6051 6.37873C13.3284 6.37873 14.0381 6.35242 14.7335 6.3013C14.8727 7.03555 14.9807 7.80647 15.0536 8.60518C15.0679 8.76244 15.0805 8.92006 15.0919 9.07751H13.7787C13.5763 9.07751 13.4121 9.23699 13.4121 9.43352C13.4121 9.63023 13.5763 9.78953 13.7787 9.78953H19.4649V13.333H0.907898V13.3331ZM19.3769 14.045C19.1658 14.8103 18.8736 15.5524 18.503 16.2585C17.531 16.0341 16.5184 15.868 15.4696 15.762C15.5748 15.2054 15.6612 14.6316 15.728 14.0452H19.3769V14.045ZM14.9912 14.045C14.925 14.6105 14.8399 15.1632 14.7367 15.6989C13.9021 15.6374 13.0468 15.6118 12.1725 15.6242C11.574 15.6326 10.932 15.6511 10.2621 15.693C10.1595 15.1591 10.0748 14.6084 10.0088 14.045H14.9912ZM3.92494 17.0407C3.24402 16.1294 2.72293 15.1173 2.38094 14.045H4.8666C5.07717 14.8592 5.37281 15.65 5.75218 16.4041C5.1363 16.5759 4.52404 16.7853 3.92494 17.0407ZM5.62382 14.045H9.27143C9.33762 14.6266 9.42345 15.1958 9.52759 15.748C8.54149 15.8343 7.50923 15.9782 6.47621 16.2186C6.11553 15.5246 5.83096 14.7959 5.62382 14.045ZM11.3659 21.2276C9.99432 20.4772 8.69484 19.3518 7.60593 17.9696C7.32708 17.616 7.07283 17.2474 6.84166 16.8671C7.79896 16.656 8.75568 16.528 9.67216 16.4504C9.81712 17.097 9.98898 17.716 10.187 18.2978C10.4792 19.1553 10.9379 20.299 11.5547 21.2461C11.4918 21.2407 11.4288 21.2343 11.3659 21.2276ZM12.5 21.288C12.491 21.288 12.4823 21.2876 12.4733 21.2876C11.8961 20.545 11.3472 19.4366 10.8831 18.0743C10.7029 17.5451 10.5455 16.9834 10.4109 16.3974C11.031 16.3609 11.6264 16.3439 12.183 16.3361C13.003 16.3248 13.805 16.3472 14.5882 16.402C14.4537 16.9864 14.2965 17.5465 14.1169 18.0743C13.653 19.4366 13.1039 20.545 12.5267 21.2876C12.5177 21.2878 12.509 21.288 12.5 21.288ZM13.4445 21.2472C14.0617 20.3 14.5208 19.1556 14.8129 18.2978C15.0097 17.7201 15.1804 17.1059 15.3246 16.4641C16.2949 16.5595 17.2327 16.7071 18.1343 16.9064C17.9096 17.2728 17.6632 17.6282 17.3941 17.9696C16.304 19.3531 15.0032 20.4795 13.6303 21.2298C13.5685 21.2361 13.5065 21.2419 13.4445 21.2472ZM19.9909 18.2747C18.7138 19.515 17.1677 20.3989 15.4808 20.8766C16.382 20.1883 17.2277 19.3525 17.9764 18.4023C18.3084 17.9811 18.6083 17.5402 18.8766 17.0838C18.9953 17.1146 19.1135 17.1459 19.2308 17.1783C19.6266 17.2883 20.1176 17.4332 20.6057 17.6234C20.4109 17.8474 20.2068 18.0652 19.9909 18.2747ZM21.0758 17.0418C20.4926 16.7997 19.8988 16.6234 19.4324 16.4939C19.3653 16.4752 19.2974 16.4578 19.2299 16.4398C19.6154 15.6802 19.9154 14.8826 20.129 14.0615H22.617C22.2767 15.1271 21.7583 16.132 21.0758 17.0418ZM24.2668 13.1635C24.2668 13.257 24.1884 13.3331 24.0921 13.3331H20.1979V9.78953H24.0921C24.1884 9.78953 24.2668 9.86584 24.2668 9.95938V13.1635Z" fill="#828282"/>
<path d="M2.77442 12.2499C2.77442 12.3025 2.69298 12.3577 2.59818 12.3577C2.49538 12.3577 2.4248 12.3025 2.4248 12.2499V10.4849C2.4248 10.4217 2.49538 10.3795 2.59818 10.3795C2.69298 10.3795 2.77442 10.4217 2.77442 10.4849V11.2923C2.82306 11.1899 2.94494 11.0924 3.11565 11.0924C3.36475 11.0924 3.58142 11.3345 3.58142 11.6264V12.2497C3.58142 12.3209 3.49216 12.3577 3.40537 12.3577C3.32412 12.3577 3.23199 12.3209 3.23199 12.2497V11.6264C3.23199 11.5081 3.12366 11.3897 2.99644 11.3897C2.88543 11.3897 2.77423 11.479 2.77423 11.6264V12.2499H2.77442Z" fill="#828282"/>
<path d="M4.3507 11.9315C4.3507 12.0341 4.38866 12.071 4.50253 12.071H4.60819C4.70833 12.071 4.75716 12.1421 4.75716 12.2131C4.75716 12.2868 4.70833 12.3577 4.60819 12.3577H4.50253C4.17751 12.3577 4.00146 12.2288 4.00146 11.9315V10.6558C4.00146 10.5927 4.0934 10.5506 4.17484 10.5506C4.26411 10.5506 4.35089 10.5927 4.35089 10.6558V11.1082H4.67056C4.7274 11.1082 4.75983 11.1713 4.75983 11.2319C4.75983 11.2949 4.7274 11.3554 4.67056 11.3554H4.35089V11.9315H4.3507Z" fill="#828282"/>
<path d="M5.45343 11.9315C5.45343 12.0341 5.4912 12.071 5.60506 12.071H5.71073C5.81087 12.071 5.8597 12.1421 5.8597 12.2131C5.8597 12.2868 5.81087 12.3577 5.71073 12.3577H5.60506C5.28005 12.3577 5.104 12.2288 5.104 11.9315V10.6558C5.104 10.5927 5.19613 10.5506 5.27738 10.5506C5.36684 10.5506 5.45343 10.5927 5.45343 10.6558V11.1082H5.7731C5.82994 11.1082 5.86237 11.1713 5.86237 11.2319C5.86237 11.2949 5.82994 11.3554 5.7731 11.3554H5.45343V11.9315Z" fill="#828282"/>
<path d="M6.5396 11.2134V11.2923C6.60178 11.1899 6.73186 11.0924 6.90524 11.0924C7.17608 11.0924 7.39008 11.3345 7.39008 11.6265V11.8421C7.39008 12.1236 7.16807 12.3814 6.91611 12.3814C6.7536 12.3814 6.61265 12.2814 6.56134 12.1736V12.8312C6.56134 12.8864 6.48009 12.939 6.38243 12.939C6.2823 12.939 6.21191 12.8864 6.21191 12.8312V11.2134C6.21191 11.1502 6.28497 11.1082 6.37709 11.1082C6.47189 11.1082 6.5396 11.1502 6.5396 11.2134ZM7.04066 11.6265C7.04066 11.5081 6.92965 11.3897 6.79423 11.3897C6.68055 11.3897 6.56134 11.479 6.56134 11.6265V11.8895C6.56134 11.9447 6.66148 12.0842 6.79957 12.0842C6.92698 12.0842 7.04066 11.9632 7.04066 11.8421V11.6265Z" fill="#828282"/>
<path d="M8.38437 12.0104C8.38437 11.7791 7.74236 11.9237 7.74236 11.4844C7.74236 11.2977 7.86423 11.0924 8.2272 11.0924C8.44674 11.0924 8.65788 11.1662 8.65788 11.2634C8.65788 11.3108 8.61192 11.4266 8.53066 11.4266C8.46562 11.4266 8.3817 11.3503 8.23273 11.3503C8.09731 11.3503 8.04314 11.416 8.04314 11.4686C8.04314 11.6607 8.69317 11.5292 8.69317 11.9973C8.69317 12.2316 8.51445 12.3814 8.19478 12.3814C7.91859 12.3814 7.70459 12.2709 7.70459 12.1551C7.70459 12.0999 7.75323 12.0052 7.82094 12.0052C7.89952 12.0052 7.95922 12.1236 8.18677 12.1236C8.34641 12.1236 8.38437 12.063 8.38437 12.0104Z" fill="#828282"/>
<path d="M9.41105 11.4266C9.41105 11.5212 9.32713 11.6053 9.22966 11.6053C9.12399 11.6053 9.04541 11.5212 9.04541 11.4266C9.04541 11.3292 9.12399 11.2477 9.22966 11.2477C9.32713 11.2477 9.41105 11.3292 9.41105 11.4266ZM9.41105 12.1945C9.41105 12.2894 9.32713 12.3735 9.22966 12.3735C9.12399 12.3735 9.04541 12.2894 9.04541 12.1945C9.04541 12.0973 9.12399 12.0158 9.22966 12.0158C9.32713 12.0158 9.41105 12.0973 9.41105 12.1945Z" fill="#828282"/>
<path d="M10.9578 10.448C10.9578 10.4638 10.9551 10.4795 10.9469 10.4952L9.97452 12.4051C9.95544 12.4418 9.91215 12.4629 9.86885 12.4629C9.79027 12.4629 9.73877 12.4025 9.73877 12.3472C9.73877 12.3314 9.7443 12.3157 9.75231 12.3025L10.7247 10.3848C10.7438 10.348 10.7817 10.3297 10.8223 10.3297C10.8874 10.3297 10.9578 10.3769 10.9578 10.448Z" fill="#828282"/>
<path d="M11.7761 10.448C11.7761 10.4638 11.7733 10.4795 11.7652 10.4952L10.7927 12.4051C10.7738 12.4418 10.7305 12.4629 10.6872 12.4629C10.6086 12.4629 10.5571 12.4025 10.5571 12.3472C10.5571 12.3314 10.5625 12.3157 10.5707 12.3025L11.543 10.3848C11.5621 10.348 11.5999 10.3297 11.6407 10.3297C11.7055 10.3297 11.7761 10.3769 11.7761 10.448Z" fill="#828282"/>
<path d="M13.3419 12.3261C13.3228 12.3709 13.2633 12.3866 13.2038 12.3866C13.1361 12.3866 13.0764 12.3655 13.0602 12.3261L12.8515 11.7526L12.6457 12.3235C12.6295 12.3655 12.5645 12.3866 12.4968 12.3866C12.4399 12.3866 12.3802 12.3709 12.3613 12.3235L11.9442 11.2845C11.9333 11.2634 11.9307 11.2477 11.9307 11.2345C11.9307 11.153 12.0661 11.095 12.1582 11.095C12.2042 11.095 12.2448 11.1134 12.2583 11.1502L12.5292 11.8973L12.7323 11.2475C12.7514 11.1871 12.7974 11.1791 12.8515 11.1791C12.903 11.1791 12.9519 11.1871 12.9707 11.2475L13.1712 11.8999L13.4447 11.1502C13.4583 11.116 13.4962 11.095 13.545 11.095C13.6316 11.095 13.7699 11.1528 13.7699 11.2371C13.7699 11.2528 13.7672 11.2712 13.759 11.2845L13.3419 12.3261Z" fill="#828282"/>
<path d="M15.3815 12.3261C15.3626 12.3709 15.3031 12.3866 15.2434 12.3866C15.1757 12.3866 15.1161 12.3655 15.0997 12.3261L14.8913 11.7526L14.6853 12.3235C14.6691 12.3655 14.6042 12.3866 14.5363 12.3866C14.4795 12.3866 14.42 12.3709 14.4009 12.3235L13.9838 11.2845C13.9729 11.2634 13.9702 11.2477 13.9702 11.2345C13.9702 11.153 14.1056 11.095 14.1978 11.095C14.2437 11.095 14.2844 11.1134 14.2981 11.1502L14.5689 11.8973L14.7721 11.2475C14.7909 11.1871 14.8371 11.1791 14.8913 11.1791C14.9428 11.1791 14.9914 11.1871 15.0103 11.2475L15.2108 11.8999L15.4845 11.1502C15.498 11.116 15.536 11.095 15.5846 11.095C15.6714 11.095 15.8095 11.1528 15.8095 11.2371C15.8095 11.2528 15.8068 11.2712 15.7986 11.2845L15.3815 12.3261Z" fill="#828282"/>
<path d="M17.4215 12.3261C17.4026 12.3709 17.3431 12.3866 17.2834 12.3866C17.2157 12.3866 17.1562 12.3655 17.1398 12.3261L16.9313 11.7526L16.7253 12.3235C16.7091 12.3655 16.6441 12.3866 16.5764 12.3866C16.5195 12.3866 16.46 12.3709 16.4409 12.3235L16.0238 11.2845C16.0129 11.2634 16.0103 11.2477 16.0103 11.2345C16.0103 11.153 16.1457 11.095 16.2378 11.095C16.2838 11.095 16.3244 11.1134 16.3381 11.1502L16.609 11.8973L16.8121 11.2475C16.831 11.1871 16.877 11.1791 16.9311 11.1791C16.9826 11.1791 17.0314 11.1871 17.0503 11.2475L17.2508 11.8999L17.5245 11.1502C17.5378 11.116 17.576 11.095 17.6246 11.095C17.7112 11.095 17.8495 11.1528 17.8495 11.2371C17.8495 11.2528 17.8468 11.2712 17.8386 11.2845L17.4215 12.3261Z" fill="#828282"/>
</svg>
